<svg xmlns="http://www.w3.org/2000/svg" xmlns:xlink="http://www.w3.org/1999/xlink" width="627" zoomAndPan="magnify" viewBox="0 0 470.25 145.500001" height="194" preserveAspectRatio="xMidYMid meet" version="1.0"><defs><g/></defs><g fill="#ffffff" fill-opacity="1"><g transform="translate(174.569402, 37.884348)"><g><path d="M 22.9375 0 L 21.734375 -15.109375 L 21.578125 -15.109375 L 16.34375 -0.15625 L 12.890625 -0.15625 L 7.671875 -15.109375 L 7.515625 -15.109375 L 6.3125 0 L 0.5 0 L 2.78125 -25.5 L 8.96875 -25.5 L 14.625 -10.78125 L 20.28125 -25.5 L 26.453125 -25.5 L 28.75 0 Z M 22.9375 0 "/></g></g></g><g fill="#ffffff" fill-opacity="1"><g transform="translate(203.808024, 37.884348)"><g><path d="M 3.34375 -1.875 C 1.582031 -3.445312 0.703125 -5.457031 0.703125 -7.90625 C 0.703125 -10.363281 1.617188 -12.378906 3.453125 -13.953125 C 5.296875 -15.523438 7.566406 -16.3125 10.265625 -16.3125 C 12.921875 -16.3125 15.160156 -15.519531 16.984375 -13.9375 C 18.804688 -12.351562 19.71875 -10.34375 19.71875 -7.90625 C 19.71875 -5.476562 18.828125 -3.472656 17.046875 -1.890625 C 15.265625 -0.316406 13.003906 0.46875 10.265625 0.46875 C 7.421875 0.46875 5.113281 -0.3125 3.34375 -1.875 Z M 7.578125 -10.59375 C 6.867188 -9.894531 6.515625 -9 6.515625 -7.90625 C 6.515625 -6.820312 6.851562 -5.929688 7.53125 -5.234375 C 8.21875 -4.546875 9.117188 -4.203125 10.234375 -4.203125 C 11.304688 -4.203125 12.1875 -4.550781 12.875 -5.25 C 13.5625 -5.957031 13.90625 -6.84375 13.90625 -7.90625 C 13.90625 -9 13.550781 -9.894531 12.84375 -10.59375 C 12.132812 -11.300781 11.265625 -11.65625 10.234375 -11.65625 C 9.179688 -11.65625 8.296875 -11.300781 7.578125 -10.59375 Z M 7.578125 -10.59375 "/></g></g></g><g fill="#ffffff" fill-opacity="1"><g transform="translate(224.237973, 37.884348)"><g><path d="M 2.78125 -15.859375 L 2.78125 -21.765625 L 8.25 -21.765625 L 8.25 -15.859375 L 11.59375 -15.859375 L 11.59375 -11.6875 L 8.25 -11.6875 L 8.25 -6.640625 C 8.25 -5.179688 8.660156 -4.453125 9.484375 -4.453125 C 9.691406 -4.453125 9.910156 -4.492188 10.140625 -4.578125 C 10.367188 -4.660156 10.539062 -4.742188 10.65625 -4.828125 L 10.84375 -4.9375 L 12.203125 -0.53125 C 11.035156 0.132812 9.695312 0.46875 8.1875 0.46875 C 7.15625 0.46875 6.269531 0.285156 5.53125 -0.078125 C 4.789062 -0.441406 4.226562 -0.925781 3.84375 -1.53125 C 3.46875 -2.132812 3.195312 -2.769531 3.03125 -3.4375 C 2.863281 -4.113281 2.78125 -4.832031 2.78125 -5.59375 L 2.78125 -11.6875 L 0.5 -11.6875 L 0.5 -15.859375 Z M 2.78125 -15.859375 "/></g></g></g><g fill="#ffffff" fill-opacity="1"><g transform="translate(236.446494, 37.884348)"><g><path d="M 2.375 -24.6875 C 3.019531 -25.332031 3.785156 -25.65625 4.671875 -25.65625 C 5.554688 -25.65625 6.316406 -25.332031 6.953125 -24.6875 C 7.585938 -24.050781 7.90625 -23.289062 7.90625 -22.40625 C 7.90625 -21.519531 7.585938 -20.753906 6.953125 -20.109375 C 6.316406 -19.472656 5.554688 -19.15625 4.671875 -19.15625 C 3.785156 -19.15625 3.019531 -19.472656 2.375 -20.109375 C 1.738281 -20.753906 1.421875 -21.519531 1.421875 -22.40625 C 1.421875 -23.289062 1.738281 -24.050781 2.375 -24.6875 Z M 1.859375 -15.859375 L 1.859375 0 L 7.328125 0 L 7.328125 -15.859375 Z M 1.859375 -15.859375 "/></g></g></g><g fill="#ffffff" fill-opacity="1"><g transform="translate(245.780595, 37.884348)"><g><path d="M 3.34375 -1.875 C 1.582031 -3.445312 0.703125 -5.457031 0.703125 -7.90625 C 0.703125 -10.363281 1.617188 -12.378906 3.453125 -13.953125 C 5.296875 -15.523438 7.566406 -16.3125 10.265625 -16.3125 C 12.921875 -16.3125 15.160156 -15.519531 16.984375 -13.9375 C 18.804688 -12.351562 19.71875 -10.34375 19.71875 -7.90625 C 19.71875 -5.476562 18.828125 -3.472656 17.046875 -1.890625 C 15.265625 -0.316406 13.003906 0.46875 10.265625 0.46875 C 7.421875 0.46875 5.113281 -0.3125 3.34375 -1.875 Z M 7.578125 -10.59375 C 6.867188 -9.894531 6.515625 -9 6.515625 -7.90625 C 6.515625 -6.820312 6.851562 -5.929688 7.53125 -5.234375 C 8.21875 -4.546875 9.117188 -4.203125 10.234375 -4.203125 C 11.304688 -4.203125 12.1875 -4.550781 12.875 -5.25 C 13.5625 -5.957031 13.90625 -6.84375 13.90625 -7.90625 C 13.90625 -9 13.550781 -9.894531 12.84375 -10.59375 C 12.132812 -11.300781 11.265625 -11.65625 10.234375 -11.65625 C 9.179688 -11.65625 8.296875 -11.300781 7.578125 -10.59375 Z M 7.578125 -10.59375 "/></g></g></g><g fill="#ffffff" fill-opacity="1"><g transform="translate(266.210544, 37.884348)"><g><path d="M 1.859375 0 L 1.859375 -15.859375 L 7.328125 -15.859375 L 7.328125 -14.1875 L 7.390625 -14.1875 C 8.804688 -15.601562 10.320312 -16.3125 11.9375 -16.3125 C 12.71875 -16.3125 13.492188 -16.207031 14.265625 -16 C 15.035156 -15.800781 15.773438 -15.484375 16.484375 -15.046875 C 17.203125 -14.617188 17.78125 -14.003906 18.21875 -13.203125 C 18.664062 -12.410156 18.890625 -11.492188 18.890625 -10.453125 L 18.890625 0 L 13.40625 0 L 13.40625 -8.96875 C 13.40625 -9.789062 13.144531 -10.507812 12.625 -11.125 C 12.101562 -11.738281 11.414062 -12.046875 10.5625 -12.046875 C 9.738281 -12.046875 8.992188 -11.726562 8.328125 -11.09375 C 7.660156 -10.457031 7.328125 -9.75 7.328125 -8.96875 L 7.328125 0 Z M 1.859375 0 "/></g></g></g><g fill="#ffffff" fill-opacity="1"><g transform="translate(286.641033, 37.884348)"><g/></g></g><g fill="#ffffff" fill-opacity="1"><g transform="translate(158.964643, 80.39886)"><g><path d="M 0.25 -20.390625 L 0.25 -25.5 L 18.171875 -25.5 L 18.171875 -20.390625 L 12.109375 -20.390625 L 12.109375 0 L 6.3125 0 L 6.3125 -20.390625 Z M 0.25 -20.390625 "/></g></g></g><g fill="#ffffff" fill-opacity="1"><g transform="translate(177.385589, 80.39886)"><g><path d="M 1.859375 0 L 1.859375 -15.859375 L 7.328125 -15.859375 L 7.328125 -13.5625 L 7.390625 -13.5625 C 7.429688 -13.644531 7.492188 -13.75 7.578125 -13.875 C 7.671875 -14 7.875 -14.210938 8.1875 -14.515625 C 8.5 -14.828125 8.828125 -15.109375 9.171875 -15.359375 C 9.523438 -15.609375 9.976562 -15.828125 10.53125 -16.015625 C 11.09375 -16.210938 11.660156 -16.3125 12.234375 -16.3125 C 12.835938 -16.3125 13.425781 -16.226562 14 -16.0625 C 14.570312 -15.90625 14.992188 -15.742188 15.265625 -15.578125 L 15.703125 -15.328125 L 13.40625 -10.6875 C 12.726562 -11.269531 11.78125 -11.5625 10.5625 -11.5625 C 9.90625 -11.5625 9.335938 -11.414062 8.859375 -11.125 C 8.390625 -10.832031 8.054688 -10.476562 7.859375 -10.0625 C 7.671875 -9.65625 7.535156 -9.304688 7.453125 -9.015625 C 7.367188 -8.734375 7.328125 -8.507812 7.328125 -8.34375 L 7.328125 0 Z M 1.859375 0 "/></g></g></g><g fill="#ffffff" fill-opacity="1"><g transform="translate(192.777591, 80.39886)"><g><path d="M 2.921875 -1.953125 C 1.441406 -3.578125 0.703125 -5.5625 0.703125 -7.90625 C 0.703125 -10.257812 1.441406 -12.25 2.921875 -13.875 C 4.410156 -15.5 6.300781 -16.3125 8.59375 -16.3125 C 10.695312 -16.3125 12.425781 -15.65625 13.78125 -14.34375 L 13.78125 -15.859375 L 19.25 -15.859375 L 19.25 0 L 13.84375 0 L 13.84375 -1.796875 L 13.78125 -1.796875 C 12.425781 -0.285156 10.695312 0.46875 8.59375 0.46875 C 6.300781 0.46875 4.410156 -0.335938 2.921875 -1.953125 Z M 7.578125 -10.59375 C 6.867188 -9.894531 6.515625 -9 6.515625 -7.90625 C 6.515625 -6.820312 6.851562 -5.929688 7.53125 -5.234375 C 8.21875 -4.546875 9.117188 -4.203125 10.234375 -4.203125 C 11.304688 -4.203125 12.1875 -4.550781 12.875 -5.25 C 13.5625 -5.957031 13.90625 -6.84375 13.90625 -7.90625 C 13.90625 -9 13.550781 -9.894531 12.84375 -10.59375 C 12.132812 -11.300781 11.265625 -11.65625 10.234375 -11.65625 C 9.179688 -11.65625 8.296875 -11.300781 7.578125 -10.59375 Z M 7.578125 -10.59375 "/></g></g></g><g fill="#ffffff" fill-opacity="1"><g transform="translate(213.887505, 80.39886)"><g><path d="M 10.296875 -11.84375 C 9.265625 -11.84375 8.375 -11.457031 7.625 -10.6875 C 6.882812 -9.925781 6.515625 -9.007812 6.515625 -7.9375 C 6.515625 -6.851562 6.882812 -5.925781 7.625 -5.15625 C 8.375 -4.394531 9.265625 -4.015625 10.296875 -4.015625 C 10.785156 -4.015625 11.25 -4.078125 11.6875 -4.203125 C 12.132812 -4.328125 12.460938 -4.453125 12.671875 -4.578125 L 12.953125 -4.765625 L 14.796875 -0.953125 C 14.660156 -0.847656 14.460938 -0.71875 14.203125 -0.5625 C 13.941406 -0.414062 13.351562 -0.207031 12.4375 0.0625 C 11.519531 0.332031 10.535156 0.46875 9.484375 0.46875 C 7.160156 0.46875 5.113281 -0.347656 3.34375 -1.984375 C 1.582031 -3.628906 0.703125 -5.59375 0.703125 -7.875 C 0.703125 -10.1875 1.582031 -12.171875 3.34375 -13.828125 C 5.113281 -15.484375 7.160156 -16.3125 9.484375 -16.3125 C 10.535156 -16.3125 11.503906 -16.1875 12.390625 -15.9375 C 13.273438 -15.695312 13.90625 -15.453125 14.28125 -15.203125 L 14.796875 -14.828125 L 12.953125 -11.09375 C 12.273438 -11.59375 11.390625 -11.84375 10.296875 -11.84375 Z M 10.296875 -11.84375 "/></g></g></g><g fill="#ffffff" fill-opacity="1"><g transform="translate(229.063153, 80.39886)"><g><path d="M 19.96875 -15.859375 L 12.421875 -8.28125 L 20.703125 0 L 13.65625 0 L 7.328125 -6.328125 L 7.328125 0 L 1.859375 0 L 1.859375 -26.578125 L 7.328125 -26.578125 L 7.328125 -10.328125 L 12.859375 -15.859375 Z M 19.96875 -15.859375 "/></g></g></g><g fill="#ffffff" fill-opacity="1"><g transform="translate(249.029491, 80.39886)"><g><path d="M 2.375 -24.6875 C 3.019531 -25.332031 3.785156 -25.65625 4.671875 -25.65625 C 5.554688 -25.65625 6.316406 -25.332031 6.953125 -24.6875 C 7.585938 -24.050781 7.90625 -23.289062 7.90625 -22.40625 C 7.90625 -21.519531 7.585938 -20.753906 6.953125 -20.109375 C 6.316406 -19.472656 5.554688 -19.15625 4.671875 -19.15625 C 3.785156 -19.15625 3.019531 -19.472656 2.375 -20.109375 C 1.738281 -20.753906 1.421875 -21.519531 1.421875 -22.40625 C 1.421875 -23.289062 1.738281 -24.050781 2.375 -24.6875 Z M 1.859375 -15.859375 L 1.859375 0 L 7.328125 0 L 7.328125 -15.859375 Z M 1.859375 -15.859375 "/></g></g></g><g fill="#ffffff" fill-opacity="1"><g transform="translate(258.363592, 80.39886)"><g><path d="M 1.859375 0 L 1.859375 -15.859375 L 7.328125 -15.859375 L 7.328125 -14.1875 L 7.390625 -14.1875 C 8.804688 -15.601562 10.320312 -16.3125 11.9375 -16.3125 C 12.71875 -16.3125 13.492188 -16.207031 14.265625 -16 C 15.035156 -15.800781 15.773438 -15.484375 16.484375 -15.046875 C 17.203125 -14.617188 17.78125 -14.003906 18.21875 -13.203125 C 18.664062 -12.410156 18.890625 -11.492188 18.890625 -10.453125 L 18.890625 0 L 13.40625 0 L 13.40625 -8.96875 C 13.40625 -9.789062 13.144531 -10.507812 12.625 -11.125 C 12.101562 -11.738281 11.414062 -12.046875 10.5625 -12.046875 C 9.738281 -12.046875 8.992188 -11.726562 8.328125 -11.09375 C 7.660156 -10.457031 7.328125 -9.75 7.328125 -8.96875 L 7.328125 0 Z M 1.859375 0 "/></g></g></g><g fill="#ffffff" fill-opacity="1"><g transform="translate(278.793541, 80.39886)"><g><path d="M 1.140625 3.890625 L 5.625 1.703125 C 6.445312 3.054688 7.878906 3.734375 9.921875 3.734375 C 10.867188 3.734375 11.75 3.429688 12.5625 2.828125 C 13.375 2.222656 13.78125 1.289062 13.78125 0.03125 L 13.78125 -1.140625 C 12.8125 -0.0664062 11.082031 0.46875 8.59375 0.46875 C 6.300781 0.46875 4.410156 -0.335938 2.921875 -1.953125 C 1.441406 -3.578125 0.703125 -5.5625 0.703125 -7.90625 C 0.703125 -10.257812 1.441406 -12.25 2.921875 -13.875 C 4.410156 -15.5 6.300781 -16.3125 8.59375 -16.3125 C 10.632812 -16.3125 12.332031 -15.6875 13.6875 -14.4375 L 13.78125 -14.4375 L 13.78125 -15.859375 L 19.25 -15.859375 L 19.25 0.4375 C 19.25 3.007812 18.394531 4.992188 16.6875 6.390625 C 14.976562 7.796875 12.722656 8.5 9.921875 8.5 C 5.390625 8.5 2.460938 6.960938 1.140625 3.890625 Z M 7.578125 -10.59375 C 6.867188 -9.894531 6.515625 -9 6.515625 -7.90625 C 6.515625 -6.820312 6.851562 -5.929688 7.53125 -5.234375 C 8.21875 -4.546875 9.117188 -4.203125 10.234375 -4.203125 C 11.304688 -4.203125 12.1875 -4.550781 12.875 -5.25 C 13.5625 -5.957031 13.90625 -6.84375 13.90625 -7.90625 C 13.90625 -9 13.550781 -9.894531 12.84375 -10.59375 C 12.132812 -11.300781 11.265625 -11.65625 10.234375 -11.65625 C 9.179688 -11.65625 8.296875 -11.300781 7.578125 -10.59375 Z M 7.578125 -10.59375 "/></g></g></g><g fill="#ffffff" fill-opacity="1"><g transform="translate(299.903455, 80.39886)"><g><path d="M 5.375 -17.125 C 6.363281 -17.125 7.203125 -16.773438 7.890625 -16.078125 C 8.585938 -15.390625 8.9375 -14.550781 8.9375 -13.5625 C 8.9375 -12.59375 8.585938 -11.765625 7.890625 -11.078125 C 7.203125 -10.390625 6.363281 -10.046875 5.375 -10.046875 C 4.40625 -10.046875 3.578125 -10.390625 2.890625 -11.078125 C 2.203125 -11.765625 1.859375 -12.59375 1.859375 -13.5625 C 1.859375 -14.550781 2.203125 -15.390625 2.890625 -16.078125 C 3.578125 -16.773438 4.40625 -17.125 5.375 -17.125 Z M 5.375 -6.609375 C 6.363281 -6.609375 7.203125 -6.265625 7.890625 -5.578125 C 8.585938 -4.890625 8.9375 -4.050781 8.9375 -3.0625 C 8.9375 -2.09375 8.585938 -1.257812 7.890625 -0.5625 C 7.203125 0.125 6.363281 0.46875 5.375 0.46875 C 4.40625 0.46875 3.578125 0.125 2.890625 -0.5625 C 2.203125 -1.257812 1.859375 -2.09375 1.859375 -3.0625 C 1.859375 -4.050781 2.203125 -4.890625 2.890625 -5.578125 C 3.578125 -6.265625 4.40625 -6.609375 5.375 -6.609375 Z M 5.375 -6.609375 "/></g></g></g><g fill="#404e5e" fill-opacity="1"><g transform="translate(173.427777, 119.333872)"><g><path d="M 22.921875 0 L 21.71875 -15.109375 L 21.5625 -15.109375 L 16.34375 -0.15625 L 12.875 -0.15625 L 7.65625 -15.109375 L 7.5 -15.109375 L 6.296875 0 L 0.5 0 L 2.78125 -25.484375 L 8.953125 -25.484375 L 14.609375 -10.78125 L 20.265625 -25.484375 L 26.4375 -25.484375 L 28.734375 0 Z M 22.921875 0 "/></g></g></g><g fill="#404e5e" fill-opacity="1"><g transform="translate(202.649706, 119.333872)"><g><path d="M 3.34375 -1.875 C 1.582031 -3.445312 0.703125 -5.457031 0.703125 -7.90625 C 0.703125 -10.351562 1.617188 -12.363281 3.453125 -13.9375 C 5.285156 -15.519531 7.550781 -16.3125 10.25 -16.3125 C 12.90625 -16.3125 15.144531 -15.515625 16.96875 -13.921875 C 18.789062 -12.335938 19.703125 -10.332031 19.703125 -7.90625 C 19.703125 -5.476562 18.8125 -3.472656 17.03125 -1.890625 C 15.25 -0.316406 12.988281 0.46875 10.25 0.46875 C 7.414062 0.46875 5.113281 -0.3125 3.34375 -1.875 Z M 7.578125 -10.59375 C 6.867188 -9.894531 6.515625 -9 6.515625 -7.90625 C 6.515625 -6.8125 6.851562 -5.921875 7.53125 -5.234375 C 8.21875 -4.546875 9.113281 -4.203125 10.21875 -4.203125 C 11.289062 -4.203125 12.171875 -4.550781 12.859375 -5.25 C 13.554688 -5.945312 13.90625 -6.832031 13.90625 -7.90625 C 13.90625 -9 13.546875 -9.894531 12.828125 -10.59375 C 12.117188 -11.289062 11.25 -11.640625 10.21875 -11.640625 C 9.175781 -11.640625 8.296875 -11.289062 7.578125 -10.59375 Z M 7.578125 -10.59375 "/></g></g></g><g fill="#404e5e" fill-opacity="1"><g transform="translate(223.067989, 119.333872)"><g><path d="M 5.875 -15.84375 L 9.734375 -7.234375 L 13.59375 -15.84375 L 20.078125 -15.84375 L 11.578125 0 L 7.875 0 L -0.625 -15.84375 Z M 5.875 -15.84375 "/></g></g></g><g fill="#404e5e" fill-opacity="1"><g transform="translate(242.528681, 119.333872)"><g><path d="M 2.375 -24.671875 C 3.019531 -25.316406 3.785156 -25.640625 4.671875 -25.640625 C 5.554688 -25.640625 6.316406 -25.316406 6.953125 -24.671875 C 7.585938 -24.035156 7.90625 -23.273438 7.90625 -22.390625 C 7.90625 -21.503906 7.585938 -20.742188 6.953125 -20.109375 C 6.316406 -19.472656 5.554688 -19.15625 4.671875 -19.15625 C 3.785156 -19.15625 3.019531 -19.472656 2.375 -20.109375 C 1.738281 -20.742188 1.421875 -21.503906 1.421875 -22.390625 C 1.421875 -23.273438 1.738281 -24.035156 2.375 -24.671875 Z M 1.859375 -15.84375 L 1.859375 0 L 7.328125 0 L 7.328125 -15.84375 Z M 1.859375 -15.84375 "/></g></g></g><g fill="#404e5e" fill-opacity="1"><g transform="translate(251.857455, 119.333872)"><g><path d="M 1.859375 0 L 1.859375 -15.84375 L 7.328125 -15.84375 L 7.328125 -14.171875 L 7.390625 -14.171875 C 8.804688 -15.597656 10.316406 -16.3125 11.921875 -16.3125 C 12.703125 -16.3125 13.476562 -16.207031 14.25 -16 C 15.03125 -15.789062 15.773438 -15.46875 16.484375 -15.03125 C 17.191406 -14.601562 17.765625 -13.992188 18.203125 -13.203125 C 18.648438 -12.410156 18.875 -11.488281 18.875 -10.4375 L 18.875 0 L 13.40625 0 L 13.40625 -8.953125 C 13.40625 -9.773438 13.140625 -10.492188 12.609375 -11.109375 C 12.085938 -11.734375 11.40625 -12.046875 10.5625 -12.046875 C 9.738281 -12.046875 8.992188 -11.722656 8.328125 -11.078125 C 7.660156 -10.441406 7.328125 -9.734375 7.328125 -8.953125 L 7.328125 0 Z M 1.859375 0 "/></g></g></g><g fill="#404e5e" fill-opacity="1"><g transform="translate(272.275738, 119.333872)"><g><path d="M 1.140625 3.890625 L 5.625 1.703125 C 6.445312 3.054688 7.878906 3.734375 9.921875 3.734375 C 10.867188 3.734375 11.75 3.429688 12.5625 2.828125 C 13.375 2.222656 13.78125 1.289062 13.78125 0.03125 L 13.78125 -1.140625 C 12.8125 -0.0664062 11.082031 0.46875 8.59375 0.46875 C 6.300781 0.46875 4.410156 -0.335938 2.921875 -1.953125 C 1.441406 -3.578125 0.703125 -5.5625 0.703125 -7.90625 C 0.703125 -10.25 1.441406 -12.234375 2.921875 -13.859375 C 4.410156 -15.492188 6.300781 -16.3125 8.59375 -16.3125 C 10.625 -16.3125 12.320312 -15.679688 13.6875 -14.421875 L 13.78125 -14.421875 L 13.78125 -15.84375 L 19.25 -15.84375 L 19.25 0.4375 C 19.25 3.007812 18.390625 4.992188 16.671875 6.390625 C 14.960938 7.796875 12.710938 8.5 9.921875 8.5 C 5.390625 8.5 2.460938 6.960938 1.140625 3.890625 Z M 7.578125 -10.59375 C 6.867188 -9.894531 6.515625 -9 6.515625 -7.90625 C 6.515625 -6.8125 6.851562 -5.921875 7.53125 -5.234375 C 8.21875 -4.546875 9.113281 -4.203125 10.21875 -4.203125 C 11.289062 -4.203125 12.171875 -4.550781 12.859375 -5.25 C 13.554688 -5.945312 13.90625 -6.832031 13.90625 -7.90625 C 13.90625 -9 13.546875 -9.894531 12.828125 -10.59375 C 12.117188 -11.289062 11.25 -11.640625 10.21875 -11.640625 C 9.175781 -11.640625 8.296875 -11.289062 7.578125 -10.59375 Z M 7.578125 -10.59375 "/></g></g></g></svg>