<svg xmlns="http://www.w3.org/2000/svg" xmlns:xlink="http://www.w3.org/1999/xlink" width="1080" zoomAndPan="magnify" viewBox="0 0 810 1439.999935" height="1920" preserveAspectRatio="xMidYMid meet" version="1.0"><defs><g/><clipPath id="2fc70b3e16"><path d="M 3 305 L 797 305 L 797 1099 L 3 1099 Z M 3 305 " clip-rule="nonzero"/></clipPath><clipPath id="202f916a5e"><path d="M -15.332031 442.785156 L 659.03125 286.4375 L 815.378906 960.800781 L 141.015625 1117.148438 Z M -15.332031 442.785156 " clip-rule="nonzero"/></clipPath><clipPath id="f32f1bc0f7"><path d="M -15.332031 442.785156 L 659.03125 286.4375 L 815.378906 960.800781 L 141.015625 1117.148438 Z M -15.332031 442.785156 " clip-rule="nonzero"/></clipPath><clipPath id="0192899344"><path d="M -15.332031 442.785156 L 659.03125 286.4375 L 815.378906 960.800781 L 141.015625 1117.148438 Z M -15.332031 442.785156 " clip-rule="nonzero"/></clipPath><clipPath id="18c6ec4733"><path d="M 669 912 L 810 912 L 810 1199 L 669 1199 Z M 669 912 " clip-rule="nonzero"/></clipPath><clipPath id="fea0cead88"><path d="M 669.257812 1052.75 L 815.214844 912.378906 L 955.585938 1058.339844 L 809.628906 1198.710938 Z M 669.257812 1052.75 " clip-rule="nonzero"/></clipPath><clipPath id="a8139b3c66"><path d="M 669.257812 1052.75 L 815.214844 912.378906 L 955.585938 1058.339844 L 809.628906 1198.710938 Z M 669.257812 1052.75 " clip-rule="nonzero"/></clipPath><clipPath id="9fe983949b"><path d="M 347 0 L 634 0 L 634 221 L 347 221 Z M 347 0 " clip-rule="nonzero"/></clipPath><clipPath id="989fad8a41"><path d="M 347.496094 74.128906 L 493.457031 -66.238281 L 633.828125 79.71875 L 487.867188 220.089844 Z M 347.496094 74.128906 " clip-rule="nonzero"/></clipPath><clipPath id="16a6885c0b"><path d="M 347.496094 74.128906 L 493.457031 -66.238281 L 633.828125 79.71875 L 487.867188 220.089844 Z M 347.496094 74.128906 " clip-rule="nonzero"/></clipPath><clipPath id="62ac132c56"><path d="M 0 626 L 141 626 L 141 913 L 0 913 Z M 0 626 " clip-rule="nonzero"/></clipPath><clipPath id="a37b7a2efa"><path d="M -145.585938 766.417969 L 0.375 626.050781 L 140.746094 772.007812 L -5.214844 912.378906 Z M -145.585938 766.417969 " clip-rule="nonzero"/></clipPath><clipPath id="bd93c61d2f"><path d="M -145.585938 766.417969 L 0.375 626.050781 L 140.746094 772.007812 L -5.214844 912.378906 Z M -145.585938 766.417969 " clip-rule="nonzero"/></clipPath><clipPath id="cee21f3952"><path d="M 623.191406 1198.710938 L 810 1198.710938 L 810 1425.84375 L 623.191406 1425.84375 Z M 623.191406 1198.710938 " clip-rule="nonzero"/></clipPath><clipPath id="904604c672"><path d="M 736.757812 1198.710938 C 674.039062 1198.710938 623.191406 1249.558594 623.191406 1312.277344 C 623.191406 1374.996094 674.039062 1425.84375 736.757812 1425.84375 C 799.476562 1425.84375 850.320312 1374.996094 850.320312 1312.277344 C 850.320312 1249.558594 799.476562 1198.710938 736.757812 1198.710938 Z M 736.757812 1198.710938 " clip-rule="nonzero"/></clipPath><clipPath id="7d8c301528"><path d="M 61 987 L 580 987 L 580 1440 L 61 1440 Z M 61 987 " clip-rule="nonzero"/></clipPath><clipPath id="51102e55e4"><path d="M 61.742188 1204.332031 L 359.488281 987.605469 L 579.238281 1289.507812 L 281.492188 1506.234375 Z M 61.742188 1204.332031 " clip-rule="nonzero"/></clipPath><clipPath id="557e495752"><path d="M 61.742188 1204.332031 L 359.488281 987.605469 L 579.238281 1289.507812 L 281.492188 1506.234375 Z M 61.742188 1204.332031 " clip-rule="nonzero"/></clipPath><clipPath id="6ade20e3d6"><path d="M 187.519531 1239.253906 L 427.25 1239.253906 L 427.25 1275.675781 L 187.519531 1275.675781 Z M 187.519531 1239.253906 " clip-rule="nonzero"/></clipPath><clipPath id="b09923e350"><path d="M 475.878906 397.992188 L 810 397.992188 L 810 743.046875 L 475.878906 743.046875 Z M 475.878906 397.992188 " clip-rule="nonzero"/></clipPath><clipPath id="e3ca60528a"><path d="M 648.40625 397.992188 C 553.121094 397.992188 475.878906 475.234375 475.878906 570.519531 C 475.878906 665.804688 553.121094 743.046875 648.40625 743.046875 C 743.691406 743.046875 820.933594 665.804688 820.933594 570.519531 C 820.933594 475.234375 743.691406 397.992188 648.40625 397.992188 Z M 648.40625 397.992188 " clip-rule="nonzero"/></clipPath></defs><rect x="-81" width="972" fill="#ffffff" y="-143.999994" height="1727.999922" fill-opacity="1"/><rect x="-81" width="972" fill="#edeef4" y="-143.999994" height="1727.999922" fill-opacity="1"/><g clip-path="url(#2fc70b3e16)"><g clip-path="url(#202f916a5e)"><g clip-path="url(#f32f1bc0f7)"><g clip-path="url(#0192899344)"><path fill="#231f20" d="M 679.199219 373.429688 L 677.949219 368.035156 L 596.351562 386.953125 L 577.433594 305.355469 L 572.035156 306.609375 L 590.957031 388.207031 L 512.054688 406.5 L 493.136719 324.898438 L 487.742188 326.152344 L 506.660156 407.75 L 427.757812 426.042969 L 408.839844 344.445312 L 403.445312 345.695312 L 422.363281 427.292969 L 343.464844 445.585938 L 324.546875 363.988281 L 319.152344 365.238281 L 338.070312 446.835938 L 259.167969 465.128906 L 240.25 383.53125 L 234.855469 384.78125 L 253.773438 466.378906 L 174.875 484.671875 L 155.957031 403.074219 L 150.558594 404.324219 L 169.476562 485.921875 L 90.578125 504.214844 L 71.660156 422.617188 L 66.265625 423.867188 L 85.183594 505.464844 L 3.585938 524.382812 L 4.835938 529.78125 L 86.433594 510.859375 L 104.726562 589.761719 L 23.128906 608.679688 L 24.378906 614.074219 L 105.976562 595.15625 L 124.269531 674.058594 L 42.671875 692.976562 L 43.921875 698.371094 L 125.519531 679.453125 L 143.8125 758.351562 L 62.214844 777.269531 L 63.464844 782.664062 L 145.0625 763.746094 L 163.355469 842.648438 L 81.757812 861.566406 L 83.011719 866.960938 L 164.609375 848.042969 L 182.902344 926.941406 L 101.300781 945.859375 L 102.554688 951.257812 L 184.152344 932.339844 L 202.445312 1011.238281 L 120.847656 1030.15625 L 122.097656 1035.550781 L 203.695312 1016.632812 L 222.613281 1098.230469 L 228.007812 1096.980469 L 209.089844 1015.382812 L 287.988281 997.089844 L 306.90625 1078.6875 L 312.304688 1077.4375 L 293.386719 995.839844 L 372.285156 977.546875 L 391.203125 1059.144531 L 396.597656 1057.894531 L 377.679688 976.296875 L 456.582031 958.003906 L 475.5 1039.601562 L 480.894531 1038.351562 L 461.976562 956.753906 L 540.875 938.460938 L 559.792969 1020.058594 L 565.1875 1018.804688 L 546.269531 937.207031 L 625.171875 918.914062 L 644.089844 1000.515625 L 649.484375 999.261719 L 630.566406 917.664062 L 709.46875 899.371094 L 728.386719 980.96875 L 733.78125 979.71875 L 714.863281 898.121094 L 796.460938 879.203125 L 795.207031 873.808594 L 713.609375 892.726562 L 695.316406 813.828125 L 776.917969 794.910156 L 775.664062 789.511719 L 694.066406 808.429688 L 675.773438 729.53125 L 757.371094 710.613281 L 756.121094 705.21875 L 674.523438 724.136719 L 656.230469 645.234375 L 737.828125 626.316406 L 736.578125 620.921875 L 654.980469 639.839844 L 636.6875 560.941406 L 718.285156 542.023438 L 717.035156 536.628906 L 635.4375 555.546875 L 617.144531 476.644531 L 698.742188 457.726562 L 697.492188 452.332031 L 615.894531 471.25 L 597.601562 392.347656 Z M 507.910156 413.144531 L 526.203125 492.042969 L 447.304688 510.335938 L 429.011719 431.4375 Z M 397.949219 705.117188 L 416.242188 784.015625 L 337.34375 802.308594 L 319.050781 723.410156 Z M 317.800781 718.015625 L 299.507812 639.113281 L 378.40625 620.820312 L 396.699219 699.722656 Z M 403.34375 703.867188 L 482.246094 685.574219 L 500.539062 764.472656 L 421.636719 782.765625 Z M 402.09375 698.472656 L 383.800781 619.570312 L 462.703125 601.277344 L 480.996094 680.179688 Z M 382.550781 614.175781 L 364.257812 535.273438 L 443.160156 516.984375 L 461.453125 595.882812 Z M 377.15625 615.425781 L 298.253906 633.71875 L 279.964844 554.820312 L 358.863281 536.527344 Z M 292.859375 634.96875 L 213.960938 653.261719 L 195.667969 574.363281 L 274.566406 556.070312 Z M 294.113281 640.363281 L 312.402344 719.265625 L 233.503906 737.558594 L 215.210938 658.65625 Z M 313.65625 724.660156 L 331.949219 803.5625 L 253.046875 821.851562 L 234.753906 742.953125 Z M 333.199219 808.957031 L 351.492188 887.855469 L 272.589844 906.148438 L 254.296875 827.25 Z M 338.59375 807.703125 L 417.492188 789.414062 L 435.785156 868.3125 L 356.886719 886.605469 Z M 422.890625 788.160156 L 501.789062 769.867188 L 520.082031 848.769531 L 441.179688 867.0625 Z M 507.183594 768.617188 L 586.085938 750.324219 L 604.378906 829.226562 L 525.476562 847.519531 Z M 505.933594 763.222656 L 487.640625 684.324219 L 566.542969 666.03125 L 584.832031 744.929688 Z M 486.390625 678.925781 L 468.097656 600.027344 L 546.996094 581.734375 L 565.289062 660.636719 Z M 466.847656 594.632812 L 448.554688 515.730469 L 527.453125 497.4375 L 545.746094 576.339844 Z M 423.613281 432.6875 L 441.90625 511.585938 L 363.007812 529.878906 L 344.714844 450.980469 Z M 339.320312 452.230469 L 357.613281 531.132812 L 278.710938 549.425781 L 260.417969 470.523438 Z M 255.023438 471.773438 L 273.316406 550.675781 L 194.417969 568.96875 L 176.125 490.066406 Z M 91.828125 509.609375 L 170.730469 491.316406 L 189.023438 570.21875 L 110.121094 588.511719 Z M 111.371094 593.90625 L 190.273438 575.613281 L 208.566406 654.511719 L 129.664062 672.804688 Z M 130.914062 678.203125 L 209.816406 659.910156 L 228.109375 738.808594 L 149.207031 757.101562 Z M 150.460938 762.496094 L 229.359375 744.203125 L 247.652344 823.105469 L 168.75 841.398438 Z M 170.003906 846.792969 L 248.902344 828.5 L 267.195312 907.398438 L 188.296875 925.691406 Z M 207.839844 1009.988281 L 189.546875 931.085938 L 268.445312 912.792969 L 286.738281 991.695312 Z M 292.132812 990.445312 L 273.839844 911.542969 L 352.742188 893.25 L 371.035156 972.152344 Z M 376.429688 970.902344 L 358.136719 892 L 437.039062 873.707031 L 455.328125 952.609375 Z M 460.726562 951.355469 L 442.433594 872.457031 L 521.332031 854.164062 L 539.625 933.066406 Z M 545.019531 931.8125 L 526.726562 852.914062 L 605.628906 834.621094 L 623.921875 913.519531 Z M 708.214844 893.976562 L 629.316406 912.269531 L 611.023438 833.371094 L 689.921875 815.078125 Z M 688.671875 809.683594 L 609.773438 827.976562 L 591.480469 749.074219 L 670.378906 730.78125 Z M 669.128906 725.386719 L 590.230469 743.679688 L 571.9375 664.777344 L 650.835938 646.488281 Z M 649.585938 641.089844 L 570.683594 659.382812 L 552.390625 580.484375 L 631.292969 562.191406 Z M 630.042969 556.796875 L 551.140625 575.089844 L 532.847656 496.1875 L 611.75 477.894531 Z M 610.5 472.5 L 531.597656 490.792969 L 513.304688 411.894531 L 592.207031 393.601562 Z M 610.5 472.5 " fill-opacity="1" fill-rule="nonzero"/></g></g></g></g><g clip-path="url(#18c6ec4733)"><g clip-path="url(#fea0cead88)"><g clip-path="url(#a8139b3c66)"><path fill="#404e5e" d="M 669.257812 1052.75 L 815.214844 912.378906 L 955.585938 1058.339844 L 809.628906 1198.710938 Z M 669.257812 1052.75 " fill-opacity="1" fill-rule="nonzero"/></g></g></g><g clip-path="url(#9fe983949b)"><g clip-path="url(#989fad8a41)"><g clip-path="url(#16a6885c0b)"><path fill="#404e5e" d="M 347.496094 74.128906 L 493.457031 -66.238281 L 633.828125 79.71875 L 487.867188 220.089844 Z M 347.496094 74.128906 " fill-opacity="1" fill-rule="nonzero"/></g></g></g><g clip-path="url(#62ac132c56)"><g clip-path="url(#a37b7a2efa)"><g clip-path="url(#bd93c61d2f)"><path fill="#404e5e" d="M -145.585938 766.417969 L 0.375 626.050781 L 140.746094 772.007812 L -5.214844 912.378906 Z M -145.585938 766.417969 " fill-opacity="1" fill-rule="nonzero"/></g></g></g><g clip-path="url(#cee21f3952)"><g clip-path="url(#904604c672)"><path fill="#404e5e" d="M 623.191406 1198.710938 L 850.320312 1198.710938 L 850.320312 1425.84375 L 623.191406 1425.84375 Z M 623.191406 1198.710938 " fill-opacity="1" fill-rule="nonzero"/></g></g><g clip-path="url(#7d8c301528)"><g clip-path="url(#51102e55e4)"><g clip-path="url(#557e495752)"><path fill="#404e5e" d="M 61.742188 1204.332031 L 359.488281 987.605469 L 579.238281 1289.507812 L 281.492188 1506.234375 Z M 61.742188 1204.332031 " fill-opacity="1" fill-rule="nonzero"/></g></g></g><g clip-path="url(#6ade20e3d6)"><path fill="#fbb700" d="M 187.519531 1239.253906 L 427.25 1239.253906 L 427.25 1275.675781 L 187.519531 1275.675781 Z M 187.519531 1239.253906 " fill-opacity="1" fill-rule="nonzero"/></g><g fill="#ffffff" fill-opacity="1"><g transform="translate(148.320277, 1217.195123)"><g><path d="M 13.75 -20.9375 C 12.738281 -20.9375 11.84375 -20.738281 11.0625 -20.34375 C 10.28125 -19.945312 9.625 -19.378906 9.09375 -18.640625 C 8.570312 -17.898438 8.171875 -17.003906 7.890625 -15.953125 C 7.617188 -14.910156 7.484375 -13.734375 7.484375 -12.421875 C 7.484375 -10.660156 7.703125 -9.15625 8.140625 -7.90625 C 8.578125 -6.65625 9.253906 -5.703125 10.171875 -5.046875 C 11.097656 -4.390625 12.289062 -4.0625 13.75 -4.0625 C 14.769531 -4.0625 15.789062 -4.175781 16.8125 -4.40625 C 17.832031 -4.632812 18.9375 -4.960938 20.125 -5.390625 L 20.125 -0.9375 C 19.019531 -0.476562 17.929688 -0.148438 16.859375 0.046875 C 15.796875 0.242188 14.597656 0.34375 13.265625 0.34375 C 10.691406 0.34375 8.570312 -0.1875 6.90625 -1.25 C 5.25 -2.320312 4.019531 -3.816406 3.21875 -5.734375 C 2.425781 -7.648438 2.03125 -9.890625 2.03125 -12.453125 C 2.03125 -14.347656 2.285156 -16.082031 2.796875 -17.65625 C 3.316406 -19.226562 4.070312 -20.585938 5.0625 -21.734375 C 6.050781 -22.890625 7.273438 -23.78125 8.734375 -24.40625 C 10.191406 -25.03125 11.863281 -25.34375 13.75 -25.34375 C 15 -25.34375 16.242188 -25.1875 17.484375 -24.875 C 18.734375 -24.5625 19.929688 -24.128906 21.078125 -23.578125 L 19.359375 -19.28125 C 18.429688 -19.71875 17.492188 -20.101562 16.546875 -20.4375 C 15.597656 -20.769531 14.664062 -20.9375 13.75 -20.9375 Z M 13.75 -20.9375 "/></g></g></g><g fill="#ffffff" fill-opacity="1"><g transform="translate(170.616842, 1217.195123)"><g><path d="M 10.5625 -19.5 C 13.125 -19.5 15.085938 -18.941406 16.453125 -17.828125 C 17.828125 -16.710938 18.515625 -15.015625 18.515625 -12.734375 L 18.515625 0 L 14.875 0 L 13.859375 -2.59375 L 13.71875 -2.59375 C 13.175781 -1.914062 12.617188 -1.359375 12.046875 -0.921875 C 11.472656 -0.492188 10.816406 -0.175781 10.078125 0.03125 C 9.335938 0.238281 8.441406 0.34375 7.390625 0.34375 C 6.253906 0.34375 5.238281 0.128906 4.34375 -0.296875 C 3.457031 -0.734375 2.753906 -1.398438 2.234375 -2.296875 C 1.722656 -3.191406 1.46875 -4.328125 1.46875 -5.703125 C 1.46875 -7.734375 2.179688 -9.226562 3.609375 -10.1875 C 5.035156 -11.15625 7.171875 -11.691406 10.015625 -11.796875 L 13.328125 -11.890625 L 13.328125 -12.734375 C 13.328125 -13.734375 13.066406 -14.46875 12.546875 -14.9375 C 12.023438 -15.40625 11.296875 -15.640625 10.359375 -15.640625 C 9.429688 -15.640625 8.523438 -15.503906 7.640625 -15.234375 C 6.753906 -14.972656 5.863281 -14.644531 4.96875 -14.25 L 3.25 -17.78125 C 4.257812 -18.3125 5.394531 -18.726562 6.65625 -19.03125 C 7.914062 -19.34375 9.21875 -19.5 10.5625 -19.5 Z M 13.328125 -8.859375 L 11.3125 -8.78125 C 9.625 -8.738281 8.453125 -8.4375 7.796875 -7.875 C 7.140625 -7.320312 6.8125 -6.585938 6.8125 -5.671875 C 6.8125 -4.878906 7.046875 -4.3125 7.515625 -3.96875 C 7.984375 -3.632812 8.59375 -3.46875 9.34375 -3.46875 C 10.457031 -3.46875 11.398438 -3.796875 12.171875 -4.453125 C 12.941406 -5.117188 13.328125 -6.0625 13.328125 -7.28125 Z M 13.328125 -8.859375 "/></g></g></g><g fill="#ffffff" fill-opacity="1"><g transform="translate(191.751593, 1217.195123)"><g><path d="M 13.40625 -19.46875 C 13.664062 -19.46875 13.96875 -19.453125 14.3125 -19.421875 C 14.65625 -19.390625 14.9375 -19.351562 15.15625 -19.3125 L 14.765625 -14.421875 C 14.597656 -14.484375 14.351562 -14.523438 14.03125 -14.546875 C 13.71875 -14.578125 13.453125 -14.59375 13.234375 -14.59375 C 12.554688 -14.59375 11.898438 -14.503906 11.265625 -14.328125 C 10.640625 -14.160156 10.070312 -13.882812 9.5625 -13.5 C 9.0625 -13.125 8.664062 -12.625 8.375 -12 C 8.09375 -11.382812 7.953125 -10.625 7.953125 -9.71875 L 7.953125 0 L 2.734375 0 L 2.734375 -19.109375 L 6.6875 -19.109375 L 7.453125 -15.890625 L 7.703125 -15.890625 C 8.078125 -16.546875 8.546875 -17.140625 9.109375 -17.671875 C 9.679688 -18.210938 10.328125 -18.644531 11.046875 -18.96875 C 11.773438 -19.300781 12.5625 -19.46875 13.40625 -19.46875 Z M 13.40625 -19.46875 "/></g></g></g><g fill="#ffffff" fill-opacity="1"><g transform="translate(207.641095, 1217.195123)"><g><path d="M 10.609375 -19.46875 C 12.378906 -19.46875 13.898438 -19.128906 15.171875 -18.453125 C 16.453125 -17.773438 17.4375 -16.789062 18.125 -15.5 C 18.820312 -14.207031 19.171875 -12.632812 19.171875 -10.78125 L 19.171875 -8.25 L 6.859375 -8.25 C 6.910156 -6.78125 7.347656 -5.625 8.171875 -4.78125 C 9.003906 -3.945312 10.15625 -3.53125 11.625 -3.53125 C 12.84375 -3.53125 13.957031 -3.65625 14.96875 -3.90625 C 15.976562 -4.164062 17.019531 -4.546875 18.09375 -5.046875 L 18.09375 -1.015625 C 17.15625 -0.546875 16.171875 -0.203125 15.140625 0.015625 C 14.109375 0.234375 12.851562 0.34375 11.375 0.34375 C 9.46875 0.34375 7.773438 -0.0078125 6.296875 -0.71875 C 4.816406 -1.425781 3.660156 -2.503906 2.828125 -3.953125 C 1.992188 -5.398438 1.578125 -7.222656 1.578125 -9.421875 C 1.578125 -11.648438 1.953125 -13.507812 2.703125 -15 C 3.460938 -16.488281 4.519531 -17.601562 5.875 -18.34375 C 7.226562 -19.09375 8.804688 -19.46875 10.609375 -19.46875 Z M 10.640625 -15.75 C 9.628906 -15.75 8.789062 -15.425781 8.125 -14.78125 C 7.457031 -14.132812 7.070312 -13.113281 6.96875 -11.71875 L 14.28125 -11.71875 C 14.269531 -12.5 14.128906 -13.191406 13.859375 -13.796875 C 13.597656 -14.398438 13.203125 -14.875 12.671875 -15.21875 C 12.140625 -15.570312 11.460938 -15.75 10.640625 -15.75 Z M 10.640625 -15.75 "/></g></g></g><g fill="#ffffff" fill-opacity="1"><g transform="translate(228.314533, 1217.195123)"><g/></g></g><g fill="#ffffff" fill-opacity="1"><g transform="translate(237.404012, 1217.195123)"><g><path d="M 13.296875 -15.1875 L 8.78125 -15.1875 L 8.78125 0 L 3.578125 0 L 3.578125 -15.1875 L 0.703125 -15.1875 L 0.703125 -17.703125 L 3.578125 -19.109375 L 3.578125 -20.515625 C 3.578125 -22.140625 3.851562 -23.40625 4.40625 -24.3125 C 4.957031 -25.21875 5.734375 -25.851562 6.734375 -26.21875 C 7.742188 -26.59375 8.941406 -26.78125 10.328125 -26.78125 C 11.335938 -26.78125 12.257812 -26.695312 13.09375 -26.53125 C 13.925781 -26.363281 14.601562 -26.179688 15.125 -25.984375 L 13.796875 -22.15625 C 13.390625 -22.28125 12.953125 -22.390625 12.484375 -22.484375 C 12.023438 -22.585938 11.492188 -22.640625 10.890625 -22.640625 C 10.160156 -22.640625 9.625 -22.421875 9.28125 -21.984375 C 8.945312 -21.546875 8.78125 -20.984375 8.78125 -20.296875 L 8.78125 -19.109375 L 13.296875 -19.109375 Z M 13.296875 -15.1875 "/></g></g></g><g fill="#ffffff" fill-opacity="1"><g transform="translate(250.952807, 1217.195123)"><g><path d="M 20.09375 -9.59375 C 20.09375 -7.988281 19.878906 -6.570312 19.453125 -5.34375 C 19.023438 -4.113281 18.40625 -3.070312 17.59375 -2.21875 C 16.78125 -1.375 15.800781 -0.734375 14.65625 -0.296875 C 13.507812 0.128906 12.21875 0.34375 10.78125 0.34375 C 9.4375 0.34375 8.203125 0.128906 7.078125 -0.296875 C 5.960938 -0.734375 4.988281 -1.375 4.15625 -2.21875 C 3.332031 -3.070312 2.695312 -4.113281 2.25 -5.34375 C 1.800781 -6.570312 1.578125 -7.988281 1.578125 -9.59375 C 1.578125 -11.707031 1.953125 -13.5 2.703125 -14.96875 C 3.453125 -16.4375 4.519531 -17.550781 5.90625 -18.3125 C 7.300781 -19.082031 8.960938 -19.46875 10.890625 -19.46875 C 12.671875 -19.46875 14.253906 -19.082031 15.640625 -18.3125 C 17.023438 -17.550781 18.113281 -16.4375 18.90625 -14.96875 C 19.695312 -13.5 20.09375 -11.707031 20.09375 -9.59375 Z M 6.890625 -9.59375 C 6.890625 -8.332031 7.023438 -7.273438 7.296875 -6.421875 C 7.566406 -5.566406 7.992188 -4.921875 8.578125 -4.484375 C 9.160156 -4.054688 9.921875 -3.84375 10.859375 -3.84375 C 11.773438 -3.84375 12.519531 -4.054688 13.09375 -4.484375 C 13.675781 -4.921875 14.097656 -5.566406 14.359375 -6.421875 C 14.628906 -7.273438 14.765625 -8.332031 14.765625 -9.59375 C 14.765625 -10.851562 14.628906 -11.898438 14.359375 -12.734375 C 14.097656 -13.578125 13.675781 -14.207031 13.09375 -14.625 C 12.507812 -15.050781 11.75 -15.265625 10.8125 -15.265625 C 9.4375 -15.265625 8.4375 -14.789062 7.8125 -13.84375 C 7.195312 -12.894531 6.890625 -11.476562 6.890625 -9.59375 Z M 6.890625 -9.59375 "/></g></g></g><g fill="#ffffff" fill-opacity="1"><g transform="translate(272.617203, 1217.195123)"><g><path d="M 13.40625 -19.46875 C 13.664062 -19.46875 13.96875 -19.453125 14.3125 -19.421875 C 14.65625 -19.390625 14.9375 -19.351562 15.15625 -19.3125 L 14.765625 -14.421875 C 14.597656 -14.484375 14.351562 -14.523438 14.03125 -14.546875 C 13.71875 -14.578125 13.453125 -14.59375 13.234375 -14.59375 C 12.554688 -14.59375 11.898438 -14.503906 11.265625 -14.328125 C 10.640625 -14.160156 10.070312 -13.882812 9.5625 -13.5 C 9.0625 -13.125 8.664062 -12.625 8.375 -12 C 8.09375 -11.382812 7.953125 -10.625 7.953125 -9.71875 L 7.953125 0 L 2.734375 0 L 2.734375 -19.109375 L 6.6875 -19.109375 L 7.453125 -15.890625 L 7.703125 -15.890625 C 8.078125 -16.546875 8.546875 -17.140625 9.109375 -17.671875 C 9.679688 -18.210938 10.328125 -18.644531 11.046875 -18.96875 C 11.773438 -19.300781 12.5625 -19.46875 13.40625 -19.46875 Z M 13.40625 -19.46875 "/></g></g></g><g fill="#ffffff" fill-opacity="1"><g transform="translate(288.506705, 1217.195123)"><g/></g></g><g fill="#ffffff" fill-opacity="1"><g transform="translate(297.596184, 1217.195123)"><g><path d="M 10.921875 -14.703125 L 16.140625 -24.984375 L 21.84375 -24.984375 L 13.546875 -9.71875 L 13.546875 0 L 8.28125 0 L 8.28125 -9.546875 L 0 -24.984375 L 5.75 -24.984375 Z M 10.921875 -14.703125 "/></g></g></g><g fill="#ffffff" fill-opacity="1"><g transform="translate(319.431435, 1217.195123)"><g><path d="M 20.09375 -9.59375 C 20.09375 -7.988281 19.878906 -6.570312 19.453125 -5.34375 C 19.023438 -4.113281 18.40625 -3.070312 17.59375 -2.21875 C 16.78125 -1.375 15.800781 -0.734375 14.65625 -0.296875 C 13.507812 0.128906 12.21875 0.34375 10.78125 0.34375 C 9.4375 0.34375 8.203125 0.128906 7.078125 -0.296875 C 5.960938 -0.734375 4.988281 -1.375 4.15625 -2.21875 C 3.332031 -3.070312 2.695312 -4.113281 2.25 -5.34375 C 1.800781 -6.570312 1.578125 -7.988281 1.578125 -9.59375 C 1.578125 -11.707031 1.953125 -13.5 2.703125 -14.96875 C 3.453125 -16.4375 4.519531 -17.550781 5.90625 -18.3125 C 7.300781 -19.082031 8.960938 -19.46875 10.890625 -19.46875 C 12.671875 -19.46875 14.253906 -19.082031 15.640625 -18.3125 C 17.023438 -17.550781 18.113281 -16.4375 18.90625 -14.96875 C 19.695312 -13.5 20.09375 -11.707031 20.09375 -9.59375 Z M 6.890625 -9.59375 C 6.890625 -8.332031 7.023438 -7.273438 7.296875 -6.421875 C 7.566406 -5.566406 7.992188 -4.921875 8.578125 -4.484375 C 9.160156 -4.054688 9.921875 -3.84375 10.859375 -3.84375 C 11.773438 -3.84375 12.519531 -4.054688 13.09375 -4.484375 C 13.675781 -4.921875 14.097656 -5.566406 14.359375 -6.421875 C 14.628906 -7.273438 14.765625 -8.332031 14.765625 -9.59375 C 14.765625 -10.851562 14.628906 -11.898438 14.359375 -12.734375 C 14.097656 -13.578125 13.675781 -14.207031 13.09375 -14.625 C 12.507812 -15.050781 11.75 -15.265625 10.8125 -15.265625 C 9.4375 -15.265625 8.4375 -14.789062 7.8125 -13.84375 C 7.195312 -12.894531 6.890625 -11.476562 6.890625 -9.59375 Z M 6.890625 -9.59375 "/></g></g></g><g fill="#ffffff" fill-opacity="1"><g transform="translate(341.095832, 1217.195123)"><g><path d="M 20.265625 -19.109375 L 20.265625 0 L 16.265625 0 L 15.5625 -2.4375 L 15.296875 -2.4375 C 14.890625 -1.789062 14.375 -1.257812 13.75 -0.84375 C 13.132812 -0.4375 12.457031 -0.140625 11.71875 0.046875 C 10.976562 0.242188 10.210938 0.34375 9.421875 0.34375 C 8.046875 0.34375 6.851562 0.101562 5.84375 -0.375 C 4.832031 -0.863281 4.039062 -1.617188 3.46875 -2.640625 C 2.90625 -3.671875 2.625 -5.003906 2.625 -6.640625 L 2.625 -19.109375 L 7.84375 -19.109375 L 7.84375 -7.953125 C 7.84375 -6.578125 8.085938 -5.539062 8.578125 -4.84375 C 9.066406 -4.15625 9.847656 -3.8125 10.921875 -3.8125 C 11.984375 -3.8125 12.816406 -4.050781 13.421875 -4.53125 C 14.023438 -5.019531 14.445312 -5.734375 14.6875 -6.671875 C 14.9375 -7.609375 15.0625 -8.757812 15.0625 -10.125 L 15.0625 -19.109375 Z M 20.265625 -19.109375 "/></g></g></g><g fill="#ffffff" fill-opacity="1"><g transform="translate(364.092906, 1217.195123)"><g><path d="M 13.40625 -19.46875 C 13.664062 -19.46875 13.96875 -19.453125 14.3125 -19.421875 C 14.65625 -19.390625 14.9375 -19.351562 15.15625 -19.3125 L 14.765625 -14.421875 C 14.597656 -14.484375 14.351562 -14.523438 14.03125 -14.546875 C 13.71875 -14.578125 13.453125 -14.59375 13.234375 -14.59375 C 12.554688 -14.59375 11.898438 -14.503906 11.265625 -14.328125 C 10.640625 -14.160156 10.070312 -13.882812 9.5625 -13.5 C 9.0625 -13.125 8.664062 -12.625 8.375 -12 C 8.09375 -11.382812 7.953125 -10.625 7.953125 -9.71875 L 7.953125 0 L 2.734375 0 L 2.734375 -19.109375 L 6.6875 -19.109375 L 7.453125 -15.890625 L 7.703125 -15.890625 C 8.078125 -16.546875 8.546875 -17.140625 9.109375 -17.671875 C 9.679688 -18.210938 10.328125 -18.644531 11.046875 -18.96875 C 11.773438 -19.300781 12.5625 -19.46875 13.40625 -19.46875 Z M 13.40625 -19.46875 "/></g></g></g><g fill="#ffffff" fill-opacity="1"><g transform="translate(379.982417, 1217.195123)"><g/></g></g><g fill="#ffffff" fill-opacity="1"><g transform="translate(389.071896, 1217.195123)"><g><path d="M 11.125 -24.984375 C 14.351562 -24.984375 16.707031 -24.289062 18.1875 -22.90625 C 19.664062 -21.519531 20.40625 -19.613281 20.40625 -17.1875 C 20.40625 -16.09375 20.238281 -15.046875 19.90625 -14.046875 C 19.582031 -13.054688 19.046875 -12.171875 18.296875 -11.390625 C 17.546875 -10.617188 16.550781 -10.007812 15.3125 -9.5625 C 14.070312 -9.113281 12.539062 -8.890625 10.71875 -8.890625 L 8.4375 -8.890625 L 8.4375 0 L 3.140625 0 L 3.140625 -24.984375 Z M 10.859375 -20.640625 L 8.4375 -20.640625 L 8.4375 -13.234375 L 10.1875 -13.234375 C 11.175781 -13.234375 12.035156 -13.363281 12.765625 -13.625 C 13.492188 -13.882812 14.054688 -14.289062 14.453125 -14.84375 C 14.859375 -15.40625 15.0625 -16.125 15.0625 -17 C 15.0625 -18.226562 14.71875 -19.140625 14.03125 -19.734375 C 13.34375 -20.335938 12.285156 -20.640625 10.859375 -20.640625 Z M 10.859375 -20.640625 "/></g></g></g><g fill="#ffffff" fill-opacity="1"><g transform="translate(411.04384, 1217.195123)"><g><path d="M 10.609375 -19.46875 C 12.378906 -19.46875 13.898438 -19.128906 15.171875 -18.453125 C 16.453125 -17.773438 17.4375 -16.789062 18.125 -15.5 C 18.820312 -14.207031 19.171875 -12.632812 19.171875 -10.78125 L 19.171875 -8.25 L 6.859375 -8.25 C 6.910156 -6.78125 7.347656 -5.625 8.171875 -4.78125 C 9.003906 -3.945312 10.15625 -3.53125 11.625 -3.53125 C 12.84375 -3.53125 13.957031 -3.65625 14.96875 -3.90625 C 15.976562 -4.164062 17.019531 -4.546875 18.09375 -5.046875 L 18.09375 -1.015625 C 17.15625 -0.546875 16.171875 -0.203125 15.140625 0.015625 C 14.109375 0.234375 12.851562 0.34375 11.375 0.34375 C 9.46875 0.34375 7.773438 -0.0078125 6.296875 -0.71875 C 4.816406 -1.425781 3.660156 -2.503906 2.828125 -3.953125 C 1.992188 -5.398438 1.578125 -7.222656 1.578125 -9.421875 C 1.578125 -11.648438 1.953125 -13.507812 2.703125 -15 C 3.460938 -16.488281 4.519531 -17.601562 5.875 -18.34375 C 7.226562 -19.09375 8.804688 -19.46875 10.609375 -19.46875 Z M 10.640625 -15.75 C 9.628906 -15.75 8.789062 -15.425781 8.125 -14.78125 C 7.457031 -14.132812 7.070312 -13.113281 6.96875 -11.71875 L 14.28125 -11.71875 C 14.269531 -12.5 14.128906 -13.191406 13.859375 -13.796875 C 13.597656 -14.398438 13.203125 -14.875 12.671875 -15.21875 C 12.140625 -15.570312 11.460938 -15.75 10.640625 -15.75 Z M 10.640625 -15.75 "/></g></g></g><g fill="#ffffff" fill-opacity="1"><g transform="translate(431.717288, 1217.195123)"><g><path d="M 10.78125 -3.8125 C 11.351562 -3.8125 11.910156 -3.867188 12.453125 -3.984375 C 12.992188 -4.097656 13.53125 -4.238281 14.0625 -4.40625 L 14.0625 -0.53125 C 13.507812 -0.28125 12.816406 -0.0703125 11.984375 0.09375 C 11.160156 0.257812 10.257812 0.34375 9.28125 0.34375 C 8.144531 0.34375 7.125 0.160156 6.21875 -0.203125 C 5.3125 -0.578125 4.597656 -1.222656 4.078125 -2.140625 C 3.554688 -3.054688 3.296875 -4.335938 3.296875 -5.984375 L 3.296875 -15.1875 L 0.796875 -15.1875 L 0.796875 -17.390625 L 3.671875 -19.140625 L 5.171875 -23.171875 L 8.515625 -23.171875 L 8.515625 -19.109375 L 13.859375 -19.109375 L 13.859375 -15.1875 L 8.515625 -15.1875 L 8.515625 -5.984375 C 8.515625 -5.253906 8.722656 -4.707031 9.140625 -4.34375 C 9.554688 -3.988281 10.101562 -3.8125 10.78125 -3.8125 Z M 10.78125 -3.8125 "/></g></g></g><g fill="#ffffff" fill-opacity="1"><g transform="translate(446.90629, 1217.195123)"><g><path d="M 16.0625 -5.671875 C 16.0625 -4.367188 15.753906 -3.269531 15.140625 -2.375 C 14.535156 -1.488281 13.628906 -0.8125 12.421875 -0.34375 C 11.210938 0.113281 9.707031 0.34375 7.90625 0.34375 C 6.570312 0.34375 5.429688 0.253906 4.484375 0.078125 C 3.535156 -0.0859375 2.578125 -0.367188 1.609375 -0.765625 L 1.609375 -5.078125 C 2.640625 -4.609375 3.75 -4.222656 4.9375 -3.921875 C 6.132812 -3.617188 7.179688 -3.46875 8.078125 -3.46875 C 9.097656 -3.46875 9.828125 -3.617188 10.265625 -3.921875 C 10.703125 -4.222656 10.921875 -4.617188 10.921875 -5.109375 C 10.921875 -5.429688 10.832031 -5.71875 10.65625 -5.96875 C 10.476562 -6.226562 10.097656 -6.519531 9.515625 -6.84375 C 8.929688 -7.164062 8.019531 -7.59375 6.78125 -8.125 C 5.582031 -8.625 4.597656 -9.128906 3.828125 -9.640625 C 3.066406 -10.148438 2.5 -10.753906 2.125 -11.453125 C 1.757812 -12.160156 1.578125 -13.054688 1.578125 -14.140625 C 1.578125 -15.898438 2.257812 -17.226562 3.625 -18.125 C 5 -19.019531 6.835938 -19.46875 9.140625 -19.46875 C 10.328125 -19.46875 11.457031 -19.347656 12.53125 -19.109375 C 13.613281 -18.867188 14.722656 -18.488281 15.859375 -17.96875 L 14.28125 -14.203125 C 13.34375 -14.609375 12.453125 -14.941406 11.609375 -15.203125 C 10.773438 -15.472656 9.925781 -15.609375 9.0625 -15.609375 C 8.289062 -15.609375 7.710938 -15.503906 7.328125 -15.296875 C 6.941406 -15.085938 6.75 -14.773438 6.75 -14.359375 C 6.75 -14.046875 6.847656 -13.769531 7.046875 -13.53125 C 7.242188 -13.289062 7.628906 -13.023438 8.203125 -12.734375 C 8.785156 -12.453125 9.632812 -12.082031 10.75 -11.625 C 11.832031 -11.175781 12.769531 -10.707031 13.5625 -10.21875 C 14.363281 -9.738281 14.976562 -9.140625 15.40625 -8.421875 C 15.84375 -7.710938 16.0625 -6.796875 16.0625 -5.671875 Z M 16.0625 -5.671875 "/></g></g></g><g clip-path="url(#b09923e350)"><g clip-path="url(#e3ca60528a)"><path fill="#404e5e" d="M 475.878906 397.992188 L 820.933594 397.992188 L 820.933594 743.046875 L 475.878906 743.046875 Z M 475.878906 397.992188 " fill-opacity="1" fill-rule="nonzero"/></g></g></svg>