<svg xmlns="http://www.w3.org/2000/svg" xmlns:xlink="http://www.w3.org/1999/xlink" width="1080" zoomAndPan="magnify" viewBox="0 0 810 1439.999935" height="1920" preserveAspectRatio="xMidYMid meet" version="1.0"><defs><g/><clipPath id="7efaa49d22"><path d="M 0 205 L 810 205 L 810 1107 L 0 1107 Z M 0 205 " clip-rule="nonzero"/></clipPath><clipPath id="a5fad800da"><path d="M -50.183594 361.957031 L 716.238281 184.265625 L 893.929688 950.683594 L 127.507812 1128.375 Z M -50.183594 361.957031 " clip-rule="nonzero"/></clipPath><clipPath id="18242d0ebf"><path d="M -50.183594 361.957031 L 716.238281 184.265625 L 893.929688 950.683594 L 127.507812 1128.375 Z M -50.183594 361.957031 " clip-rule="nonzero"/></clipPath><clipPath id="4473cfcc5a"><path d="M -50.183594 361.957031 L 716.238281 184.265625 L 893.929688 950.683594 L 127.507812 1128.375 Z M -50.183594 361.957031 " clip-rule="nonzero"/></clipPath><clipPath id="df17a03b8e"><path d="M 727 895 L 810 895 L 810 1222 L 727 1222 Z M 727 895 " clip-rule="nonzero"/></clipPath><clipPath id="f9b4f72881"><path d="M 727.8125 1055.144531 L 893.6875 895.621094 L 1053.207031 1061.496094 L 887.332031 1221.019531 Z M 727.8125 1055.144531 " clip-rule="nonzero"/></clipPath><clipPath id="1067a9f44a"><path d="M 727.8125 1055.144531 L 893.6875 895.621094 L 1053.207031 1061.496094 L 887.332031 1221.019531 Z M 727.8125 1055.144531 " clip-rule="nonzero"/></clipPath><clipPath id="c1a8b1b389"><path d="M 362 0 L 688 0 L 688 109 L 362 109 Z M 362 0 " clip-rule="nonzero"/></clipPath><clipPath id="ff7b63647b"><path d="M 362.152344 -57 L 528.027344 -216.523438 L 687.550781 -50.648438 L 521.675781 108.875 Z M 362.152344 -57 " clip-rule="nonzero"/></clipPath><clipPath id="a2452d26d5"><path d="M 362.152344 -57 L 528.027344 -216.523438 L 687.550781 -50.648438 L 521.675781 108.875 Z M 362.152344 -57 " clip-rule="nonzero"/></clipPath><clipPath id="302814e2b7"><path d="M 0 570 L 128 570 L 128 896 L 0 896 Z M 0 570 " clip-rule="nonzero"/></clipPath><clipPath id="c35a8d2f3d"><path d="M -198.207031 729.746094 L -32.332031 570.222656 L 127.191406 736.097656 L -38.683594 895.621094 Z M -198.207031 729.746094 " clip-rule="nonzero"/></clipPath><clipPath id="f6a7a77751"><path d="M -198.207031 729.746094 L -32.332031 570.222656 L 127.191406 736.097656 L -38.683594 895.621094 Z M -198.207031 729.746094 " clip-rule="nonzero"/></clipPath><clipPath id="c96b97c3cd"><path d="M 675.460938 1221.019531 L 810 1221.019531 L 810 1440 L 675.460938 1440 Z M 675.460938 1221.019531 " clip-rule="nonzero"/></clipPath><clipPath id="6ec36018d9"><path d="M 804.523438 1221.019531 C 733.246094 1221.019531 675.460938 1278.800781 675.460938 1350.078125 C 675.460938 1421.355469 733.246094 1479.136719 804.523438 1479.136719 C 875.800781 1479.136719 933.582031 1421.355469 933.582031 1350.078125 C 933.582031 1278.800781 875.800781 1221.019531 804.523438 1221.019531 Z M 804.523438 1221.019531 " clip-rule="nonzero"/></clipPath><clipPath id="2c8a734d1c"><path d="M 37 981 L 626 981 L 626 1440 L 37 1440 Z M 37 981 " clip-rule="nonzero"/></clipPath><clipPath id="8419d6a376"><path d="M 37.410156 1227.40625 L 375.78125 981.109375 L 625.515625 1324.203125 L 287.140625 1570.5 Z M 37.410156 1227.40625 " clip-rule="nonzero"/></clipPath><clipPath id="78a3348d66"><path d="M 37.410156 1227.40625 L 375.78125 981.109375 L 625.515625 1324.203125 L 287.140625 1570.5 Z M 37.410156 1227.40625 " clip-rule="nonzero"/></clipPath><clipPath id="57f8704afc"><path d="M 180.347656 1267.09375 L 452.789062 1267.09375 L 452.789062 1308.480469 L 180.347656 1308.480469 Z M 180.347656 1267.09375 " clip-rule="nonzero"/></clipPath><clipPath id="a0a73c1637"><path d="M 508.050781 311.046875 L 810 311.046875 L 810 703.179688 L 508.050781 703.179688 Z M 508.050781 311.046875 " clip-rule="nonzero"/></clipPath><clipPath id="156a2779aa"><path d="M 704.117188 311.046875 C 595.832031 311.046875 508.050781 398.828125 508.050781 507.113281 C 508.050781 615.398438 595.832031 703.179688 704.117188 703.179688 C 812.402344 703.179688 900.183594 615.398438 900.183594 507.113281 C 900.183594 398.828125 812.402344 311.046875 704.117188 311.046875 Z M 704.117188 311.046875 " clip-rule="nonzero"/></clipPath></defs><rect x="-81" width="972" fill="#ffffff" y="-143.999994" height="1727.999922" fill-opacity="1"/><rect x="-81" width="972" fill="#edeef4" y="-143.999994" height="1727.999922" fill-opacity="1"/><g clip-path="url(#7efaa49d22)"><g clip-path="url(#a5fad800da)"><g clip-path="url(#18242d0ebf)"><g clip-path="url(#4473cfcc5a)"><path fill="#231f20" d="M 739.160156 283.132812 L 737.738281 277 L 645 298.5 L 623.5 205.765625 L 617.367188 207.1875 L 638.871094 299.921875 L 549.199219 320.714844 L 527.699219 227.976562 L 521.566406 229.398438 L 543.066406 322.136719 L 453.394531 342.925781 L 431.894531 250.1875 L 425.761719 251.609375 L 447.265625 344.347656 L 357.59375 365.136719 L 336.09375 272.398438 L 329.960938 273.820312 L 351.460938 366.558594 L 261.789062 387.347656 L 240.289062 294.609375 L 234.15625 296.03125 L 255.660156 388.769531 L 165.988281 409.558594 L 144.488281 316.820312 L 138.355469 318.242188 L 159.855469 410.980469 L 70.183594 431.769531 L 48.683594 339.035156 L 42.550781 340.453125 L 64.054688 433.191406 L -28.683594 454.691406 L -27.261719 460.824219 L 65.476562 439.324219 L 86.265625 528.996094 L -6.472656 550.496094 L -5.050781 556.625 L 87.6875 535.125 L 108.476562 624.796875 L 15.738281 646.296875 L 17.160156 652.429688 L 109.898438 630.929688 L 130.6875 720.601562 L 37.949219 742.101562 L 39.371094 748.230469 L 132.109375 726.730469 L 152.898438 816.402344 L 60.160156 837.902344 L 61.582031 844.035156 L 154.320312 822.535156 L 175.109375 912.203125 L 82.375 933.707031 L 83.792969 939.835938 L 176.53125 918.335938 L 197.320312 1008.007812 L 104.585938 1029.507812 L 106.007812 1035.640625 L 198.742188 1014.140625 L 220.242188 1106.875 L 226.375 1105.453125 L 204.875 1012.71875 L 294.546875 991.925781 L 316.046875 1084.664062 L 322.179688 1083.242188 L 300.675781 990.507812 L 390.347656 969.714844 L 411.847656 1062.453125 L 417.980469 1061.03125 L 396.480469 968.292969 L 486.152344 947.503906 L 507.652344 1040.242188 L 513.78125 1038.820312 L 492.28125 946.082031 L 581.953125 925.292969 L 603.453125 1018.03125 L 609.585938 1016.609375 L 588.085938 923.871094 L 677.757812 903.082031 L 699.257812 995.820312 L 705.386719 994.398438 L 683.886719 901.660156 L 773.558594 880.871094 L 795.058594 973.609375 L 801.191406 972.1875 L 779.691406 879.449219 L 872.425781 857.949219 L 871.007812 851.816406 L 778.269531 873.316406 L 757.480469 783.648438 L 850.214844 762.144531 L 848.792969 756.015625 L 756.058594 777.515625 L 735.269531 687.84375 L 828.003906 666.34375 L 826.582031 660.210938 L 733.847656 681.710938 L 713.054688 592.042969 L 805.792969 570.539062 L 804.371094 564.410156 L 711.632812 585.910156 L 690.84375 496.238281 L 783.582031 474.738281 L 782.160156 468.605469 L 689.421875 490.105469 L 668.632812 400.4375 L 761.371094 378.933594 L 759.949219 372.804688 L 667.210938 394.304688 L 646.421875 304.632812 Z M 544.488281 328.265625 L 565.277344 417.9375 L 475.605469 438.726562 L 454.816406 349.054688 Z M 419.515625 660.097656 L 440.308594 749.769531 L 350.636719 770.558594 L 329.847656 680.886719 Z M 328.425781 674.753906 L 307.632812 585.085938 L 397.304688 564.292969 L 418.09375 653.964844 Z M 425.648438 658.675781 L 515.320312 637.886719 L 536.109375 727.558594 L 446.4375 748.347656 Z M 424.226562 652.542969 L 403.4375 562.871094 L 493.109375 542.082031 L 513.898438 631.753906 Z M 402.015625 556.742188 L 381.226562 467.070312 L 470.898438 446.28125 L 491.6875 535.953125 Z M 395.882812 558.164062 L 306.210938 578.953125 L 285.421875 489.28125 L 375.09375 468.492188 Z M 300.082031 580.375 L 210.410156 601.164062 L 189.621094 511.492188 L 279.292969 490.703125 Z M 301.503906 586.503906 L 322.292969 676.175781 L 232.621094 696.96875 L 211.832031 607.296875 Z M 323.714844 682.308594 L 344.503906 771.980469 L 254.832031 792.769531 L 234.042969 703.097656 Z M 345.925781 778.109375 L 366.714844 867.78125 L 277.042969 888.570312 L 256.253906 798.902344 Z M 352.058594 776.691406 L 441.726562 755.898438 L 462.519531 845.570312 L 372.847656 866.359375 Z M 447.859375 754.476562 L 537.53125 733.6875 L 558.320312 823.359375 L 468.648438 844.148438 Z M 543.664062 732.265625 L 633.332031 711.476562 L 654.125 801.148438 L 564.453125 821.9375 Z M 542.242188 726.136719 L 521.449219 636.464844 L 611.121094 615.675781 L 631.914062 705.34375 Z M 520.03125 630.332031 L 499.238281 540.660156 L 588.910156 519.871094 L 609.699219 609.542969 Z M 497.816406 534.53125 L 477.027344 444.859375 L 566.699219 424.070312 L 587.488281 513.738281 Z M 448.683594 350.476562 L 469.476562 440.148438 L 379.804688 460.9375 L 359.015625 371.265625 Z M 352.882812 372.6875 L 373.671875 462.359375 L 284 483.148438 L 263.210938 393.480469 Z M 257.082031 394.902344 L 277.871094 484.570312 L 188.199219 505.363281 L 167.410156 415.691406 Z M 71.605469 437.902344 L 161.277344 417.113281 L 182.066406 506.78125 L 92.394531 527.574219 Z M 93.816406 533.703125 L 183.488281 512.914062 L 204.277344 602.585938 L 114.609375 623.375 Z M 116.027344 629.507812 L 205.699219 608.71875 L 226.488281 698.386719 L 136.820312 719.179688 Z M 138.242188 725.308594 L 227.910156 704.519531 L 248.703125 794.191406 L 159.03125 814.980469 Z M 160.453125 821.113281 L 250.125 800.324219 L 270.914062 889.992188 L 181.242188 910.785156 Z M 203.453125 1006.585938 L 182.664062 916.914062 L 272.335938 896.125 L 293.125 985.796875 Z M 299.253906 984.375 L 278.464844 894.703125 L 368.136719 873.914062 L 388.925781 963.585938 Z M 395.058594 962.164062 L 374.269531 872.492188 L 463.941406 851.703125 L 484.730469 941.375 Z M 490.859375 939.953125 L 470.070312 850.28125 L 559.742188 829.492188 L 580.53125 919.164062 Z M 586.664062 917.742188 L 565.875 828.070312 L 655.546875 807.28125 L 676.335938 896.949219 Z M 772.136719 874.738281 L 682.464844 895.527344 L 661.675781 805.859375 L 751.347656 785.066406 Z M 749.925781 778.9375 L 660.253906 799.726562 L 639.464844 710.054688 L 729.136719 689.265625 Z M 727.714844 683.132812 L 638.042969 703.925781 L 617.253906 614.253906 L 706.925781 593.460938 Z M 705.503906 587.332031 L 615.832031 608.121094 L 595.042969 518.449219 L 684.714844 497.660156 Z M 683.292969 491.527344 L 593.621094 512.320312 L 572.832031 422.648438 L 662.503906 401.859375 Z M 661.082031 395.726562 L 571.410156 416.515625 L 550.621094 326.84375 L 640.289062 306.054688 Z M 661.082031 395.726562 " fill-opacity="1" fill-rule="nonzero"/></g></g></g></g><g clip-path="url(#df17a03b8e)"><g clip-path="url(#f9b4f72881)"><g clip-path="url(#1067a9f44a)"><path fill="#404e5e" d="M 727.8125 1055.144531 L 893.6875 895.621094 L 1053.207031 1061.496094 L 887.332031 1221.019531 Z M 727.8125 1055.144531 " fill-opacity="1" fill-rule="nonzero"/></g></g></g><g clip-path="url(#c1a8b1b389)"><g clip-path="url(#ff7b63647b)"><g clip-path="url(#a2452d26d5)"><path fill="#404e5e" d="M 362.152344 -57 L 528.027344 -216.523438 L 687.550781 -50.648438 L 521.675781 108.875 Z M 362.152344 -57 " fill-opacity="1" fill-rule="nonzero"/></g></g></g><g clip-path="url(#302814e2b7)"><g clip-path="url(#c35a8d2f3d)"><g clip-path="url(#f6a7a77751)"><path fill="#404e5e" d="M -198.207031 729.746094 L -32.332031 570.222656 L 127.191406 736.097656 L -38.683594 895.621094 Z M -198.207031 729.746094 " fill-opacity="1" fill-rule="nonzero"/></g></g></g><g clip-path="url(#c96b97c3cd)"><g clip-path="url(#6ec36018d9)"><path fill="#404e5e" d="M 675.460938 1221.019531 L 933.582031 1221.019531 L 933.582031 1479.136719 L 675.460938 1479.136719 Z M 675.460938 1221.019531 " fill-opacity="1" fill-rule="nonzero"/></g></g><g clip-path="url(#2c8a734d1c)"><g clip-path="url(#8419d6a376)"><g clip-path="url(#78a3348d66)"><path fill="#404e5e" d="M 37.410156 1227.40625 L 375.78125 981.109375 L 625.515625 1324.203125 L 287.140625 1570.5 Z M 37.410156 1227.40625 " fill-opacity="1" fill-rule="nonzero"/></g></g></g><g clip-path="url(#57f8704afc)"><path fill="#fbb700" d="M 180.347656 1267.09375 L 452.789062 1267.09375 L 452.789062 1308.480469 L 180.347656 1308.480469 Z M 180.347656 1267.09375 " fill-opacity="1" fill-rule="nonzero"/></g><g fill="#ffffff" fill-opacity="1"><g transform="translate(135.798838, 1242.023387)"><g><path d="M 15.625 -23.78125 C 14.476562 -23.78125 13.460938 -23.554688 12.578125 -23.109375 C 11.691406 -22.671875 10.945312 -22.03125 10.34375 -21.1875 C 9.738281 -20.34375 9.28125 -19.320312 8.96875 -18.125 C 8.65625 -16.9375 8.5 -15.597656 8.5 -14.109375 C 8.5 -12.109375 8.75 -10.398438 9.25 -8.984375 C 9.75 -7.566406 10.519531 -6.484375 11.5625 -5.734375 C 12.613281 -4.992188 13.96875 -4.625 15.625 -4.625 C 16.78125 -4.625 17.9375 -4.75 19.09375 -5 C 20.25 -5.257812 21.507812 -5.628906 22.875 -6.109375 L 22.875 -1.0625 C 21.613281 -0.550781 20.375 -0.179688 19.15625 0.046875 C 17.945312 0.273438 16.582031 0.390625 15.0625 0.390625 C 12.132812 0.390625 9.726562 -0.210938 7.84375 -1.421875 C 5.96875 -2.640625 4.578125 -4.335938 3.671875 -6.515625 C 2.765625 -8.691406 2.3125 -11.238281 2.3125 -14.15625 C 2.3125 -16.300781 2.601562 -18.265625 3.1875 -20.046875 C 3.769531 -21.835938 4.625 -23.382812 5.75 -24.6875 C 6.875 -26 8.265625 -27.007812 9.921875 -27.71875 C 11.578125 -28.4375 13.476562 -28.796875 15.625 -28.796875 C 17.039062 -28.796875 18.457031 -28.617188 19.875 -28.265625 C 21.289062 -27.910156 22.644531 -27.421875 23.9375 -26.796875 L 22 -21.90625 C 20.9375 -22.40625 19.867188 -22.84375 18.796875 -23.21875 C 17.722656 -23.59375 16.664062 -23.78125 15.625 -23.78125 Z M 15.625 -23.78125 "/></g></g></g><g fill="#ffffff" fill-opacity="1"><g transform="translate(161.137551, 1242.023387)"><g><path d="M 12 -22.15625 C 14.914062 -22.15625 17.148438 -21.519531 18.703125 -20.25 C 20.253906 -18.976562 21.03125 -17.050781 21.03125 -14.46875 L 21.03125 0 L 16.890625 0 L 15.75 -2.953125 L 15.59375 -2.953125 C 14.96875 -2.171875 14.332031 -1.535156 13.6875 -1.046875 C 13.039062 -0.554688 12.296875 -0.195312 11.453125 0.03125 C 10.609375 0.269531 9.585938 0.390625 8.390625 0.390625 C 7.109375 0.390625 5.957031 0.144531 4.9375 -0.34375 C 3.925781 -0.84375 3.128906 -1.597656 2.546875 -2.609375 C 1.960938 -3.628906 1.671875 -4.921875 1.671875 -6.484375 C 1.671875 -8.785156 2.476562 -10.484375 4.09375 -11.578125 C 5.71875 -12.671875 8.144531 -13.273438 11.375 -13.390625 L 15.140625 -13.515625 L 15.140625 -14.46875 C 15.140625 -15.601562 14.84375 -16.4375 14.25 -16.96875 C 13.65625 -17.5 12.828125 -17.765625 11.765625 -17.765625 C 10.710938 -17.765625 9.679688 -17.613281 8.671875 -17.3125 C 7.671875 -17.019531 6.664062 -16.644531 5.65625 -16.1875 L 3.6875 -20.1875 C 4.84375 -20.800781 6.132812 -21.28125 7.5625 -21.625 C 8.988281 -21.976562 10.46875 -22.15625 12 -22.15625 Z M 15.140625 -10.0625 L 12.859375 -9.984375 C 10.941406 -9.929688 9.609375 -9.585938 8.859375 -8.953125 C 8.117188 -8.316406 7.75 -7.484375 7.75 -6.453125 C 7.75 -5.546875 8.015625 -4.898438 8.546875 -4.515625 C 9.078125 -4.128906 9.769531 -3.9375 10.625 -3.9375 C 11.894531 -3.9375 12.960938 -4.3125 13.828125 -5.0625 C 14.703125 -5.8125 15.140625 -6.878906 15.140625 -8.265625 Z M 15.140625 -10.0625 "/></g></g></g><g fill="#ffffff" fill-opacity="1"><g transform="translate(185.155934, 1242.023387)"><g><path d="M 15.21875 -22.109375 C 15.519531 -22.109375 15.867188 -22.09375 16.265625 -22.0625 C 16.660156 -22.03125 16.976562 -21.988281 17.21875 -21.9375 L 16.78125 -16.390625 C 16.582031 -16.453125 16.304688 -16.5 15.953125 -16.53125 C 15.597656 -16.5625 15.289062 -16.578125 15.03125 -16.578125 C 14.269531 -16.578125 13.53125 -16.476562 12.8125 -16.28125 C 12.09375 -16.09375 11.445312 -15.78125 10.875 -15.34375 C 10.300781 -14.914062 9.847656 -14.347656 9.515625 -13.640625 C 9.191406 -12.929688 9.03125 -12.066406 9.03125 -11.046875 L 9.03125 0 L 3.109375 0 L 3.109375 -21.703125 L 7.59375 -21.703125 L 8.46875 -18.0625 L 8.75 -18.0625 C 9.175781 -18.800781 9.707031 -19.476562 10.34375 -20.09375 C 10.988281 -20.707031 11.722656 -21.195312 12.546875 -21.5625 C 13.367188 -21.925781 14.257812 -22.109375 15.21875 -22.109375 Z M 15.21875 -22.109375 "/></g></g></g><g fill="#ffffff" fill-opacity="1"><g transform="translate(203.213404, 1242.023387)"><g><path d="M 12.0625 -22.109375 C 14.0625 -22.109375 15.785156 -21.722656 17.234375 -20.953125 C 18.691406 -20.191406 19.8125 -19.078125 20.59375 -17.609375 C 21.382812 -16.148438 21.78125 -14.363281 21.78125 -12.25 L 21.78125 -9.375 L 7.78125 -9.375 C 7.851562 -7.707031 8.359375 -6.394531 9.296875 -5.4375 C 10.234375 -4.488281 11.535156 -4.015625 13.203125 -4.015625 C 14.585938 -4.015625 15.851562 -4.15625 17 -4.4375 C 18.15625 -4.726562 19.34375 -5.160156 20.5625 -5.734375 L 20.5625 -1.140625 C 19.488281 -0.609375 18.363281 -0.222656 17.1875 0.015625 C 16.019531 0.265625 14.601562 0.390625 12.9375 0.390625 C 10.757812 0.390625 8.832031 -0.0078125 7.15625 -0.8125 C 5.476562 -1.613281 4.160156 -2.835938 3.203125 -4.484375 C 2.253906 -6.128906 1.78125 -8.203125 1.78125 -10.703125 C 1.78125 -13.234375 2.210938 -15.34375 3.078125 -17.03125 C 3.941406 -18.726562 5.140625 -20 6.671875 -20.84375 C 8.210938 -21.6875 10.007812 -22.109375 12.0625 -22.109375 Z M 12.09375 -17.90625 C 10.945312 -17.90625 9.992188 -17.535156 9.234375 -16.796875 C 8.472656 -16.054688 8.035156 -14.894531 7.921875 -13.3125 L 16.234375 -13.3125 C 16.222656 -14.195312 16.0625 -14.984375 15.75 -15.671875 C 15.445312 -16.359375 14.992188 -16.898438 14.390625 -17.296875 C 13.796875 -17.703125 13.03125 -17.90625 12.09375 -17.90625 Z M 12.09375 -17.90625 "/></g></g></g><g fill="#ffffff" fill-opacity="1"><g transform="translate(226.707532, 1242.023387)"><g/></g></g><g fill="#ffffff" fill-opacity="1"><g transform="translate(237.037182, 1242.023387)"><g><path d="M 15.109375 -17.265625 L 9.984375 -17.265625 L 9.984375 0 L 4.0625 0 L 4.0625 -17.265625 L 0.796875 -17.265625 L 0.796875 -20.109375 L 4.0625 -21.703125 L 4.0625 -23.296875 C 4.0625 -25.148438 4.375 -26.585938 5 -27.609375 C 5.625 -28.640625 6.507812 -29.363281 7.65625 -29.78125 C 8.800781 -30.207031 10.160156 -30.421875 11.734375 -30.421875 C 12.878906 -30.421875 13.925781 -30.328125 14.875 -30.140625 C 15.820312 -29.953125 16.59375 -29.742188 17.1875 -29.515625 L 15.671875 -25.171875 C 15.210938 -25.304688 14.71875 -25.429688 14.1875 -25.546875 C 13.65625 -25.671875 13.050781 -25.734375 12.375 -25.734375 C 11.539062 -25.734375 10.929688 -25.484375 10.546875 -24.984375 C 10.171875 -24.484375 9.984375 -23.84375 9.984375 -23.0625 L 9.984375 -21.703125 L 15.109375 -21.703125 Z M 15.109375 -17.265625 "/></g></g></g><g fill="#ffffff" fill-opacity="1"><g transform="translate(252.434578, 1242.023387)"><g><path d="M 22.828125 -10.890625 C 22.828125 -9.078125 22.582031 -7.472656 22.09375 -6.078125 C 21.613281 -4.679688 20.910156 -3.5 19.984375 -2.53125 C 19.054688 -1.570312 17.941406 -0.84375 16.640625 -0.34375 C 15.347656 0.144531 13.882812 0.390625 12.25 0.390625 C 10.71875 0.390625 9.316406 0.144531 8.046875 -0.34375 C 6.773438 -0.84375 5.664062 -1.570312 4.71875 -2.53125 C 3.78125 -3.5 3.054688 -4.679688 2.546875 -6.078125 C 2.035156 -7.472656 1.78125 -9.078125 1.78125 -10.890625 C 1.78125 -13.296875 2.207031 -15.332031 3.0625 -17 C 3.914062 -18.675781 5.132812 -19.945312 6.71875 -20.8125 C 8.300781 -21.675781 10.1875 -22.109375 12.375 -22.109375 C 14.40625 -22.109375 16.207031 -21.675781 17.78125 -20.8125 C 19.351562 -19.945312 20.585938 -18.675781 21.484375 -17 C 22.378906 -15.332031 22.828125 -13.296875 22.828125 -10.890625 Z M 7.828125 -10.890625 C 7.828125 -9.460938 7.976562 -8.265625 8.28125 -7.296875 C 8.59375 -6.328125 9.078125 -5.597656 9.734375 -5.109375 C 10.398438 -4.617188 11.265625 -4.375 12.328125 -4.375 C 13.378906 -4.375 14.226562 -4.617188 14.875 -5.109375 C 15.53125 -5.597656 16.007812 -6.328125 16.3125 -7.296875 C 16.625 -8.265625 16.78125 -9.460938 16.78125 -10.890625 C 16.78125 -12.328125 16.625 -13.519531 16.3125 -14.46875 C 16.007812 -15.425781 15.53125 -16.144531 14.875 -16.625 C 14.21875 -17.101562 13.359375 -17.34375 12.296875 -17.34375 C 10.722656 -17.34375 9.582031 -16.800781 8.875 -15.71875 C 8.175781 -14.644531 7.828125 -13.035156 7.828125 -10.890625 Z M 7.828125 -10.890625 "/></g></g></g><g fill="#ffffff" fill-opacity="1"><g transform="translate(277.054871, 1242.023387)"><g><path d="M 15.21875 -22.109375 C 15.519531 -22.109375 15.867188 -22.09375 16.265625 -22.0625 C 16.660156 -22.03125 16.976562 -21.988281 17.21875 -21.9375 L 16.78125 -16.390625 C 16.582031 -16.453125 16.304688 -16.5 15.953125 -16.53125 C 15.597656 -16.5625 15.289062 -16.578125 15.03125 -16.578125 C 14.269531 -16.578125 13.53125 -16.476562 12.8125 -16.28125 C 12.09375 -16.09375 11.445312 -15.78125 10.875 -15.34375 C 10.300781 -14.914062 9.847656 -14.347656 9.515625 -13.640625 C 9.191406 -12.929688 9.03125 -12.066406 9.03125 -11.046875 L 9.03125 0 L 3.109375 0 L 3.109375 -21.703125 L 7.59375 -21.703125 L 8.46875 -18.0625 L 8.75 -18.0625 C 9.175781 -18.800781 9.707031 -19.476562 10.34375 -20.09375 C 10.988281 -20.707031 11.722656 -21.195312 12.546875 -21.5625 C 13.367188 -21.925781 14.257812 -22.109375 15.21875 -22.109375 Z M 15.21875 -22.109375 "/></g></g></g><g fill="#ffffff" fill-opacity="1"><g transform="translate(295.112341, 1242.023387)"><g/></g></g><g fill="#ffffff" fill-opacity="1"><g transform="translate(305.441991, 1242.023387)"><g><path d="M 12.40625 -16.703125 L 18.328125 -28.390625 L 24.8125 -28.390625 L 15.390625 -11.046875 L 15.390625 0 L 9.421875 0 L 9.421875 -10.859375 L 0 -28.390625 L 6.53125 -28.390625 Z M 12.40625 -16.703125 "/></g></g></g><g fill="#ffffff" fill-opacity="1"><g transform="translate(330.25645, 1242.023387)"><g><path d="M 22.828125 -10.890625 C 22.828125 -9.078125 22.582031 -7.472656 22.09375 -6.078125 C 21.613281 -4.679688 20.910156 -3.5 19.984375 -2.53125 C 19.054688 -1.570312 17.941406 -0.84375 16.640625 -0.34375 C 15.347656 0.144531 13.882812 0.390625 12.25 0.390625 C 10.71875 0.390625 9.316406 0.144531 8.046875 -0.34375 C 6.773438 -0.84375 5.664062 -1.570312 4.71875 -2.53125 C 3.78125 -3.5 3.054688 -4.679688 2.546875 -6.078125 C 2.035156 -7.472656 1.78125 -9.078125 1.78125 -10.890625 C 1.78125 -13.296875 2.207031 -15.332031 3.0625 -17 C 3.914062 -18.675781 5.132812 -19.945312 6.71875 -20.8125 C 8.300781 -21.675781 10.1875 -22.109375 12.375 -22.109375 C 14.40625 -22.109375 16.207031 -21.675781 17.78125 -20.8125 C 19.351562 -19.945312 20.585938 -18.675781 21.484375 -17 C 22.378906 -15.332031 22.828125 -13.296875 22.828125 -10.890625 Z M 7.828125 -10.890625 C 7.828125 -9.460938 7.976562 -8.265625 8.28125 -7.296875 C 8.59375 -6.328125 9.078125 -5.597656 9.734375 -5.109375 C 10.398438 -4.617188 11.265625 -4.375 12.328125 -4.375 C 13.378906 -4.375 14.226562 -4.617188 14.875 -5.109375 C 15.53125 -5.597656 16.007812 -6.328125 16.3125 -7.296875 C 16.625 -8.265625 16.78125 -9.460938 16.78125 -10.890625 C 16.78125 -12.328125 16.625 -13.519531 16.3125 -14.46875 C 16.007812 -15.425781 15.53125 -16.144531 14.875 -16.625 C 14.21875 -17.101562 13.359375 -17.34375 12.296875 -17.34375 C 10.722656 -17.34375 9.582031 -16.800781 8.875 -15.71875 C 8.175781 -14.644531 7.828125 -13.035156 7.828125 -10.890625 Z M 7.828125 -10.890625 "/></g></g></g><g fill="#ffffff" fill-opacity="1"><g transform="translate(354.876742, 1242.023387)"><g><path d="M 23.03125 -21.703125 L 23.03125 0 L 18.484375 0 L 17.6875 -2.78125 L 17.375 -2.78125 C 16.90625 -2.039062 16.320312 -1.4375 15.625 -0.96875 C 14.925781 -0.5 14.15625 -0.15625 13.3125 0.0625 C 12.476562 0.28125 11.609375 0.390625 10.703125 0.390625 C 9.148438 0.390625 7.796875 0.113281 6.640625 -0.4375 C 5.484375 -0.988281 4.582031 -1.84375 3.9375 -3 C 3.300781 -4.164062 2.984375 -5.679688 2.984375 -7.546875 L 2.984375 -21.703125 L 8.90625 -21.703125 L 8.90625 -9.03125 C 8.90625 -7.476562 9.179688 -6.304688 9.734375 -5.515625 C 10.296875 -4.722656 11.1875 -4.328125 12.40625 -4.328125 C 13.613281 -4.328125 14.554688 -4.601562 15.234375 -5.15625 C 15.921875 -5.707031 16.40625 -6.515625 16.6875 -7.578125 C 16.96875 -8.648438 17.109375 -9.957031 17.109375 -11.5 L 17.109375 -21.703125 Z M 23.03125 -21.703125 "/></g></g></g><g fill="#ffffff" fill-opacity="1"><g transform="translate(381.011544, 1242.023387)"><g><path d="M 15.21875 -22.109375 C 15.519531 -22.109375 15.867188 -22.09375 16.265625 -22.0625 C 16.660156 -22.03125 16.976562 -21.988281 17.21875 -21.9375 L 16.78125 -16.390625 C 16.582031 -16.453125 16.304688 -16.5 15.953125 -16.53125 C 15.597656 -16.5625 15.289062 -16.578125 15.03125 -16.578125 C 14.269531 -16.578125 13.53125 -16.476562 12.8125 -16.28125 C 12.09375 -16.09375 11.445312 -15.78125 10.875 -15.34375 C 10.300781 -14.914062 9.847656 -14.347656 9.515625 -13.640625 C 9.191406 -12.929688 9.03125 -12.066406 9.03125 -11.046875 L 9.03125 0 L 3.109375 0 L 3.109375 -21.703125 L 7.59375 -21.703125 L 8.46875 -18.0625 L 8.75 -18.0625 C 9.175781 -18.800781 9.707031 -19.476562 10.34375 -20.09375 C 10.988281 -20.707031 11.722656 -21.195312 12.546875 -21.5625 C 13.367188 -21.925781 14.257812 -22.109375 15.21875 -22.109375 Z M 15.21875 -22.109375 "/></g></g></g><g fill="#ffffff" fill-opacity="1"><g transform="translate(399.069024, 1242.023387)"><g/></g></g><g fill="#ffffff" fill-opacity="1"><g transform="translate(409.398674, 1242.023387)"><g><path d="M 12.640625 -28.390625 C 16.304688 -28.390625 18.976562 -27.601562 20.65625 -26.03125 C 22.34375 -24.457031 23.1875 -22.289062 23.1875 -19.53125 C 23.1875 -18.289062 23 -17.101562 22.625 -15.96875 C 22.25 -14.832031 21.632812 -13.820312 20.78125 -12.9375 C 19.9375 -12.0625 18.804688 -11.367188 17.390625 -10.859375 C 15.984375 -10.347656 14.242188 -10.09375 12.171875 -10.09375 L 9.59375 -10.09375 L 9.59375 0 L 3.578125 0 L 3.578125 -28.390625 Z M 12.328125 -23.453125 L 9.59375 -23.453125 L 9.59375 -15.03125 L 11.578125 -15.03125 C 12.703125 -15.03125 13.675781 -15.175781 14.5 -15.46875 C 15.332031 -15.769531 15.972656 -16.238281 16.421875 -16.875 C 16.878906 -17.507812 17.109375 -18.320312 17.109375 -19.3125 C 17.109375 -20.71875 16.71875 -21.757812 15.9375 -22.4375 C 15.164062 -23.113281 13.960938 -23.453125 12.328125 -23.453125 Z M 12.328125 -23.453125 "/></g></g></g><g fill="#ffffff" fill-opacity="1"><g transform="translate(434.368477, 1242.023387)"><g><path d="M 12.0625 -22.109375 C 14.0625 -22.109375 15.785156 -21.722656 17.234375 -20.953125 C 18.691406 -20.191406 19.8125 -19.078125 20.59375 -17.609375 C 21.382812 -16.148438 21.78125 -14.363281 21.78125 -12.25 L 21.78125 -9.375 L 7.78125 -9.375 C 7.851562 -7.707031 8.359375 -6.394531 9.296875 -5.4375 C 10.234375 -4.488281 11.535156 -4.015625 13.203125 -4.015625 C 14.585938 -4.015625 15.851562 -4.15625 17 -4.4375 C 18.15625 -4.726562 19.34375 -5.160156 20.5625 -5.734375 L 20.5625 -1.140625 C 19.488281 -0.609375 18.363281 -0.222656 17.1875 0.015625 C 16.019531 0.265625 14.601562 0.390625 12.9375 0.390625 C 10.757812 0.390625 8.832031 -0.0078125 7.15625 -0.8125 C 5.476562 -1.613281 4.160156 -2.835938 3.203125 -4.484375 C 2.253906 -6.128906 1.78125 -8.203125 1.78125 -10.703125 C 1.78125 -13.234375 2.210938 -15.34375 3.078125 -17.03125 C 3.941406 -18.726562 5.140625 -20 6.671875 -20.84375 C 8.210938 -21.6875 10.007812 -22.109375 12.0625 -22.109375 Z M 12.09375 -17.90625 C 10.945312 -17.90625 9.992188 -17.535156 9.234375 -16.796875 C 8.472656 -16.054688 8.035156 -14.894531 7.921875 -13.3125 L 16.234375 -13.3125 C 16.222656 -14.195312 16.0625 -14.984375 15.75 -15.671875 C 15.445312 -16.359375 14.992188 -16.898438 14.390625 -17.296875 C 13.796875 -17.703125 13.03125 -17.90625 12.09375 -17.90625 Z M 12.09375 -17.90625 "/></g></g></g><g fill="#ffffff" fill-opacity="1"><g transform="translate(457.862615, 1242.023387)"><g><path d="M 12.25 -4.328125 C 12.894531 -4.328125 13.523438 -4.390625 14.140625 -4.515625 C 14.753906 -4.648438 15.367188 -4.816406 15.984375 -5.015625 L 15.984375 -0.609375 C 15.347656 -0.316406 14.5625 -0.078125 13.625 0.109375 C 12.6875 0.296875 11.660156 0.390625 10.546875 0.390625 C 9.253906 0.390625 8.09375 0.179688 7.0625 -0.234375 C 6.03125 -0.660156 5.21875 -1.394531 4.625 -2.4375 C 4.039062 -3.476562 3.75 -4.929688 3.75 -6.796875 L 3.75 -17.265625 L 0.90625 -17.265625 L 0.90625 -19.765625 L 4.171875 -21.75 L 5.890625 -26.328125 L 9.671875 -26.328125 L 9.671875 -21.703125 L 15.75 -21.703125 L 15.75 -17.265625 L 9.671875 -17.265625 L 9.671875 -6.796875 C 9.671875 -5.960938 9.90625 -5.34375 10.375 -4.9375 C 10.851562 -4.53125 11.476562 -4.328125 12.25 -4.328125 Z M 12.25 -4.328125 "/></g></g></g><g fill="#ffffff" fill-opacity="1"><g transform="translate(475.124009, 1242.023387)"><g><path d="M 18.25 -6.453125 C 18.25 -4.972656 17.898438 -3.722656 17.203125 -2.703125 C 16.515625 -1.691406 15.484375 -0.921875 14.109375 -0.390625 C 12.742188 0.128906 11.035156 0.390625 8.984375 0.390625 C 7.472656 0.390625 6.175781 0.289062 5.09375 0.09375 C 4.007812 -0.09375 2.921875 -0.414062 1.828125 -0.875 L 1.828125 -5.765625 C 3.003906 -5.234375 4.269531 -4.796875 5.625 -4.453125 C 6.976562 -4.109375 8.164062 -3.9375 9.1875 -3.9375 C 10.332031 -3.9375 11.15625 -4.109375 11.65625 -4.453125 C 12.15625 -4.796875 12.40625 -5.25 12.40625 -5.8125 C 12.40625 -6.164062 12.304688 -6.488281 12.109375 -6.78125 C 11.910156 -7.070312 11.476562 -7.398438 10.8125 -7.765625 C 10.15625 -8.140625 9.117188 -8.625 7.703125 -9.21875 C 6.347656 -9.789062 5.234375 -10.367188 4.359375 -10.953125 C 3.484375 -11.535156 2.832031 -12.222656 2.40625 -13.015625 C 1.988281 -13.816406 1.78125 -14.832031 1.78125 -16.0625 C 1.78125 -18.0625 2.5625 -19.566406 4.125 -20.578125 C 5.6875 -21.597656 7.773438 -22.109375 10.390625 -22.109375 C 11.734375 -22.109375 13.015625 -21.972656 14.234375 -21.703125 C 15.460938 -21.429688 16.722656 -21 18.015625 -20.40625 L 16.234375 -16.140625 C 15.160156 -16.597656 14.144531 -16.976562 13.1875 -17.28125 C 12.238281 -17.582031 11.273438 -17.734375 10.296875 -17.734375 C 9.421875 -17.734375 8.765625 -17.613281 8.328125 -17.375 C 7.890625 -17.144531 7.671875 -16.789062 7.671875 -16.3125 C 7.671875 -15.957031 7.78125 -15.644531 8 -15.375 C 8.226562 -15.101562 8.671875 -14.800781 9.328125 -14.46875 C 9.984375 -14.144531 10.945312 -13.722656 12.21875 -13.203125 C 13.445312 -12.703125 14.515625 -12.175781 15.421875 -11.625 C 16.328125 -11.070312 17.023438 -10.390625 17.515625 -9.578125 C 18.003906 -8.773438 18.25 -7.734375 18.25 -6.453125 Z M 18.25 -6.453125 "/></g></g></g><g clip-path="url(#a0a73c1637)"><g clip-path="url(#156a2779aa)"><path fill="#404e5e" d="M 508.050781 311.046875 L 900.183594 311.046875 L 900.183594 703.179688 L 508.050781 703.179688 Z M 508.050781 311.046875 " fill-opacity="1" fill-rule="nonzero"/></g></g></svg>