<svg xmlns="http://www.w3.org/2000/svg" xmlns:xlink="http://www.w3.org/1999/xlink" width="865" zoomAndPan="magnify" viewBox="0 0 648.75 378.749986" height="505" preserveAspectRatio="xMidYMid meet" version="1.0"><defs><g/><clipPath id="18198801fd"><path d="M 0.804688 0.210938 L 648.410156 0.210938 L 648.410156 329.160156 L 0.804688 329.160156 Z M 0.804688 0.210938 " clip-rule="nonzero"/></clipPath><clipPath id="85dd4a5292"><path d="M 39.042969 0.210938 L 610.386719 0.210938 C 620.527344 0.210938 630.253906 4.238281 637.425781 11.410156 C 644.597656 18.582031 648.625 28.308594 648.625 38.449219 L 648.625 290.921875 C 648.625 301.0625 644.597656 310.789062 637.425781 317.960938 C 630.253906 325.128906 620.527344 329.160156 610.386719 329.160156 L 39.042969 329.160156 C 28.902344 329.160156 19.175781 325.128906 12.003906 317.960938 C 4.832031 310.789062 0.804688 301.0625 0.804688 290.921875 L 0.804688 38.449219 C 0.804688 28.308594 4.832031 18.582031 12.003906 11.410156 C 19.175781 4.238281 28.902344 0.210938 39.042969 0.210938 Z M 39.042969 0.210938 " clip-rule="nonzero"/></clipPath><clipPath id="31a186d359"><path d="M 270.0625 29.074219 L 288.023438 29.074219 L 288.023438 47.035156 L 270.0625 47.035156 Z M 270.0625 29.074219 " clip-rule="nonzero"/></clipPath><clipPath id="a23ee67d18"><path d="M 279.042969 29.074219 C 274.085938 29.074219 270.0625 33.09375 270.0625 38.054688 C 270.0625 43.011719 274.085938 47.035156 279.042969 47.035156 C 284.003906 47.035156 288.023438 43.011719 288.023438 38.054688 C 288.023438 33.09375 284.003906 29.074219 279.042969 29.074219 Z M 279.042969 29.074219 " clip-rule="nonzero"/></clipPath><clipPath id="823d5827a6"><path d="M 306.753906 29.074219 L 324.714844 29.074219 L 324.714844 47.035156 L 306.753906 47.035156 Z M 306.753906 29.074219 " clip-rule="nonzero"/></clipPath><clipPath id="636909f79c"><path d="M 315.734375 29.074219 C 310.773438 29.074219 306.753906 33.09375 306.753906 38.054688 C 306.753906 43.011719 310.773438 47.035156 315.734375 47.035156 C 320.695312 47.035156 324.714844 43.011719 324.714844 38.054688 C 324.714844 33.09375 320.695312 29.074219 315.734375 29.074219 Z M 315.734375 29.074219 " clip-rule="nonzero"/></clipPath><clipPath id="568c2613f7"><path d="M 343.457031 29.074219 L 361.417969 29.074219 L 361.417969 47.035156 L 343.457031 47.035156 Z M 343.457031 29.074219 " clip-rule="nonzero"/></clipPath><clipPath id="0b4a93a051"><path d="M 352.4375 29.074219 C 347.480469 29.074219 343.457031 33.09375 343.457031 38.054688 C 343.457031 43.011719 347.480469 47.035156 352.4375 47.035156 C 357.398438 47.035156 361.417969 43.011719 361.417969 38.054688 C 361.417969 33.09375 357.398438 29.074219 352.4375 29.074219 Z M 352.4375 29.074219 " clip-rule="nonzero"/></clipPath><clipPath id="9c4b050796"><path d="M 275.15625 286.777344 L 359.917969 286.777344 L 359.917969 371.539062 L 275.15625 371.539062 Z M 275.15625 286.777344 " clip-rule="nonzero"/></clipPath><clipPath id="2aa59f9573"><path d="M 317.535156 286.777344 C 294.128906 286.777344 275.15625 305.753906 275.15625 329.160156 C 275.15625 352.566406 294.128906 371.539062 317.535156 371.539062 C 340.945312 371.539062 359.917969 352.566406 359.917969 329.160156 C 359.917969 305.753906 340.945312 286.777344 317.535156 286.777344 Z M 317.535156 286.777344 " clip-rule="nonzero"/></clipPath><clipPath id="124928d21e"><path d="M 270.0625 286.777344 L 361.417969 286.777344 L 361.417969 378.132812 L 270.0625 378.132812 Z M 270.0625 286.777344 " clip-rule="nonzero"/></clipPath><clipPath id="1be0c3f970"><path d="M 315.742188 286.777344 C 290.515625 286.777344 270.0625 307.226562 270.0625 332.457031 C 270.0625 357.683594 290.515625 378.132812 315.742188 378.132812 C 340.96875 378.132812 361.417969 357.683594 361.417969 332.457031 C 361.417969 307.226562 340.96875 286.777344 315.742188 286.777344 Z M 315.742188 286.777344 " clip-rule="nonzero"/></clipPath><clipPath id="81e9f7142c"><path d="M 278.015625 294.730469 L 353.464844 294.730469 L 353.464844 370.179688 L 278.015625 370.179688 Z M 278.015625 294.730469 " clip-rule="nonzero"/></clipPath><clipPath id="0e9cf8caff"><path d="M 315.742188 294.730469 C 294.90625 294.730469 278.015625 311.621094 278.015625 332.457031 C 278.015625 353.289062 294.90625 370.179688 315.742188 370.179688 C 336.574219 370.179688 353.464844 353.289062 353.464844 332.457031 C 353.464844 311.621094 336.574219 294.730469 315.742188 294.730469 Z M 315.742188 294.730469 " clip-rule="nonzero"/></clipPath></defs><g clip-path="url(#18198801fd)"><g clip-path="url(#85dd4a5292)"><path fill="#ffffff" d="M 0.804688 0.210938 L 648.625 0.210938 L 648.625 329.160156 L 0.804688 329.160156 Z M 0.804688 0.210938 " fill-opacity="1" fill-rule="nonzero"/></g></g><g clip-path="url(#31a186d359)"><g clip-path="url(#a23ee67d18)"><path fill="#000000" d="M 270.0625 29.074219 L 288.023438 29.074219 L 288.023438 47.035156 L 270.0625 47.035156 Z M 270.0625 29.074219 " fill-opacity="1" fill-rule="nonzero"/></g></g><g clip-path="url(#823d5827a6)"><g clip-path="url(#636909f79c)"><path fill="#666666" d="M 306.753906 29.074219 L 324.714844 29.074219 L 324.714844 47.035156 L 306.753906 47.035156 Z M 306.753906 29.074219 " fill-opacity="1" fill-rule="nonzero"/></g></g><g clip-path="url(#568c2613f7)"><g clip-path="url(#0b4a93a051)"><path fill="#666666" d="M 343.457031 29.074219 L 361.417969 29.074219 L 361.417969 47.035156 L 343.457031 47.035156 Z M 343.457031 29.074219 " fill-opacity="1" fill-rule="nonzero"/></g></g><g clip-path="url(#9c4b050796)"><g clip-path="url(#2aa59f9573)"><path fill="#d8d8d7" d="M 275.15625 286.777344 L 359.917969 286.777344 L 359.917969 371.539062 L 275.15625 371.539062 Z M 275.15625 286.777344 " fill-opacity="1" fill-rule="nonzero"/></g></g><g clip-path="url(#124928d21e)"><g clip-path="url(#1be0c3f970)"><path fill="#d8d8d7" d="M 270.0625 286.777344 L 361.417969 286.777344 L 361.417969 378.132812 L 270.0625 378.132812 Z M 270.0625 286.777344 " fill-opacity="1" fill-rule="nonzero"/></g></g><g clip-path="url(#81e9f7142c)"><g clip-path="url(#0e9cf8caff)"><path fill="#fab400" d="M 278.015625 294.730469 L 353.464844 294.730469 L 353.464844 370.179688 L 278.015625 370.179688 Z M 278.015625 294.730469 " fill-opacity="1" fill-rule="nonzero"/></g></g><g fill="#000000" fill-opacity="1"><g transform="translate(301.134186, 353.410732)"><g><path d="M 2.890625 -14.546875 L 21.703125 -21.796875 L 2.890625 -29.15625 L 2.890625 -36.609375 L 31.625 -24.953125 L 31.625 -18.75 L 2.890625 -7.09375 Z M 2.890625 -14.546875 "/></g></g></g></svg>