<svg xmlns="http://www.w3.org/2000/svg" xmlns:xlink="http://www.w3.org/1999/xlink" width="741" zoomAndPan="magnify" viewBox="0 0 555.75 454.499987" height="606" preserveAspectRatio="xMidYMid meet" version="1.0"><defs><g/><clipPath id="25ceb16eed"><path d="M 4.1875 0.542969 L 555.308594 0.542969 L 555.308594 431.71875 L 4.1875 431.71875 Z M 4.1875 0.542969 " clip-rule="nonzero"/></clipPath><clipPath id="3ba8b37130"><path d="M 42.414062 0.542969 L 517.085938 0.542969 C 527.222656 0.542969 536.945312 4.570312 544.113281 11.738281 C 551.28125 18.90625 555.308594 28.628906 555.308594 38.769531 L 555.308594 393.496094 C 555.308594 403.632812 551.28125 413.355469 544.113281 420.523438 C 536.945312 427.691406 527.222656 431.71875 517.085938 431.71875 L 42.414062 431.71875 C 32.273438 431.71875 22.550781 427.691406 15.382812 420.523438 C 8.214844 413.355469 4.1875 403.632812 4.1875 393.496094 L 4.1875 38.769531 C 4.1875 28.628906 8.214844 18.90625 15.382812 11.738281 C 22.550781 4.570312 32.273438 0.542969 42.414062 0.542969 Z M 42.414062 0.542969 " clip-rule="nonzero"/></clipPath></defs><g clip-path="url(#25ceb16eed)"><g clip-path="url(#3ba8b37130)"><path fill="#253347" d="M 4.1875 0.542969 L 555.308594 0.542969 L 555.308594 431.71875 L 4.1875 431.71875 Z M 4.1875 0.542969 " fill-opacity="1" fill-rule="nonzero"/></g></g><g fill="#ffffff" fill-opacity="1"><g transform="translate(38.26658, 297.556058)"><g><path d="M 19.859375 0.65625 C 14.191406 0.65625 9.882812 -1.070312 6.9375 -4.53125 C 4 -7.988281 2.53125 -12.851562 2.53125 -19.125 L 2.53125 -52.53125 C 2.53125 -58.582031 4 -63.144531 6.9375 -66.21875 C 9.882812 -69.300781 14.191406 -70.84375 19.859375 -70.84375 C 25.515625 -70.84375 29.8125 -69.300781 32.75 -66.21875 C 35.695312 -63.144531 37.171875 -58.582031 37.171875 -52.53125 L 37.171875 -19.125 C 37.171875 -12.800781 35.695312 -7.921875 32.75 -4.484375 C 29.8125 -1.054688 25.515625 0.65625 19.859375 0.65625 Z M 19.859375 -12.25 C 21.109375 -12.25 21.953125 -12.796875 22.390625 -13.890625 C 22.828125 -14.984375 23.046875 -16.507812 23.046875 -18.46875 L 23.046875 -52.78125 C 23.046875 -54.300781 22.835938 -55.535156 22.421875 -56.484375 C 22.015625 -57.441406 21.1875 -57.921875 19.9375 -57.921875 C 17.59375 -57.921875 16.421875 -56.148438 16.421875 -52.609375 L 16.421875 -18.390625 C 16.421875 -16.367188 16.664062 -14.835938 17.15625 -13.796875 C 17.644531 -12.765625 18.546875 -12.25 19.859375 -12.25 Z M 19.859375 -12.25 "/></g></g></g><g fill="#ffffff" fill-opacity="1"><g transform="translate(82.059093, 297.556058)"><g><path d="M 3.109375 -70.1875 L 21.65625 -70.1875 C 27.257812 -70.1875 31.257812 -68.375 33.65625 -64.75 C 36.050781 -61.125 37.25 -55.828125 37.25 -48.859375 C 37.25 -41.890625 36.1875 -36.632812 34.0625 -33.09375 C 31.945312 -29.550781 28.132812 -27.78125 22.625 -27.78125 L 16.90625 -27.78125 L 16.90625 0 L 3.109375 0 Z M 17.734375 -40.4375 C 19.421875 -40.4375 20.65625 -40.75 21.4375 -41.375 C 22.226562 -42.007812 22.742188 -42.910156 22.984375 -44.078125 C 23.234375 -45.242188 23.359375 -46.921875 23.359375 -49.109375 C 23.359375 -52.046875 23.03125 -54.164062 22.375 -55.46875 C 21.726562 -56.78125 20.425781 -57.4375 18.46875 -57.4375 L 16.90625 -57.4375 L 16.90625 -40.4375 Z M 17.734375 -40.4375 "/></g></g></g><g fill="#ffffff" fill-opacity="1"><g transform="translate(124.707786, 297.556058)"><g><path d="M 9.15625 0 L 9.15625 -56.703125 L 0.8125 -56.703125 L 0.8125 -70.1875 L 31.53125 -70.1875 L 31.53125 -56.703125 L 23.203125 -56.703125 L 23.203125 0 Z M 9.15625 0 "/></g></g></g><g fill="#ffffff" fill-opacity="1"><g transform="translate(161.147158, 297.556058)"><g><path d="M 2.453125 0 L 2.453125 -70.1875 L 16.015625 -70.1875 L 16.015625 0 Z M 2.453125 0 "/></g></g></g><g fill="#ffffff" fill-opacity="1"><g transform="translate(183.778972, 297.556058)"><g><path d="M 19.859375 0.65625 C 14.191406 0.65625 9.882812 -1.070312 6.9375 -4.53125 C 4 -7.988281 2.53125 -12.851562 2.53125 -19.125 L 2.53125 -52.53125 C 2.53125 -58.582031 4 -63.144531 6.9375 -66.21875 C 9.882812 -69.300781 14.191406 -70.84375 19.859375 -70.84375 C 25.515625 -70.84375 29.8125 -69.300781 32.75 -66.21875 C 35.695312 -63.144531 37.171875 -58.582031 37.171875 -52.53125 L 37.171875 -19.125 C 37.171875 -12.800781 35.695312 -7.921875 32.75 -4.484375 C 29.8125 -1.054688 25.515625 0.65625 19.859375 0.65625 Z M 19.859375 -12.25 C 21.109375 -12.25 21.953125 -12.796875 22.390625 -13.890625 C 22.828125 -14.984375 23.046875 -16.507812 23.046875 -18.46875 L 23.046875 -52.78125 C 23.046875 -54.300781 22.835938 -55.535156 22.421875 -56.484375 C 22.015625 -57.441406 21.1875 -57.921875 19.9375 -57.921875 C 17.59375 -57.921875 16.421875 -56.148438 16.421875 -52.609375 L 16.421875 -18.390625 C 16.421875 -16.367188 16.664062 -14.835938 17.15625 -13.796875 C 17.644531 -12.765625 18.546875 -12.25 19.859375 -12.25 Z M 19.859375 -12.25 "/></g></g></g><g fill="#ffffff" fill-opacity="1"><g transform="translate(227.571481, 297.556058)"><g><path d="M 3.109375 0 L 3.109375 -70.1875 L 17.5625 -70.1875 L 24.015625 -36.609375 L 24.015625 -70.1875 L 37.578125 -70.1875 L 37.578125 0 L 23.859375 0 L 16.828125 -35.125 L 16.828125 0 Z M 3.109375 0 "/></g></g></g><g fill="#ffffff" fill-opacity="1"><g transform="translate(38.26658, 399.42635)"><g><path d="M 19.859375 0.65625 C 14.191406 0.65625 9.882812 -1.070312 6.9375 -4.53125 C 4 -7.988281 2.53125 -12.851562 2.53125 -19.125 L 2.53125 -52.53125 C 2.53125 -58.582031 4 -63.144531 6.9375 -66.21875 C 9.882812 -69.300781 14.191406 -70.84375 19.859375 -70.84375 C 25.515625 -70.84375 29.8125 -69.300781 32.75 -66.21875 C 35.695312 -63.144531 37.171875 -58.582031 37.171875 -52.53125 L 37.171875 -19.125 C 37.171875 -12.800781 35.695312 -7.921875 32.75 -4.484375 C 29.8125 -1.054688 25.515625 0.65625 19.859375 0.65625 Z M 19.859375 -12.25 C 21.109375 -12.25 21.953125 -12.796875 22.390625 -13.890625 C 22.828125 -14.984375 23.046875 -16.507812 23.046875 -18.46875 L 23.046875 -52.78125 C 23.046875 -54.300781 22.835938 -55.535156 22.421875 -56.484375 C 22.015625 -57.441406 21.1875 -57.921875 19.9375 -57.921875 C 17.59375 -57.921875 16.421875 -56.148438 16.421875 -52.609375 L 16.421875 -18.390625 C 16.421875 -16.367188 16.664062 -14.835938 17.15625 -13.796875 C 17.644531 -12.765625 18.546875 -12.25 19.859375 -12.25 Z M 19.859375 -12.25 "/></g></g></g><g fill="#ffffff" fill-opacity="1"><g transform="translate(82.059093, 399.42635)"><g><path d="M 3.109375 0 L 3.109375 -70.1875 L 17.5625 -70.1875 L 24.015625 -36.609375 L 24.015625 -70.1875 L 37.578125 -70.1875 L 37.578125 0 L 23.859375 0 L 16.828125 -35.125 L 16.828125 0 Z M 3.109375 0 "/></g></g></g><g fill="#ffffff" fill-opacity="1"><g transform="translate(126.832022, 399.42635)"><g><path d="M 3.109375 0 L 3.109375 -70.1875 L 31.203125 -70.1875 L 31.203125 -56.625 L 17.40625 -56.625 L 17.40625 -42.96875 L 30.640625 -42.96875 L 30.640625 -29.734375 L 17.40625 -29.734375 L 17.40625 -13.640625 L 32.109375 -13.640625 L 32.109375 0 Z M 3.109375 0 "/></g></g></g><g fill="#ffffff" fill-opacity="1"><g transform="translate(38.26658, 206.387244)"><g><path d="M 1.796875 -24.71875 L 10.640625 -24.71875 C 13.015625 -24.71875 14.953125 -24.082031 16.453125 -22.8125 C 17.953125 -21.550781 18.703125 -19.738281 18.703125 -17.375 C 18.703125 -15.5625 18.242188 -14.039062 17.328125 -12.8125 C 16.421875 -11.582031 15.191406 -10.71875 13.640625 -10.21875 L 22.140625 0 L 14.984375 0 L 7.4375 -9.765625 L 7.4375 0 L 1.796875 0 Z M 7.4375 -13.75 L 8.09375 -13.75 C 8.613281 -13.75 9.050781 -13.757812 9.40625 -13.78125 C 9.769531 -13.800781 10.179688 -13.867188 10.640625 -13.984375 C 11.097656 -14.109375 11.46875 -14.28125 11.75 -14.5 C 12.03125 -14.71875 12.269531 -15.035156 12.46875 -15.453125 C 12.664062 -15.878906 12.765625 -16.390625 12.765625 -16.984375 C 12.765625 -17.585938 12.664062 -18.097656 12.46875 -18.515625 C 12.269531 -18.941406 12.03125 -19.265625 11.75 -19.484375 C 11.46875 -19.703125 11.097656 -19.867188 10.640625 -19.984375 C 10.179688 -20.109375 9.769531 -20.179688 9.40625 -20.203125 C 9.050781 -20.222656 8.613281 -20.234375 8.09375 -20.234375 L 7.4375 -20.234375 Z M 7.4375 -13.75 "/></g></g></g><g fill="#ffffff" fill-opacity="1"><g transform="translate(59.724286, 206.387244)"><g><path d="M 17.359375 -6.953125 L 6.203125 -6.953125 C 6.203125 -5.867188 6.550781 -5.066406 7.25 -4.546875 C 7.945312 -4.035156 8.707031 -3.78125 9.53125 -3.78125 C 10.382812 -3.78125 11.0625 -3.894531 11.5625 -4.125 C 12.0625 -4.351562 12.632812 -4.804688 13.28125 -5.484375 L 17.109375 -3.5625 C 15.515625 -0.882812 12.859375 0.453125 9.140625 0.453125 C 6.828125 0.453125 4.835938 -0.335938 3.171875 -1.921875 C 1.515625 -3.515625 0.6875 -5.429688 0.6875 -7.671875 C 0.6875 -9.910156 1.515625 -11.828125 3.171875 -13.421875 C 4.835938 -15.023438 6.828125 -15.828125 9.140625 -15.828125 C 11.578125 -15.828125 13.554688 -15.117188 15.078125 -13.703125 C 16.609375 -12.296875 17.375 -10.285156 17.375 -7.671875 C 17.375 -7.304688 17.367188 -7.066406 17.359375 -6.953125 Z M 6.359375 -9.890625 L 12.203125 -9.890625 C 12.078125 -10.691406 11.757812 -11.304688 11.25 -11.734375 C 10.738281 -12.160156 10.085938 -12.375 9.296875 -12.375 C 8.410156 -12.375 7.707031 -12.144531 7.1875 -11.6875 C 6.664062 -11.226562 6.390625 -10.628906 6.359375 -9.890625 Z M 6.359375 -9.890625 "/></g></g></g><g fill="#ffffff" fill-opacity="1"><g transform="translate(77.795507, 206.387244)"><g><path d="M 2.84375 -1.890625 C 1.40625 -3.460938 0.6875 -5.390625 0.6875 -7.671875 C 0.6875 -9.953125 1.40625 -11.878906 2.84375 -13.453125 C 4.28125 -15.035156 6.109375 -15.828125 8.328125 -15.828125 C 10.367188 -15.828125 12.046875 -15.1875 13.359375 -13.90625 L 13.359375 -15.375 L 18.671875 -15.375 L 18.671875 0 L 13.421875 0 L 13.421875 -1.734375 L 13.359375 -1.734375 C 12.046875 -0.273438 10.367188 0.453125 8.328125 0.453125 C 6.109375 0.453125 4.28125 -0.328125 2.84375 -1.890625 Z M 7.359375 -10.28125 C 6.671875 -9.601562 6.328125 -8.734375 6.328125 -7.671875 C 6.328125 -6.609375 6.65625 -5.742188 7.3125 -5.078125 C 7.96875 -4.410156 8.835938 -4.078125 9.921875 -4.078125 C 10.960938 -4.078125 11.816406 -4.414062 12.484375 -5.09375 C 13.148438 -5.769531 13.484375 -6.628906 13.484375 -7.671875 C 13.484375 -8.734375 13.140625 -9.601562 12.453125 -10.28125 C 11.765625 -10.957031 10.921875 -11.296875 9.921875 -11.296875 C 8.898438 -11.296875 8.046875 -10.957031 7.359375 -10.28125 Z M 7.359375 -10.28125 "/></g></g></g><g fill="#ffffff" fill-opacity="1"><g transform="translate(98.26424, 206.387244)"><g><path d="M 1.796875 0 L 1.796875 -25.765625 L 7.109375 -25.765625 L 7.109375 0 Z M 1.796875 0 "/></g></g></g><g fill="#ffffff" fill-opacity="1"><g transform="translate(107.16499, 206.387244)"><g><path d="M 1.796875 -10.96875 L 11.453125 -10.96875 L 11.453125 -6.390625 L 1.796875 -6.390625 Z M 1.796875 -10.96875 "/></g></g></g><g fill="#ffffff" fill-opacity="1"><g transform="translate(120.411222, 206.387244)"><g><path d="M 2.703125 -15.375 L 2.703125 -21.09375 L 8 -21.09375 L 8 -15.375 L 11.234375 -15.375 L 11.234375 -11.328125 L 8 -11.328125 L 8 -6.4375 C 8 -5.019531 8.398438 -4.3125 9.203125 -4.3125 C 9.398438 -4.3125 9.609375 -4.351562 9.828125 -4.4375 C 10.046875 -4.519531 10.21875 -4.597656 10.34375 -4.671875 L 10.515625 -4.796875 L 11.84375 -0.515625 C 10.695312 0.128906 9.394531 0.453125 7.9375 0.453125 C 6.9375 0.453125 6.078125 0.28125 5.359375 -0.0625 C 4.640625 -0.414062 4.09375 -0.890625 3.71875 -1.484375 C 3.351562 -2.078125 3.09375 -2.695312 2.9375 -3.34375 C 2.78125 -3.988281 2.703125 -4.679688 2.703125 -5.421875 L 2.703125 -11.328125 L 0.484375 -11.328125 L 0.484375 -15.375 Z M 2.703125 -15.375 "/></g></g></g><g fill="#ffffff" fill-opacity="1"><g transform="translate(132.248928, 206.387244)"><g><path d="M 2.296875 -23.9375 C 2.921875 -24.5625 3.660156 -24.875 4.515625 -24.875 C 5.378906 -24.875 6.117188 -24.5625 6.734375 -23.9375 C 7.359375 -23.320312 7.671875 -22.582031 7.671875 -21.71875 C 7.671875 -20.863281 7.359375 -20.125 6.734375 -19.5 C 6.117188 -18.882812 5.378906 -18.578125 4.515625 -18.578125 C 3.660156 -18.578125 2.921875 -18.882812 2.296875 -19.5 C 1.679688 -20.125 1.375 -20.863281 1.375 -21.71875 C 1.375 -22.582031 1.679688 -23.320312 2.296875 -23.9375 Z M 1.796875 -15.375 L 1.796875 0 L 7.109375 0 L 7.109375 -15.375 Z M 1.796875 -15.375 "/></g></g></g><g fill="#ffffff" fill-opacity="1"><g transform="translate(141.299521, 206.387244)"><g><path d="M 1.796875 0 L 1.796875 -15.375 L 7.109375 -15.375 L 7.109375 -13.75 L 7.15625 -13.75 C 8.539062 -15.132812 10.007812 -15.828125 11.5625 -15.828125 C 12.6875 -15.828125 13.738281 -15.59375 14.71875 -15.125 C 15.695312 -14.664062 16.4375 -13.957031 16.9375 -13 C 18.488281 -14.882812 20.1875 -15.828125 22.03125 -15.828125 C 23.664062 -15.828125 25.070312 -15.363281 26.25 -14.4375 C 27.425781 -13.519531 28.015625 -12.082031 28.015625 -10.125 L 28.015625 0 L 22.71875 0 L 22.71875 -8.6875 C 22.71875 -9.507812 22.492188 -10.191406 22.046875 -10.734375 C 21.597656 -11.285156 20.921875 -11.5625 20.015625 -11.5625 C 19.234375 -11.5625 18.640625 -11.328125 18.234375 -10.859375 C 17.828125 -10.390625 17.601562 -9.828125 17.5625 -9.171875 L 17.5625 0 L 12.25 0 L 12.25 -8.6875 C 12.25 -9.507812 12.023438 -10.191406 11.578125 -10.734375 C 11.128906 -11.285156 10.457031 -11.5625 9.5625 -11.5625 C 8.738281 -11.5625 8.125 -11.304688 7.71875 -10.796875 C 7.3125 -10.296875 7.109375 -9.691406 7.109375 -8.984375 L 7.109375 0 Z M 1.796875 0 "/></g></g></g><g fill="#ffffff" fill-opacity="1"><g transform="translate(170.818858, 206.387244)"><g><path d="M 17.359375 -6.953125 L 6.203125 -6.953125 C 6.203125 -5.867188 6.550781 -5.066406 7.25 -4.546875 C 7.945312 -4.035156 8.707031 -3.78125 9.53125 -3.78125 C 10.382812 -3.78125 11.0625 -3.894531 11.5625 -4.125 C 12.0625 -4.351562 12.632812 -4.804688 13.28125 -5.484375 L 17.109375 -3.5625 C 15.515625 -0.882812 12.859375 0.453125 9.140625 0.453125 C 6.828125 0.453125 4.835938 -0.335938 3.171875 -1.921875 C 1.515625 -3.515625 0.6875 -5.429688 0.6875 -7.671875 C 0.6875 -9.910156 1.515625 -11.828125 3.171875 -13.421875 C 4.835938 -15.023438 6.828125 -15.828125 9.140625 -15.828125 C 11.578125 -15.828125 13.554688 -15.117188 15.078125 -13.703125 C 16.609375 -12.296875 17.375 -10.285156 17.375 -7.671875 C 17.375 -7.304688 17.367188 -7.066406 17.359375 -6.953125 Z M 6.359375 -9.890625 L 12.203125 -9.890625 C 12.078125 -10.691406 11.757812 -11.304688 11.25 -11.734375 C 10.738281 -12.160156 10.085938 -12.375 9.296875 -12.375 C 8.410156 -12.375 7.707031 -12.144531 7.1875 -11.6875 C 6.664062 -11.226562 6.390625 -10.628906 6.359375 -9.890625 Z M 6.359375 -9.890625 "/></g></g></g><g fill="#ffffff" fill-opacity="1"><g transform="translate(188.890079, 206.387244)"><g/></g></g><g fill="#ffffff" fill-opacity="1"><g transform="translate(197.071577, 206.387244)"><g><path d="M 0.234375 -19.78125 L 0.234375 -24.71875 L 17.625 -24.71875 L 17.625 -19.78125 L 11.75 -19.78125 L 11.75 0 L 6.109375 0 L 6.109375 -19.78125 Z M 0.234375 -19.78125 "/></g></g></g><g fill="#ffffff" fill-opacity="1"><g transform="translate(214.933015, 206.387244)"><g><path d="M 1.796875 0 L 1.796875 -15.375 L 7.109375 -15.375 L 7.109375 -13.15625 L 7.15625 -13.15625 C 7.195312 -13.238281 7.257812 -13.335938 7.34375 -13.453125 C 7.4375 -13.578125 7.632812 -13.785156 7.9375 -14.078125 C 8.238281 -14.378906 8.554688 -14.648438 8.890625 -14.890625 C 9.234375 -15.128906 9.675781 -15.34375 10.21875 -15.53125 C 10.757812 -15.726562 11.3125 -15.828125 11.875 -15.828125 C 12.445312 -15.828125 13.015625 -15.742188 13.578125 -15.578125 C 14.140625 -15.421875 14.546875 -15.265625 14.796875 -15.109375 L 15.21875 -14.859375 L 13 -10.375 C 12.34375 -10.925781 11.425781 -11.203125 10.25 -11.203125 C 9.613281 -11.203125 9.0625 -11.0625 8.59375 -10.78125 C 8.132812 -10.507812 7.8125 -10.171875 7.625 -9.765625 C 7.4375 -9.367188 7.300781 -9.03125 7.21875 -8.75 C 7.144531 -8.46875 7.109375 -8.25 7.109375 -8.09375 L 7.109375 0 Z M 1.796875 0 "/></g></g></g><g fill="#ffffff" fill-opacity="1"><g transform="translate(229.857509, 206.387244)"><g><path d="M 2.84375 -1.890625 C 1.40625 -3.460938 0.6875 -5.390625 0.6875 -7.671875 C 0.6875 -9.953125 1.40625 -11.878906 2.84375 -13.453125 C 4.28125 -15.035156 6.109375 -15.828125 8.328125 -15.828125 C 10.367188 -15.828125 12.046875 -15.1875 13.359375 -13.90625 L 13.359375 -15.375 L 18.671875 -15.375 L 18.671875 0 L 13.421875 0 L 13.421875 -1.734375 L 13.359375 -1.734375 C 12.046875 -0.273438 10.367188 0.453125 8.328125 0.453125 C 6.109375 0.453125 4.28125 -0.328125 2.84375 -1.890625 Z M 7.359375 -10.28125 C 6.671875 -9.601562 6.328125 -8.734375 6.328125 -7.671875 C 6.328125 -6.609375 6.65625 -5.742188 7.3125 -5.078125 C 7.96875 -4.410156 8.835938 -4.078125 9.921875 -4.078125 C 10.960938 -4.078125 11.816406 -4.414062 12.484375 -5.09375 C 13.148438 -5.769531 13.484375 -6.628906 13.484375 -7.671875 C 13.484375 -8.734375 13.140625 -9.601562 12.453125 -10.28125 C 11.765625 -10.957031 10.921875 -11.296875 9.921875 -11.296875 C 8.898438 -11.296875 8.046875 -10.957031 7.359375 -10.28125 Z M 7.359375 -10.28125 "/></g></g></g><g fill="#ffffff" fill-opacity="1"><g transform="translate(250.326253, 206.387244)"><g><path d="M 9.984375 -11.484375 C 8.984375 -11.484375 8.125 -11.113281 7.40625 -10.375 C 6.6875 -9.632812 6.328125 -8.742188 6.328125 -7.703125 C 6.328125 -6.640625 6.6875 -5.738281 7.40625 -5 C 8.125 -4.257812 8.984375 -3.890625 9.984375 -3.890625 C 10.460938 -3.890625 10.914062 -3.945312 11.34375 -4.0625 C 11.769531 -4.1875 12.082031 -4.3125 12.28125 -4.4375 L 12.5625 -4.609375 L 14.359375 -0.921875 C 14.210938 -0.828125 14.015625 -0.703125 13.765625 -0.546875 C 13.515625 -0.398438 12.945312 -0.195312 12.0625 0.0625 C 11.175781 0.320312 10.222656 0.453125 9.203125 0.453125 C 6.941406 0.453125 4.957031 -0.335938 3.25 -1.921875 C 1.539062 -3.515625 0.6875 -5.421875 0.6875 -7.640625 C 0.6875 -9.878906 1.539062 -11.800781 3.25 -13.40625 C 4.957031 -15.019531 6.941406 -15.828125 9.203125 -15.828125 C 10.222656 -15.828125 11.160156 -15.707031 12.015625 -15.46875 C 12.878906 -15.226562 13.488281 -14.988281 13.84375 -14.75 L 14.359375 -14.390625 L 12.5625 -10.765625 C 11.894531 -11.242188 11.035156 -11.484375 9.984375 -11.484375 Z M 9.984375 -11.484375 "/></g></g></g><g fill="#ffffff" fill-opacity="1"><g transform="translate(265.040975, 206.387244)"><g><path d="M 19.359375 -15.375 L 12.046875 -8.03125 L 20.078125 0 L 13.25 0 L 7.109375 -6.140625 L 7.109375 0 L 1.796875 0 L 1.796875 -25.765625 L 7.109375 -25.765625 L 7.109375 -10.015625 L 12.46875 -15.375 Z M 19.359375 -15.375 "/></g></g></g><g fill="#ffffff" fill-opacity="1"><g transform="translate(284.400856, 206.387244)"><g><path d="M 2.296875 -23.9375 C 2.921875 -24.5625 3.660156 -24.875 4.515625 -24.875 C 5.378906 -24.875 6.117188 -24.5625 6.734375 -23.9375 C 7.359375 -23.320312 7.671875 -22.582031 7.671875 -21.71875 C 7.671875 -20.863281 7.359375 -20.125 6.734375 -19.5 C 6.117188 -18.882812 5.378906 -18.578125 4.515625 -18.578125 C 3.660156 -18.578125 2.921875 -18.882812 2.296875 -19.5 C 1.679688 -20.125 1.375 -20.863281 1.375 -21.71875 C 1.375 -22.582031 1.679688 -23.320312 2.296875 -23.9375 Z M 1.796875 -15.375 L 1.796875 0 L 7.109375 0 L 7.109375 -15.375 Z M 1.796875 -15.375 "/></g></g></g><g fill="#ffffff" fill-opacity="1"><g transform="translate(293.45146, 206.387244)"><g><path d="M 1.796875 0 L 1.796875 -15.375 L 7.109375 -15.375 L 7.109375 -13.75 L 7.15625 -13.75 C 8.539062 -15.132812 10.007812 -15.828125 11.5625 -15.828125 C 12.320312 -15.828125 13.078125 -15.722656 13.828125 -15.515625 C 14.578125 -15.316406 15.296875 -15.007812 15.984375 -14.59375 C 16.671875 -14.175781 17.226562 -13.582031 17.65625 -12.8125 C 18.09375 -12.039062 18.3125 -11.144531 18.3125 -10.125 L 18.3125 0 L 13 0 L 13 -8.6875 C 13 -9.488281 12.742188 -10.1875 12.234375 -10.78125 C 11.734375 -11.382812 11.070312 -11.6875 10.25 -11.6875 C 9.445312 -11.6875 8.722656 -11.375 8.078125 -10.75 C 7.429688 -10.132812 7.109375 -9.445312 7.109375 -8.6875 L 7.109375 0 Z M 1.796875 0 "/></g></g></g><g fill="#ffffff" fill-opacity="1"><g transform="translate(313.260893, 206.387244)"><g><path d="M 1.109375 3.78125 L 5.453125 1.640625 C 6.253906 2.960938 7.644531 3.625 9.625 3.625 C 10.539062 3.625 11.390625 3.328125 12.171875 2.734375 C 12.960938 2.148438 13.359375 1.25 13.359375 0.03125 L 13.359375 -1.109375 C 12.421875 -0.0664062 10.742188 0.453125 8.328125 0.453125 C 6.109375 0.453125 4.28125 -0.328125 2.84375 -1.890625 C 1.40625 -3.460938 0.6875 -5.390625 0.6875 -7.671875 C 0.6875 -9.953125 1.40625 -11.878906 2.84375 -13.453125 C 4.28125 -15.035156 6.109375 -15.828125 8.328125 -15.828125 C 10.304688 -15.828125 11.957031 -15.21875 13.28125 -14 L 13.359375 -14 L 13.359375 -15.375 L 18.671875 -15.375 L 18.671875 0.421875 C 18.671875 2.921875 17.84375 4.847656 16.1875 6.203125 C 14.53125 7.554688 12.34375 8.234375 9.625 8.234375 C 5.226562 8.234375 2.390625 6.75 1.109375 3.78125 Z M 7.359375 -10.28125 C 6.671875 -9.601562 6.328125 -8.734375 6.328125 -7.671875 C 6.328125 -6.609375 6.65625 -5.742188 7.3125 -5.078125 C 7.96875 -4.410156 8.835938 -4.078125 9.921875 -4.078125 C 10.960938 -4.078125 11.816406 -4.414062 12.484375 -5.09375 C 13.148438 -5.769531 13.484375 -6.628906 13.484375 -7.671875 C 13.484375 -8.734375 13.140625 -9.601562 12.453125 -10.28125 C 11.765625 -10.957031 10.921875 -11.296875 9.921875 -11.296875 C 8.898438 -11.296875 8.046875 -10.957031 7.359375 -10.28125 Z M 7.359375 -10.28125 "/></g></g></g></svg>