<svg xmlns="http://www.w3.org/2000/svg" xmlns:xlink="http://www.w3.org/1999/xlink" width="377" zoomAndPan="magnify" viewBox="0 0 282.75 281.999989" height="376" preserveAspectRatio="xMidYMid meet" version="1.0"><defs><clipPath id="c572ac8ea5"><path d="M 0.492188 0.191406 L 282 0.191406 L 282 281.699219 L 0.492188 281.699219 Z M 0.492188 0.191406 " clip-rule="nonzero"/></clipPath><clipPath id="ecce954dc2"><path d="M 141.246094 0.191406 C 63.507812 0.191406 0.492188 63.210938 0.492188 140.945312 C 0.492188 218.683594 63.507812 281.699219 141.246094 281.699219 C 218.980469 281.699219 282 218.683594 282 140.945312 C 282 63.210938 218.980469 0.191406 141.246094 0.191406 Z M 141.246094 0.191406 " clip-rule="nonzero"/></clipPath><clipPath id="d4dd3be931"><path d="M 52.96875 45.917969 L 211.757812 45.917969 L 211.757812 204.703125 L 52.96875 204.703125 Z M 52.96875 45.917969 " clip-rule="nonzero"/></clipPath><clipPath id="fd716b7461"><path d="M 132.363281 45.917969 C 88.515625 45.917969 52.96875 81.464844 52.96875 125.3125 C 52.96875 169.160156 88.515625 204.703125 132.363281 204.703125 C 176.210938 204.703125 211.757812 169.160156 211.757812 125.3125 C 211.757812 81.464844 176.210938 45.917969 132.363281 45.917969 Z M 132.363281 45.917969 " clip-rule="nonzero"/></clipPath></defs><g clip-path="url(#c572ac8ea5)"><g clip-path="url(#ecce954dc2)"><path fill="#404e5e" d="M 0.492188 0.191406 L 282 0.191406 L 282 281.699219 L 0.492188 281.699219 Z M 0.492188 0.191406 " fill-opacity="1" fill-rule="nonzero"/></g></g><g clip-path="url(#d4dd3be931)"><g clip-path="url(#fd716b7461)"><path fill="#404e5e" d="M 52.96875 45.917969 L 211.757812 45.917969 L 211.757812 204.703125 L 52.96875 204.703125 Z M 52.96875 45.917969 " fill-opacity="1" fill-rule="nonzero"/></g></g></svg>