<svg xmlns="http://www.w3.org/2000/svg" xmlns:xlink="http://www.w3.org/1999/xlink" width="742" zoomAndPan="magnify" viewBox="0 0 556.5 431.999984" height="576" preserveAspectRatio="xMidYMid meet" version="1.0"><defs><g/><clipPath id="26334b873b"><path d="M 4.390625 0.304688 L 555.871094 0.304688 L 555.871094 431.761719 L 4.390625 431.761719 Z M 4.390625 0.304688 " clip-rule="nonzero"/></clipPath><clipPath id="a1daa4345f"><path d="M 42.640625 0.304688 L 517.621094 0.304688 C 527.765625 0.304688 537.496094 4.335938 544.667969 11.507812 C 551.839844 18.683594 555.871094 28.410156 555.871094 38.554688 L 555.871094 393.511719 C 555.871094 403.65625 551.839844 413.386719 544.667969 420.558594 C 537.496094 427.734375 527.765625 431.761719 517.621094 431.761719 L 42.640625 431.761719 C 32.496094 431.761719 22.765625 427.734375 15.59375 420.558594 C 8.417969 413.386719 4.390625 403.65625 4.390625 393.511719 L 4.390625 38.554688 C 4.390625 28.410156 8.417969 18.683594 15.59375 11.507812 C 22.765625 4.335938 32.496094 0.304688 42.640625 0.304688 Z M 42.640625 0.304688 " clip-rule="nonzero"/></clipPath></defs><g clip-path="url(#26334b873b)"><g clip-path="url(#a1daa4345f)"><path fill="#f86800" d="M 4.390625 0.304688 L 555.871094 0.304688 L 555.871094 431.761719 L 4.390625 431.761719 Z M 4.390625 0.304688 " fill-opacity="1" fill-rule="nonzero"/></g></g><g fill="#ffffff" fill-opacity="1"><g transform="translate(38.49108, 126.9574)"><g><path d="M 19.875 0.65625 C 14.195312 0.65625 9.882812 -1.070312 6.9375 -4.53125 C 4 -8 2.53125 -12.867188 2.53125 -19.140625 L 2.53125 -52.578125 C 2.53125 -58.628906 4 -63.191406 6.9375 -66.265625 C 9.882812 -69.347656 14.195312 -70.890625 19.875 -70.890625 C 25.539062 -70.890625 29.84375 -69.347656 32.78125 -66.265625 C 35.726562 -63.191406 37.203125 -58.628906 37.203125 -52.578125 L 37.203125 -19.140625 C 37.203125 -12.804688 35.726562 -7.921875 32.78125 -4.484375 C 29.84375 -1.054688 25.539062 0.65625 19.875 0.65625 Z M 19.875 -12.265625 C 21.125 -12.265625 21.96875 -12.804688 22.40625 -13.890625 C 22.84375 -14.984375 23.0625 -16.515625 23.0625 -18.484375 L 23.0625 -52.828125 C 23.0625 -54.347656 22.851562 -55.582031 22.4375 -56.53125 C 22.03125 -57.488281 21.203125 -57.96875 19.953125 -57.96875 C 17.609375 -57.96875 16.4375 -56.195312 16.4375 -52.65625 L 16.4375 -18.390625 C 16.4375 -16.378906 16.679688 -14.851562 17.171875 -13.8125 C 17.660156 -12.78125 18.5625 -12.265625 19.875 -12.265625 Z M 19.875 -12.265625 "/></g></g></g><g fill="#ffffff" fill-opacity="1"><g transform="translate(82.312061, 126.9574)"><g><path d="M 3.109375 -70.234375 L 21.671875 -70.234375 C 27.285156 -70.234375 31.289062 -68.421875 33.6875 -64.796875 C 36.082031 -61.171875 37.28125 -55.867188 37.28125 -48.890625 C 37.28125 -41.921875 36.21875 -36.660156 34.09375 -33.109375 C 31.96875 -29.566406 28.15625 -27.796875 22.65625 -27.796875 L 16.921875 -27.796875 L 16.921875 0 L 3.109375 0 Z M 17.75 -40.46875 C 19.4375 -40.46875 20.675781 -40.78125 21.46875 -41.40625 C 22.257812 -42.039062 22.773438 -42.941406 23.015625 -44.109375 C 23.265625 -45.285156 23.390625 -46.960938 23.390625 -49.140625 C 23.390625 -52.085938 23.0625 -54.210938 22.40625 -55.515625 C 21.75 -56.828125 20.441406 -57.484375 18.484375 -57.484375 L 16.921875 -57.484375 L 16.921875 -40.46875 Z M 17.75 -40.46875 "/></g></g></g><g fill="#ffffff" fill-opacity="1"><g transform="translate(124.988479, 126.9574)"><g><path d="M 9.15625 0 L 9.15625 -56.75 L 0.8125 -56.75 L 0.8125 -70.234375 L 31.5625 -70.234375 L 31.5625 -56.75 L 23.21875 -56.75 L 23.21875 0 Z M 9.15625 0 "/></g></g></g><g fill="#ffffff" fill-opacity="1"><g transform="translate(161.451538, 126.9574)"><g><path d="M 2.453125 0 L 2.453125 -70.234375 L 16.03125 -70.234375 L 16.03125 0 Z M 2.453125 0 "/></g></g></g><g fill="#ffffff" fill-opacity="1"><g transform="translate(184.098065, 126.9574)"><g><path d="M 19.875 0.65625 C 14.195312 0.65625 9.882812 -1.070312 6.9375 -4.53125 C 4 -8 2.53125 -12.867188 2.53125 -19.140625 L 2.53125 -52.578125 C 2.53125 -58.628906 4 -63.191406 6.9375 -66.265625 C 9.882812 -69.347656 14.195312 -70.890625 19.875 -70.890625 C 25.539062 -70.890625 29.84375 -69.347656 32.78125 -66.265625 C 35.726562 -63.191406 37.203125 -58.628906 37.203125 -52.578125 L 37.203125 -19.140625 C 37.203125 -12.804688 35.726562 -7.921875 32.78125 -4.484375 C 29.84375 -1.054688 25.539062 0.65625 19.875 0.65625 Z M 19.875 -12.265625 C 21.125 -12.265625 21.96875 -12.804688 22.40625 -13.890625 C 22.84375 -14.984375 23.0625 -16.515625 23.0625 -18.484375 L 23.0625 -52.828125 C 23.0625 -54.347656 22.851562 -55.582031 22.4375 -56.53125 C 22.03125 -57.488281 21.203125 -57.96875 19.953125 -57.96875 C 17.609375 -57.96875 16.4375 -56.195312 16.4375 -52.65625 L 16.4375 -18.390625 C 16.4375 -16.378906 16.679688 -14.851562 17.171875 -13.8125 C 17.660156 -12.78125 18.5625 -12.265625 19.875 -12.265625 Z M 19.875 -12.265625 "/></g></g></g><g fill="#ffffff" fill-opacity="1"><g transform="translate(227.919041, 126.9574)"><g><path d="M 3.109375 0 L 3.109375 -70.234375 L 17.578125 -70.234375 L 24.046875 -36.625 L 24.046875 -70.234375 L 37.609375 -70.234375 L 37.609375 0 L 23.875 0 L 16.84375 -35.15625 L 16.84375 0 Z M 3.109375 0 "/></g></g></g><g fill="#ffffff" fill-opacity="1"><g transform="translate(38.49108, 228.893913)"><g><path d="M 9.15625 0 L 9.15625 -56.75 L 0.8125 -56.75 L 0.8125 -70.234375 L 31.5625 -70.234375 L 31.5625 -56.75 L 23.21875 -56.75 L 23.21875 0 Z M 9.15625 0 "/></g></g></g><g fill="#ffffff" fill-opacity="1"><g transform="translate(74.954138, 228.893913)"><g><path d="M 8.578125 0 L 1.0625 -70.234375 L 14.796875 -70.234375 L 18.71875 -25.921875 L 22.65625 -70.234375 L 35.734375 -70.234375 L 39.5 -25.921875 L 43.25 -70.234375 L 57.15625 -70.234375 L 49.46875 0 L 32.625 0 L 29.109375 -33.84375 L 25.75 0 Z M 8.578125 0 "/></g></g></g><g fill="#ffffff" fill-opacity="1"><g transform="translate(137.251669, 228.893913)"><g><path d="M 19.875 0.65625 C 14.195312 0.65625 9.882812 -1.070312 6.9375 -4.53125 C 4 -8 2.53125 -12.867188 2.53125 -19.140625 L 2.53125 -52.578125 C 2.53125 -58.628906 4 -63.191406 6.9375 -66.265625 C 9.882812 -69.347656 14.195312 -70.890625 19.875 -70.890625 C 25.539062 -70.890625 29.84375 -69.347656 32.78125 -66.265625 C 35.726562 -63.191406 37.203125 -58.628906 37.203125 -52.578125 L 37.203125 -19.140625 C 37.203125 -12.804688 35.726562 -7.921875 32.78125 -4.484375 C 29.84375 -1.054688 25.539062 0.65625 19.875 0.65625 Z M 19.875 -12.265625 C 21.125 -12.265625 21.96875 -12.804688 22.40625 -13.890625 C 22.84375 -14.984375 23.0625 -16.515625 23.0625 -18.484375 L 23.0625 -52.828125 C 23.0625 -54.347656 22.851562 -55.582031 22.4375 -56.53125 C 22.03125 -57.488281 21.203125 -57.96875 19.953125 -57.96875 C 17.609375 -57.96875 16.4375 -56.195312 16.4375 -52.65625 L 16.4375 -18.390625 C 16.4375 -16.378906 16.679688 -14.851562 17.171875 -13.8125 C 17.660156 -12.78125 18.5625 -12.265625 19.875 -12.265625 Z M 19.875 -12.265625 "/></g></g></g><g fill="#ffffff" fill-opacity="1"><g transform="translate(38.49108, 270.764175)"><g><path d="M 7.4375 -9.9375 L 7.4375 0 L 1.796875 0 L 1.796875 -24.75 L 7.4375 -24.75 L 7.4375 -14.875 L 15.421875 -14.875 L 15.421875 -24.75 L 21.0625 -24.75 L 21.0625 0 L 15.421875 0 L 15.421875 -9.9375 Z M 7.4375 -9.9375 "/></g></g></g><g fill="#ffffff" fill-opacity="1"><g transform="translate(61.342195, 270.764175)"><g><path d="M 2.296875 -23.96875 C 2.921875 -24.59375 3.660156 -24.90625 4.515625 -24.90625 C 5.378906 -24.90625 6.125 -24.59375 6.75 -23.96875 C 7.375 -23.351562 7.6875 -22.613281 7.6875 -21.75 C 7.6875 -20.882812 7.375 -20.140625 6.75 -19.515625 C 6.125 -18.898438 5.378906 -18.59375 4.515625 -18.59375 C 3.660156 -18.59375 2.921875 -18.898438 2.296875 -19.515625 C 1.679688 -20.140625 1.375 -20.882812 1.375 -21.75 C 1.375 -22.613281 1.679688 -23.351562 2.296875 -23.96875 Z M 1.796875 -15.390625 L 1.796875 0 L 7.109375 0 L 7.109375 -15.390625 Z M 1.796875 -15.390625 "/></g></g></g><g fill="#ffffff" fill-opacity="1"><g transform="translate(70.398671, 270.764175)"><g><path d="M 8.484375 -15.84375 C 9.367188 -15.84375 10.238281 -15.738281 11.09375 -15.53125 C 11.957031 -15.332031 12.597656 -15.132812 13.015625 -14.9375 L 13.65625 -14.640625 L 11.90625 -11.15625 C 10.707031 -11.800781 9.566406 -12.125 8.484375 -12.125 C 7.890625 -12.125 7.46875 -12.054688 7.21875 -11.921875 C 6.96875 -11.796875 6.84375 -11.550781 6.84375 -11.1875 C 6.84375 -11.101562 6.851562 -11.019531 6.875 -10.9375 C 6.894531 -10.863281 6.929688 -10.789062 6.984375 -10.71875 C 7.046875 -10.65625 7.101562 -10.597656 7.15625 -10.546875 C 7.207031 -10.492188 7.289062 -10.4375 7.40625 -10.375 C 7.53125 -10.320312 7.625 -10.28125 7.6875 -10.25 C 7.757812 -10.21875 7.875 -10.171875 8.03125 -10.109375 C 8.195312 -10.046875 8.316406 -10 8.390625 -9.96875 C 8.472656 -9.945312 8.609375 -9.90625 8.796875 -9.84375 C 8.992188 -9.78125 9.140625 -9.738281 9.234375 -9.71875 C 9.859375 -9.539062 10.398438 -9.34375 10.859375 -9.125 C 11.316406 -8.90625 11.800781 -8.601562 12.3125 -8.21875 C 12.820312 -7.84375 13.21875 -7.363281 13.5 -6.78125 C 13.78125 -6.195312 13.921875 -5.535156 13.921875 -4.796875 C 13.921875 -1.296875 11.488281 0.453125 6.625 0.453125 C 5.53125 0.453125 4.488281 0.285156 3.5 -0.046875 C 2.507812 -0.390625 1.789062 -0.734375 1.34375 -1.078125 L 0.6875 -1.625 L 2.84375 -5.25 C 3.007812 -5.113281 3.222656 -4.945312 3.484375 -4.75 C 3.742188 -4.5625 4.210938 -4.300781 4.890625 -3.96875 C 5.566406 -3.644531 6.15625 -3.484375 6.65625 -3.484375 C 7.757812 -3.484375 8.3125 -3.851562 8.3125 -4.59375 C 8.3125 -4.925781 8.171875 -5.1875 7.890625 -5.375 C 7.609375 -5.570312 7.128906 -5.789062 6.453125 -6.03125 C 5.785156 -6.269531 5.265625 -6.488281 4.890625 -6.6875 C 3.929688 -7.1875 3.171875 -7.75 2.609375 -8.375 C 2.046875 -9.007812 1.765625 -9.847656 1.765625 -10.890625 C 1.765625 -12.453125 2.367188 -13.664062 3.578125 -14.53125 C 4.796875 -15.40625 6.429688 -15.84375 8.484375 -15.84375 Z M 8.484375 -15.84375 "/></g></g></g><g fill="#ffffff" fill-opacity="1"><g transform="translate(85.152942, 270.764175)"><g><path d="M 2.703125 -15.390625 L 2.703125 -21.125 L 8.015625 -21.125 L 8.015625 -15.390625 L 11.25 -15.390625 L 11.25 -11.34375 L 8.015625 -11.34375 L 8.015625 -6.453125 C 8.015625 -5.023438 8.410156 -4.3125 9.203125 -4.3125 C 9.410156 -4.3125 9.625 -4.351562 9.84375 -4.4375 C 10.0625 -4.519531 10.226562 -4.601562 10.34375 -4.6875 L 10.53125 -4.796875 L 11.84375 -0.515625 C 10.707031 0.128906 9.410156 0.453125 7.953125 0.453125 C 6.953125 0.453125 6.09375 0.28125 5.375 -0.0625 C 4.65625 -0.414062 4.109375 -0.890625 3.734375 -1.484375 C 3.367188 -2.078125 3.101562 -2.695312 2.9375 -3.34375 C 2.78125 -3.988281 2.703125 -4.6875 2.703125 -5.4375 L 2.703125 -11.34375 L 0.484375 -11.34375 L 0.484375 -15.390625 Z M 2.703125 -15.390625 "/></g></g></g><g fill="#ffffff" fill-opacity="1"><g transform="translate(96.998342, 270.764175)"><g><path d="M 3.25 -1.828125 C 1.539062 -3.347656 0.6875 -5.296875 0.6875 -7.671875 C 0.6875 -10.054688 1.578125 -12.015625 3.359375 -13.546875 C 5.140625 -15.078125 7.335938 -15.84375 9.953125 -15.84375 C 12.535156 -15.84375 14.710938 -15.070312 16.484375 -13.53125 C 18.253906 -11.988281 19.140625 -10.035156 19.140625 -7.671875 C 19.140625 -5.316406 18.273438 -3.375 16.546875 -1.84375 C 14.816406 -0.3125 12.617188 0.453125 9.953125 0.453125 C 7.191406 0.453125 4.957031 -0.304688 3.25 -1.828125 Z M 7.359375 -10.28125 C 6.671875 -9.601562 6.328125 -8.734375 6.328125 -7.671875 C 6.328125 -6.617188 6.65625 -5.753906 7.3125 -5.078125 C 7.976562 -4.410156 8.851562 -4.078125 9.9375 -4.078125 C 10.96875 -4.078125 11.816406 -4.414062 12.484375 -5.09375 C 13.160156 -5.78125 13.5 -6.644531 13.5 -7.6875 C 13.5 -8.738281 13.15625 -9.601562 12.46875 -10.28125 C 11.78125 -10.96875 10.9375 -11.3125 9.9375 -11.3125 C 8.914062 -11.3125 8.054688 -10.96875 7.359375 -10.28125 Z M 7.359375 -10.28125 "/></g></g></g><g fill="#ffffff" fill-opacity="1"><g transform="translate(116.820641, 270.764175)"><g><path d="M 1.796875 0 L 1.796875 -15.390625 L 7.109375 -15.390625 L 7.109375 -13.171875 L 7.171875 -13.171875 C 7.210938 -13.253906 7.273438 -13.351562 7.359375 -13.46875 C 7.453125 -13.59375 7.648438 -13.800781 7.953125 -14.09375 C 8.253906 -14.394531 8.570312 -14.664062 8.90625 -14.90625 C 9.25 -15.144531 9.691406 -15.359375 10.234375 -15.546875 C 10.773438 -15.742188 11.320312 -15.84375 11.875 -15.84375 C 12.457031 -15.84375 13.03125 -15.757812 13.59375 -15.59375 C 14.15625 -15.4375 14.5625 -15.28125 14.8125 -15.125 L 15.234375 -14.875 L 13.015625 -10.375 C 12.359375 -10.9375 11.441406 -11.21875 10.265625 -11.21875 C 9.617188 -11.21875 9.066406 -11.078125 8.609375 -10.796875 C 8.148438 -10.515625 7.820312 -10.175781 7.625 -9.78125 C 7.4375 -9.382812 7.300781 -9.046875 7.21875 -8.765625 C 7.144531 -8.484375 7.109375 -8.257812 7.109375 -8.09375 L 7.109375 0 Z M 1.796875 0 "/></g></g></g><g fill="#ffffff" fill-opacity="1"><g transform="translate(131.754836, 270.764175)"><g><path d="M 13.46875 -15.390625 L 19.59375 -15.390625 L 7.5 7.796875 L 1.375 7.796875 L 6.6875 -2.40625 L -0.59375 -15.390625 L 5.515625 -15.390625 L 9.8125 -7.5 Z M 13.46875 -15.390625 "/></g></g></g><g fill="#ffffff" fill-opacity="1"><g transform="translate(150.737458, 270.764175)"><g/></g></g><g fill="#ffffff" fill-opacity="1"><g transform="translate(158.924274, 270.764175)"><g><path d="M 1.796875 -24.75 L 10.65625 -24.75 C 13.03125 -24.75 14.96875 -24.113281 16.46875 -22.84375 C 17.96875 -21.570312 18.71875 -19.757812 18.71875 -17.40625 C 18.71875 -15.582031 18.257812 -14.054688 17.34375 -12.828125 C 16.4375 -11.597656 15.207031 -10.734375 13.65625 -10.234375 L 22.171875 0 L 15 0 L 7.4375 -9.78125 L 7.4375 0 L 1.796875 0 Z M 7.4375 -13.765625 L 8.09375 -13.765625 C 8.613281 -13.765625 9.050781 -13.773438 9.40625 -13.796875 C 9.769531 -13.816406 10.179688 -13.882812 10.640625 -14 C 11.109375 -14.125 11.484375 -14.296875 11.765625 -14.515625 C 12.046875 -14.734375 12.285156 -15.050781 12.484375 -15.46875 C 12.679688 -15.894531 12.78125 -16.40625 12.78125 -17 C 12.78125 -17.601562 12.679688 -18.113281 12.484375 -18.53125 C 12.285156 -18.957031 12.046875 -19.28125 11.765625 -19.5 C 11.484375 -19.71875 11.109375 -19.882812 10.640625 -20 C 10.179688 -20.125 9.769531 -20.195312 9.40625 -20.21875 C 9.050781 -20.238281 8.613281 -20.25 8.09375 -20.25 L 7.4375 -20.25 Z M 7.4375 -13.765625 "/></g></g></g><g fill="#ffffff" fill-opacity="1"><g transform="translate(180.39593, 270.764175)"><g><path d="M 17.375 -6.953125 L 6.203125 -6.953125 C 6.203125 -5.878906 6.550781 -5.082031 7.25 -4.5625 C 7.957031 -4.039062 8.722656 -3.78125 9.546875 -3.78125 C 10.398438 -3.78125 11.078125 -3.894531 11.578125 -4.125 C 12.078125 -4.351562 12.648438 -4.804688 13.296875 -5.484375 L 17.125 -3.5625 C 15.53125 -0.882812 12.875 0.453125 9.15625 0.453125 C 6.832031 0.453125 4.835938 -0.335938 3.171875 -1.921875 C 1.515625 -3.515625 0.6875 -5.429688 0.6875 -7.671875 C 0.6875 -9.921875 1.515625 -11.84375 3.171875 -13.4375 C 4.835938 -15.039062 6.832031 -15.84375 9.15625 -15.84375 C 11.59375 -15.84375 13.578125 -15.132812 15.109375 -13.71875 C 16.640625 -12.3125 17.40625 -10.300781 17.40625 -7.6875 C 17.40625 -7.320312 17.394531 -7.078125 17.375 -6.953125 Z M 6.359375 -9.90625 L 12.203125 -9.90625 C 12.085938 -10.695312 11.773438 -11.304688 11.265625 -11.734375 C 10.753906 -12.171875 10.097656 -12.390625 9.296875 -12.390625 C 8.421875 -12.390625 7.722656 -12.160156 7.203125 -11.703125 C 6.679688 -11.242188 6.398438 -10.644531 6.359375 -9.90625 Z M 6.359375 -9.90625 "/></g></g></g><g fill="#ffffff" fill-opacity="1"><g transform="translate(198.478898, 270.764175)"><g><path d="M 9.984375 -11.484375 C 8.984375 -11.484375 8.125 -11.113281 7.40625 -10.375 C 6.6875 -9.632812 6.328125 -8.742188 6.328125 -7.703125 C 6.328125 -6.648438 6.6875 -5.753906 7.40625 -5.015625 C 8.125 -4.273438 8.984375 -3.90625 9.984375 -3.90625 C 10.460938 -3.90625 10.914062 -3.960938 11.34375 -4.078125 C 11.78125 -4.203125 12.097656 -4.320312 12.296875 -4.4375 L 12.5625 -4.625 L 14.375 -0.9375 C 14.226562 -0.832031 14.03125 -0.703125 13.78125 -0.546875 C 13.53125 -0.398438 12.957031 -0.195312 12.0625 0.0625 C 11.175781 0.320312 10.222656 0.453125 9.203125 0.453125 C 6.941406 0.453125 4.957031 -0.335938 3.25 -1.921875 C 1.539062 -3.515625 0.6875 -5.425781 0.6875 -7.65625 C 0.6875 -9.894531 1.539062 -11.816406 3.25 -13.421875 C 4.957031 -15.035156 6.941406 -15.84375 9.203125 -15.84375 C 10.222656 -15.84375 11.160156 -15.722656 12.015625 -15.484375 C 12.878906 -15.242188 13.492188 -15.003906 13.859375 -14.765625 L 14.375 -14.40625 L 12.5625 -10.765625 C 11.90625 -11.242188 11.046875 -11.484375 9.984375 -11.484375 Z M 9.984375 -11.484375 "/></g></g></g><g fill="#ffffff" fill-opacity="1"><g transform="translate(213.203174, 270.764175)"><g><path d="M 3.25 -1.828125 C 1.539062 -3.347656 0.6875 -5.296875 0.6875 -7.671875 C 0.6875 -10.054688 1.578125 -12.015625 3.359375 -13.546875 C 5.140625 -15.078125 7.335938 -15.84375 9.953125 -15.84375 C 12.535156 -15.84375 14.710938 -15.070312 16.484375 -13.53125 C 18.253906 -11.988281 19.140625 -10.035156 19.140625 -7.671875 C 19.140625 -5.316406 18.273438 -3.375 16.546875 -1.84375 C 14.816406 -0.3125 12.617188 0.453125 9.953125 0.453125 C 7.191406 0.453125 4.957031 -0.304688 3.25 -1.828125 Z M 7.359375 -10.28125 C 6.671875 -9.601562 6.328125 -8.734375 6.328125 -7.671875 C 6.328125 -6.617188 6.65625 -5.753906 7.3125 -5.078125 C 7.976562 -4.410156 8.851562 -4.078125 9.9375 -4.078125 C 10.96875 -4.078125 11.816406 -4.414062 12.484375 -5.09375 C 13.160156 -5.78125 13.5 -6.644531 13.5 -7.6875 C 13.5 -8.738281 13.15625 -9.601562 12.46875 -10.28125 C 11.78125 -10.96875 10.9375 -11.3125 9.9375 -11.3125 C 8.914062 -11.3125 8.054688 -10.96875 7.359375 -10.28125 Z M 7.359375 -10.28125 "/></g></g></g><g fill="#ffffff" fill-opacity="1"><g transform="translate(233.025472, 270.764175)"><g><path d="M 1.796875 0 L 1.796875 -15.390625 L 7.109375 -15.390625 L 7.109375 -13.171875 L 7.171875 -13.171875 C 7.210938 -13.253906 7.273438 -13.351562 7.359375 -13.46875 C 7.453125 -13.59375 7.648438 -13.800781 7.953125 -14.09375 C 8.253906 -14.394531 8.570312 -14.664062 8.90625 -14.90625 C 9.25 -15.144531 9.691406 -15.359375 10.234375 -15.546875 C 10.773438 -15.742188 11.320312 -15.84375 11.875 -15.84375 C 12.457031 -15.84375 13.03125 -15.757812 13.59375 -15.59375 C 14.15625 -15.4375 14.5625 -15.28125 14.8125 -15.125 L 15.234375 -14.875 L 13.015625 -10.375 C 12.359375 -10.9375 11.441406 -11.21875 10.265625 -11.21875 C 9.617188 -11.21875 9.066406 -11.078125 8.609375 -10.796875 C 8.148438 -10.515625 7.820312 -10.175781 7.625 -9.78125 C 7.4375 -9.382812 7.300781 -9.046875 7.21875 -8.765625 C 7.144531 -8.484375 7.109375 -8.257812 7.109375 -8.09375 L 7.109375 0 Z M 1.796875 0 "/></g></g></g><g fill="#ffffff" fill-opacity="1"><g transform="translate(247.959667, 270.764175)"><g><path d="M 2.84375 -1.90625 C 1.40625 -3.476562 0.6875 -5.398438 0.6875 -7.671875 C 0.6875 -9.953125 1.40625 -11.882812 2.84375 -13.46875 C 4.289062 -15.050781 6.125 -15.84375 8.34375 -15.84375 C 10.382812 -15.84375 12.0625 -15.203125 13.375 -13.921875 L 13.375 -25.796875 L 18.6875 -25.796875 L 18.6875 0 L 13.4375 0 L 13.4375 -1.734375 L 13.375 -1.734375 C 12.0625 -0.273438 10.382812 0.453125 8.34375 0.453125 C 6.125 0.453125 4.289062 -0.332031 2.84375 -1.90625 Z M 7.359375 -10.28125 C 6.671875 -9.601562 6.328125 -8.734375 6.328125 -7.671875 C 6.328125 -6.617188 6.65625 -5.753906 7.3125 -5.078125 C 7.976562 -4.410156 8.851562 -4.078125 9.9375 -4.078125 C 10.96875 -4.078125 11.816406 -4.414062 12.484375 -5.09375 C 13.160156 -5.78125 13.5 -6.644531 13.5 -7.6875 C 13.5 -8.738281 13.15625 -9.601562 12.46875 -10.28125 C 11.78125 -10.96875 10.9375 -11.3125 9.9375 -11.3125 C 8.914062 -11.3125 8.054688 -10.96875 7.359375 -10.28125 Z M 7.359375 -10.28125 "/></g></g></g><g fill="#ffffff" fill-opacity="1"><g transform="translate(268.441706, 270.764175)"><g><path d="M 8.484375 -15.84375 C 9.367188 -15.84375 10.238281 -15.738281 11.09375 -15.53125 C 11.957031 -15.332031 12.597656 -15.132812 13.015625 -14.9375 L 13.65625 -14.640625 L 11.90625 -11.15625 C 10.707031 -11.800781 9.566406 -12.125 8.484375 -12.125 C 7.890625 -12.125 7.46875 -12.054688 7.21875 -11.921875 C 6.96875 -11.796875 6.84375 -11.550781 6.84375 -11.1875 C 6.84375 -11.101562 6.851562 -11.019531 6.875 -10.9375 C 6.894531 -10.863281 6.929688 -10.789062 6.984375 -10.71875 C 7.046875 -10.65625 7.101562 -10.597656 7.15625 -10.546875 C 7.207031 -10.492188 7.289062 -10.4375 7.40625 -10.375 C 7.53125 -10.320312 7.625 -10.28125 7.6875 -10.25 C 7.757812 -10.21875 7.875 -10.171875 8.03125 -10.109375 C 8.195312 -10.046875 8.316406 -10 8.390625 -9.96875 C 8.472656 -9.945312 8.609375 -9.90625 8.796875 -9.84375 C 8.992188 -9.78125 9.140625 -9.738281 9.234375 -9.71875 C 9.859375 -9.539062 10.398438 -9.34375 10.859375 -9.125 C 11.316406 -8.90625 11.800781 -8.601562 12.3125 -8.21875 C 12.820312 -7.84375 13.21875 -7.363281 13.5 -6.78125 C 13.78125 -6.195312 13.921875 -5.535156 13.921875 -4.796875 C 13.921875 -1.296875 11.488281 0.453125 6.625 0.453125 C 5.53125 0.453125 4.488281 0.285156 3.5 -0.046875 C 2.507812 -0.390625 1.789062 -0.734375 1.34375 -1.078125 L 0.6875 -1.625 L 2.84375 -5.25 C 3.007812 -5.113281 3.222656 -4.945312 3.484375 -4.75 C 3.742188 -4.5625 4.210938 -4.300781 4.890625 -3.96875 C 5.566406 -3.644531 6.15625 -3.484375 6.65625 -3.484375 C 7.757812 -3.484375 8.3125 -3.851562 8.3125 -4.59375 C 8.3125 -4.925781 8.171875 -5.1875 7.890625 -5.375 C 7.609375 -5.570312 7.128906 -5.789062 6.453125 -6.03125 C 5.785156 -6.269531 5.265625 -6.488281 4.890625 -6.6875 C 3.929688 -7.1875 3.171875 -7.75 2.609375 -8.375 C 2.046875 -9.007812 1.765625 -9.847656 1.765625 -10.890625 C 1.765625 -12.453125 2.367188 -13.664062 3.578125 -14.53125 C 4.796875 -15.40625 6.429688 -15.84375 8.484375 -15.84375 Z M 8.484375 -15.84375 "/></g></g></g><g fill="#ffffff" fill-opacity="1"><g transform="translate(283.195977, 270.764175)"><g/></g></g><g fill="#ffffff" fill-opacity="1"><g transform="translate(291.382782, 270.764175)"><g><path d="M 0.234375 -19.796875 L 0.234375 -24.75 L 17.640625 -24.75 L 17.640625 -19.796875 L 11.765625 -19.796875 L 11.765625 0 L 6.125 0 L 6.125 -19.796875 Z M 0.234375 -19.796875 "/></g></g></g><g fill="#ffffff" fill-opacity="1"><g transform="translate(309.255843, 270.764175)"><g><path d="M 1.796875 0 L 1.796875 -15.390625 L 7.109375 -15.390625 L 7.109375 -13.171875 L 7.171875 -13.171875 C 7.210938 -13.253906 7.273438 -13.351562 7.359375 -13.46875 C 7.453125 -13.59375 7.648438 -13.800781 7.953125 -14.09375 C 8.253906 -14.394531 8.570312 -14.664062 8.90625 -14.90625 C 9.25 -15.144531 9.691406 -15.359375 10.234375 -15.546875 C 10.773438 -15.742188 11.320312 -15.84375 11.875 -15.84375 C 12.457031 -15.84375 13.03125 -15.757812 13.59375 -15.59375 C 14.15625 -15.4375 14.5625 -15.28125 14.8125 -15.125 L 15.234375 -14.875 L 13.015625 -10.375 C 12.359375 -10.9375 11.441406 -11.21875 10.265625 -11.21875 C 9.617188 -11.21875 9.066406 -11.078125 8.609375 -10.796875 C 8.148438 -10.515625 7.820312 -10.175781 7.625 -9.78125 C 7.4375 -9.382812 7.300781 -9.046875 7.21875 -8.765625 C 7.144531 -8.484375 7.109375 -8.257812 7.109375 -8.09375 L 7.109375 0 Z M 1.796875 0 "/></g></g></g><g fill="#ffffff" fill-opacity="1"><g transform="translate(324.190038, 270.764175)"><g><path d="M 2.84375 -1.90625 C 1.40625 -3.476562 0.6875 -5.398438 0.6875 -7.671875 C 0.6875 -9.953125 1.40625 -11.882812 2.84375 -13.46875 C 4.289062 -15.050781 6.125 -15.84375 8.34375 -15.84375 C 10.382812 -15.84375 12.0625 -15.203125 13.375 -13.921875 L 13.375 -15.390625 L 18.6875 -15.390625 L 18.6875 0 L 13.4375 0 L 13.4375 -1.734375 L 13.375 -1.734375 C 12.0625 -0.273438 10.382812 0.453125 8.34375 0.453125 C 6.125 0.453125 4.289062 -0.332031 2.84375 -1.90625 Z M 7.359375 -10.28125 C 6.671875 -9.601562 6.328125 -8.734375 6.328125 -7.671875 C 6.328125 -6.617188 6.65625 -5.753906 7.3125 -5.078125 C 7.976562 -4.410156 8.851562 -4.078125 9.9375 -4.078125 C 10.96875 -4.078125 11.816406 -4.414062 12.484375 -5.09375 C 13.160156 -5.78125 13.5 -6.644531 13.5 -7.6875 C 13.5 -8.738281 13.15625 -9.601562 12.46875 -10.28125 C 11.78125 -10.96875 10.9375 -11.3125 9.9375 -11.3125 C 8.914062 -11.3125 8.054688 -10.96875 7.359375 -10.28125 Z M 7.359375 -10.28125 "/></g></g></g><g fill="#ffffff" fill-opacity="1"><g transform="translate(344.672077, 270.764175)"><g><path d="M 9.984375 -11.484375 C 8.984375 -11.484375 8.125 -11.113281 7.40625 -10.375 C 6.6875 -9.632812 6.328125 -8.742188 6.328125 -7.703125 C 6.328125 -6.648438 6.6875 -5.753906 7.40625 -5.015625 C 8.125 -4.273438 8.984375 -3.90625 9.984375 -3.90625 C 10.460938 -3.90625 10.914062 -3.960938 11.34375 -4.078125 C 11.78125 -4.203125 12.097656 -4.320312 12.296875 -4.4375 L 12.5625 -4.625 L 14.375 -0.9375 C 14.226562 -0.832031 14.03125 -0.703125 13.78125 -0.546875 C 13.53125 -0.398438 12.957031 -0.195312 12.0625 0.0625 C 11.175781 0.320312 10.222656 0.453125 9.203125 0.453125 C 6.941406 0.453125 4.957031 -0.335938 3.25 -1.921875 C 1.539062 -3.515625 0.6875 -5.425781 0.6875 -7.65625 C 0.6875 -9.894531 1.539062 -11.816406 3.25 -13.421875 C 4.957031 -15.035156 6.941406 -15.84375 9.203125 -15.84375 C 10.222656 -15.84375 11.160156 -15.722656 12.015625 -15.484375 C 12.878906 -15.242188 13.492188 -15.003906 13.859375 -14.765625 L 14.375 -14.40625 L 12.5625 -10.765625 C 11.90625 -11.242188 11.046875 -11.484375 9.984375 -11.484375 Z M 9.984375 -11.484375 "/></g></g></g><g fill="#ffffff" fill-opacity="1"><g transform="translate(359.396342, 270.764175)"><g><path d="M 19.375 -15.390625 L 12.0625 -8.046875 L 20.09375 0 L 13.265625 0 L 7.109375 -6.15625 L 7.109375 0 L 1.796875 0 L 1.796875 -25.796875 L 7.109375 -25.796875 L 7.109375 -10.015625 L 12.484375 -15.390625 Z M 19.375 -15.390625 "/></g></g></g><g fill="#ffffff" fill-opacity="1"><g transform="translate(378.768807, 270.764175)"><g><path d="M 2.296875 -23.96875 C 2.921875 -24.59375 3.660156 -24.90625 4.515625 -24.90625 C 5.378906 -24.90625 6.125 -24.59375 6.75 -23.96875 C 7.375 -23.351562 7.6875 -22.613281 7.6875 -21.75 C 7.6875 -20.882812 7.375 -20.140625 6.75 -19.515625 C 6.125 -18.898438 5.378906 -18.59375 4.515625 -18.59375 C 3.660156 -18.59375 2.921875 -18.898438 2.296875 -19.515625 C 1.679688 -20.140625 1.375 -20.882812 1.375 -21.75 C 1.375 -22.613281 1.679688 -23.351562 2.296875 -23.96875 Z M 1.796875 -15.390625 L 1.796875 0 L 7.109375 0 L 7.109375 -15.390625 Z M 1.796875 -15.390625 "/></g></g></g><g fill="#ffffff" fill-opacity="1"><g transform="translate(387.825295, 270.764175)"><g><path d="M 1.796875 0 L 1.796875 -15.390625 L 7.109375 -15.390625 L 7.109375 -13.765625 L 7.171875 -13.765625 C 8.546875 -15.148438 10.015625 -15.84375 11.578125 -15.84375 C 12.335938 -15.84375 13.09375 -15.738281 13.84375 -15.53125 C 14.59375 -15.332031 15.3125 -15.023438 16 -14.609375 C 16.695312 -14.191406 17.257812 -13.597656 17.6875 -12.828125 C 18.113281 -12.054688 18.328125 -11.160156 18.328125 -10.140625 L 18.328125 0 L 13.015625 0 L 13.015625 -8.703125 C 13.015625 -9.503906 12.757812 -10.203125 12.25 -10.796875 C 11.738281 -11.398438 11.078125 -11.703125 10.265625 -11.703125 C 9.460938 -11.703125 8.734375 -11.390625 8.078125 -10.765625 C 7.429688 -10.148438 7.109375 -9.460938 7.109375 -8.703125 L 7.109375 0 Z M 1.796875 0 "/></g></g></g><g fill="#ffffff" fill-opacity="1"><g transform="translate(407.647605, 270.764175)"><g><path d="M 1.109375 3.78125 L 5.453125 1.65625 C 6.253906 2.96875 7.644531 3.625 9.625 3.625 C 10.550781 3.625 11.40625 3.328125 12.1875 2.734375 C 12.976562 2.148438 13.375 1.25 13.375 0.03125 L 13.375 -1.109375 C 12.4375 -0.0664062 10.757812 0.453125 8.34375 0.453125 C 6.125 0.453125 4.289062 -0.332031 2.84375 -1.90625 C 1.40625 -3.476562 0.6875 -5.398438 0.6875 -7.671875 C 0.6875 -9.953125 1.40625 -11.882812 2.84375 -13.46875 C 4.289062 -15.050781 6.125 -15.84375 8.34375 -15.84375 C 10.320312 -15.84375 11.972656 -15.234375 13.296875 -14.015625 L 13.375 -14.015625 L 13.375 -15.390625 L 18.6875 -15.390625 L 18.6875 0.421875 C 18.6875 2.921875 17.851562 4.847656 16.1875 6.203125 C 14.53125 7.566406 12.34375 8.25 9.625 8.25 C 5.226562 8.25 2.390625 6.757812 1.109375 3.78125 Z M 7.359375 -10.28125 C 6.671875 -9.601562 6.328125 -8.734375 6.328125 -7.671875 C 6.328125 -6.617188 6.65625 -5.753906 7.3125 -5.078125 C 7.976562 -4.410156 8.851562 -4.078125 9.9375 -4.078125 C 10.96875 -4.078125 11.816406 -4.414062 12.484375 -5.09375 C 13.160156 -5.78125 13.5 -6.644531 13.5 -7.6875 C 13.5 -8.738281 13.15625 -9.601562 12.46875 -10.28125 C 11.78125 -10.96875 10.9375 -11.3125 9.9375 -11.3125 C 8.914062 -11.3125 8.054688 -10.96875 7.359375 -10.28125 Z M 7.359375 -10.28125 "/></g></g></g></svg>