<svg xmlns="http://www.w3.org/2000/svg" xmlns:xlink="http://www.w3.org/1999/xlink" width="1080" zoomAndPan="magnify" viewBox="0 0 810 1439.999935" height="1920" preserveAspectRatio="xMidYMid meet" version="1.0"><defs><g/><linearGradient x1="0" gradientTransform="matrix(0.75, 0, 0, 0.75, 0.0000182812, -0.00002)" y1="0" x2="1079.999955" gradientUnits="userSpaceOnUse" y2="0" id="1d358e7227"><stop stop-opacity="1" stop-color="rgb(73.298645%, 77.2995%, 79.598999%)" offset="0"/><stop stop-opacity="1" stop-color="rgb(73.028564%, 77.005005%, 79.310608%)" offset="0.00390625"/><stop stop-opacity="1" stop-color="rgb(72.76001%, 76.71051%, 79.022217%)" offset="0.0078125"/><stop stop-opacity="1" stop-color="rgb(72.489929%, 76.416016%, 78.733826%)" offset="0.0117187"/><stop stop-opacity="1" stop-color="rgb(72.221375%, 76.121521%, 78.445435%)" offset="0.015625"/><stop stop-opacity="1" stop-color="rgb(71.951294%, 75.827026%, 78.157043%)" offset="0.0195312"/><stop stop-opacity="1" stop-color="rgb(71.682739%, 75.532532%, 77.870178%)" offset="0.0234375"/><stop stop-opacity="1" stop-color="rgb(71.412659%, 75.238037%, 77.581787%)" offset="0.0273438"/><stop stop-opacity="1" stop-color="rgb(71.142578%, 74.943542%, 77.293396%)" offset="0.03125"/><stop stop-opacity="1" stop-color="rgb(70.872498%, 74.649048%, 77.005005%)" offset="0.0351562"/><stop stop-opacity="1" stop-color="rgb(70.603943%, 74.354553%, 76.716614%)" offset="0.0390625"/><stop stop-opacity="1" stop-color="rgb(70.333862%, 74.060059%, 76.428223%)" offset="0.0429687"/><stop stop-opacity="1" stop-color="rgb(70.065308%, 73.765564%, 76.139832%)" offset="0.046875"/><stop stop-opacity="1" stop-color="rgb(69.795227%, 73.469543%, 75.85144%)" offset="0.0507812"/><stop stop-opacity="1" stop-color="rgb(69.525146%, 73.175049%, 75.563049%)" offset="0.0546875"/><stop stop-opacity="1" stop-color="rgb(69.255066%, 72.880554%, 75.274658%)" offset="0.0585938"/><stop stop-opacity="1" stop-color="rgb(68.986511%, 72.58606%, 74.986267%)" offset="0.0625"/><stop stop-opacity="1" stop-color="rgb(68.716431%, 72.291565%, 74.697876%)" offset="0.0664062"/><stop stop-opacity="1" stop-color="rgb(68.447876%, 71.99707%, 74.409485%)" offset="0.0703125"/><stop stop-opacity="1" stop-color="rgb(68.177795%, 71.702576%, 74.121094%)" offset="0.0742187"/><stop stop-opacity="1" stop-color="rgb(67.909241%, 71.408081%, 73.834229%)" offset="0.078125"/><stop stop-opacity="1" stop-color="rgb(67.63916%, 71.113586%, 73.545837%)" offset="0.0820312"/><stop stop-opacity="1" stop-color="rgb(67.36908%, 70.819092%, 73.257446%)" offset="0.0859375"/><stop stop-opacity="1" stop-color="rgb(67.098999%, 70.524597%, 72.969055%)" offset="0.0898437"/><stop stop-opacity="1" stop-color="rgb(66.830444%, 70.230103%, 72.680664%)" offset="0.09375"/><stop stop-opacity="1" stop-color="rgb(66.560364%, 69.935608%, 72.392273%)" offset="0.0976562"/><stop stop-opacity="1" stop-color="rgb(66.291809%, 69.641113%, 72.103882%)" offset="0.101562"/><stop stop-opacity="1" stop-color="rgb(66.021729%, 69.346619%, 71.815491%)" offset="0.105469"/><stop stop-opacity="1" stop-color="rgb(65.751648%, 69.052124%, 71.5271%)" offset="0.109375"/><stop stop-opacity="1" stop-color="rgb(65.481567%, 68.757629%, 71.238708%)" offset="0.113281"/><stop stop-opacity="1" stop-color="rgb(65.213013%, 68.463135%, 70.950317%)" offset="0.117188"/><stop stop-opacity="1" stop-color="rgb(64.942932%, 68.16864%, 70.661926%)" offset="0.121094"/><stop stop-opacity="1" stop-color="rgb(64.674377%, 67.874146%, 70.373535%)" offset="0.125"/><stop stop-opacity="1" stop-color="rgb(64.404297%, 67.579651%, 70.085144%)" offset="0.128906"/><stop stop-opacity="1" stop-color="rgb(64.135742%, 67.285156%, 69.798279%)" offset="0.132812"/><stop stop-opacity="1" stop-color="rgb(63.865662%, 66.990662%, 69.509888%)" offset="0.136719"/><stop stop-opacity="1" stop-color="rgb(63.595581%, 66.696167%, 69.221497%)" offset="0.140625"/><stop stop-opacity="1" stop-color="rgb(63.3255%, 66.401672%, 68.933105%)" offset="0.144531"/><stop stop-opacity="1" stop-color="rgb(63.056946%, 66.107178%, 68.644714%)" offset="0.148437"/><stop stop-opacity="1" stop-color="rgb(62.786865%, 65.812683%, 68.356323%)" offset="0.152344"/><stop stop-opacity="1" stop-color="rgb(62.518311%, 65.518188%, 68.067932%)" offset="0.15625"/><stop stop-opacity="1" stop-color="rgb(62.24823%, 65.223694%, 67.779541%)" offset="0.160156"/><stop stop-opacity="1" stop-color="rgb(61.979675%, 64.929199%, 67.49115%)" offset="0.164062"/><stop stop-opacity="1" stop-color="rgb(61.709595%, 64.634705%, 67.202759%)" offset="0.167969"/><stop stop-opacity="1" stop-color="rgb(61.439514%, 64.34021%, 66.914368%)" offset="0.171875"/><stop stop-opacity="1" stop-color="rgb(61.169434%, 64.045715%, 66.625977%)" offset="0.175781"/><stop stop-opacity="1" stop-color="rgb(60.900879%, 63.751221%, 66.337585%)" offset="0.179687"/><stop stop-opacity="1" stop-color="rgb(60.630798%, 63.456726%, 66.049194%)" offset="0.183594"/><stop stop-opacity="1" stop-color="rgb(60.362244%, 63.162231%, 65.762329%)" offset="0.1875"/><stop stop-opacity="1" stop-color="rgb(60.092163%, 62.867737%, 65.473938%)" offset="0.191406"/><stop stop-opacity="1" stop-color="rgb(59.822083%, 62.573242%, 65.185547%)" offset="0.195312"/><stop stop-opacity="1" stop-color="rgb(59.552002%, 62.278748%, 64.897156%)" offset="0.199219"/><stop stop-opacity="1" stop-color="rgb(59.283447%, 61.984253%, 64.608765%)" offset="0.203125"/><stop stop-opacity="1" stop-color="rgb(59.013367%, 61.689758%, 64.320374%)" offset="0.207031"/><stop stop-opacity="1" stop-color="rgb(58.744812%, 61.395264%, 64.031982%)" offset="0.210938"/><stop stop-opacity="1" stop-color="rgb(58.474731%, 61.099243%, 63.743591%)" offset="0.214844"/><stop stop-opacity="1" stop-color="rgb(58.206177%, 60.804749%, 63.4552%)" offset="0.21875"/><stop stop-opacity="1" stop-color="rgb(57.936096%, 60.510254%, 63.166809%)" offset="0.222656"/><stop stop-opacity="1" stop-color="rgb(57.666016%, 60.215759%, 62.878418%)" offset="0.226562"/><stop stop-opacity="1" stop-color="rgb(57.395935%, 59.921265%, 62.590027%)" offset="0.230469"/><stop stop-opacity="1" stop-color="rgb(57.12738%, 59.62677%, 62.301636%)" offset="0.234375"/><stop stop-opacity="1" stop-color="rgb(56.8573%, 59.332275%, 62.013245%)" offset="0.238281"/><stop stop-opacity="1" stop-color="rgb(56.588745%, 59.037781%, 61.726379%)" offset="0.242188"/><stop stop-opacity="1" stop-color="rgb(56.318665%, 58.743286%, 61.437988%)" offset="0.246094"/><stop stop-opacity="1" stop-color="rgb(56.048584%, 58.448792%, 61.149597%)" offset="0.25"/><stop stop-opacity="1" stop-color="rgb(55.778503%, 58.154297%, 60.861206%)" offset="0.253906"/><stop stop-opacity="1" stop-color="rgb(55.509949%, 57.859802%, 60.572815%)" offset="0.257812"/><stop stop-opacity="1" stop-color="rgb(55.239868%, 57.565308%, 60.284424%)" offset="0.261719"/><stop stop-opacity="1" stop-color="rgb(54.971313%, 57.270813%, 59.996033%)" offset="0.265625"/><stop stop-opacity="1" stop-color="rgb(54.701233%, 56.976318%, 59.707642%)" offset="0.269531"/><stop stop-opacity="1" stop-color="rgb(54.432678%, 56.681824%, 59.41925%)" offset="0.273437"/><stop stop-opacity="1" stop-color="rgb(54.162598%, 56.387329%, 59.130859%)" offset="0.277344"/><stop stop-opacity="1" stop-color="rgb(53.892517%, 56.092834%, 58.842468%)" offset="0.28125"/><stop stop-opacity="1" stop-color="rgb(53.622437%, 55.79834%, 58.554077%)" offset="0.285156"/><stop stop-opacity="1" stop-color="rgb(53.353882%, 55.503845%, 58.265686%)" offset="0.289062"/><stop stop-opacity="1" stop-color="rgb(53.083801%, 55.209351%, 57.977295%)" offset="0.292969"/><stop stop-opacity="1" stop-color="rgb(52.815247%, 54.914856%, 57.69043%)" offset="0.296875"/><stop stop-opacity="1" stop-color="rgb(52.545166%, 54.620361%, 57.402039%)" offset="0.300781"/><stop stop-opacity="1" stop-color="rgb(52.275085%, 54.325867%, 57.113647%)" offset="0.304687"/><stop stop-opacity="1" stop-color="rgb(52.005005%, 54.031372%, 56.825256%)" offset="0.308594"/><stop stop-opacity="1" stop-color="rgb(51.73645%, 53.736877%, 56.536865%)" offset="0.3125"/><stop stop-opacity="1" stop-color="rgb(51.46637%, 53.442383%, 56.248474%)" offset="0.316406"/><stop stop-opacity="1" stop-color="rgb(51.197815%, 53.147888%, 55.960083%)" offset="0.320312"/><stop stop-opacity="1" stop-color="rgb(50.927734%, 52.853394%, 55.671692%)" offset="0.324219"/><stop stop-opacity="1" stop-color="rgb(50.65918%, 52.558899%, 55.383301%)" offset="0.328125"/><stop stop-opacity="1" stop-color="rgb(50.389099%, 52.264404%, 55.09491%)" offset="0.332031"/><stop stop-opacity="1" stop-color="rgb(50.119019%, 51.96991%, 54.806519%)" offset="0.335937"/><stop stop-opacity="1" stop-color="rgb(49.848938%, 51.675415%, 54.518127%)" offset="0.339844"/><stop stop-opacity="1" stop-color="rgb(49.580383%, 51.38092%, 54.229736%)" offset="0.34375"/><stop stop-opacity="1" stop-color="rgb(49.310303%, 51.086426%, 53.941345%)" offset="0.347656"/><stop stop-opacity="1" stop-color="rgb(49.041748%, 50.791931%, 53.65448%)" offset="0.351562"/><stop stop-opacity="1" stop-color="rgb(48.771667%, 50.497437%, 53.366089%)" offset="0.355469"/><stop stop-opacity="1" stop-color="rgb(48.503113%, 50.202942%, 53.077698%)" offset="0.359375"/><stop stop-opacity="1" stop-color="rgb(48.233032%, 49.908447%, 52.789307%)" offset="0.363281"/><stop stop-opacity="1" stop-color="rgb(47.962952%, 49.613953%, 52.500916%)" offset="0.367187"/><stop stop-opacity="1" stop-color="rgb(47.692871%, 49.319458%, 52.212524%)" offset="0.371094"/><stop stop-opacity="1" stop-color="rgb(47.424316%, 49.024963%, 51.924133%)" offset="0.375"/><stop stop-opacity="1" stop-color="rgb(47.154236%, 48.728943%, 51.635742%)" offset="0.378906"/><stop stop-opacity="1" stop-color="rgb(46.885681%, 48.434448%, 51.347351%)" offset="0.382812"/><stop stop-opacity="1" stop-color="rgb(46.615601%, 48.139954%, 51.05896%)" offset="0.386719"/><stop stop-opacity="1" stop-color="rgb(46.34552%, 47.845459%, 50.770569%)" offset="0.390625"/><stop stop-opacity="1" stop-color="rgb(46.075439%, 47.550964%, 50.482178%)" offset="0.394531"/><stop stop-opacity="1" stop-color="rgb(45.806885%, 47.25647%, 50.195312%)" offset="0.398438"/><stop stop-opacity="1" stop-color="rgb(45.536804%, 46.961975%, 49.906921%)" offset="0.402344"/><stop stop-opacity="1" stop-color="rgb(45.26825%, 46.66748%, 49.61853%)" offset="0.40625"/><stop stop-opacity="1" stop-color="rgb(44.998169%, 46.372986%, 49.330139%)" offset="0.410156"/><stop stop-opacity="1" stop-color="rgb(44.729614%, 46.078491%, 49.041748%)" offset="0.414062"/><stop stop-opacity="1" stop-color="rgb(44.459534%, 45.783997%, 48.753357%)" offset="0.417969"/><stop stop-opacity="1" stop-color="rgb(44.189453%, 45.489502%, 48.464966%)" offset="0.421875"/><stop stop-opacity="1" stop-color="rgb(43.919373%, 45.195007%, 48.176575%)" offset="0.425781"/><stop stop-opacity="1" stop-color="rgb(43.650818%, 44.900513%, 47.888184%)" offset="0.429688"/><stop stop-opacity="1" stop-color="rgb(43.380737%, 44.606018%, 47.599792%)" offset="0.433594"/><stop stop-opacity="1" stop-color="rgb(43.112183%, 44.311523%, 47.311401%)" offset="0.4375"/><stop stop-opacity="1" stop-color="rgb(42.842102%, 44.017029%, 47.02301%)" offset="0.441406"/><stop stop-opacity="1" stop-color="rgb(42.572021%, 43.722534%, 46.734619%)" offset="0.445312"/><stop stop-opacity="1" stop-color="rgb(42.301941%, 43.42804%, 46.446228%)" offset="0.449219"/><stop stop-opacity="1" stop-color="rgb(42.033386%, 43.133545%, 46.159363%)" offset="0.453125"/><stop stop-opacity="1" stop-color="rgb(41.763306%, 42.83905%, 45.870972%)" offset="0.457031"/><stop stop-opacity="1" stop-color="rgb(41.494751%, 42.544556%, 45.582581%)" offset="0.460938"/><stop stop-opacity="1" stop-color="rgb(41.22467%, 42.250061%, 45.294189%)" offset="0.464844"/><stop stop-opacity="1" stop-color="rgb(40.956116%, 41.955566%, 45.005798%)" offset="0.46875"/><stop stop-opacity="1" stop-color="rgb(40.686035%, 41.661072%, 44.717407%)" offset="0.472656"/><stop stop-opacity="1" stop-color="rgb(40.415955%, 41.366577%, 44.429016%)" offset="0.476562"/><stop stop-opacity="1" stop-color="rgb(40.145874%, 41.072083%, 44.140625%)" offset="0.480469"/><stop stop-opacity="1" stop-color="rgb(39.877319%, 40.777588%, 43.852234%)" offset="0.484375"/><stop stop-opacity="1" stop-color="rgb(39.607239%, 40.483093%, 43.563843%)" offset="0.488281"/><stop stop-opacity="1" stop-color="rgb(39.338684%, 40.188599%, 43.275452%)" offset="0.492188"/><stop stop-opacity="1" stop-color="rgb(39.068604%, 39.894104%, 42.987061%)" offset="0.496094"/><stop stop-opacity="1" stop-color="rgb(38.798523%, 39.599609%, 42.698669%)" offset="0.5"/><stop stop-opacity="1" stop-color="rgb(39.248657%, 40.02533%, 43.069458%)" offset="0.503906"/><stop stop-opacity="1" stop-color="rgb(39.700317%, 40.45105%, 43.441772%)" offset="0.507812"/><stop stop-opacity="1" stop-color="rgb(40.150452%, 40.87677%, 43.812561%)" offset="0.511719"/><stop stop-opacity="1" stop-color="rgb(40.602112%, 41.30249%, 44.18335%)" offset="0.515625"/><stop stop-opacity="1" stop-color="rgb(41.052246%, 41.72821%, 44.554138%)" offset="0.519531"/><stop stop-opacity="1" stop-color="rgb(41.503906%, 42.153931%, 44.926453%)" offset="0.523437"/><stop stop-opacity="1" stop-color="rgb(41.954041%, 42.579651%, 45.297241%)" offset="0.527344"/><stop stop-opacity="1" stop-color="rgb(42.405701%, 43.005371%, 45.66803%)" offset="0.53125"/><stop stop-opacity="1" stop-color="rgb(42.855835%, 43.431091%, 46.038818%)" offset="0.535156"/><stop stop-opacity="1" stop-color="rgb(43.307495%, 43.856812%, 46.409607%)" offset="0.539062"/><stop stop-opacity="1" stop-color="rgb(43.757629%, 44.282532%, 46.780396%)" offset="0.542969"/><stop stop-opacity="1" stop-color="rgb(44.20929%, 44.708252%, 47.15271%)" offset="0.546875"/><stop stop-opacity="1" stop-color="rgb(44.659424%, 45.133972%, 47.523499%)" offset="0.550781"/><stop stop-opacity="1" stop-color="rgb(45.109558%, 45.559692%, 47.894287%)" offset="0.554687"/><stop stop-opacity="1" stop-color="rgb(45.559692%, 45.985413%, 48.265076%)" offset="0.558594"/><stop stop-opacity="1" stop-color="rgb(46.011353%, 46.411133%, 48.63739%)" offset="0.5625"/><stop stop-opacity="1" stop-color="rgb(46.461487%, 46.836853%, 49.008179%)" offset="0.566406"/><stop stop-opacity="1" stop-color="rgb(46.913147%, 47.262573%, 49.378967%)" offset="0.570312"/><stop stop-opacity="1" stop-color="rgb(47.363281%, 47.688293%, 49.749756%)" offset="0.574219"/><stop stop-opacity="1" stop-color="rgb(47.814941%, 48.11554%, 50.120544%)" offset="0.578125"/><stop stop-opacity="1" stop-color="rgb(48.265076%, 48.54126%, 50.491333%)" offset="0.582031"/><stop stop-opacity="1" stop-color="rgb(48.716736%, 48.96698%, 50.863647%)" offset="0.585937"/><stop stop-opacity="1" stop-color="rgb(49.16687%, 49.3927%, 51.234436%)" offset="0.589844"/><stop stop-opacity="1" stop-color="rgb(49.61853%, 49.81842%, 51.605225%)" offset="0.59375"/><stop stop-opacity="1" stop-color="rgb(50.068665%, 50.244141%, 51.976013%)" offset="0.597656"/><stop stop-opacity="1" stop-color="rgb(50.518799%, 50.669861%, 52.348328%)" offset="0.601562"/><stop stop-opacity="1" stop-color="rgb(50.968933%, 51.095581%, 52.719116%)" offset="0.605469"/><stop stop-opacity="1" stop-color="rgb(51.420593%, 51.521301%, 53.089905%)" offset="0.609375"/><stop stop-opacity="1" stop-color="rgb(51.870728%, 51.947021%, 53.460693%)" offset="0.613281"/><stop stop-opacity="1" stop-color="rgb(52.322388%, 52.372742%, 53.831482%)" offset="0.617187"/><stop stop-opacity="1" stop-color="rgb(52.772522%, 52.798462%, 54.202271%)" offset="0.621094"/><stop stop-opacity="1" stop-color="rgb(53.224182%, 53.224182%, 54.574585%)" offset="0.625"/><stop stop-opacity="1" stop-color="rgb(53.674316%, 53.649902%, 54.945374%)" offset="0.628906"/><stop stop-opacity="1" stop-color="rgb(54.125977%, 54.075623%, 55.316162%)" offset="0.632812"/><stop stop-opacity="1" stop-color="rgb(54.576111%, 54.501343%, 55.686951%)" offset="0.636719"/><stop stop-opacity="1" stop-color="rgb(55.027771%, 54.927063%, 56.059265%)" offset="0.640625"/><stop stop-opacity="1" stop-color="rgb(55.477905%, 55.352783%, 56.430054%)" offset="0.644531"/><stop stop-opacity="1" stop-color="rgb(55.929565%, 55.778503%, 56.800842%)" offset="0.648437"/><stop stop-opacity="1" stop-color="rgb(56.3797%, 56.204224%, 57.171631%)" offset="0.652344"/><stop stop-opacity="1" stop-color="rgb(56.829834%, 56.629944%, 57.542419%)" offset="0.65625"/><stop stop-opacity="1" stop-color="rgb(57.279968%, 57.055664%, 57.913208%)" offset="0.660156"/><stop stop-opacity="1" stop-color="rgb(57.731628%, 57.481384%, 58.285522%)" offset="0.664062"/><stop stop-opacity="1" stop-color="rgb(58.181763%, 57.907104%, 58.656311%)" offset="0.667969"/><stop stop-opacity="1" stop-color="rgb(58.633423%, 58.334351%, 59.0271%)" offset="0.671875"/><stop stop-opacity="1" stop-color="rgb(59.083557%, 58.760071%, 59.397888%)" offset="0.675781"/><stop stop-opacity="1" stop-color="rgb(59.535217%, 59.185791%, 59.770203%)" offset="0.679687"/><stop stop-opacity="1" stop-color="rgb(59.985352%, 59.611511%, 60.140991%)" offset="0.683594"/><stop stop-opacity="1" stop-color="rgb(60.437012%, 60.037231%, 60.51178%)" offset="0.6875"/><stop stop-opacity="1" stop-color="rgb(60.887146%, 60.462952%, 60.882568%)" offset="0.691406"/><stop stop-opacity="1" stop-color="rgb(61.338806%, 60.888672%, 61.253357%)" offset="0.695312"/><stop stop-opacity="1" stop-color="rgb(61.78894%, 61.314392%, 61.624146%)" offset="0.699219"/><stop stop-opacity="1" stop-color="rgb(62.240601%, 61.740112%, 61.99646%)" offset="0.703125"/><stop stop-opacity="1" stop-color="rgb(62.690735%, 62.165833%, 62.367249%)" offset="0.707031"/><stop stop-opacity="1" stop-color="rgb(63.140869%, 62.591553%, 62.738037%)" offset="0.710937"/><stop stop-opacity="1" stop-color="rgb(63.591003%, 63.017273%, 63.108826%)" offset="0.714844"/><stop stop-opacity="1" stop-color="rgb(64.042664%, 63.442993%, 63.48114%)" offset="0.71875"/><stop stop-opacity="1" stop-color="rgb(64.492798%, 63.868713%, 63.851929%)" offset="0.722656"/><stop stop-opacity="1" stop-color="rgb(64.944458%, 64.294434%, 64.222717%)" offset="0.726562"/><stop stop-opacity="1" stop-color="rgb(65.394592%, 64.720154%, 64.593506%)" offset="0.730469"/><stop stop-opacity="1" stop-color="rgb(65.846252%, 65.145874%, 64.964294%)" offset="0.734375"/><stop stop-opacity="1" stop-color="rgb(66.296387%, 65.571594%, 65.335083%)" offset="0.738281"/><stop stop-opacity="1" stop-color="rgb(66.748047%, 65.997314%, 65.707397%)" offset="0.742187"/><stop stop-opacity="1" stop-color="rgb(67.198181%, 66.423035%, 66.078186%)" offset="0.746094"/><stop stop-opacity="1" stop-color="rgb(67.649841%, 66.848755%, 66.448975%)" offset="0.75"/><stop stop-opacity="1" stop-color="rgb(68.099976%, 67.274475%, 66.819763%)" offset="0.753906"/><stop stop-opacity="1" stop-color="rgb(68.55011%, 67.700195%, 67.192078%)" offset="0.757812"/><stop stop-opacity="1" stop-color="rgb(69.000244%, 68.125916%, 67.562866%)" offset="0.761719"/><stop stop-opacity="1" stop-color="rgb(69.451904%, 68.551636%, 67.933655%)" offset="0.765625"/><stop stop-opacity="1" stop-color="rgb(69.902039%, 68.977356%, 68.304443%)" offset="0.769531"/><stop stop-opacity="1" stop-color="rgb(70.353699%, 69.404602%, 68.675232%)" offset="0.773438"/><stop stop-opacity="1" stop-color="rgb(70.803833%, 69.830322%, 69.046021%)" offset="0.777344"/><stop stop-opacity="1" stop-color="rgb(71.255493%, 70.256042%, 69.418335%)" offset="0.78125"/><stop stop-opacity="1" stop-color="rgb(71.705627%, 70.681763%, 69.789124%)" offset="0.785156"/><stop stop-opacity="1" stop-color="rgb(72.157288%, 71.107483%, 70.159912%)" offset="0.789062"/><stop stop-opacity="1" stop-color="rgb(72.607422%, 71.533203%, 70.530701%)" offset="0.792969"/><stop stop-opacity="1" stop-color="rgb(73.059082%, 71.958923%, 70.903015%)" offset="0.796875"/><stop stop-opacity="1" stop-color="rgb(73.509216%, 72.384644%, 71.273804%)" offset="0.800781"/><stop stop-opacity="1" stop-color="rgb(73.960876%, 72.810364%, 71.644592%)" offset="0.804688"/><stop stop-opacity="1" stop-color="rgb(74.411011%, 73.236084%, 72.015381%)" offset="0.808594"/><stop stop-opacity="1" stop-color="rgb(74.861145%, 73.661804%, 72.386169%)" offset="0.8125"/><stop stop-opacity="1" stop-color="rgb(75.311279%, 74.087524%, 72.756958%)" offset="0.816406"/><stop stop-opacity="1" stop-color="rgb(75.762939%, 74.513245%, 73.129272%)" offset="0.820312"/><stop stop-opacity="1" stop-color="rgb(76.213074%, 74.938965%, 73.500061%)" offset="0.824219"/><stop stop-opacity="1" stop-color="rgb(76.664734%, 75.364685%, 73.87085%)" offset="0.828125"/><stop stop-opacity="1" stop-color="rgb(77.114868%, 75.790405%, 74.241638%)" offset="0.832031"/><stop stop-opacity="1" stop-color="rgb(77.566528%, 76.216125%, 74.613953%)" offset="0.835938"/><stop stop-opacity="1" stop-color="rgb(78.016663%, 76.641846%, 74.984741%)" offset="0.839844"/><stop stop-opacity="1" stop-color="rgb(78.468323%, 77.067566%, 75.35553%)" offset="0.84375"/><stop stop-opacity="1" stop-color="rgb(78.918457%, 77.493286%, 75.726318%)" offset="0.847656"/><stop stop-opacity="1" stop-color="rgb(79.370117%, 77.919006%, 76.097107%)" offset="0.851562"/><stop stop-opacity="1" stop-color="rgb(79.820251%, 78.344727%, 76.467896%)" offset="0.855469"/><stop stop-opacity="1" stop-color="rgb(80.270386%, 78.770447%, 76.84021%)" offset="0.859375"/><stop stop-opacity="1" stop-color="rgb(80.72052%, 79.196167%, 77.210999%)" offset="0.863281"/><stop stop-opacity="1" stop-color="rgb(81.17218%, 79.623413%, 77.581787%)" offset="0.867188"/><stop stop-opacity="1" stop-color="rgb(81.622314%, 80.049133%, 77.952576%)" offset="0.871094"/><stop stop-opacity="1" stop-color="rgb(82.073975%, 80.474854%, 78.32489%)" offset="0.875"/><stop stop-opacity="1" stop-color="rgb(82.524109%, 80.900574%, 78.695679%)" offset="0.878906"/><stop stop-opacity="1" stop-color="rgb(82.975769%, 81.326294%, 79.066467%)" offset="0.882812"/><stop stop-opacity="1" stop-color="rgb(83.425903%, 81.752014%, 79.437256%)" offset="0.886719"/><stop stop-opacity="1" stop-color="rgb(83.877563%, 82.177734%, 79.808044%)" offset="0.890625"/><stop stop-opacity="1" stop-color="rgb(84.327698%, 82.603455%, 80.178833%)" offset="0.894531"/><stop stop-opacity="1" stop-color="rgb(84.779358%, 83.029175%, 80.551147%)" offset="0.898438"/><stop stop-opacity="1" stop-color="rgb(85.229492%, 83.454895%, 80.921936%)" offset="0.902344"/><stop stop-opacity="1" stop-color="rgb(85.681152%, 83.880615%, 81.292725%)" offset="0.90625"/><stop stop-opacity="1" stop-color="rgb(86.131287%, 84.306335%, 81.663513%)" offset="0.910156"/><stop stop-opacity="1" stop-color="rgb(86.581421%, 84.732056%, 82.035828%)" offset="0.914062"/><stop stop-opacity="1" stop-color="rgb(87.031555%, 85.157776%, 82.406616%)" offset="0.917969"/><stop stop-opacity="1" stop-color="rgb(87.483215%, 85.583496%, 82.777405%)" offset="0.921875"/><stop stop-opacity="1" stop-color="rgb(87.93335%, 86.009216%, 83.148193%)" offset="0.925781"/><stop stop-opacity="1" stop-color="rgb(88.38501%, 86.434937%, 83.518982%)" offset="0.929688"/><stop stop-opacity="1" stop-color="rgb(88.835144%, 86.860657%, 83.889771%)" offset="0.933594"/><stop stop-opacity="1" stop-color="rgb(89.286804%, 87.286377%, 84.262085%)" offset="0.9375"/><stop stop-opacity="1" stop-color="rgb(89.736938%, 87.712097%, 84.632874%)" offset="0.941406"/><stop stop-opacity="1" stop-color="rgb(90.188599%, 88.137817%, 85.003662%)" offset="0.945312"/><stop stop-opacity="1" stop-color="rgb(90.638733%, 88.563538%, 85.374451%)" offset="0.949219"/><stop stop-opacity="1" stop-color="rgb(91.090393%, 88.989258%, 85.746765%)" offset="0.953125"/><stop stop-opacity="1" stop-color="rgb(91.540527%, 89.414978%, 86.117554%)" offset="0.957031"/><stop stop-opacity="1" stop-color="rgb(91.990662%, 89.840698%, 86.488342%)" offset="0.960938"/><stop stop-opacity="1" stop-color="rgb(92.440796%, 90.266418%, 86.859131%)" offset="0.964844"/><stop stop-opacity="1" stop-color="rgb(92.892456%, 90.693665%, 87.229919%)" offset="0.96875"/><stop stop-opacity="1" stop-color="rgb(93.34259%, 91.119385%, 87.600708%)" offset="0.972656"/><stop stop-opacity="1" stop-color="rgb(93.79425%, 91.545105%, 87.973022%)" offset="0.976562"/><stop stop-opacity="1" stop-color="rgb(94.244385%, 91.970825%, 88.343811%)" offset="0.980469"/><stop stop-opacity="1" stop-color="rgb(94.696045%, 92.396545%, 88.7146%)" offset="0.984375"/><stop stop-opacity="1" stop-color="rgb(95.146179%, 92.822266%, 89.085388%)" offset="0.988281"/><stop stop-opacity="1" stop-color="rgb(95.597839%, 93.247986%, 89.457703%)" offset="0.992188"/><stop stop-opacity="1" stop-color="rgb(96.047974%, 93.673706%, 89.828491%)" offset="0.996094"/><stop stop-opacity="1" stop-color="rgb(96.499634%, 94.099426%, 90.19928%)" offset="1"/></linearGradient><clipPath id="46a5f69c77"><path d="M 151.453125 271.925781 L 702.933594 271.925781 L 702.933594 703.382812 L 151.453125 703.382812 Z M 151.453125 271.925781 " clip-rule="nonzero"/></clipPath><clipPath id="0a199327e1"><path d="M 189.703125 271.925781 L 664.683594 271.925781 C 674.828125 271.925781 684.558594 275.957031 691.730469 283.128906 C 698.90625 290.304688 702.933594 300.03125 702.933594 310.175781 L 702.933594 665.132812 C 702.933594 675.277344 698.90625 685.007812 691.730469 692.179688 C 684.558594 699.355469 674.828125 703.382812 664.683594 703.382812 L 189.703125 703.382812 C 179.558594 703.382812 169.828125 699.355469 162.65625 692.179688 C 155.484375 685.007812 151.453125 675.277344 151.453125 665.132812 L 151.453125 310.175781 C 151.453125 300.03125 155.484375 290.304688 162.65625 283.128906 C 169.828125 275.957031 179.558594 271.925781 189.703125 271.925781 Z M 189.703125 271.925781 " clip-rule="nonzero"/></clipPath><clipPath id="9f06d99e10"><path d="M 524.199219 0 L 810 0 L 810 1440 L 524.199219 1440 Z M 524.199219 0 " clip-rule="nonzero"/></clipPath><clipPath id="c7e17848bf"><path d="M 151.453125 769.613281 L 702.933594 769.613281 L 702.933594 1201.070312 L 151.453125 1201.070312 Z M 151.453125 769.613281 " clip-rule="nonzero"/></clipPath><clipPath id="502cb85312"><path d="M 189.703125 769.613281 L 664.683594 769.613281 C 674.828125 769.613281 684.558594 773.640625 691.730469 780.816406 C 698.90625 787.988281 702.933594 797.71875 702.933594 807.863281 L 702.933594 1162.820312 C 702.933594 1172.964844 698.90625 1182.691406 691.730469 1189.867188 C 684.558594 1197.039062 674.828125 1201.070312 664.683594 1201.070312 L 189.703125 1201.070312 C 179.558594 1201.070312 169.828125 1197.039062 162.65625 1189.867188 C 155.484375 1182.691406 151.453125 1172.964844 151.453125 1162.820312 L 151.453125 807.863281 C 151.453125 797.71875 155.484375 787.988281 162.65625 780.816406 C 169.828125 773.640625 179.558594 769.613281 189.703125 769.613281 Z M 189.703125 769.613281 " clip-rule="nonzero"/></clipPath></defs><rect x="-81" width="972" fill="#ffffff" y="-143.999994" height="1727.999922" fill-opacity="1"/><rect x="-81" fill="url(#1d358e7227)" width="972" y="-143.999994" height="1727.999922"/><g clip-path="url(#46a5f69c77)"><g clip-path="url(#0a199327e1)"><path fill="#253347" d="M 151.453125 271.925781 L 702.933594 271.925781 L 702.933594 703.382812 L 151.453125 703.382812 Z M 151.453125 271.925781 " fill-opacity="1" fill-rule="nonzero"/></g></g><g clip-path="url(#9f06d99e10)"><path fill="#f6eee5" d="M 543.375 -599.589844 C 532.742188 -599.589844 524.167969 -590.824219 524.472656 -580.191406 C 529.402344 -408.101562 599.828125 -401.640625 599.828125 -217.082031 C 599.828125 -25.828125 524.199219 -25.828125 524.199219 165.425781 C 524.199219 356.679688 599.828125 356.679688 599.828125 547.933594 C 599.828125 739.183594 524.199219 739.183594 524.199219 930.433594 C 524.199219 1121.679688 599.828125 1121.679688 599.828125 1312.925781 C 599.828125 1497.484375 529.402344 1503.945312 524.472656 1676.027344 C 524.167969 1686.660156 532.742188 1695.429688 543.375 1695.429688 L 896.042969 1695.429688 C 906.484375 1695.429688 914.949219 1686.957031 914.949219 1676.511719 L 914.949219 -580.675781 C 914.949219 -591.121094 906.484375 -599.589844 896.042969 -599.589844 Z M 543.375 -599.589844 " fill-opacity="1" fill-rule="nonzero"/></g><g clip-path="url(#c7e17848bf)"><g clip-path="url(#502cb85312)"><path fill="#f86800" d="M 151.453125 769.613281 L 702.933594 769.613281 L 702.933594 1201.070312 L 151.453125 1201.070312 Z M 151.453125 769.613281 " fill-opacity="1" fill-rule="nonzero"/></g></g><g fill="#ffffff" fill-opacity="1"><g transform="translate(185.554997, 569.133794)"><g><path d="M 19.875 0.65625 C 14.195312 0.65625 9.882812 -1.070312 6.9375 -4.53125 C 4 -8 2.53125 -12.867188 2.53125 -19.140625 L 2.53125 -52.578125 C 2.53125 -58.628906 4 -63.191406 6.9375 -66.265625 C 9.882812 -69.347656 14.195312 -70.890625 19.875 -70.890625 C 25.539062 -70.890625 29.84375 -69.347656 32.78125 -66.265625 C 35.726562 -63.191406 37.203125 -58.628906 37.203125 -52.578125 L 37.203125 -19.140625 C 37.203125 -12.804688 35.726562 -7.921875 32.78125 -4.484375 C 29.84375 -1.054688 25.539062 0.65625 19.875 0.65625 Z M 19.875 -12.265625 C 21.125 -12.265625 21.96875 -12.804688 22.40625 -13.890625 C 22.84375 -14.984375 23.0625 -16.515625 23.0625 -18.484375 L 23.0625 -52.828125 C 23.0625 -54.347656 22.851562 -55.582031 22.4375 -56.53125 C 22.03125 -57.488281 21.203125 -57.96875 19.953125 -57.96875 C 17.609375 -57.96875 16.4375 -56.195312 16.4375 -52.65625 L 16.4375 -18.390625 C 16.4375 -16.378906 16.679688 -14.851562 17.171875 -13.8125 C 17.660156 -12.78125 18.5625 -12.265625 19.875 -12.265625 Z M 19.875 -12.265625 "/></g></g></g><g fill="#ffffff" fill-opacity="1"><g transform="translate(229.375977, 569.133794)"><g><path d="M 3.109375 -70.234375 L 21.671875 -70.234375 C 27.285156 -70.234375 31.289062 -68.421875 33.6875 -64.796875 C 36.082031 -61.171875 37.28125 -55.867188 37.28125 -48.890625 C 37.28125 -41.921875 36.21875 -36.660156 34.09375 -33.109375 C 31.96875 -29.566406 28.15625 -27.796875 22.65625 -27.796875 L 16.921875 -27.796875 L 16.921875 0 L 3.109375 0 Z M 17.75 -40.46875 C 19.4375 -40.46875 20.675781 -40.78125 21.46875 -41.40625 C 22.257812 -42.039062 22.773438 -42.941406 23.015625 -44.109375 C 23.265625 -45.285156 23.390625 -46.960938 23.390625 -49.140625 C 23.390625 -52.085938 23.0625 -54.210938 22.40625 -55.515625 C 21.75 -56.828125 20.441406 -57.484375 18.484375 -57.484375 L 16.921875 -57.484375 L 16.921875 -40.46875 Z M 17.75 -40.46875 "/></g></g></g><g fill="#ffffff" fill-opacity="1"><g transform="translate(272.052395, 569.133794)"><g><path d="M 9.15625 0 L 9.15625 -56.75 L 0.8125 -56.75 L 0.8125 -70.234375 L 31.5625 -70.234375 L 31.5625 -56.75 L 23.21875 -56.75 L 23.21875 0 Z M 9.15625 0 "/></g></g></g><g fill="#ffffff" fill-opacity="1"><g transform="translate(308.515455, 569.133794)"><g><path d="M 2.453125 0 L 2.453125 -70.234375 L 16.03125 -70.234375 L 16.03125 0 Z M 2.453125 0 "/></g></g></g><g fill="#ffffff" fill-opacity="1"><g transform="translate(331.161981, 569.133794)"><g><path d="M 19.875 0.65625 C 14.195312 0.65625 9.882812 -1.070312 6.9375 -4.53125 C 4 -8 2.53125 -12.867188 2.53125 -19.140625 L 2.53125 -52.578125 C 2.53125 -58.628906 4 -63.191406 6.9375 -66.265625 C 9.882812 -69.347656 14.195312 -70.890625 19.875 -70.890625 C 25.539062 -70.890625 29.84375 -69.347656 32.78125 -66.265625 C 35.726562 -63.191406 37.203125 -58.628906 37.203125 -52.578125 L 37.203125 -19.140625 C 37.203125 -12.804688 35.726562 -7.921875 32.78125 -4.484375 C 29.84375 -1.054688 25.539062 0.65625 19.875 0.65625 Z M 19.875 -12.265625 C 21.125 -12.265625 21.96875 -12.804688 22.40625 -13.890625 C 22.84375 -14.984375 23.0625 -16.515625 23.0625 -18.484375 L 23.0625 -52.828125 C 23.0625 -54.347656 22.851562 -55.582031 22.4375 -56.53125 C 22.03125 -57.488281 21.203125 -57.96875 19.953125 -57.96875 C 17.609375 -57.96875 16.4375 -56.195312 16.4375 -52.65625 L 16.4375 -18.390625 C 16.4375 -16.378906 16.679688 -14.851562 17.171875 -13.8125 C 17.660156 -12.78125 18.5625 -12.265625 19.875 -12.265625 Z M 19.875 -12.265625 "/></g></g></g><g fill="#ffffff" fill-opacity="1"><g transform="translate(374.982957, 569.133794)"><g><path d="M 3.109375 0 L 3.109375 -70.234375 L 17.578125 -70.234375 L 24.046875 -36.625 L 24.046875 -70.234375 L 37.609375 -70.234375 L 37.609375 0 L 23.875 0 L 16.84375 -35.15625 L 16.84375 0 Z M 3.109375 0 "/></g></g></g><g fill="#ffffff" fill-opacity="1"><g transform="translate(185.554997, 671.070307)"><g><path d="M 19.875 0.65625 C 14.195312 0.65625 9.882812 -1.070312 6.9375 -4.53125 C 4 -8 2.53125 -12.867188 2.53125 -19.140625 L 2.53125 -52.578125 C 2.53125 -58.628906 4 -63.191406 6.9375 -66.265625 C 9.882812 -69.347656 14.195312 -70.890625 19.875 -70.890625 C 25.539062 -70.890625 29.84375 -69.347656 32.78125 -66.265625 C 35.726562 -63.191406 37.203125 -58.628906 37.203125 -52.578125 L 37.203125 -19.140625 C 37.203125 -12.804688 35.726562 -7.921875 32.78125 -4.484375 C 29.84375 -1.054688 25.539062 0.65625 19.875 0.65625 Z M 19.875 -12.265625 C 21.125 -12.265625 21.96875 -12.804688 22.40625 -13.890625 C 22.84375 -14.984375 23.0625 -16.515625 23.0625 -18.484375 L 23.0625 -52.828125 C 23.0625 -54.347656 22.851562 -55.582031 22.4375 -56.53125 C 22.03125 -57.488281 21.203125 -57.96875 19.953125 -57.96875 C 17.609375 -57.96875 16.4375 -56.195312 16.4375 -52.65625 L 16.4375 -18.390625 C 16.4375 -16.378906 16.679688 -14.851562 17.171875 -13.8125 C 17.660156 -12.78125 18.5625 -12.265625 19.875 -12.265625 Z M 19.875 -12.265625 "/></g></g></g><g fill="#ffffff" fill-opacity="1"><g transform="translate(229.375977, 671.070307)"><g><path d="M 3.109375 0 L 3.109375 -70.234375 L 17.578125 -70.234375 L 24.046875 -36.625 L 24.046875 -70.234375 L 37.609375 -70.234375 L 37.609375 0 L 23.875 0 L 16.84375 -35.15625 L 16.84375 0 Z M 3.109375 0 "/></g></g></g><g fill="#ffffff" fill-opacity="1"><g transform="translate(274.178012, 671.070307)"><g><path d="M 3.109375 0 L 3.109375 -70.234375 L 31.234375 -70.234375 L 31.234375 -56.65625 L 17.421875 -56.65625 L 17.421875 -43.015625 L 30.65625 -43.015625 L 30.65625 -29.765625 L 17.421875 -29.765625 L 17.421875 -13.65625 L 32.140625 -13.65625 L 32.140625 0 Z M 3.109375 0 "/></g></g></g><g fill="#ffffff" fill-opacity="1"><g transform="translate(185.554997, 896.263461)"><g><path d="M 19.875 0.65625 C 14.195312 0.65625 9.882812 -1.070312 6.9375 -4.53125 C 4 -8 2.53125 -12.867188 2.53125 -19.140625 L 2.53125 -52.578125 C 2.53125 -58.628906 4 -63.191406 6.9375 -66.265625 C 9.882812 -69.347656 14.195312 -70.890625 19.875 -70.890625 C 25.539062 -70.890625 29.84375 -69.347656 32.78125 -66.265625 C 35.726562 -63.191406 37.203125 -58.628906 37.203125 -52.578125 L 37.203125 -19.140625 C 37.203125 -12.804688 35.726562 -7.921875 32.78125 -4.484375 C 29.84375 -1.054688 25.539062 0.65625 19.875 0.65625 Z M 19.875 -12.265625 C 21.125 -12.265625 21.96875 -12.804688 22.40625 -13.890625 C 22.84375 -14.984375 23.0625 -16.515625 23.0625 -18.484375 L 23.0625 -52.828125 C 23.0625 -54.347656 22.851562 -55.582031 22.4375 -56.53125 C 22.03125 -57.488281 21.203125 -57.96875 19.953125 -57.96875 C 17.609375 -57.96875 16.4375 -56.195312 16.4375 -52.65625 L 16.4375 -18.390625 C 16.4375 -16.378906 16.679688 -14.851562 17.171875 -13.8125 C 17.660156 -12.78125 18.5625 -12.265625 19.875 -12.265625 Z M 19.875 -12.265625 "/></g></g></g><g fill="#ffffff" fill-opacity="1"><g transform="translate(229.375977, 896.263461)"><g><path d="M 3.109375 -70.234375 L 21.671875 -70.234375 C 27.285156 -70.234375 31.289062 -68.421875 33.6875 -64.796875 C 36.082031 -61.171875 37.28125 -55.867188 37.28125 -48.890625 C 37.28125 -41.921875 36.21875 -36.660156 34.09375 -33.109375 C 31.96875 -29.566406 28.15625 -27.796875 22.65625 -27.796875 L 16.921875 -27.796875 L 16.921875 0 L 3.109375 0 Z M 17.75 -40.46875 C 19.4375 -40.46875 20.675781 -40.78125 21.46875 -41.40625 C 22.257812 -42.039062 22.773438 -42.941406 23.015625 -44.109375 C 23.265625 -45.285156 23.390625 -46.960938 23.390625 -49.140625 C 23.390625 -52.085938 23.0625 -54.210938 22.40625 -55.515625 C 21.75 -56.828125 20.441406 -57.484375 18.484375 -57.484375 L 16.921875 -57.484375 L 16.921875 -40.46875 Z M 17.75 -40.46875 "/></g></g></g><g fill="#ffffff" fill-opacity="1"><g transform="translate(272.052395, 896.263461)"><g><path d="M 9.15625 0 L 9.15625 -56.75 L 0.8125 -56.75 L 0.8125 -70.234375 L 31.5625 -70.234375 L 31.5625 -56.75 L 23.21875 -56.75 L 23.21875 0 Z M 9.15625 0 "/></g></g></g><g fill="#ffffff" fill-opacity="1"><g transform="translate(308.515455, 896.263461)"><g><path d="M 2.453125 0 L 2.453125 -70.234375 L 16.03125 -70.234375 L 16.03125 0 Z M 2.453125 0 "/></g></g></g><g fill="#ffffff" fill-opacity="1"><g transform="translate(331.161981, 896.263461)"><g><path d="M 19.875 0.65625 C 14.195312 0.65625 9.882812 -1.070312 6.9375 -4.53125 C 4 -8 2.53125 -12.867188 2.53125 -19.140625 L 2.53125 -52.578125 C 2.53125 -58.628906 4 -63.191406 6.9375 -66.265625 C 9.882812 -69.347656 14.195312 -70.890625 19.875 -70.890625 C 25.539062 -70.890625 29.84375 -69.347656 32.78125 -66.265625 C 35.726562 -63.191406 37.203125 -58.628906 37.203125 -52.578125 L 37.203125 -19.140625 C 37.203125 -12.804688 35.726562 -7.921875 32.78125 -4.484375 C 29.84375 -1.054688 25.539062 0.65625 19.875 0.65625 Z M 19.875 -12.265625 C 21.125 -12.265625 21.96875 -12.804688 22.40625 -13.890625 C 22.84375 -14.984375 23.0625 -16.515625 23.0625 -18.484375 L 23.0625 -52.828125 C 23.0625 -54.347656 22.851562 -55.582031 22.4375 -56.53125 C 22.03125 -57.488281 21.203125 -57.96875 19.953125 -57.96875 C 17.609375 -57.96875 16.4375 -56.195312 16.4375 -52.65625 L 16.4375 -18.390625 C 16.4375 -16.378906 16.679688 -14.851562 17.171875 -13.8125 C 17.660156 -12.78125 18.5625 -12.265625 19.875 -12.265625 Z M 19.875 -12.265625 "/></g></g></g><g fill="#ffffff" fill-opacity="1"><g transform="translate(374.982957, 896.263461)"><g><path d="M 3.109375 0 L 3.109375 -70.234375 L 17.578125 -70.234375 L 24.046875 -36.625 L 24.046875 -70.234375 L 37.609375 -70.234375 L 37.609375 0 L 23.875 0 L 16.84375 -35.15625 L 16.84375 0 Z M 3.109375 0 "/></g></g></g><g fill="#ffffff" fill-opacity="1"><g transform="translate(185.554997, 998.199975)"><g><path d="M 9.15625 0 L 9.15625 -56.75 L 0.8125 -56.75 L 0.8125 -70.234375 L 31.5625 -70.234375 L 31.5625 -56.75 L 23.21875 -56.75 L 23.21875 0 Z M 9.15625 0 "/></g></g></g><g fill="#ffffff" fill-opacity="1"><g transform="translate(222.018054, 998.199975)"><g><path d="M 8.578125 0 L 1.0625 -70.234375 L 14.796875 -70.234375 L 18.71875 -25.921875 L 22.65625 -70.234375 L 35.734375 -70.234375 L 39.5 -25.921875 L 43.25 -70.234375 L 57.15625 -70.234375 L 49.46875 0 L 32.625 0 L 29.109375 -33.84375 L 25.75 0 Z M 8.578125 0 "/></g></g></g><g fill="#ffffff" fill-opacity="1"><g transform="translate(284.315585, 998.199975)"><g><path d="M 19.875 0.65625 C 14.195312 0.65625 9.882812 -1.070312 6.9375 -4.53125 C 4 -8 2.53125 -12.867188 2.53125 -19.140625 L 2.53125 -52.578125 C 2.53125 -58.628906 4 -63.191406 6.9375 -66.265625 C 9.882812 -69.347656 14.195312 -70.890625 19.875 -70.890625 C 25.539062 -70.890625 29.84375 -69.347656 32.78125 -66.265625 C 35.726562 -63.191406 37.203125 -58.628906 37.203125 -52.578125 L 37.203125 -19.140625 C 37.203125 -12.804688 35.726562 -7.921875 32.78125 -4.484375 C 29.84375 -1.054688 25.539062 0.65625 19.875 0.65625 Z M 19.875 -12.265625 C 21.125 -12.265625 21.96875 -12.804688 22.40625 -13.890625 C 22.84375 -14.984375 23.0625 -16.515625 23.0625 -18.484375 L 23.0625 -52.828125 C 23.0625 -54.347656 22.851562 -55.582031 22.4375 -56.53125 C 22.03125 -57.488281 21.203125 -57.96875 19.953125 -57.96875 C 17.609375 -57.96875 16.4375 -56.195312 16.4375 -52.65625 L 16.4375 -18.390625 C 16.4375 -16.378906 16.679688 -14.851562 17.171875 -13.8125 C 17.660156 -12.78125 18.5625 -12.265625 19.875 -12.265625 Z M 19.875 -12.265625 "/></g></g></g><g fill="#000000" fill-opacity="1"><g transform="translate(265.999039, 225.402738)"><g><path d="M 1.46875 -20.21875 L 7.328125 -20.21875 C 10.140625 -20.21875 12.539062 -19.257812 14.53125 -17.34375 C 16.53125 -15.425781 17.53125 -13.019531 17.53125 -10.125 C 17.53125 -7.21875 16.535156 -4.800781 14.546875 -2.875 C 12.566406 -0.957031 10.160156 0 7.328125 0 L 1.46875 0 Z M 6.078125 -4.125 L 6.796875 -4.125 C 8.472656 -4.125 9.847656 -4.691406 10.921875 -5.828125 C 11.992188 -6.960938 12.535156 -8.382812 12.546875 -10.09375 C 12.546875 -11.8125 12.007812 -13.242188 10.9375 -14.390625 C 9.875 -15.535156 8.492188 -16.109375 6.796875 -16.109375 L 6.078125 -16.109375 Z M 6.078125 -4.125 "/></g></g></g><g fill="#000000" fill-opacity="1"><g transform="translate(286.537687, 225.402738)"><g><path d="M 11.75 -20.21875 L 19.90625 0 L 14.953125 0 L 13.453125 -4.046875 L 5.765625 -4.046875 L 4.265625 0 L -0.6875 0 L 7.484375 -20.21875 Z M 11.890625 -8.09375 L 9.640625 -13.96875 L 9.578125 -13.96875 L 7.328125 -8.09375 Z M 11.890625 -8.09375 "/></g></g></g><g fill="#000000" fill-opacity="1"><g transform="translate(308.2037, 225.402738)"><g><path d="M 6.078125 -20.21875 L 6.078125 0 L 1.46875 0 L 1.46875 -20.21875 Z M 6.078125 -20.21875 "/></g></g></g><g fill="#000000" fill-opacity="1"><g transform="translate(318.203961, 225.402738)"><g><path d="M 6.078125 -20.21875 L 6.078125 -4.046875 L 13.046875 -4.046875 L 13.046875 0 L 1.46875 0 L 1.46875 -20.21875 Z M 6.078125 -20.21875 "/></g></g></g><g fill="#000000" fill-opacity="1"><g transform="translate(334.502747, 225.402738)"><g><path d="M -0.734375 -20.21875 L 4.8125 -20.21875 L 9.015625 -13.75 L 13.234375 -20.21875 L 18.78125 -20.21875 L 11.328125 -9.078125 L 11.328125 0 L 6.71875 0 L 6.71875 -9.078125 Z M -0.734375 -20.21875 "/></g></g></g><g fill="#000000" fill-opacity="1"><g transform="translate(354.992386, 225.402738)"><g/></g></g><g fill="#000000" fill-opacity="1"><g transform="translate(364.13488, 225.402738)"><g><path d="M 12.234375 -4.171875 C 12.929688 -4.171875 13.609375 -4.273438 14.265625 -4.484375 C 14.929688 -4.703125 15.421875 -4.90625 15.734375 -5.09375 L 16.203125 -5.421875 L 18.171875 -1.5 C 18.097656 -1.445312 18.003906 -1.378906 17.890625 -1.296875 C 17.773438 -1.210938 17.507812 -1.0625 17.09375 -0.84375 C 16.675781 -0.625 16.226562 -0.429688 15.75 -0.265625 C 15.28125 -0.109375 14.660156 0.0351562 13.890625 0.171875 C 13.128906 0.304688 12.335938 0.375 11.515625 0.375 C 9.640625 0.375 7.859375 -0.0859375 6.171875 -1.015625 C 4.492188 -1.941406 3.140625 -3.210938 2.109375 -4.828125 C 1.078125 -6.441406 0.5625 -8.191406 0.5625 -10.078125 C 0.5625 -11.492188 0.863281 -12.851562 1.46875 -14.15625 C 2.070312 -15.46875 2.875 -16.585938 3.875 -17.515625 C 4.882812 -18.453125 6.054688 -19.195312 7.390625 -19.75 C 8.734375 -20.3125 10.109375 -20.59375 11.515625 -20.59375 C 12.828125 -20.59375 14.035156 -20.4375 15.140625 -20.125 C 16.242188 -19.8125 17.023438 -19.503906 17.484375 -19.203125 L 18.171875 -18.734375 L 16.203125 -14.8125 C 16.085938 -14.90625 15.914062 -15.019531 15.6875 -15.15625 C 15.457031 -15.300781 15 -15.488281 14.3125 -15.71875 C 13.625 -15.945312 12.929688 -16.0625 12.234375 -16.0625 C 11.117188 -16.0625 10.117188 -15.878906 9.234375 -15.515625 C 8.359375 -15.160156 7.660156 -14.6875 7.140625 -14.09375 C 6.628906 -13.507812 6.238281 -12.875 5.96875 -12.1875 C 5.695312 -11.507812 5.5625 -10.820312 5.5625 -10.125 C 5.5625 -8.59375 6.132812 -7.21875 7.28125 -6 C 8.4375 -4.78125 10.085938 -4.171875 12.234375 -4.171875 Z M 12.234375 -4.171875 "/></g></g></g><g fill="#000000" fill-opacity="1"><g transform="translate(385.041143, 225.402738)"><g><path d="M 11.75 -20.21875 L 19.90625 0 L 14.953125 0 L 13.453125 -4.046875 L 5.765625 -4.046875 L 4.265625 0 L -0.6875 0 L 7.484375 -20.21875 Z M 11.890625 -8.09375 L 9.640625 -13.96875 L 9.578125 -13.96875 L 7.328125 -8.09375 Z M 11.890625 -8.09375 "/></g></g></g><g fill="#000000" fill-opacity="1"><g transform="translate(406.707158, 225.402738)"><g><path d="M 1.46875 -20.21875 L 8.703125 -20.21875 C 10.648438 -20.21875 12.234375 -19.695312 13.453125 -18.65625 C 14.679688 -17.625 15.296875 -16.144531 15.296875 -14.21875 C 15.296875 -12.726562 14.921875 -11.476562 14.171875 -10.46875 C 13.429688 -9.46875 12.425781 -8.765625 11.15625 -8.359375 L 18.109375 0 L 12.265625 0 L 6.078125 -7.984375 L 6.078125 0 L 1.46875 0 Z M 6.078125 -11.25 L 6.625 -11.25 C 7.039062 -11.25 7.394531 -11.253906 7.6875 -11.265625 C 7.988281 -11.285156 8.328125 -11.34375 8.703125 -11.4375 C 9.078125 -11.539062 9.378906 -11.679688 9.609375 -11.859375 C 9.835938 -12.046875 10.03125 -12.3125 10.1875 -12.65625 C 10.351562 -13 10.4375 -13.414062 10.4375 -13.90625 C 10.4375 -14.394531 10.351562 -14.8125 10.1875 -15.15625 C 10.03125 -15.5 9.835938 -15.757812 9.609375 -15.9375 C 9.378906 -16.113281 9.078125 -16.25 8.703125 -16.34375 C 8.328125 -16.445312 7.988281 -16.503906 7.6875 -16.515625 C 7.394531 -16.535156 7.039062 -16.546875 6.625 -16.546875 L 6.078125 -16.546875 Z M 6.078125 -11.25 "/></g></g></g><g fill="#000000" fill-opacity="1"><g transform="translate(426.706638, 225.402738)"><g><path d="M 13.046875 -20.21875 L 13.046875 -16.1875 L 6.078125 -16.1875 L 6.078125 -12.15625 L 12.75 -12.15625 L 12.75 -8.109375 L 6.078125 -8.109375 L 6.078125 -4.046875 L 13.046875 -4.046875 L 13.046875 0 L 1.46875 0 L 1.46875 -20.21875 Z M 13.046875 -20.21875 "/></g></g></g><g fill="#000000" fill-opacity="1"><g transform="translate(443.373036, 225.402738)"><g/></g></g><g fill="#000000" fill-opacity="1"><g transform="translate(452.515519, 225.402738)"><g><path d="M 13.171875 -20.21875 L 13.171875 -16.1875 L 6.078125 -16.1875 L 6.078125 -12.15625 L 12.625 -12.15625 L 12.625 -8.109375 L 6.078125 -8.109375 L 6.078125 0 L 1.46875 0 L 1.46875 -20.21875 Z M 13.171875 -20.21875 "/></g></g></g><g fill="#000000" fill-opacity="1"><g transform="translate(468.863326, 225.402738)"><g><path d="M 0.5625 -10.125 C 0.5625 -13.050781 1.554688 -15.523438 3.546875 -17.546875 C 5.546875 -19.578125 7.953125 -20.59375 10.765625 -20.59375 C 13.585938 -20.59375 15.988281 -19.582031 17.96875 -17.5625 C 19.945312 -15.539062 20.9375 -13.0625 20.9375 -10.125 C 20.9375 -7.164062 19.960938 -4.675781 18.015625 -2.65625 C 16.078125 -0.632812 13.660156 0.375 10.765625 0.375 C 7.804688 0.375 5.363281 -0.625 3.4375 -2.625 C 1.519531 -4.632812 0.5625 -7.132812 0.5625 -10.125 Z M 5.546875 -10.125 C 5.546875 -9.0625 5.707031 -8.09375 6.03125 -7.21875 C 6.351562 -6.34375 6.921875 -5.601562 7.734375 -5 C 8.554688 -4.394531 9.566406 -4.09375 10.765625 -4.09375 C 12.484375 -4.09375 13.773438 -4.679688 14.640625 -5.859375 C 15.515625 -7.035156 15.953125 -8.457031 15.953125 -10.125 C 15.953125 -11.769531 15.503906 -13.1875 14.609375 -14.375 C 13.722656 -15.5625 12.441406 -16.15625 10.765625 -16.15625 C 9.097656 -16.15625 7.8125 -15.5625 6.90625 -14.375 C 6 -13.1875 5.546875 -11.769531 5.546875 -10.125 Z M 5.546875 -10.125 "/></g></g></g><g fill="#000000" fill-opacity="1"><g transform="translate(492.808564, 225.402738)"><g><path d="M 1.46875 -20.21875 L 8.703125 -20.21875 C 10.648438 -20.21875 12.234375 -19.695312 13.453125 -18.65625 C 14.679688 -17.625 15.296875 -16.144531 15.296875 -14.21875 C 15.296875 -12.726562 14.921875 -11.476562 14.171875 -10.46875 C 13.429688 -9.46875 12.425781 -8.765625 11.15625 -8.359375 L 18.109375 0 L 12.265625 0 L 6.078125 -7.984375 L 6.078125 0 L 1.46875 0 Z M 6.078125 -11.25 L 6.625 -11.25 C 7.039062 -11.25 7.394531 -11.253906 7.6875 -11.265625 C 7.988281 -11.285156 8.328125 -11.34375 8.703125 -11.4375 C 9.078125 -11.539062 9.378906 -11.679688 9.609375 -11.859375 C 9.835938 -12.046875 10.03125 -12.3125 10.1875 -12.65625 C 10.351562 -13 10.4375 -13.414062 10.4375 -13.90625 C 10.4375 -14.394531 10.351562 -14.8125 10.1875 -15.15625 C 10.03125 -15.5 9.835938 -15.757812 9.609375 -15.9375 C 9.378906 -16.113281 9.078125 -16.25 8.703125 -16.34375 C 8.328125 -16.445312 7.988281 -16.503906 7.6875 -16.515625 C 7.394531 -16.535156 7.039062 -16.546875 6.625 -16.546875 L 6.078125 -16.546875 Z M 6.078125 -11.25 "/></g></g></g><g fill="#000000" fill-opacity="1"><g transform="translate(512.808033, 225.402738)"><g/></g></g><g fill="#000000" fill-opacity="1"><g transform="translate(521.950517, 225.402738)"><g><path d="M 1.46875 -20.21875 L 7.328125 -20.21875 C 10.140625 -20.21875 12.539062 -19.257812 14.53125 -17.34375 C 16.53125 -15.425781 17.53125 -13.019531 17.53125 -10.125 C 17.53125 -7.21875 16.535156 -4.800781 14.546875 -2.875 C 12.566406 -0.957031 10.160156 0 7.328125 0 L 1.46875 0 Z M 6.078125 -4.125 L 6.796875 -4.125 C 8.472656 -4.125 9.847656 -4.691406 10.921875 -5.828125 C 11.992188 -6.960938 12.535156 -8.382812 12.546875 -10.09375 C 12.546875 -11.8125 12.007812 -13.242188 10.9375 -14.390625 C 9.875 -15.535156 8.492188 -16.109375 6.796875 -16.109375 L 6.078125 -16.109375 Z M 6.078125 -4.125 "/></g></g></g><g fill="#000000" fill-opacity="1"><g transform="translate(542.489167, 225.402738)"><g><path d="M 0.5625 -10.125 C 0.5625 -13.050781 1.554688 -15.523438 3.546875 -17.546875 C 5.546875 -19.578125 7.953125 -20.59375 10.765625 -20.59375 C 13.585938 -20.59375 15.988281 -19.582031 17.96875 -17.5625 C 19.945312 -15.539062 20.9375 -13.0625 20.9375 -10.125 C 20.9375 -7.164062 19.960938 -4.675781 18.015625 -2.65625 C 16.078125 -0.632812 13.660156 0.375 10.765625 0.375 C 7.804688 0.375 5.363281 -0.625 3.4375 -2.625 C 1.519531 -4.632812 0.5625 -7.132812 0.5625 -10.125 Z M 5.546875 -10.125 C 5.546875 -9.0625 5.707031 -8.09375 6.03125 -7.21875 C 6.351562 -6.34375 6.921875 -5.601562 7.734375 -5 C 8.554688 -4.394531 9.566406 -4.09375 10.765625 -4.09375 C 12.484375 -4.09375 13.773438 -4.679688 14.640625 -5.859375 C 15.515625 -7.035156 15.953125 -8.457031 15.953125 -10.125 C 15.953125 -11.769531 15.503906 -13.1875 14.609375 -14.375 C 13.722656 -15.5625 12.441406 -16.15625 10.765625 -16.15625 C 9.097656 -16.15625 7.8125 -15.5625 6.90625 -14.375 C 6 -13.1875 5.546875 -11.769531 5.546875 -10.125 Z M 5.546875 -10.125 "/></g></g></g><g fill="#000000" fill-opacity="1"><g transform="translate(566.434406, 225.402738)"><g><path d="M 19.765625 -11.328125 L 19.765625 -6.9375 C 19.234375 -4.53125 18.085938 -2.707031 16.328125 -1.46875 C 14.566406 -0.238281 12.597656 0.375 10.421875 0.375 C 7.691406 0.375 5.363281 -0.644531 3.4375 -2.6875 C 1.519531 -4.738281 0.5625 -7.207031 0.5625 -10.09375 C 0.5625 -13.039062 1.5 -15.523438 3.375 -17.546875 C 5.257812 -19.578125 7.609375 -20.59375 10.421875 -20.59375 C 13.703125 -20.59375 16.300781 -19.441406 18.21875 -17.140625 L 15.203125 -13.828125 C 14.117188 -15.554688 12.613281 -16.421875 10.6875 -16.421875 C 9.269531 -16.421875 8.054688 -15.800781 7.046875 -14.5625 C 6.046875 -13.332031 5.546875 -11.84375 5.546875 -10.09375 C 5.546875 -8.382812 6.046875 -6.921875 7.046875 -5.703125 C 8.054688 -4.484375 9.269531 -3.875 10.6875 -3.875 C 11.863281 -3.875 12.890625 -4.226562 13.765625 -4.9375 C 14.640625 -5.644531 15.078125 -6.585938 15.078125 -7.765625 L 10.421875 -7.765625 L 10.421875 -11.328125 Z M 19.765625 -11.328125 "/></g></g></g><g fill="#000000" fill-opacity="1"><g transform="translate(589.203259, 225.402738)"><g><path d="M 8.921875 -20.59375 C 10.015625 -20.59375 11.082031 -20.429688 12.125 -20.109375 C 13.175781 -19.796875 13.957031 -19.484375 14.46875 -19.171875 L 15.203125 -18.6875 L 13.34375 -15 C 13.1875 -15.101562 12.976562 -15.226562 12.71875 -15.375 C 12.457031 -15.53125 11.96875 -15.738281 11.25 -16 C 10.53125 -16.269531 9.863281 -16.40625 9.25 -16.40625 C 8.476562 -16.40625 7.882812 -16.238281 7.46875 -15.90625 C 7.050781 -15.582031 6.84375 -15.144531 6.84375 -14.59375 C 6.84375 -14.3125 6.9375 -14.050781 7.125 -13.8125 C 7.320312 -13.570312 7.65625 -13.316406 8.125 -13.046875 C 8.601562 -12.785156 9.019531 -12.570312 9.375 -12.40625 C 9.738281 -12.238281 10.300781 -11.992188 11.0625 -11.671875 C 12.363281 -11.109375 13.472656 -10.347656 14.390625 -9.390625 C 15.316406 -8.441406 15.78125 -7.363281 15.78125 -6.15625 C 15.78125 -4.988281 15.570312 -3.972656 15.15625 -3.109375 C 14.738281 -2.242188 14.164062 -1.566406 13.4375 -1.078125 C 12.71875 -0.585938 11.914062 -0.222656 11.03125 0.015625 C 10.144531 0.253906 9.1875 0.375 8.15625 0.375 C 7.28125 0.375 6.414062 0.28125 5.5625 0.09375 C 4.71875 -0.0820312 4.007812 -0.304688 3.4375 -0.578125 C 2.863281 -0.847656 2.347656 -1.113281 1.890625 -1.375 C 1.429688 -1.632812 1.09375 -1.851562 0.875 -2.03125 L 0.5625 -2.296875 L 2.875 -6.171875 C 3.0625 -6.015625 3.328125 -5.804688 3.671875 -5.546875 C 4.015625 -5.296875 4.625 -4.957031 5.5 -4.53125 C 6.375 -4.101562 7.148438 -3.890625 7.828125 -3.890625 C 9.765625 -3.890625 10.734375 -4.554688 10.734375 -5.890625 C 10.734375 -6.160156 10.664062 -6.414062 10.53125 -6.65625 C 10.394531 -6.894531 10.148438 -7.128906 9.796875 -7.359375 C 9.441406 -7.597656 9.128906 -7.785156 8.859375 -7.921875 C 8.585938 -8.066406 8.144531 -8.28125 7.53125 -8.5625 C 6.925781 -8.851562 6.472656 -9.070312 6.171875 -9.21875 C 4.953125 -9.820312 4.003906 -10.578125 3.328125 -11.484375 C 2.660156 -12.390625 2.328125 -13.367188 2.328125 -14.421875 C 2.328125 -16.234375 2.992188 -17.710938 4.328125 -18.859375 C 5.671875 -20.015625 7.203125 -20.59375 8.921875 -20.59375 Z M 8.921875 -20.59375 "/></g></g></g><g fill="#000000" fill-opacity="1"><g transform="translate(357.65893, 192.522808)"><g><path d="M 1.078125 0 L 1.078125 -12.0625 L 5.296875 -12.0625 C 6.765625 -12.0625 7.875 -11.78125 8.625 -11.21875 C 9.382812 -10.65625 9.765625 -9.832031 9.765625 -8.75 C 9.765625 -8.164062 9.613281 -7.644531 9.3125 -7.1875 C 9.007812 -6.738281 8.585938 -6.410156 8.046875 -6.203125 C 8.660156 -6.046875 9.144531 -5.734375 9.5 -5.265625 C 9.863281 -4.796875 10.046875 -4.222656 10.046875 -3.546875 C 10.046875 -2.390625 9.675781 -1.507812 8.9375 -0.90625 C 8.195312 -0.3125 7.140625 -0.0078125 5.765625 0 Z M 3.5625 -5.25 L 3.5625 -2 L 5.6875 -2 C 6.28125 -2 6.738281 -2.132812 7.0625 -2.40625 C 7.394531 -2.6875 7.5625 -3.078125 7.5625 -3.578125 C 7.5625 -4.679688 6.988281 -5.238281 5.84375 -5.25 Z M 3.5625 -7.015625 L 5.40625 -7.015625 C 6.65625 -7.035156 7.28125 -7.535156 7.28125 -8.515625 C 7.28125 -9.054688 7.117188 -9.445312 6.796875 -9.6875 C 6.484375 -9.925781 5.984375 -10.046875 5.296875 -10.046875 L 3.5625 -10.046875 Z M 3.5625 -7.015625 "/></g></g></g><g fill="#000000" fill-opacity="1"><g transform="translate(370.18402, 192.522808)"><g><path d="M 3.5625 -2 L 8.84375 -2 L 8.84375 0 L 1.078125 0 L 1.078125 -12.0625 L 3.5625 -12.0625 Z M 3.5625 -2 "/></g></g></g><g fill="#000000" fill-opacity="1"><g transform="translate(381.068898, 192.522808)"><g><path d="M 8.328125 -5.234375 L 3.5625 -5.234375 L 3.5625 -2 L 9.15625 -2 L 9.15625 0 L 1.078125 0 L 1.078125 -12.0625 L 9.140625 -12.0625 L 9.140625 -10.046875 L 3.5625 -10.046875 L 3.5625 -7.171875 L 8.328125 -7.171875 Z M 8.328125 -5.234375 "/></g></g></g><g fill="#000000" fill-opacity="1"><g transform="translate(392.309976, 192.522808)"><g/></g></g><g fill="#000000" fill-opacity="1"><g transform="translate(398.232789, 192.522808)"><g><path d="M 1.078125 0 L 1.078125 -12.0625 L 4.78125 -12.0625 C 5.84375 -12.0625 6.789062 -11.820312 7.625 -11.34375 C 8.46875 -10.863281 9.125 -10.179688 9.59375 -9.296875 C 10.0625 -8.421875 10.296875 -7.425781 10.296875 -6.3125 L 10.296875 -5.75 C 10.296875 -4.625 10.066406 -3.625 9.609375 -2.75 C 9.148438 -1.882812 8.5 -1.210938 7.65625 -0.734375 C 6.8125 -0.253906 5.863281 -0.0078125 4.8125 0 Z M 3.5625 -10.046875 L 3.5625 -2 L 4.765625 -2 C 5.734375 -2 6.472656 -2.316406 6.984375 -2.953125 C 7.503906 -3.585938 7.769531 -4.492188 7.78125 -5.671875 L 7.78125 -6.3125 C 7.78125 -7.539062 7.523438 -8.46875 7.015625 -9.09375 C 6.503906 -9.726562 5.757812 -10.046875 4.78125 -10.046875 Z M 3.5625 -10.046875 "/></g></g></g><g fill="#000000" fill-opacity="1"><g transform="translate(410.956695, 192.522808)"><g><path d="M 7.890625 -2.484375 L 3.53125 -2.484375 L 2.703125 0 L 0.0625 0 L 4.546875 -12.0625 L 6.859375 -12.0625 L 11.375 0 L 8.71875 0 Z M 4.203125 -4.5 L 7.21875 -4.5 L 5.703125 -9.015625 Z M 4.203125 -4.5 "/></g></g></g><g fill="#000000" fill-opacity="1"><g transform="translate(424.06994, 192.522808)"><g><path d="M 10.15625 -10.046875 L 6.46875 -10.046875 L 6.46875 0 L 3.984375 0 L 3.984375 -10.046875 L 0.328125 -10.046875 L 0.328125 -12.0625 L 10.15625 -12.0625 Z M 10.15625 -10.046875 "/></g></g></g><g fill="#000000" fill-opacity="1"><g transform="translate(436.263675, 192.522808)"><g><path d="M 7.890625 -2.484375 L 3.53125 -2.484375 L 2.703125 0 L 0.0625 0 L 4.546875 -12.0625 L 6.859375 -12.0625 L 11.375 0 L 8.71875 0 Z M 4.203125 -4.5 L 7.21875 -4.5 L 5.703125 -9.015625 Z M 4.203125 -4.5 "/></g></g></g><g fill="#000000" fill-opacity="1"><g transform="translate(449.376915, 192.522808)"><g/></g></g><g fill="#000000" fill-opacity="1"><g transform="translate(455.299723, 192.522808)"><g><path d="M 5.546875 -4.421875 L 3.5625 -4.421875 L 3.5625 0 L 1.078125 0 L 1.078125 -12.0625 L 5.5625 -12.0625 C 6.988281 -12.0625 8.085938 -11.742188 8.859375 -11.109375 C 9.628906 -10.472656 10.015625 -9.578125 10.015625 -8.421875 C 10.015625 -7.597656 9.835938 -6.910156 9.484375 -6.359375 C 9.128906 -5.804688 8.585938 -5.367188 7.859375 -5.046875 L 10.46875 -0.109375 L 10.46875 0 L 7.8125 0 Z M 3.5625 -6.421875 L 5.5625 -6.421875 C 6.1875 -6.421875 6.671875 -6.578125 7.015625 -6.890625 C 7.359375 -7.210938 7.53125 -7.65625 7.53125 -8.21875 C 7.53125 -8.789062 7.367188 -9.238281 7.046875 -9.5625 C 6.722656 -9.882812 6.226562 -10.046875 5.5625 -10.046875 L 3.5625 -10.046875 Z M 3.5625 -6.421875 "/></g></g></g><g fill="#000000" fill-opacity="1"><g transform="translate(467.82481, 192.522808)"><g><path d="M 8.328125 -5.234375 L 3.5625 -5.234375 L 3.5625 -2 L 9.15625 -2 L 9.15625 0 L 1.078125 0 L 1.078125 -12.0625 L 9.140625 -12.0625 L 9.140625 -10.046875 L 3.5625 -10.046875 L 3.5625 -7.171875 L 8.328125 -7.171875 Z M 8.328125 -5.234375 "/></g></g></g><g fill="#000000" fill-opacity="1"><g transform="translate(479.065886, 192.522808)"><g><path d="M 10.546875 -4.015625 C 10.453125 -2.722656 9.972656 -1.703125 9.109375 -0.953125 C 8.242188 -0.203125 7.101562 0.171875 5.6875 0.171875 C 4.144531 0.171875 2.929688 -0.347656 2.046875 -1.390625 C 1.160156 -2.429688 0.71875 -3.863281 0.71875 -5.6875 L 0.71875 -6.421875 C 0.71875 -7.578125 0.921875 -8.597656 1.328125 -9.484375 C 1.734375 -10.367188 2.316406 -11.046875 3.078125 -11.515625 C 3.835938 -11.992188 4.71875 -12.234375 5.71875 -12.234375 C 7.113281 -12.234375 8.234375 -11.859375 9.078125 -11.109375 C 9.929688 -10.367188 10.425781 -9.320312 10.5625 -7.96875 L 8.078125 -7.96875 C 8.015625 -8.75 7.796875 -9.3125 7.421875 -9.65625 C 7.054688 -10.007812 6.488281 -10.1875 5.71875 -10.1875 C 4.894531 -10.1875 4.273438 -9.890625 3.859375 -9.296875 C 3.453125 -8.703125 3.242188 -7.78125 3.234375 -6.53125 L 3.234375 -5.625 C 3.234375 -4.320312 3.429688 -3.367188 3.828125 -2.765625 C 4.222656 -2.160156 4.84375 -1.859375 5.6875 -1.859375 C 6.457031 -1.859375 7.03125 -2.035156 7.40625 -2.390625 C 7.789062 -2.742188 8.007812 -3.285156 8.0625 -4.015625 Z M 10.546875 -4.015625 "/></g></g></g><g fill="#000000" fill-opacity="1"><g transform="translate(491.864337, 192.522808)"><g><path d="M 8.328125 -5.234375 L 3.5625 -5.234375 L 3.5625 -2 L 9.15625 -2 L 9.15625 0 L 1.078125 0 L 1.078125 -12.0625 L 9.140625 -12.0625 L 9.140625 -10.046875 L 3.5625 -10.046875 L 3.5625 -7.171875 L 8.328125 -7.171875 Z M 8.328125 -5.234375 "/></g></g></g><g fill="#000000" fill-opacity="1"><g transform="translate(503.105414, 192.522808)"><g><path d="M 3.71875 0 L 1.234375 0 L 1.234375 -12.0625 L 3.71875 -12.0625 Z M 3.71875 0 "/></g></g></g><g fill="#000000" fill-opacity="1"><g transform="translate(509.748927, 192.522808)"><g><path d="M 5.53125 -2.984375 L 8.265625 -12.0625 L 11.03125 -12.0625 L 6.828125 0 L 4.25 0 L 0.0625 -12.0625 L 2.8125 -12.0625 Z M 5.53125 -2.984375 "/></g></g></g><g fill="#000000" fill-opacity="1"><g transform="translate(522.539099, 192.522808)"><g><path d="M 8.328125 -5.234375 L 3.5625 -5.234375 L 3.5625 -2 L 9.15625 -2 L 9.15625 0 L 1.078125 0 L 1.078125 -12.0625 L 9.140625 -12.0625 L 9.140625 -10.046875 L 3.5625 -10.046875 L 3.5625 -7.171875 L 8.328125 -7.171875 Z M 8.328125 -5.234375 "/></g></g></g><g fill="#000000" fill-opacity="1"><g transform="translate(533.780176, 192.522808)"><g><path d="M 5.546875 -4.421875 L 3.5625 -4.421875 L 3.5625 0 L 1.078125 0 L 1.078125 -12.0625 L 5.5625 -12.0625 C 6.988281 -12.0625 8.085938 -11.742188 8.859375 -11.109375 C 9.628906 -10.472656 10.015625 -9.578125 10.015625 -8.421875 C 10.015625 -7.597656 9.835938 -6.910156 9.484375 -6.359375 C 9.128906 -5.804688 8.585938 -5.367188 7.859375 -5.046875 L 10.46875 -0.109375 L 10.46875 0 L 7.8125 0 Z M 3.5625 -6.421875 L 5.5625 -6.421875 C 6.1875 -6.421875 6.671875 -6.578125 7.015625 -6.890625 C 7.359375 -7.210938 7.53125 -7.65625 7.53125 -8.21875 C 7.53125 -8.789062 7.367188 -9.238281 7.046875 -9.5625 C 6.722656 -9.882812 6.226562 -10.046875 5.5625 -10.046875 L 3.5625 -10.046875 Z M 3.5625 -6.421875 "/></g></g></g></svg>