<svg xmlns="http://www.w3.org/2000/svg" xmlns:xlink="http://www.w3.org/1999/xlink" width="976" zoomAndPan="magnify" viewBox="0 0 732 850.499975" height="1134" preserveAspectRatio="xMidYMid meet" version="1.0"><defs><g/><clipPath id="179eff5d4c"><path d="M 0.445312 56.507812 L 731.554688 56.507812 L 731.554688 849.503906 L 0.445312 849.503906 Z M 0.445312 56.507812 " clip-rule="nonzero"/></clipPath><clipPath id="be085f75ba"><path d="M 38.671875 56.507812 L 693.324219 56.507812 C 703.464844 56.507812 713.1875 60.535156 720.355469 67.703125 C 727.527344 74.871094 731.554688 84.597656 731.554688 94.734375 L 731.554688 811.277344 C 731.554688 821.417969 727.527344 831.140625 720.355469 838.308594 C 713.1875 845.476562 703.464844 849.503906 693.324219 849.503906 L 38.671875 849.503906 C 28.535156 849.503906 18.8125 845.476562 11.644531 838.308594 C 4.472656 831.140625 0.445312 821.417969 0.445312 811.277344 L 0.445312 94.734375 C 0.445312 84.597656 4.472656 74.871094 11.644531 67.703125 C 18.8125 60.535156 28.535156 56.507812 38.671875 56.507812 Z M 38.671875 56.507812 " clip-rule="nonzero"/></clipPath><clipPath id="9318b3672e"><path d="M 406.234375 0.367188 L 649.09375 0.367188 L 649.09375 243.226562 L 406.234375 243.226562 Z M 406.234375 0.367188 " clip-rule="nonzero"/></clipPath><clipPath id="b503f10f14"><path d="M 444.464844 0.367188 L 610.867188 0.367188 C 621.003906 0.367188 630.726562 4.394531 637.898438 11.566406 C 645.066406 18.734375 649.09375 28.457031 649.09375 38.597656 L 649.09375 205 C 649.09375 215.136719 645.066406 224.859375 637.898438 232.03125 C 630.726562 239.199219 621.003906 243.226562 610.867188 243.226562 L 444.464844 243.226562 C 434.324219 243.226562 424.601562 239.199219 417.433594 232.03125 C 410.261719 224.859375 406.234375 215.136719 406.234375 205 L 406.234375 38.597656 C 406.234375 28.457031 410.261719 18.734375 417.433594 11.566406 C 424.601562 4.394531 434.324219 0.367188 444.464844 0.367188 Z M 444.464844 0.367188 " clip-rule="nonzero"/></clipPath><clipPath id="820b331054"><path d="M 45.644531 345.339844 L 649.09375 345.339844 L 649.09375 453.007812 L 45.644531 453.007812 Z M 45.644531 345.339844 " clip-rule="nonzero"/></clipPath><clipPath id="8776d5c941"><path d="M 83.871094 345.339844 L 610.867188 345.339844 C 621.003906 345.339844 630.726562 349.367188 637.898438 356.539062 C 645.066406 363.707031 649.09375 373.429688 649.09375 383.570312 L 649.09375 414.777344 C 649.09375 424.917969 645.066406 434.640625 637.898438 441.808594 C 630.726562 448.980469 621.003906 453.007812 610.867188 453.007812 L 83.871094 453.007812 C 73.734375 453.007812 64.007812 448.980469 56.839844 441.808594 C 49.671875 434.640625 45.644531 424.917969 45.644531 414.777344 L 45.644531 383.570312 C 45.644531 373.429688 49.671875 363.707031 56.839844 356.539062 C 64.007812 349.367188 73.734375 345.339844 83.871094 345.339844 Z M 83.871094 345.339844 " clip-rule="nonzero"/></clipPath><clipPath id="7ba91f2acb"><path d="M 45.644531 471.296875 L 649.09375 471.296875 L 649.09375 578.964844 L 45.644531 578.964844 Z M 45.644531 471.296875 " clip-rule="nonzero"/></clipPath><clipPath id="e570ffa918"><path d="M 83.871094 471.296875 L 610.867188 471.296875 C 621.003906 471.296875 630.726562 475.328125 637.898438 482.496094 C 645.066406 489.664062 649.09375 499.386719 649.09375 509.527344 L 649.09375 540.738281 C 649.09375 550.875 645.066406 560.597656 637.898438 567.769531 C 630.726562 574.9375 621.003906 578.964844 610.867188 578.964844 L 83.871094 578.964844 C 73.734375 578.964844 64.007812 574.9375 56.839844 567.769531 C 49.671875 560.597656 45.644531 550.875 45.644531 540.738281 L 45.644531 509.527344 C 45.644531 499.386719 49.671875 489.664062 56.839844 482.496094 C 64.007812 475.328125 73.734375 471.296875 83.871094 471.296875 Z M 83.871094 471.296875 " clip-rule="nonzero"/></clipPath></defs><g clip-path="url(#179eff5d4c)"><g clip-path="url(#be085f75ba)"><path fill="#ffffff" d="M 0.445312 56.507812 L 731.554688 56.507812 L 731.554688 849.503906 L 0.445312 849.503906 Z M 0.445312 56.507812 " fill-opacity="1" fill-rule="nonzero"/></g></g><g clip-path="url(#9318b3672e)"><g clip-path="url(#b503f10f14)"><path fill="#d0d0d1" d="M 406.234375 0.367188 L 649.09375 0.367188 L 649.09375 243.226562 L 406.234375 243.226562 Z M 406.234375 0.367188 " fill-opacity="1" fill-rule="nonzero"/></g></g><g clip-path="url(#820b331054)"><g clip-path="url(#8776d5c941)"><path fill="#edeef4" d="M 45.644531 345.339844 L 649.09375 345.339844 L 649.09375 453.007812 L 45.644531 453.007812 Z M 45.644531 345.339844 " fill-opacity="1" fill-rule="nonzero"/></g></g><g clip-path="url(#7ba91f2acb)"><g clip-path="url(#e570ffa918)"><path fill="#edeef4" d="M 45.644531 471.296875 L 649.09375 471.296875 L 649.09375 578.964844 L 45.644531 578.964844 Z M 45.644531 471.296875 " fill-opacity="1" fill-rule="nonzero"/></g></g><g fill="#000000" fill-opacity="1"><g transform="translate(45.643497, 304.490073)"><g><path d="M 3.953125 0 L 2.0625 0 C 1.769531 0 1.625 -0.132812 1.625 -0.40625 L 1.625 -8.296875 C 1.625 -8.585938 1.769531 -8.734375 2.0625 -8.734375 L 4.1875 -8.734375 C 4.457031 -8.734375 4.59375 -8.585938 4.59375 -8.296875 L 4.59375 -7.59375 C 4.59375 -7.164062 4.847656 -6.597656 5.359375 -5.890625 C 5.878906 -5.179688 6.394531 -4.597656 6.90625 -4.140625 C 7.425781 -3.691406 8.117188 -3.304688 8.984375 -2.984375 C 9.847656 -2.660156 10.789062 -2.5 11.8125 -2.5 C 13.539062 -2.5 14.894531 -2.859375 15.875 -3.578125 C 16.851562 -4.296875 17.34375 -5.296875 17.34375 -6.578125 C 17.34375 -7.316406 17.066406 -7.953125 16.515625 -8.484375 C 15.960938 -9.015625 15.25 -9.4375 14.375 -9.75 C 13.5 -10.0625 12.523438 -10.351562 11.453125 -10.625 C 10.378906 -10.894531 9.304688 -11.203125 8.234375 -11.546875 C 7.171875 -11.898438 6.203125 -12.316406 5.328125 -12.796875 C 4.453125 -13.285156 3.738281 -13.960938 3.1875 -14.828125 C 2.632812 -15.691406 2.359375 -16.707031 2.359375 -17.875 C 2.359375 -19.769531 3.070312 -21.332031 4.5 -22.5625 C 5.925781 -23.800781 7.84375 -24.421875 10.25 -24.421875 C 13.289062 -24.421875 15.519531 -23.535156 16.9375 -21.765625 L 16.859375 -23.84375 C 16.859375 -24.113281 17.007812 -24.25 17.3125 -24.25 L 19.1875 -24.25 C 19.457031 -24.25 19.59375 -24.113281 19.59375 -23.84375 L 19.59375 -16.5 C 19.59375 -16.226562 19.457031 -16.09375 19.1875 -16.09375 L 17.0625 -16.09375 C 16.800781 -16.09375 16.671875 -16.226562 16.671875 -16.5 L 16.671875 -17.4375 C 16.671875 -18.363281 16.148438 -19.296875 15.109375 -20.234375 C 14.078125 -21.179688 12.5625 -21.65625 10.5625 -21.65625 C 9.070312 -21.65625 7.867188 -21.300781 6.953125 -20.59375 C 6.046875 -19.882812 5.59375 -18.976562 5.59375 -17.875 C 5.59375 -17.09375 5.875 -16.421875 6.4375 -15.859375 C 7 -15.296875 7.726562 -14.84375 8.625 -14.5 C 9.53125 -14.164062 10.519531 -13.859375 11.59375 -13.578125 C 12.675781 -13.296875 13.757812 -12.984375 14.84375 -12.640625 C 15.925781 -12.304688 16.914062 -11.90625 17.8125 -11.4375 C 18.707031 -10.96875 19.4375 -10.320312 20 -9.5 C 20.5625 -8.675781 20.84375 -7.703125 20.84375 -6.578125 C 20.84375 -4.597656 20.132812 -2.96875 18.71875 -1.6875 C 17.300781 -0.40625 15.1875 0.234375 12.375 0.234375 C 10.3125 0.234375 8.601562 -0.179688 7.25 -1.015625 C 5.90625 -1.847656 4.925781 -2.742188 4.3125 -3.703125 L 4.359375 -0.40625 C 4.359375 -0.132812 4.222656 0 3.953125 0 Z M 3.953125 0 "/></g></g></g><g fill="#000000" fill-opacity="1"><g transform="translate(68.107824, 304.490073)"><g><path d="M 8.15625 0 L 1.71875 0 C 1.425781 0 1.28125 -0.132812 1.28125 -0.40625 L 1.28125 -1.859375 C 1.28125 -2.128906 1.425781 -2.265625 1.71875 -2.265625 L 3.578125 -2.265625 L 3.578125 -14.34375 L 1.71875 -14.34375 C 1.425781 -14.34375 1.28125 -14.472656 1.28125 -14.734375 L 1.28125 -16.1875 C 1.28125 -16.457031 1.425781 -16.59375 1.71875 -16.59375 L 5.96875 -16.59375 C 6.238281 -16.59375 6.375 -16.457031 6.375 -16.1875 L 6.375 -2.265625 L 8.15625 -2.265625 C 8.457031 -2.265625 8.609375 -2.128906 8.609375 -1.859375 L 8.609375 -0.40625 C 8.609375 -0.132812 8.457031 0 8.15625 0 Z M 6.25 -21.578125 C 6.625 -21.203125 6.8125 -20.753906 6.8125 -20.234375 C 6.8125 -19.722656 6.625 -19.285156 6.25 -18.921875 C 5.882812 -18.566406 5.441406 -18.390625 4.921875 -18.390625 C 4.410156 -18.390625 3.96875 -18.566406 3.59375 -18.921875 C 3.21875 -19.285156 3.03125 -19.722656 3.03125 -20.234375 C 3.03125 -20.753906 3.21875 -21.203125 3.59375 -21.578125 C 3.96875 -21.960938 4.410156 -22.15625 4.921875 -22.15625 C 5.441406 -22.15625 5.882812 -21.960938 6.25 -21.578125 Z M 6.25 -21.578125 "/></g></g></g><g fill="#000000" fill-opacity="1"><g transform="translate(77.990784, 304.490073)"><g><path d="M 9.046875 7.890625 C 7.921875 7.890625 7.070312 7.8125 6.5 7.65625 C 5.925781 7.5 5.460938 7.359375 5.109375 7.234375 C 4.765625 7.109375 4.46875 6.984375 4.21875 6.859375 C 3.96875 6.734375 3.734375 6.609375 3.515625 6.484375 C 2.523438 5.828125 2.148438 5.351562 2.390625 5.0625 L 3.265625 3.8125 C 3.398438 3.613281 3.59375 3.601562 3.84375 3.78125 C 3.863281 3.78125 3.9375 3.828125 4.0625 3.921875 C 4.1875 4.023438 4.3125 4.125 4.4375 4.21875 C 4.5625 4.3125 4.726562 4.414062 4.9375 4.53125 C 5.15625 4.65625 5.398438 4.769531 5.671875 4.875 C 5.941406 4.976562 6.234375 5.070312 6.546875 5.15625 C 7.285156 5.363281 8.101562 5.46875 9 5.46875 C 10.625 5.46875 11.925781 5.078125 12.90625 4.296875 C 13.882812 3.523438 14.375 2.304688 14.375 0.640625 L 14.375 -3.203125 C 13.96875 -2.253906 13.296875 -1.441406 12.359375 -0.765625 C 11.429688 -0.0976562 10.269531 0.234375 8.875 0.234375 C 6.582031 0.234375 4.742188 -0.5625 3.359375 -2.15625 C 1.972656 -3.75 1.28125 -5.816406 1.28125 -8.359375 C 1.28125 -10.898438 1.984375 -12.945312 3.390625 -14.5 C 4.796875 -16.050781 6.625 -16.828125 8.875 -16.828125 C 10.269531 -16.828125 11.441406 -16.503906 12.390625 -15.859375 C 13.347656 -15.222656 14.039062 -14.445312 14.46875 -13.53125 L 14.546875 -13.53125 L 14.5 -16.1875 C 14.5 -16.457031 14.632812 -16.59375 14.90625 -16.59375 L 18.890625 -16.59375 C 19.160156 -16.59375 19.296875 -16.457031 19.296875 -16.1875 L 19.296875 -14.734375 C 19.296875 -14.472656 19.160156 -14.34375 18.890625 -14.34375 L 17.0625 -14.34375 L 17.0625 0.640625 C 17.0625 3.046875 16.328125 4.851562 14.859375 6.0625 C 13.390625 7.28125 11.453125 7.890625 9.046875 7.890625 Z M 4.046875 -8.3125 C 4.046875 -6.457031 4.539062 -4.960938 5.53125 -3.828125 C 6.519531 -2.691406 7.753906 -2.125 9.234375 -2.125 C 10.722656 -2.125 11.957031 -2.6875 12.9375 -3.8125 C 13.914062 -4.9375 14.40625 -6.441406 14.40625 -8.328125 C 14.40625 -10.222656 13.914062 -11.71875 12.9375 -12.8125 C 11.957031 -13.914062 10.722656 -14.46875 9.234375 -14.46875 C 7.753906 -14.46875 6.519531 -13.90625 5.53125 -12.78125 C 4.539062 -11.65625 4.046875 -10.164062 4.046875 -8.3125 Z M 4.046875 -8.3125 "/></g></g></g><g fill="#000000" fill-opacity="1"><g transform="translate(98.599948, 304.490073)"><g><path d="M 19.234375 0 L 16.03125 0 C 15.0625 0 14.578125 -0.472656 14.578125 -1.421875 L 14.578125 -10.28125 C 14.578125 -11.59375 14.257812 -12.609375 13.625 -13.328125 C 13 -14.046875 12.078125 -14.40625 10.859375 -14.40625 C 9.128906 -14.40625 7.78125 -13.695312 6.8125 -12.28125 C 6.695312 -12.144531 6.550781 -11.894531 6.375 -11.53125 L 6.375 -2.265625 L 8.15625 -2.265625 C 8.457031 -2.265625 8.609375 -2.128906 8.609375 -1.859375 L 8.609375 -0.40625 C 8.609375 -0.132812 8.457031 0 8.15625 0 L 1.71875 0 C 1.425781 0 1.28125 -0.132812 1.28125 -0.40625 L 1.28125 -1.859375 C 1.28125 -2.128906 1.425781 -2.265625 1.71875 -2.265625 L 3.578125 -2.265625 L 3.578125 -14.34375 L 1.71875 -14.34375 C 1.425781 -14.34375 1.28125 -14.472656 1.28125 -14.734375 L 1.28125 -16.1875 C 1.28125 -16.457031 1.425781 -16.59375 1.71875 -16.59375 L 5.671875 -16.59375 C 5.960938 -16.59375 6.109375 -16.457031 6.109375 -16.1875 L 6.03125 -13.90625 L 6.140625 -13.90625 C 7.304688 -15.851562 9.117188 -16.828125 11.578125 -16.828125 C 13.367188 -16.828125 14.769531 -16.296875 15.78125 -15.234375 C 16.800781 -14.179688 17.320312 -12.757812 17.34375 -10.96875 L 17.34375 -2.265625 L 19.234375 -2.265625 C 19.523438 -2.265625 19.671875 -2.128906 19.671875 -1.859375 L 19.671875 -0.40625 C 19.671875 -0.132812 19.523438 0 19.234375 0 Z M 19.234375 0 "/></g></g></g><g fill="#000000" fill-opacity="1"><g transform="translate(119.546422, 304.490073)"><g/></g></g><g fill="#000000" fill-opacity="1"><g transform="translate(130.103981, 304.490073)"><g><path d="M 8.15625 0 L 1.71875 0 C 1.425781 0 1.28125 -0.132812 1.28125 -0.40625 L 1.28125 -1.859375 C 1.28125 -2.128906 1.425781 -2.265625 1.71875 -2.265625 L 3.578125 -2.265625 L 3.578125 -14.34375 L 1.71875 -14.34375 C 1.425781 -14.34375 1.28125 -14.472656 1.28125 -14.734375 L 1.28125 -16.1875 C 1.28125 -16.457031 1.425781 -16.59375 1.71875 -16.59375 L 5.96875 -16.59375 C 6.238281 -16.59375 6.375 -16.457031 6.375 -16.1875 L 6.375 -2.265625 L 8.15625 -2.265625 C 8.457031 -2.265625 8.609375 -2.128906 8.609375 -1.859375 L 8.609375 -0.40625 C 8.609375 -0.132812 8.457031 0 8.15625 0 Z M 6.25 -21.578125 C 6.625 -21.203125 6.8125 -20.753906 6.8125 -20.234375 C 6.8125 -19.722656 6.625 -19.285156 6.25 -18.921875 C 5.882812 -18.566406 5.441406 -18.390625 4.921875 -18.390625 C 4.410156 -18.390625 3.96875 -18.566406 3.59375 -18.921875 C 3.21875 -19.285156 3.03125 -19.722656 3.03125 -20.234375 C 3.03125 -20.753906 3.21875 -21.203125 3.59375 -21.578125 C 3.96875 -21.960938 4.410156 -22.15625 4.921875 -22.15625 C 5.441406 -22.15625 5.882812 -21.960938 6.25 -21.578125 Z M 6.25 -21.578125 "/></g></g></g><g fill="#000000" fill-opacity="1"><g transform="translate(139.986941, 304.490073)"><g><path d="M 19.234375 0 L 16.03125 0 C 15.0625 0 14.578125 -0.472656 14.578125 -1.421875 L 14.578125 -10.28125 C 14.578125 -11.59375 14.257812 -12.609375 13.625 -13.328125 C 13 -14.046875 12.078125 -14.40625 10.859375 -14.40625 C 9.128906 -14.40625 7.78125 -13.695312 6.8125 -12.28125 C 6.695312 -12.144531 6.550781 -11.894531 6.375 -11.53125 L 6.375 -2.265625 L 8.15625 -2.265625 C 8.457031 -2.265625 8.609375 -2.128906 8.609375 -1.859375 L 8.609375 -0.40625 C 8.609375 -0.132812 8.457031 0 8.15625 0 L 1.71875 0 C 1.425781 0 1.28125 -0.132812 1.28125 -0.40625 L 1.28125 -1.859375 C 1.28125 -2.128906 1.425781 -2.265625 1.71875 -2.265625 L 3.578125 -2.265625 L 3.578125 -14.34375 L 1.71875 -14.34375 C 1.425781 -14.34375 1.28125 -14.472656 1.28125 -14.734375 L 1.28125 -16.1875 C 1.28125 -16.457031 1.425781 -16.59375 1.71875 -16.59375 L 5.671875 -16.59375 C 5.960938 -16.59375 6.109375 -16.457031 6.109375 -16.1875 L 6.03125 -13.90625 L 6.140625 -13.90625 C 7.304688 -15.851562 9.117188 -16.828125 11.578125 -16.828125 C 13.367188 -16.828125 14.769531 -16.296875 15.78125 -15.234375 C 16.800781 -14.179688 17.320312 -12.757812 17.34375 -10.96875 L 17.34375 -2.265625 L 19.234375 -2.265625 C 19.523438 -2.265625 19.671875 -2.128906 19.671875 -1.859375 L 19.671875 -0.40625 C 19.671875 -0.132812 19.523438 0 19.234375 0 Z M 19.234375 0 "/></g></g></g><g fill="#000000" fill-opacity="1"><g transform="translate(160.933415, 304.490073)"><g/></g></g><g fill="#000000" fill-opacity="1"><g transform="translate(171.490974, 304.490073)"><g><path d="M 12.546875 -1.71875 C 12.640625 -1.625 12.6875 -1.523438 12.6875 -1.421875 C 12.6875 -1.328125 12.617188 -1.210938 12.484375 -1.078125 C 11.492188 -0.203125 10.25 0.234375 8.75 0.234375 C 7.257812 0.234375 6.035156 -0.253906 5.078125 -1.234375 C 4.117188 -2.210938 3.640625 -3.632812 3.640625 -5.5 L 3.640625 -14.34375 L 1.75 -14.34375 C 1.4375 -14.34375 1.28125 -14.488281 1.28125 -14.78125 L 1.28125 -16.15625 C 1.28125 -16.445312 1.4375 -16.59375 1.75 -16.59375 L 3.640625 -16.59375 L 3.640625 -20 C 3.640625 -20.320312 3.796875 -20.484375 4.109375 -20.484375 L 6 -20.484375 C 6.289062 -20.484375 6.4375 -20.320312 6.4375 -20 L 6.4375 -16.59375 L 10.734375 -16.59375 C 11.046875 -16.59375 11.203125 -16.445312 11.203125 -16.15625 L 11.203125 -14.78125 C 11.203125 -14.488281 11.046875 -14.34375 10.734375 -14.34375 L 6.4375 -14.34375 L 6.4375 -5.5625 C 6.4375 -4.4375 6.691406 -3.585938 7.203125 -3.015625 C 7.710938 -2.441406 8.382812 -2.15625 9.21875 -2.15625 C 10.0625 -2.15625 10.695312 -2.367188 11.125 -2.796875 C 11.351562 -3.003906 11.554688 -2.992188 11.734375 -2.765625 Z M 12.546875 -1.71875 "/></g></g></g><g fill="#000000" fill-opacity="1"><g transform="translate(185.016793, 304.490073)"><g><path d="M 15.71875 -2.125 C 14.144531 -0.550781 12.128906 0.234375 9.671875 0.234375 C 7.222656 0.234375 5.210938 -0.546875 3.640625 -2.109375 C 2.066406 -3.671875 1.28125 -5.75 1.28125 -8.34375 C 1.28125 -10.945312 2.078125 -13.007812 3.671875 -14.53125 C 5.273438 -16.0625 7.285156 -16.828125 9.703125 -16.828125 C 12.117188 -16.828125 14.117188 -16.054688 15.703125 -14.515625 C 17.285156 -12.984375 18.078125 -10.925781 18.078125 -8.34375 C 18.078125 -5.769531 17.289062 -3.695312 15.71875 -2.125 Z M 4.109375 -8.328125 C 4.109375 -6.484375 4.648438 -4.988281 5.734375 -3.84375 C 6.816406 -2.695312 8.140625 -2.125 9.703125 -2.125 C 11.265625 -2.125 12.582031 -2.695312 13.65625 -3.84375 C 14.738281 -4.988281 15.28125 -6.484375 15.28125 -8.328125 C 15.28125 -10.171875 14.734375 -11.65625 13.640625 -12.78125 C 12.554688 -13.90625 11.25 -14.46875 9.71875 -14.46875 C 8.1875 -14.46875 6.867188 -13.90625 5.765625 -12.78125 C 4.660156 -11.65625 4.109375 -10.171875 4.109375 -8.328125 Z M 4.109375 -8.328125 "/></g></g></g><g fill="#000000" fill-opacity="1"><g transform="translate(204.411674, 304.490073)"><g/></g></g><g fill="#000000" fill-opacity="1"><g transform="translate(214.969234, 304.490073)"><g><path d="M 16.671875 -3.90625 C 16.796875 -3.800781 16.859375 -3.695312 16.859375 -3.59375 C 16.859375 -3.488281 16.804688 -3.351562 16.703125 -3.1875 C 16.609375 -3.019531 16.394531 -2.765625 16.0625 -2.421875 C 15.738281 -2.085938 15.289062 -1.707031 14.71875 -1.28125 C 14.144531 -0.851562 13.398438 -0.492188 12.484375 -0.203125 C 11.578125 0.0859375 10.609375 0.234375 9.578125 0.234375 C 7.210938 0.234375 5.238281 -0.539062 3.65625 -2.09375 C 2.070312 -3.644531 1.28125 -5.726562 1.28125 -8.34375 C 1.28125 -10.96875 2.070312 -13.035156 3.65625 -14.546875 C 5.238281 -16.066406 7.175781 -16.828125 9.46875 -16.828125 C 11.769531 -16.828125 13.503906 -16 14.671875 -14.34375 L 14.703125 -14.34375 L 14.671875 -16.1875 C 14.671875 -16.476562 14.816406 -16.625 15.109375 -16.625 L 16.390625 -16.625 C 16.660156 -16.625 16.796875 -16.476562 16.796875 -16.1875 L 16.796875 -10.453125 C 16.796875 -10.179688 16.660156 -10.046875 16.390625 -10.046875 L 14.84375 -10.046875 C 14.570312 -10.046875 14.4375 -10.179688 14.4375 -10.453125 L 14.4375 -11.03125 C 14.414062 -11.84375 13.953125 -12.617188 13.046875 -13.359375 C 12.148438 -14.097656 11.007812 -14.46875 9.625 -14.46875 C 8.25 -14.46875 6.984375 -13.914062 5.828125 -12.8125 C 4.679688 -11.71875 4.109375 -10.21875 4.109375 -8.3125 C 4.109375 -6.414062 4.671875 -4.910156 5.796875 -3.796875 C 6.921875 -2.679688 8.179688 -2.125 9.578125 -2.125 C 10.972656 -2.125 12.160156 -2.421875 13.140625 -3.015625 C 14.117188 -3.609375 14.773438 -4.1875 15.109375 -4.75 C 15.265625 -5.019531 15.457031 -5.054688 15.6875 -4.859375 Z M 16.671875 -3.90625 "/></g></g></g><g fill="#000000" fill-opacity="1"><g transform="translate(233.14982, 304.490073)"><g><path d="M 15.71875 -2.125 C 14.144531 -0.550781 12.128906 0.234375 9.671875 0.234375 C 7.222656 0.234375 5.210938 -0.546875 3.640625 -2.109375 C 2.066406 -3.671875 1.28125 -5.75 1.28125 -8.34375 C 1.28125 -10.945312 2.078125 -13.007812 3.671875 -14.53125 C 5.273438 -16.0625 7.285156 -16.828125 9.703125 -16.828125 C 12.117188 -16.828125 14.117188 -16.054688 15.703125 -14.515625 C 17.285156 -12.984375 18.078125 -10.925781 18.078125 -8.34375 C 18.078125 -5.769531 17.289062 -3.695312 15.71875 -2.125 Z M 4.109375 -8.328125 C 4.109375 -6.484375 4.648438 -4.988281 5.734375 -3.84375 C 6.816406 -2.695312 8.140625 -2.125 9.703125 -2.125 C 11.265625 -2.125 12.582031 -2.695312 13.65625 -3.84375 C 14.738281 -4.988281 15.28125 -6.484375 15.28125 -8.328125 C 15.28125 -10.171875 14.734375 -11.65625 13.640625 -12.78125 C 12.554688 -13.90625 11.25 -14.46875 9.71875 -14.46875 C 8.1875 -14.46875 6.867188 -13.90625 5.765625 -12.78125 C 4.660156 -11.65625 4.109375 -10.171875 4.109375 -8.328125 Z M 4.109375 -8.328125 "/></g></g></g><g fill="#000000" fill-opacity="1"><g transform="translate(252.54469, 304.490073)"><g><path d="M 19.234375 0 L 16.03125 0 C 15.0625 0 14.578125 -0.472656 14.578125 -1.421875 L 14.578125 -10.28125 C 14.578125 -11.59375 14.257812 -12.609375 13.625 -13.328125 C 13 -14.046875 12.078125 -14.40625 10.859375 -14.40625 C 9.128906 -14.40625 7.78125 -13.695312 6.8125 -12.28125 C 6.695312 -12.144531 6.550781 -11.894531 6.375 -11.53125 L 6.375 -2.265625 L 8.15625 -2.265625 C 8.457031 -2.265625 8.609375 -2.128906 8.609375 -1.859375 L 8.609375 -0.40625 C 8.609375 -0.132812 8.457031 0 8.15625 0 L 1.71875 0 C 1.425781 0 1.28125 -0.132812 1.28125 -0.40625 L 1.28125 -1.859375 C 1.28125 -2.128906 1.425781 -2.265625 1.71875 -2.265625 L 3.578125 -2.265625 L 3.578125 -14.34375 L 1.71875 -14.34375 C 1.425781 -14.34375 1.28125 -14.472656 1.28125 -14.734375 L 1.28125 -16.1875 C 1.28125 -16.457031 1.425781 -16.59375 1.71875 -16.59375 L 5.671875 -16.59375 C 5.960938 -16.59375 6.109375 -16.457031 6.109375 -16.1875 L 6.03125 -13.90625 L 6.140625 -13.90625 C 7.304688 -15.851562 9.117188 -16.828125 11.578125 -16.828125 C 13.367188 -16.828125 14.769531 -16.296875 15.78125 -15.234375 C 16.800781 -14.179688 17.320312 -12.757812 17.34375 -10.96875 L 17.34375 -2.265625 L 19.234375 -2.265625 C 19.523438 -2.265625 19.671875 -2.128906 19.671875 -1.859375 L 19.671875 -0.40625 C 19.671875 -0.132812 19.523438 0 19.234375 0 Z M 19.234375 0 "/></g></g></g><g fill="#000000" fill-opacity="1"><g transform="translate(273.491175, 304.490073)"><g><path d="M 12.546875 -1.71875 C 12.640625 -1.625 12.6875 -1.523438 12.6875 -1.421875 C 12.6875 -1.328125 12.617188 -1.210938 12.484375 -1.078125 C 11.492188 -0.203125 10.25 0.234375 8.75 0.234375 C 7.257812 0.234375 6.035156 -0.253906 5.078125 -1.234375 C 4.117188 -2.210938 3.640625 -3.632812 3.640625 -5.5 L 3.640625 -14.34375 L 1.75 -14.34375 C 1.4375 -14.34375 1.28125 -14.488281 1.28125 -14.78125 L 1.28125 -16.15625 C 1.28125 -16.445312 1.4375 -16.59375 1.75 -16.59375 L 3.640625 -16.59375 L 3.640625 -20 C 3.640625 -20.320312 3.796875 -20.484375 4.109375 -20.484375 L 6 -20.484375 C 6.289062 -20.484375 6.4375 -20.320312 6.4375 -20 L 6.4375 -16.59375 L 10.734375 -16.59375 C 11.046875 -16.59375 11.203125 -16.445312 11.203125 -16.15625 L 11.203125 -14.78125 C 11.203125 -14.488281 11.046875 -14.34375 10.734375 -14.34375 L 6.4375 -14.34375 L 6.4375 -5.5625 C 6.4375 -4.4375 6.691406 -3.585938 7.203125 -3.015625 C 7.710938 -2.441406 8.382812 -2.15625 9.21875 -2.15625 C 10.0625 -2.15625 10.695312 -2.367188 11.125 -2.796875 C 11.351562 -3.003906 11.554688 -2.992188 11.734375 -2.765625 Z M 12.546875 -1.71875 "/></g></g></g><g fill="#000000" fill-opacity="1"><g transform="translate(287.017006, 304.490073)"><g><path d="M 8.15625 0 L 1.71875 0 C 1.425781 0 1.28125 -0.132812 1.28125 -0.40625 L 1.28125 -1.859375 C 1.28125 -2.128906 1.425781 -2.265625 1.71875 -2.265625 L 3.578125 -2.265625 L 3.578125 -14.34375 L 1.71875 -14.34375 C 1.425781 -14.34375 1.28125 -14.472656 1.28125 -14.734375 L 1.28125 -16.1875 C 1.28125 -16.457031 1.425781 -16.59375 1.71875 -16.59375 L 5.96875 -16.59375 C 6.238281 -16.59375 6.375 -16.457031 6.375 -16.1875 L 6.375 -2.265625 L 8.15625 -2.265625 C 8.457031 -2.265625 8.609375 -2.128906 8.609375 -1.859375 L 8.609375 -0.40625 C 8.609375 -0.132812 8.457031 0 8.15625 0 Z M 6.25 -21.578125 C 6.625 -21.203125 6.8125 -20.753906 6.8125 -20.234375 C 6.8125 -19.722656 6.625 -19.285156 6.25 -18.921875 C 5.882812 -18.566406 5.441406 -18.390625 4.921875 -18.390625 C 4.410156 -18.390625 3.96875 -18.566406 3.59375 -18.921875 C 3.21875 -19.285156 3.03125 -19.722656 3.03125 -20.234375 C 3.03125 -20.753906 3.21875 -21.203125 3.59375 -21.578125 C 3.96875 -21.960938 4.410156 -22.15625 4.921875 -22.15625 C 5.441406 -22.15625 5.882812 -21.960938 6.25 -21.578125 Z M 6.25 -21.578125 "/></g></g></g><g fill="#000000" fill-opacity="1"><g transform="translate(296.899966, 304.490073)"><g><path d="M 19.234375 0 L 16.03125 0 C 15.0625 0 14.578125 -0.472656 14.578125 -1.421875 L 14.578125 -10.28125 C 14.578125 -11.59375 14.257812 -12.609375 13.625 -13.328125 C 13 -14.046875 12.078125 -14.40625 10.859375 -14.40625 C 9.128906 -14.40625 7.78125 -13.695312 6.8125 -12.28125 C 6.695312 -12.144531 6.550781 -11.894531 6.375 -11.53125 L 6.375 -2.265625 L 8.15625 -2.265625 C 8.457031 -2.265625 8.609375 -2.128906 8.609375 -1.859375 L 8.609375 -0.40625 C 8.609375 -0.132812 8.457031 0 8.15625 0 L 1.71875 0 C 1.425781 0 1.28125 -0.132812 1.28125 -0.40625 L 1.28125 -1.859375 C 1.28125 -2.128906 1.425781 -2.265625 1.71875 -2.265625 L 3.578125 -2.265625 L 3.578125 -14.34375 L 1.71875 -14.34375 C 1.425781 -14.34375 1.28125 -14.472656 1.28125 -14.734375 L 1.28125 -16.1875 C 1.28125 -16.457031 1.425781 -16.59375 1.71875 -16.59375 L 5.671875 -16.59375 C 5.960938 -16.59375 6.109375 -16.457031 6.109375 -16.1875 L 6.03125 -13.90625 L 6.140625 -13.90625 C 7.304688 -15.851562 9.117188 -16.828125 11.578125 -16.828125 C 13.367188 -16.828125 14.769531 -16.296875 15.78125 -15.234375 C 16.800781 -14.179688 17.320312 -12.757812 17.34375 -10.96875 L 17.34375 -2.265625 L 19.234375 -2.265625 C 19.523438 -2.265625 19.671875 -2.128906 19.671875 -1.859375 L 19.671875 -0.40625 C 19.671875 -0.132812 19.523438 0 19.234375 0 Z M 19.234375 0 "/></g></g></g><g fill="#000000" fill-opacity="1"><g transform="translate(317.846429, 304.490073)"><g><path d="M 18.796875 0 L 15.859375 0 C 14.890625 0 14.40625 -0.472656 14.40625 -1.421875 L 14.40625 -2.671875 L 14.296875 -2.671875 C 13.378906 -0.734375 11.628906 0.234375 9.046875 0.234375 C 7.242188 0.234375 5.816406 -0.296875 4.765625 -1.359375 C 3.722656 -2.429688 3.191406 -3.859375 3.171875 -5.640625 L 3.171875 -14.34375 L 1.25 -14.34375 C 0.976562 -14.34375 0.84375 -14.472656 0.84375 -14.734375 L 0.84375 -16.1875 C 0.84375 -16.457031 0.976562 -16.59375 1.25 -16.59375 L 4.484375 -16.59375 C 5.453125 -16.59375 5.9375 -16.125 5.9375 -15.1875 L 5.9375 -6.3125 C 5.9375 -5.007812 6.25 -3.992188 6.875 -3.265625 C 7.507812 -2.546875 8.429688 -2.1875 9.640625 -2.1875 C 11.285156 -2.1875 12.582031 -2.796875 13.53125 -4.015625 C 13.9375 -4.535156 14.140625 -4.882812 14.140625 -5.0625 L 14.140625 -14.34375 L 12.3125 -14.34375 C 12.039062 -14.34375 11.90625 -14.472656 11.90625 -14.734375 L 11.90625 -16.1875 C 11.90625 -16.457031 12.039062 -16.59375 12.3125 -16.59375 L 16.5 -16.59375 C 16.769531 -16.59375 16.90625 -16.457031 16.90625 -16.1875 L 16.90625 -2.265625 L 18.796875 -2.265625 C 19.085938 -2.265625 19.234375 -2.128906 19.234375 -1.859375 L 19.234375 -0.40625 C 19.234375 -0.132812 19.085938 0 18.796875 0 Z M 18.796875 0 "/></g></g></g><g fill="#000000" fill-opacity="1"><g transform="translate(338.354405, 304.490073)"><g><path d="M 16.296875 -7.96875 L 4.15625 -7.96875 C 4.238281 -6.09375 4.828125 -4.648438 5.921875 -3.640625 C 7.015625 -2.628906 8.242188 -2.125 9.609375 -2.125 C 10.984375 -2.125 12.160156 -2.414062 13.140625 -3 C 14.117188 -3.582031 14.773438 -4.15625 15.109375 -4.71875 C 15.296875 -4.945312 15.5 -4.984375 15.71875 -4.828125 L 16.625 -3.90625 C 16.757812 -3.769531 16.828125 -3.648438 16.828125 -3.546875 C 16.828125 -3.453125 16.773438 -3.328125 16.671875 -3.171875 C 16.578125 -3.015625 16.367188 -2.765625 16.046875 -2.421875 C 15.734375 -2.085938 15.289062 -1.707031 14.71875 -1.28125 C 14.144531 -0.851562 13.398438 -0.492188 12.484375 -0.203125 C 11.578125 0.0859375 10.609375 0.234375 9.578125 0.234375 C 7.210938 0.234375 5.238281 -0.539062 3.65625 -2.09375 C 2.070312 -3.644531 1.28125 -5.726562 1.28125 -8.34375 C 1.28125 -10.96875 2.066406 -13.035156 3.640625 -14.546875 C 5.210938 -16.066406 7.140625 -16.828125 9.421875 -16.828125 C 11.710938 -16.828125 13.507812 -16.09375 14.8125 -14.625 C 16.113281 -13.15625 16.765625 -11.171875 16.765625 -8.671875 C 16.765625 -8.578125 16.765625 -8.488281 16.765625 -8.40625 C 16.765625 -8.113281 16.609375 -7.96875 16.296875 -7.96875 Z M 13.96875 -10.015625 C 13.894531 -11.410156 13.453125 -12.523438 12.640625 -13.359375 C 11.835938 -14.191406 10.757812 -14.609375 9.40625 -14.609375 C 8.0625 -14.609375 6.90625 -14.222656 5.9375 -13.453125 C 4.96875 -12.691406 4.394531 -11.546875 4.21875 -10.015625 Z M 13.96875 -10.015625 "/></g></g></g><g fill="#000000" fill-opacity="1"><g transform="translate(38.248247, 260.465923)"><g><path d="M 58.078125 -33.15625 C 55.265625 -32.726562 53.535156 -31.644531 52.890625 -29.90625 C 52.253906 -28.175781 48.753906 -18.078125 42.390625 0.390625 L 37.421875 0.390625 L 28.15625 -25.703125 L 19.78125 0.390625 L 14.8125 0.390625 L 4.875 -28.84375 C 4.070312 -31.34375 2.109375 -32.796875 -1.015625 -33.203125 L -1.015625 -35.140625 L 17.75 -35.140625 L 17.75 -33.265625 C 14.8125 -32.878906 13.34375 -32.359375 13.34375 -31.703125 C 13.34375 -31.253906 14 -29.039062 15.3125 -25.0625 L 20.4375 -9.53125 L 28.453125 -35.140625 L 33.734375 -35.140625 L 43.015625 -8.71875 C 47.304688 -22.125 49.453125 -29.5625 49.453125 -31.03125 C 49.453125 -32.164062 47.613281 -32.875 43.9375 -33.15625 L 43.9375 -35.140625 L 58.078125 -35.140625 Z M 58.078125 -33.15625 "/></g></g></g><g fill="#000000" fill-opacity="1"><g transform="translate(95.349187, 260.465923)"><g><path d="M 28.0625 -5.9375 C 25.1875 -1.4375 21.140625 0.8125 15.921875 0.8125 C 11.429688 0.8125 7.953125 -0.375 5.484375 -2.75 C 3.015625 -5.125 1.78125 -8.332031 1.78125 -12.375 C 1.78125 -15.976562 3.03125 -19.035156 5.53125 -21.546875 C 8.03125 -24.054688 11.289062 -25.3125 15.3125 -25.3125 C 19.238281 -25.3125 22.234375 -24.367188 24.296875 -22.484375 C 26.359375 -20.597656 27.390625 -18.023438 27.390625 -14.765625 L 27.390625 -13.125 L 10.65625 -13.125 C 10.65625 -6.238281 13.378906 -2.796875 18.828125 -2.796875 C 21.648438 -2.796875 24.097656 -4.300781 26.171875 -7.3125 Z M 18.625 -15.3125 C 18.625 -20.625 17.382812 -23.28125 14.90625 -23.28125 C 12.164062 -23.28125 10.75 -20.585938 10.65625 -15.203125 Z M 18.625 -15.3125 "/></g></g></g><g fill="#000000" fill-opacity="1"><g transform="translate(124.345372, 260.465923)"><g><path d="M 1.015625 0 L 1.015625 -1.828125 C 2.535156 -1.898438 3.519531 -2.140625 3.96875 -2.546875 C 4.425781 -2.960938 4.65625 -3.613281 4.65625 -4.5 L 4.65625 -31.953125 C 4.65625 -34.242188 3.101562 -35.5625 0 -35.90625 L 0 -37.6875 L 12.484375 -38.34375 L 12.828125 -37.9375 L 12.828125 -4.828125 C 12.828125 -3.054688 14.066406 -2.054688 16.546875 -1.828125 L 16.546875 0 Z M 1.015625 0 "/></g></g></g><g fill="#000000" fill-opacity="1"><g transform="translate(141.802511, 260.465923)"><g><path d="M 26.875 -6.234375 C 25.71875 -3.992188 24.140625 -2.257812 22.140625 -1.03125 C 20.140625 0.195312 17.953125 0.8125 15.578125 0.8125 C 11.234375 0.8125 7.847656 -0.359375 5.421875 -2.703125 C 2.992188 -5.054688 1.78125 -8.265625 1.78125 -12.328125 C 1.78125 -15.878906 3.101562 -18.929688 5.75 -21.484375 C 8.40625 -24.035156 11.8125 -25.3125 15.96875 -25.3125 C 19.0625 -25.3125 21.484375 -24.726562 23.234375 -23.5625 C 24.984375 -22.394531 25.859375 -20.847656 25.859375 -18.921875 C 25.859375 -16.273438 24.453125 -14.953125 21.640625 -14.953125 C 20.472656 -14.953125 19.453125 -15.238281 18.578125 -15.8125 C 17.710938 -16.394531 17.28125 -17.175781 17.28125 -18.15625 C 17.28125 -19 17.503906 -20.117188 17.953125 -21.515625 C 18.054688 -21.828125 18.125 -22.109375 18.15625 -22.359375 C 17.875 -22.972656 17.210938 -23.28125 16.171875 -23.28125 C 14.503906 -23.28125 13.179688 -22.367188 12.203125 -20.546875 C 11.234375 -18.734375 10.75 -16.09375 10.75 -12.625 C 10.75 -9.738281 11.414062 -7.382812 12.75 -5.5625 C 14.09375 -3.75 15.757812 -2.84375 17.75 -2.84375 C 20.894531 -2.84375 23.316406 -4.394531 25.015625 -7.5 Z M 26.875 -6.234375 "/></g></g></g><g fill="#000000" fill-opacity="1"><g transform="translate(168.718697, 260.465923)"><g><path d="M 15.875 0.8125 C 11.71875 0.8125 8.328125 -0.382812 5.703125 -2.78125 C 3.085938 -5.1875 1.78125 -8.335938 1.78125 -12.234375 C 1.78125 -16.179688 3.078125 -19.347656 5.671875 -21.734375 C 8.273438 -24.117188 11.742188 -25.3125 16.078125 -25.3125 C 20.460938 -25.3125 23.957031 -24.132812 26.5625 -21.78125 C 29.175781 -19.425781 30.484375 -16.3125 30.484375 -12.4375 C 30.484375 -8.550781 29.171875 -5.367188 26.546875 -2.890625 C 23.921875 -0.421875 20.363281 0.8125 15.875 0.8125 Z M 16.125 -23.28125 C 12.570312 -23.28125 10.796875 -19.710938 10.796875 -12.578125 C 10.796875 -8.503906 11.234375 -5.59375 12.109375 -3.84375 C 12.984375 -2.09375 14.320312 -1.21875 16.125 -1.21875 C 19.675781 -1.21875 21.453125 -4.972656 21.453125 -12.484375 C 21.453125 -19.679688 19.675781 -23.28125 16.125 -23.28125 Z M 16.125 -23.28125 "/></g></g></g><g fill="#000000" fill-opacity="1"><g transform="translate(200.983452, 260.465923)"><g><path d="M 35.90625 0 L 35.90625 -1.828125 C 37.457031 -1.910156 38.335938 -2.15625 38.546875 -2.5625 C 38.753906 -2.96875 38.859375 -3.613281 38.859375 -4.5 L 38.859375 -16.078125 C 38.859375 -19.460938 37.6875 -21.15625 35.34375 -21.15625 C 33.238281 -21.15625 31.519531 -20.117188 30.1875 -18.046875 L 30.1875 -4.78125 C 30.1875 -3.789062 30.382812 -3.097656 30.78125 -2.703125 C 31.175781 -2.304688 31.953125 -2.015625 33.109375 -1.828125 L 33.109375 0 L 19.015625 0 L 19.015625 -1.828125 C 20.535156 -1.910156 21.40625 -2.140625 21.625 -2.515625 C 21.851562 -2.898438 21.96875 -3.5625 21.96875 -4.5 L 21.96875 -16.078125 C 21.96875 -19.460938 20.796875 -21.15625 18.453125 -21.15625 C 16.359375 -21.15625 14.640625 -20.117188 13.296875 -18.046875 L 13.296875 -4.78125 C 13.296875 -3.707031 13.546875 -2.984375 14.046875 -2.609375 C 14.554688 -2.242188 15.296875 -1.984375 16.265625 -1.828125 L 16.265625 0 L 1.40625 0 L 1.40625 -1.828125 C 3.007812 -1.898438 4.035156 -2.15625 4.484375 -2.59375 C 4.941406 -3.03125 5.171875 -3.664062 5.171875 -4.5 L 5.171875 -18.921875 C 5.171875 -20.960938 3.800781 -22.125 1.0625 -22.40625 L 1.0625 -24.25 L 12.875 -24.859375 L 13.296875 -24.5 L 13.296875 -21 L 13.390625 -21 C 13.941406 -21.5 14.476562 -22.003906 15 -22.515625 C 16.9375 -24.347656 19.375 -25.265625 22.3125 -25.265625 C 25.957031 -25.265625 28.425781 -23.757812 29.71875 -20.75 L 29.921875 -20.75 C 30.515625 -21.28125 31.097656 -21.816406 31.671875 -22.359375 C 33.765625 -24.296875 36.289062 -25.265625 39.25 -25.265625 C 41.757812 -25.265625 43.691406 -24.523438 45.046875 -23.046875 C 46.398438 -21.566406 47.078125 -19.484375 47.078125 -16.796875 L 47.078125 -4.703125 C 47.078125 -3.578125 47.421875 -2.835938 48.109375 -2.484375 C 48.796875 -2.128906 49.648438 -1.910156 50.671875 -1.828125 L 50.671875 0 Z M 35.90625 0 "/></g></g></g><g fill="#000000" fill-opacity="1"><g transform="translate(252.512954, 260.465923)"><g><path d="M 28.0625 -5.9375 C 25.1875 -1.4375 21.140625 0.8125 15.921875 0.8125 C 11.429688 0.8125 7.953125 -0.375 5.484375 -2.75 C 3.015625 -5.125 1.78125 -8.332031 1.78125 -12.375 C 1.78125 -15.976562 3.03125 -19.035156 5.53125 -21.546875 C 8.03125 -24.054688 11.289062 -25.3125 15.3125 -25.3125 C 19.238281 -25.3125 22.234375 -24.367188 24.296875 -22.484375 C 26.359375 -20.597656 27.390625 -18.023438 27.390625 -14.765625 L 27.390625 -13.125 L 10.65625 -13.125 C 10.65625 -6.238281 13.378906 -2.796875 18.828125 -2.796875 C 21.648438 -2.796875 24.097656 -4.300781 26.171875 -7.3125 Z M 18.625 -15.3125 C 18.625 -20.625 17.382812 -23.28125 14.90625 -23.28125 C 12.164062 -23.28125 10.75 -20.585938 10.65625 -15.203125 Z M 18.625 -15.3125 "/></g></g></g><g fill="#000000" fill-opacity="1"><g transform="translate(76.449748, 392.392701)"><g><path d="M 14.703125 -17.484375 L 14.703125 -6.203125 C 14.703125 -4.054688 14.125 -2.429688 12.96875 -1.328125 C 11.8125 -0.234375 10.113281 0.3125 7.875 0.3125 C 5.644531 0.3125 3.953125 -0.234375 2.796875 -1.328125 C 1.640625 -2.429688 1.0625 -4.054688 1.0625 -6.203125 L 1.0625 -17.484375 L 5.046875 -17.484375 L 5.046875 -7.375 C 5.046875 -5.957031 5.265625 -4.972656 5.703125 -4.421875 C 6.148438 -3.878906 6.875 -3.609375 7.875 -3.609375 C 8.882812 -3.609375 9.609375 -3.878906 10.046875 -4.421875 C 10.492188 -4.972656 10.71875 -5.957031 10.71875 -7.375 L 10.71875 -17.484375 Z M 14.703125 -17.484375 "/></g></g></g><g fill="#000000" fill-opacity="1"><g transform="translate(92.213199, 392.392701)"><g><path d="M 7.71875 -17.796875 C 8.65625 -17.796875 9.578125 -17.65625 10.484375 -17.375 C 11.390625 -17.101562 12.0625 -16.832031 12.5 -16.5625 L 13.140625 -16.140625 L 11.53125 -12.96875 C 11.394531 -13.050781 11.210938 -13.160156 10.984375 -13.296875 C 10.765625 -13.429688 10.34375 -13.609375 9.71875 -13.828125 C 9.101562 -14.054688 8.523438 -14.171875 7.984375 -14.171875 C 7.316406 -14.171875 6.800781 -14.03125 6.4375 -13.75 C 6.082031 -13.46875 5.90625 -13.085938 5.90625 -12.609375 C 5.90625 -12.367188 5.988281 -12.144531 6.15625 -11.9375 C 6.332031 -11.726562 6.625 -11.507812 7.03125 -11.28125 C 7.445312 -11.050781 7.804688 -10.863281 8.109375 -10.71875 C 8.421875 -10.582031 8.90625 -10.367188 9.5625 -10.078125 C 10.6875 -9.597656 11.644531 -8.945312 12.4375 -8.125 C 13.238281 -7.300781 13.640625 -6.363281 13.640625 -5.3125 C 13.640625 -4.3125 13.457031 -3.4375 13.09375 -2.6875 C 12.738281 -1.9375 12.242188 -1.347656 11.609375 -0.921875 C 10.984375 -0.503906 10.289062 -0.195312 9.53125 0 C 8.769531 0.207031 7.945312 0.3125 7.0625 0.3125 C 6.289062 0.3125 5.535156 0.234375 4.796875 0.078125 C 4.066406 -0.0664062 3.453125 -0.253906 2.953125 -0.484375 C 2.460938 -0.722656 2.019531 -0.957031 1.625 -1.1875 C 1.226562 -1.414062 0.941406 -1.609375 0.765625 -1.765625 L 0.484375 -1.984375 L 2.484375 -5.34375 C 2.648438 -5.195312 2.878906 -5.015625 3.171875 -4.796875 C 3.472656 -4.578125 4 -4.285156 4.75 -3.921875 C 5.507812 -3.554688 6.179688 -3.375 6.765625 -3.375 C 8.441406 -3.375 9.28125 -3.941406 9.28125 -5.078125 C 9.28125 -5.316406 9.21875 -5.539062 9.09375 -5.75 C 8.976562 -5.957031 8.769531 -6.160156 8.46875 -6.359375 C 8.164062 -6.566406 7.894531 -6.726562 7.65625 -6.84375 C 7.425781 -6.96875 7.046875 -7.15625 6.515625 -7.40625 C 5.984375 -7.65625 5.59375 -7.84375 5.34375 -7.96875 C 4.28125 -8.488281 3.457031 -9.140625 2.875 -9.921875 C 2.300781 -10.710938 2.015625 -11.554688 2.015625 -12.453125 C 2.015625 -14.023438 2.59375 -15.304688 3.75 -16.296875 C 4.90625 -17.296875 6.226562 -17.796875 7.71875 -17.796875 Z M 7.71875 -17.796875 "/></g></g></g><g fill="#000000" fill-opacity="1"><g transform="translate(106.451151, 392.392701)"><g><path d="M 11.265625 -17.484375 L 11.265625 -13.984375 L 5.25 -13.984375 L 5.25 -10.515625 L 11.015625 -10.515625 L 11.015625 -7.015625 L 5.25 -7.015625 L 5.25 -3.5 L 11.265625 -3.5 L 11.265625 0 L 1.265625 0 L 1.265625 -17.484375 Z M 11.265625 -17.484375 "/></g></g></g><g fill="#000000" fill-opacity="1"><g transform="translate(118.739861, 392.392701)"><g><path d="M 1.265625 -17.484375 L 7.515625 -17.484375 C 9.203125 -17.484375 10.570312 -17.03125 11.625 -16.125 C 12.6875 -15.226562 13.21875 -13.945312 13.21875 -12.28125 C 13.21875 -11 12.894531 -9.921875 12.25 -9.046875 C 11.613281 -8.179688 10.742188 -7.570312 9.640625 -7.21875 L 15.65625 0 L 10.59375 0 L 5.25 -6.90625 L 5.25 0 L 1.265625 0 Z M 5.25 -9.71875 L 5.71875 -9.71875 C 6.082031 -9.71875 6.390625 -9.722656 6.640625 -9.734375 C 6.898438 -9.753906 7.191406 -9.804688 7.515625 -9.890625 C 7.847656 -9.972656 8.113281 -10.09375 8.3125 -10.25 C 8.507812 -10.40625 8.675781 -10.628906 8.8125 -10.921875 C 8.957031 -11.222656 9.03125 -11.585938 9.03125 -12.015625 C 9.03125 -12.441406 8.957031 -12.800781 8.8125 -13.09375 C 8.675781 -13.382812 8.507812 -13.609375 8.3125 -13.765625 C 8.113281 -13.921875 7.847656 -14.039062 7.515625 -14.125 C 7.191406 -14.21875 6.898438 -14.269531 6.640625 -14.28125 C 6.390625 -14.289062 6.082031 -14.296875 5.71875 -14.296875 L 5.25 -14.296875 Z M 5.25 -9.71875 "/></g></g></g><g fill="#000000" fill-opacity="1"><g transform="translate(133.910057, 392.392701)"><g><path d="M 5.25 -10.84375 L 5.25 0 L 1.265625 0 L 1.265625 -17.484375 L 5.25 -17.484375 L 12.203125 -6.625 L 12.25 -6.625 L 12.25 -17.484375 L 16.234375 -17.484375 L 16.234375 0 L 12.25 0 L 5.296875 -10.84375 Z M 5.25 -10.84375 "/></g></g></g><g fill="#000000" fill-opacity="1"><g transform="translate(151.410873, 392.392701)"><g><path d="M 10.15625 -17.484375 L 17.203125 0 L 12.921875 0 L 11.625 -3.5 L 4.984375 -3.5 L 3.6875 0 L -0.59375 0 L 6.46875 -17.484375 Z M 10.28125 -6.984375 L 8.328125 -12.078125 L 8.28125 -12.078125 L 6.328125 -6.984375 Z M 10.28125 -6.984375 "/></g></g></g><g fill="#000000" fill-opacity="1"><g transform="translate(168.021816, 392.392701)"><g><path d="M 15.71875 0 L 14.890625 -10.359375 L 14.78125 -10.359375 L 11.203125 -0.109375 L 8.828125 -0.109375 L 5.25 -10.359375 L 5.15625 -10.359375 L 4.328125 0 L 0.34375 0 L 1.90625 -17.484375 L 6.140625 -17.484375 L 10.015625 -7.390625 L 13.90625 -17.484375 L 18.140625 -17.484375 L 19.703125 0 Z M 15.71875 0 "/></g></g></g><g fill="#000000" fill-opacity="1"><g transform="translate(188.065119, 392.392701)"><g><path d="M 11.265625 -17.484375 L 11.265625 -13.984375 L 5.25 -13.984375 L 5.25 -10.515625 L 11.015625 -10.515625 L 11.015625 -7.015625 L 5.25 -7.015625 L 5.25 -3.5 L 11.265625 -3.5 L 11.265625 0 L 1.265625 0 L 1.265625 -17.484375 Z M 11.265625 -17.484375 "/></g></g></g><g fill="#000000" fill-opacity="1"><g transform="translate(76.449748, 516.538759)"><g><path d="M 1.265625 -17.484375 L 7.65625 -17.484375 C 9.425781 -17.484375 10.863281 -17.019531 11.96875 -16.09375 C 13.070312 -15.175781 13.625 -13.84375 13.625 -12.09375 C 13.625 -10.34375 13.066406 -8.96875 11.953125 -7.96875 C 10.835938 -6.976562 9.40625 -6.484375 7.65625 -6.484375 L 5.25 -6.484375 L 5.25 0 L 1.265625 0 Z M 5.25 -9.65625 L 6.375 -9.65625 C 7.269531 -9.65625 8 -9.832031 8.5625 -10.1875 C 9.132812 -10.550781 9.421875 -11.144531 9.421875 -11.96875 C 9.421875 -12.800781 9.132812 -13.394531 8.5625 -13.75 C 8 -14.113281 7.269531 -14.296875 6.375 -14.296875 L 5.25 -14.296875 Z M 5.25 -9.65625 "/></g></g></g><g fill="#000000" fill-opacity="1"><g transform="translate(90.560576, 516.538759)"><g><path d="M 10.15625 -17.484375 L 17.203125 0 L 12.921875 0 L 11.625 -3.5 L 4.984375 -3.5 L 3.6875 0 L -0.59375 0 L 6.46875 -17.484375 Z M 10.28125 -6.984375 L 8.328125 -12.078125 L 8.28125 -12.078125 L 6.328125 -6.984375 Z M 10.28125 -6.984375 "/></g></g></g><g fill="#000000" fill-opacity="1"><g transform="translate(107.171519, 516.538759)"><g><path d="M 7.71875 -17.796875 C 8.65625 -17.796875 9.578125 -17.65625 10.484375 -17.375 C 11.390625 -17.101562 12.0625 -16.832031 12.5 -16.5625 L 13.140625 -16.140625 L 11.53125 -12.96875 C 11.394531 -13.050781 11.210938 -13.160156 10.984375 -13.296875 C 10.765625 -13.429688 10.34375 -13.609375 9.71875 -13.828125 C 9.101562 -14.054688 8.523438 -14.171875 7.984375 -14.171875 C 7.316406 -14.171875 6.800781 -14.03125 6.4375 -13.75 C 6.082031 -13.46875 5.90625 -13.085938 5.90625 -12.609375 C 5.90625 -12.367188 5.988281 -12.144531 6.15625 -11.9375 C 6.332031 -11.726562 6.625 -11.507812 7.03125 -11.28125 C 7.445312 -11.050781 7.804688 -10.863281 8.109375 -10.71875 C 8.421875 -10.582031 8.90625 -10.367188 9.5625 -10.078125 C 10.6875 -9.597656 11.644531 -8.945312 12.4375 -8.125 C 13.238281 -7.300781 13.640625 -6.363281 13.640625 -5.3125 C 13.640625 -4.3125 13.457031 -3.4375 13.09375 -2.6875 C 12.738281 -1.9375 12.242188 -1.347656 11.609375 -0.921875 C 10.984375 -0.503906 10.289062 -0.195312 9.53125 0 C 8.769531 0.207031 7.945312 0.3125 7.0625 0.3125 C 6.289062 0.3125 5.535156 0.234375 4.796875 0.078125 C 4.066406 -0.0664062 3.453125 -0.253906 2.953125 -0.484375 C 2.460938 -0.722656 2.019531 -0.957031 1.625 -1.1875 C 1.226562 -1.414062 0.941406 -1.609375 0.765625 -1.765625 L 0.484375 -1.984375 L 2.484375 -5.34375 C 2.648438 -5.195312 2.878906 -5.015625 3.171875 -4.796875 C 3.472656 -4.578125 4 -4.285156 4.75 -3.921875 C 5.507812 -3.554688 6.179688 -3.375 6.765625 -3.375 C 8.441406 -3.375 9.28125 -3.941406 9.28125 -5.078125 C 9.28125 -5.316406 9.21875 -5.539062 9.09375 -5.75 C 8.976562 -5.957031 8.769531 -6.160156 8.46875 -6.359375 C 8.164062 -6.566406 7.894531 -6.726562 7.65625 -6.84375 C 7.425781 -6.96875 7.046875 -7.15625 6.515625 -7.40625 C 5.984375 -7.65625 5.59375 -7.84375 5.34375 -7.96875 C 4.28125 -8.488281 3.457031 -9.140625 2.875 -9.921875 C 2.300781 -10.710938 2.015625 -11.554688 2.015625 -12.453125 C 2.015625 -14.023438 2.59375 -15.304688 3.75 -16.296875 C 4.90625 -17.296875 6.226562 -17.796875 7.71875 -17.796875 Z M 7.71875 -17.796875 "/></g></g></g><g fill="#000000" fill-opacity="1"><g transform="translate(121.40947, 516.538759)"><g><path d="M 7.71875 -17.796875 C 8.65625 -17.796875 9.578125 -17.65625 10.484375 -17.375 C 11.390625 -17.101562 12.0625 -16.832031 12.5 -16.5625 L 13.140625 -16.140625 L 11.53125 -12.96875 C 11.394531 -13.050781 11.210938 -13.160156 10.984375 -13.296875 C 10.765625 -13.429688 10.34375 -13.609375 9.71875 -13.828125 C 9.101562 -14.054688 8.523438 -14.171875 7.984375 -14.171875 C 7.316406 -14.171875 6.800781 -14.03125 6.4375 -13.75 C 6.082031 -13.46875 5.90625 -13.085938 5.90625 -12.609375 C 5.90625 -12.367188 5.988281 -12.144531 6.15625 -11.9375 C 6.332031 -11.726562 6.625 -11.507812 7.03125 -11.28125 C 7.445312 -11.050781 7.804688 -10.863281 8.109375 -10.71875 C 8.421875 -10.582031 8.90625 -10.367188 9.5625 -10.078125 C 10.6875 -9.597656 11.644531 -8.945312 12.4375 -8.125 C 13.238281 -7.300781 13.640625 -6.363281 13.640625 -5.3125 C 13.640625 -4.3125 13.457031 -3.4375 13.09375 -2.6875 C 12.738281 -1.9375 12.242188 -1.347656 11.609375 -0.921875 C 10.984375 -0.503906 10.289062 -0.195312 9.53125 0 C 8.769531 0.207031 7.945312 0.3125 7.0625 0.3125 C 6.289062 0.3125 5.535156 0.234375 4.796875 0.078125 C 4.066406 -0.0664062 3.453125 -0.253906 2.953125 -0.484375 C 2.460938 -0.722656 2.019531 -0.957031 1.625 -1.1875 C 1.226562 -1.414062 0.941406 -1.609375 0.765625 -1.765625 L 0.484375 -1.984375 L 2.484375 -5.34375 C 2.648438 -5.195312 2.878906 -5.015625 3.171875 -4.796875 C 3.472656 -4.578125 4 -4.285156 4.75 -3.921875 C 5.507812 -3.554688 6.179688 -3.375 6.765625 -3.375 C 8.441406 -3.375 9.28125 -3.941406 9.28125 -5.078125 C 9.28125 -5.316406 9.21875 -5.539062 9.09375 -5.75 C 8.976562 -5.957031 8.769531 -6.160156 8.46875 -6.359375 C 8.164062 -6.566406 7.894531 -6.726562 7.65625 -6.84375 C 7.425781 -6.96875 7.046875 -7.15625 6.515625 -7.40625 C 5.984375 -7.65625 5.59375 -7.84375 5.34375 -7.96875 C 4.28125 -8.488281 3.457031 -9.140625 2.875 -9.921875 C 2.300781 -10.710938 2.015625 -11.554688 2.015625 -12.453125 C 2.015625 -14.023438 2.59375 -15.304688 3.75 -16.296875 C 4.90625 -17.296875 6.226562 -17.796875 7.71875 -17.796875 Z M 7.71875 -17.796875 "/></g></g></g><g fill="#000000" fill-opacity="1"><g transform="translate(135.647422, 516.538759)"><g><path d="M 14.6875 0 L 11.890625 -9.8125 L 9.09375 0 L 4.65625 0 L -0.3125 -17.484375 L 4.109375 -17.484375 L 7.09375 -5.484375 L 7.203125 -5.484375 L 10.375 -17.484375 L 13.390625 -17.484375 L 16.5625 -5.484375 L 16.671875 -5.484375 L 19.65625 -17.484375 L 24.0625 -17.484375 L 19.09375 0 Z M 14.6875 0 "/></g></g></g><g fill="#000000" fill-opacity="1"><g transform="translate(159.398526, 516.538759)"><g><path d="M 0.484375 -8.75 C 0.484375 -11.28125 1.34375 -13.421875 3.0625 -15.171875 C 4.789062 -16.921875 6.867188 -17.796875 9.296875 -17.796875 C 11.742188 -17.796875 13.820312 -16.921875 15.53125 -15.171875 C 17.238281 -13.429688 18.09375 -11.289062 18.09375 -8.75 C 18.09375 -6.195312 17.25 -4.046875 15.5625 -2.296875 C 13.882812 -0.554688 11.796875 0.3125 9.296875 0.3125 C 6.742188 0.3125 4.632812 -0.550781 2.96875 -2.28125 C 1.3125 -4.007812 0.484375 -6.164062 0.484375 -8.75 Z M 4.78125 -8.75 C 4.78125 -7.832031 4.921875 -6.992188 5.203125 -6.234375 C 5.492188 -5.484375 5.988281 -4.84375 6.6875 -4.3125 C 7.394531 -3.789062 8.265625 -3.53125 9.296875 -3.53125 C 10.785156 -3.53125 11.90625 -4.039062 12.65625 -5.0625 C 13.414062 -6.082031 13.796875 -7.3125 13.796875 -8.75 C 13.796875 -10.175781 13.410156 -11.398438 12.640625 -12.421875 C 11.867188 -13.453125 10.753906 -13.96875 9.296875 -13.96875 C 7.859375 -13.96875 6.742188 -13.453125 5.953125 -12.421875 C 5.171875 -11.398438 4.78125 -10.175781 4.78125 -8.75 Z M 4.78125 -8.75 "/></g></g></g><g fill="#000000" fill-opacity="1"><g transform="translate(177.979896, 516.538759)"><g><path d="M 1.265625 -17.484375 L 7.515625 -17.484375 C 9.203125 -17.484375 10.570312 -17.03125 11.625 -16.125 C 12.6875 -15.226562 13.21875 -13.945312 13.21875 -12.28125 C 13.21875 -11 12.894531 -9.921875 12.25 -9.046875 C 11.613281 -8.179688 10.742188 -7.570312 9.640625 -7.21875 L 15.65625 0 L 10.59375 0 L 5.25 -6.90625 L 5.25 0 L 1.265625 0 Z M 5.25 -9.71875 L 5.71875 -9.71875 C 6.082031 -9.71875 6.390625 -9.722656 6.640625 -9.734375 C 6.898438 -9.753906 7.191406 -9.804688 7.515625 -9.890625 C 7.847656 -9.972656 8.113281 -10.09375 8.3125 -10.25 C 8.507812 -10.40625 8.675781 -10.628906 8.8125 -10.921875 C 8.957031 -11.222656 9.03125 -11.585938 9.03125 -12.015625 C 9.03125 -12.441406 8.957031 -12.800781 8.8125 -13.09375 C 8.675781 -13.382812 8.507812 -13.609375 8.3125 -13.765625 C 8.113281 -13.921875 7.847656 -14.039062 7.515625 -14.125 C 7.191406 -14.21875 6.898438 -14.269531 6.640625 -14.28125 C 6.390625 -14.289062 6.082031 -14.296875 5.71875 -14.296875 L 5.25 -14.296875 Z M 5.25 -9.71875 "/></g></g></g><g fill="#000000" fill-opacity="1"><g transform="translate(193.150092, 516.538759)"><g><path d="M 1.265625 -17.484375 L 6.328125 -17.484375 C 8.765625 -17.484375 10.84375 -16.648438 12.5625 -14.984375 C 14.289062 -13.328125 15.15625 -11.25 15.15625 -8.75 C 15.15625 -6.238281 14.296875 -4.148438 12.578125 -2.484375 C 10.859375 -0.828125 8.773438 0 6.328125 0 L 1.265625 0 Z M 5.25 -3.5625 L 5.875 -3.5625 C 7.320312 -3.5625 8.507812 -4.050781 9.4375 -5.03125 C 10.363281 -6.007812 10.832031 -7.242188 10.84375 -8.734375 C 10.84375 -10.210938 10.378906 -11.445312 9.453125 -12.4375 C 8.535156 -13.425781 7.34375 -13.921875 5.875 -13.921875 L 5.25 -13.921875 Z M 5.25 -3.5625 "/></g></g></g></svg>