<svg xmlns="http://www.w3.org/2000/svg" xmlns:xlink="http://www.w3.org/1999/xlink" width="818" zoomAndPan="magnify" viewBox="0 0 613.5 713.249978" height="951" preserveAspectRatio="xMidYMid meet" version="1.0"><defs><g/><clipPath id="161f293352"><path d="M 0.523438 47.679688 L 612.929688 47.679688 L 612.929688 712.402344 L 0.523438 712.402344 Z M 0.523438 47.679688 " clip-rule="nonzero"/></clipPath><clipPath id="9cc1d63b81"><path d="M 38.765625 47.679688 L 575.128906 47.679688 C 585.269531 47.679688 594.996094 51.707031 602.167969 58.878906 C 609.339844 66.050781 613.367188 75.777344 613.367188 85.921875 L 613.367188 674.160156 C 613.367188 684.304688 609.339844 694.03125 602.167969 701.203125 C 594.996094 708.375 585.269531 712.402344 575.128906 712.402344 L 38.765625 712.402344 C 28.625 712.402344 18.898438 708.375 11.726562 701.203125 C 4.554688 694.03125 0.523438 684.304688 0.523438 674.160156 L 0.523438 85.921875 C 0.523438 75.777344 4.554688 66.050781 11.726562 58.878906 C 18.898438 51.707031 28.625 47.679688 38.765625 47.679688 Z M 38.765625 47.679688 " clip-rule="nonzero"/></clipPath><clipPath id="be95506ab5"><path d="M 340.671875 0.621094 L 544.246094 0.621094 L 544.246094 204.195312 L 340.671875 204.195312 Z M 340.671875 0.621094 " clip-rule="nonzero"/></clipPath><clipPath id="46ecd1d627"><path d="M 378.914062 0.621094 L 506.003906 0.621094 C 516.148438 0.621094 525.875 4.652344 533.046875 11.824219 C 540.21875 18.996094 544.246094 28.722656 544.246094 38.863281 L 544.246094 165.953125 C 544.246094 176.097656 540.21875 185.824219 533.046875 192.996094 C 525.875 200.164062 516.148438 204.195312 506.003906 204.195312 L 378.914062 204.195312 C 368.773438 204.195312 359.046875 200.164062 351.875 192.996094 C 344.703125 185.824219 340.671875 176.097656 340.671875 165.953125 L 340.671875 38.863281 C 340.671875 28.722656 344.703125 18.996094 351.875 11.824219 C 359.046875 4.652344 368.773438 0.621094 378.914062 0.621094 Z M 378.914062 0.621094 " clip-rule="nonzero"/></clipPath><clipPath id="e3a3c38ac2"><path d="M 38.410156 289.792969 L 544.246094 289.792969 L 544.246094 380.039062 L 38.410156 380.039062 Z M 38.410156 289.792969 " clip-rule="nonzero"/></clipPath><clipPath id="827e7598c8"><path d="M 76.652344 289.792969 L 506.003906 289.792969 C 527.125 289.792969 544.246094 306.914062 544.246094 328.03125 L 544.246094 341.800781 C 544.246094 362.917969 527.125 380.039062 506.003906 380.039062 L 76.652344 380.039062 C 55.53125 380.039062 38.410156 362.917969 38.410156 341.800781 L 38.410156 328.03125 C 38.410156 306.914062 55.53125 289.792969 76.652344 289.792969 Z M 76.652344 289.792969 " clip-rule="nonzero"/></clipPath><clipPath id="55f0661bbd"><path d="M 38.410156 395.375 L 544.246094 395.375 L 544.246094 485.625 L 38.410156 485.625 Z M 38.410156 395.375 " clip-rule="nonzero"/></clipPath><clipPath id="d2a88dc791"><path d="M 76.652344 395.375 L 506.003906 395.375 C 527.125 395.375 544.246094 412.496094 544.246094 433.617188 L 544.246094 447.382812 C 544.246094 468.503906 527.125 485.625 506.003906 485.625 L 76.652344 485.625 C 55.53125 485.625 38.410156 468.503906 38.410156 447.382812 L 38.410156 433.617188 C 38.410156 412.496094 55.53125 395.375 76.652344 395.375 Z M 76.652344 395.375 " clip-rule="nonzero"/></clipPath></defs><g clip-path="url(#161f293352)"><g clip-path="url(#9cc1d63b81)"><path fill="#ffffff" d="M 0.523438 47.679688 L 613.367188 47.679688 L 613.367188 712.402344 L 0.523438 712.402344 Z M 0.523438 47.679688 " fill-opacity="1" fill-rule="nonzero"/></g></g><g clip-path="url(#be95506ab5)"><g clip-path="url(#46ecd1d627)"><path fill="#d0d0d1" d="M 340.671875 0.621094 L 544.246094 0.621094 L 544.246094 204.195312 L 340.671875 204.195312 Z M 340.671875 0.621094 " fill-opacity="1" fill-rule="nonzero"/></g></g><g clip-path="url(#e3a3c38ac2)"><g clip-path="url(#827e7598c8)"><path fill="#afc2c6" d="M 38.410156 289.792969 L 544.246094 289.792969 L 544.246094 380.039062 L 38.410156 380.039062 Z M 38.410156 289.792969 " fill-opacity="1" fill-rule="nonzero"/></g></g><g clip-path="url(#55f0661bbd)"><g clip-path="url(#d2a88dc791)"><path fill="#afc2c6" d="M 38.410156 395.375 L 544.246094 395.375 L 544.246094 485.625 L 38.410156 485.625 Z M 38.410156 395.375 " fill-opacity="1" fill-rule="nonzero"/></g></g><g fill="#000000" fill-opacity="1"><g transform="translate(38.411085, 255.548717)"><g><path d="M 3.3125 0 L 1.71875 0 C 1.476562 0 1.359375 -0.113281 1.359375 -0.34375 L 1.359375 -6.953125 C 1.359375 -7.203125 1.476562 -7.328125 1.71875 -7.328125 L 3.5 -7.328125 C 3.726562 -7.328125 3.84375 -7.203125 3.84375 -6.953125 L 3.84375 -6.359375 C 3.84375 -6.003906 4.054688 -5.53125 4.484375 -4.9375 C 4.921875 -4.34375 5.359375 -3.851562 5.796875 -3.46875 C 6.234375 -3.09375 6.8125 -2.769531 7.53125 -2.5 C 8.257812 -2.226562 9.046875 -2.09375 9.890625 -2.09375 C 11.347656 -2.09375 12.484375 -2.394531 13.296875 -3 C 14.117188 -3.601562 14.53125 -4.441406 14.53125 -5.515625 C 14.53125 -6.140625 14.300781 -6.671875 13.84375 -7.109375 C 13.382812 -7.554688 12.785156 -7.910156 12.046875 -8.171875 C 11.304688 -8.429688 10.488281 -8.675781 9.59375 -8.90625 C 8.707031 -9.132812 7.816406 -9.394531 6.921875 -9.6875 C 6.023438 -9.976562 5.207031 -10.328125 4.46875 -10.734375 C 3.726562 -11.140625 3.128906 -11.703125 2.671875 -12.421875 C 2.210938 -13.148438 1.984375 -14.003906 1.984375 -14.984375 C 1.984375 -16.566406 2.582031 -17.875 3.78125 -18.90625 C 4.976562 -19.945312 6.582031 -20.46875 8.59375 -20.46875 C 11.144531 -20.46875 13.015625 -19.722656 14.203125 -18.234375 L 14.140625 -20 C 14.140625 -20.21875 14.265625 -20.328125 14.515625 -20.328125 L 16.09375 -20.328125 C 16.320312 -20.328125 16.4375 -20.21875 16.4375 -20 L 16.4375 -13.828125 C 16.4375 -13.597656 16.320312 -13.484375 16.09375 -13.484375 L 14.3125 -13.484375 C 14.082031 -13.484375 13.96875 -13.597656 13.96875 -13.828125 L 13.96875 -14.625 C 13.96875 -15.394531 13.535156 -16.175781 12.671875 -16.96875 C 11.804688 -17.757812 10.535156 -18.15625 8.859375 -18.15625 C 7.609375 -18.15625 6.597656 -17.859375 5.828125 -17.265625 C 5.066406 -16.671875 4.6875 -15.910156 4.6875 -14.984375 C 4.6875 -14.328125 4.921875 -13.757812 5.390625 -13.28125 C 5.867188 -12.8125 6.484375 -12.4375 7.234375 -12.15625 C 7.992188 -11.875 8.828125 -11.613281 9.734375 -11.375 C 10.640625 -11.144531 11.539062 -10.890625 12.4375 -10.609375 C 13.34375 -10.328125 14.171875 -9.988281 14.921875 -9.59375 C 15.679688 -9.195312 16.296875 -8.648438 16.765625 -7.953125 C 17.242188 -7.265625 17.484375 -6.453125 17.484375 -5.515625 C 17.484375 -3.859375 16.890625 -2.488281 15.703125 -1.40625 C 14.515625 -0.332031 12.738281 0.203125 10.375 0.203125 C 8.644531 0.203125 7.210938 -0.144531 6.078125 -0.84375 C 4.953125 -1.539062 4.132812 -2.296875 3.625 -3.109375 L 3.640625 -0.34375 C 3.640625 -0.113281 3.53125 0 3.3125 0 Z M 3.3125 0 "/></g></g></g><g fill="#000000" fill-opacity="1"><g transform="translate(57.241565, 255.548717)"><g><path d="M 6.84375 0 L 1.4375 0 C 1.195312 0 1.078125 -0.113281 1.078125 -0.34375 L 1.078125 -1.5625 C 1.078125 -1.78125 1.195312 -1.890625 1.4375 -1.890625 L 3 -1.890625 L 3 -12.015625 L 1.4375 -12.015625 C 1.195312 -12.015625 1.078125 -12.128906 1.078125 -12.359375 L 1.078125 -13.578125 C 1.078125 -13.804688 1.195312 -13.921875 1.4375 -13.921875 L 5 -13.921875 C 5.226562 -13.921875 5.34375 -13.804688 5.34375 -13.578125 L 5.34375 -1.890625 L 6.84375 -1.890625 C 7.09375 -1.890625 7.21875 -1.78125 7.21875 -1.5625 L 7.21875 -0.34375 C 7.21875 -0.113281 7.09375 0 6.84375 0 Z M 5.25 -18.09375 C 5.5625 -17.78125 5.71875 -17.40625 5.71875 -16.96875 C 5.71875 -16.53125 5.5625 -16.160156 5.25 -15.859375 C 4.9375 -15.554688 4.5625 -15.40625 4.125 -15.40625 C 3.695312 -15.40625 3.328125 -15.554688 3.015625 -15.859375 C 2.703125 -16.160156 2.546875 -16.53125 2.546875 -16.96875 C 2.546875 -17.40625 2.703125 -17.78125 3.015625 -18.09375 C 3.328125 -18.414062 3.695312 -18.578125 4.125 -18.578125 C 4.5625 -18.578125 4.9375 -18.414062 5.25 -18.09375 Z M 5.25 -18.09375 "/></g></g></g><g fill="#000000" fill-opacity="1"><g transform="translate(65.52585, 255.548717)"><g><path d="M 7.578125 6.625 C 6.640625 6.625 5.925781 6.554688 5.4375 6.421875 C 4.957031 6.285156 4.570312 6.164062 4.28125 6.0625 C 3.988281 5.957031 3.738281 5.851562 3.53125 5.75 C 3.320312 5.644531 3.125 5.539062 2.9375 5.4375 C 2.113281 4.882812 1.804688 4.484375 2.015625 4.234375 L 2.75 3.203125 C 2.851562 3.023438 3.007812 3.015625 3.21875 3.171875 C 3.238281 3.171875 3.300781 3.210938 3.40625 3.296875 C 3.507812 3.378906 3.613281 3.457031 3.71875 3.53125 C 3.820312 3.601562 3.960938 3.691406 4.140625 3.796875 C 4.316406 3.898438 4.519531 3.992188 4.75 4.078125 C 4.976562 4.171875 5.222656 4.253906 5.484375 4.328125 C 6.109375 4.492188 6.796875 4.578125 7.546875 4.578125 C 8.910156 4.578125 10 4.25 10.8125 3.59375 C 11.632812 2.945312 12.046875 1.925781 12.046875 0.53125 L 12.046875 -2.6875 C 11.703125 -1.894531 11.140625 -1.210938 10.359375 -0.640625 C 9.578125 -0.078125 8.601562 0.203125 7.4375 0.203125 C 5.507812 0.203125 3.96875 -0.460938 2.8125 -1.796875 C 1.65625 -3.140625 1.078125 -4.875 1.078125 -7 C 1.078125 -9.132812 1.664062 -10.851562 2.84375 -12.15625 C 4.019531 -13.457031 5.550781 -14.109375 7.4375 -14.109375 C 8.601562 -14.109375 9.585938 -13.835938 10.390625 -13.296875 C 11.191406 -12.765625 11.769531 -12.113281 12.125 -11.34375 L 12.1875 -11.34375 L 12.15625 -13.578125 C 12.15625 -13.804688 12.269531 -13.921875 12.5 -13.921875 L 15.84375 -13.921875 C 16.0625 -13.921875 16.171875 -13.804688 16.171875 -13.578125 L 16.171875 -12.359375 C 16.171875 -12.128906 16.0625 -12.015625 15.84375 -12.015625 L 14.3125 -12.015625 L 14.3125 0.53125 C 14.3125 2.550781 13.691406 4.070312 12.453125 5.09375 C 11.222656 6.113281 9.597656 6.625 7.578125 6.625 Z M 3.390625 -6.96875 C 3.390625 -5.414062 3.800781 -4.160156 4.625 -3.203125 C 5.457031 -2.253906 6.492188 -1.78125 7.734375 -1.78125 C 8.984375 -1.78125 10.019531 -2.25 10.84375 -3.1875 C 11.664062 -4.132812 12.078125 -5.398438 12.078125 -6.984375 C 12.078125 -8.566406 11.664062 -9.816406 10.84375 -10.734375 C 10.019531 -11.660156 8.984375 -12.125 7.734375 -12.125 C 6.492188 -12.125 5.457031 -11.648438 4.625 -10.703125 C 3.800781 -9.765625 3.390625 -8.519531 3.390625 -6.96875 Z M 3.390625 -6.96875 "/></g></g></g><g fill="#000000" fill-opacity="1"><g transform="translate(82.801259, 255.548717)"><g><path d="M 16.125 0 L 13.4375 0 C 12.625 0 12.21875 -0.394531 12.21875 -1.1875 L 12.21875 -8.625 C 12.21875 -9.71875 11.953125 -10.566406 11.421875 -11.171875 C 10.898438 -11.773438 10.128906 -12.078125 9.109375 -12.078125 C 7.648438 -12.078125 6.519531 -11.484375 5.71875 -10.296875 C 5.625 -10.179688 5.5 -9.972656 5.34375 -9.671875 L 5.34375 -1.890625 L 6.84375 -1.890625 C 7.09375 -1.890625 7.21875 -1.78125 7.21875 -1.5625 L 7.21875 -0.34375 C 7.21875 -0.113281 7.09375 0 6.84375 0 L 1.4375 0 C 1.195312 0 1.078125 -0.113281 1.078125 -0.34375 L 1.078125 -1.5625 C 1.078125 -1.78125 1.195312 -1.890625 1.4375 -1.890625 L 3 -1.890625 L 3 -12.015625 L 1.4375 -12.015625 C 1.195312 -12.015625 1.078125 -12.128906 1.078125 -12.359375 L 1.078125 -13.578125 C 1.078125 -13.804688 1.195312 -13.921875 1.4375 -13.921875 L 4.75 -13.921875 C 5 -13.921875 5.125 -13.804688 5.125 -13.578125 L 5.0625 -11.65625 L 5.140625 -11.65625 C 6.128906 -13.289062 7.648438 -14.109375 9.703125 -14.109375 C 11.210938 -14.109375 12.390625 -13.664062 13.234375 -12.78125 C 14.085938 -11.894531 14.519531 -10.695312 14.53125 -9.1875 L 14.53125 -1.890625 L 16.125 -1.890625 C 16.363281 -1.890625 16.484375 -1.78125 16.484375 -1.5625 L 16.484375 -0.34375 C 16.484375 -0.113281 16.363281 0 16.125 0 Z M 16.125 0 "/></g></g></g><g fill="#000000" fill-opacity="1"><g transform="translate(100.359414, 255.548717)"><g/></g></g><g fill="#000000" fill-opacity="1"><g transform="translate(109.209174, 255.548717)"><g><path d="M 6.84375 0 L 1.4375 0 C 1.195312 0 1.078125 -0.113281 1.078125 -0.34375 L 1.078125 -1.5625 C 1.078125 -1.78125 1.195312 -1.890625 1.4375 -1.890625 L 3 -1.890625 L 3 -12.015625 L 1.4375 -12.015625 C 1.195312 -12.015625 1.078125 -12.128906 1.078125 -12.359375 L 1.078125 -13.578125 C 1.078125 -13.804688 1.195312 -13.921875 1.4375 -13.921875 L 5 -13.921875 C 5.226562 -13.921875 5.34375 -13.804688 5.34375 -13.578125 L 5.34375 -1.890625 L 6.84375 -1.890625 C 7.09375 -1.890625 7.21875 -1.78125 7.21875 -1.5625 L 7.21875 -0.34375 C 7.21875 -0.113281 7.09375 0 6.84375 0 Z M 5.25 -18.09375 C 5.5625 -17.78125 5.71875 -17.40625 5.71875 -16.96875 C 5.71875 -16.53125 5.5625 -16.160156 5.25 -15.859375 C 4.9375 -15.554688 4.5625 -15.40625 4.125 -15.40625 C 3.695312 -15.40625 3.328125 -15.554688 3.015625 -15.859375 C 2.703125 -16.160156 2.546875 -16.53125 2.546875 -16.96875 C 2.546875 -17.40625 2.703125 -17.78125 3.015625 -18.09375 C 3.328125 -18.414062 3.695312 -18.578125 4.125 -18.578125 C 4.5625 -18.578125 4.9375 -18.414062 5.25 -18.09375 Z M 5.25 -18.09375 "/></g></g></g><g fill="#000000" fill-opacity="1"><g transform="translate(117.493459, 255.548717)"><g><path d="M 16.125 0 L 13.4375 0 C 12.625 0 12.21875 -0.394531 12.21875 -1.1875 L 12.21875 -8.625 C 12.21875 -9.71875 11.953125 -10.566406 11.421875 -11.171875 C 10.898438 -11.773438 10.128906 -12.078125 9.109375 -12.078125 C 7.648438 -12.078125 6.519531 -11.484375 5.71875 -10.296875 C 5.625 -10.179688 5.5 -9.972656 5.34375 -9.671875 L 5.34375 -1.890625 L 6.84375 -1.890625 C 7.09375 -1.890625 7.21875 -1.78125 7.21875 -1.5625 L 7.21875 -0.34375 C 7.21875 -0.113281 7.09375 0 6.84375 0 L 1.4375 0 C 1.195312 0 1.078125 -0.113281 1.078125 -0.34375 L 1.078125 -1.5625 C 1.078125 -1.78125 1.195312 -1.890625 1.4375 -1.890625 L 3 -1.890625 L 3 -12.015625 L 1.4375 -12.015625 C 1.195312 -12.015625 1.078125 -12.128906 1.078125 -12.359375 L 1.078125 -13.578125 C 1.078125 -13.804688 1.195312 -13.921875 1.4375 -13.921875 L 4.75 -13.921875 C 5 -13.921875 5.125 -13.804688 5.125 -13.578125 L 5.0625 -11.65625 L 5.140625 -11.65625 C 6.128906 -13.289062 7.648438 -14.109375 9.703125 -14.109375 C 11.210938 -14.109375 12.390625 -13.664062 13.234375 -12.78125 C 14.085938 -11.894531 14.519531 -10.695312 14.53125 -9.1875 L 14.53125 -1.890625 L 16.125 -1.890625 C 16.363281 -1.890625 16.484375 -1.78125 16.484375 -1.5625 L 16.484375 -0.34375 C 16.484375 -0.113281 16.363281 0 16.125 0 Z M 16.125 0 "/></g></g></g><g fill="#000000" fill-opacity="1"><g transform="translate(135.051615, 255.548717)"><g/></g></g><g fill="#000000" fill-opacity="1"><g transform="translate(143.901375, 255.548717)"><g><path d="M 10.515625 -1.4375 C 10.597656 -1.363281 10.640625 -1.285156 10.640625 -1.203125 C 10.640625 -1.117188 10.582031 -1.019531 10.46875 -0.90625 C 9.632812 -0.164062 8.585938 0.203125 7.328125 0.203125 C 6.078125 0.203125 5.050781 -0.207031 4.25 -1.03125 C 3.445312 -1.851562 3.046875 -3.046875 3.046875 -4.609375 L 3.046875 -12.015625 L 1.46875 -12.015625 C 1.207031 -12.015625 1.078125 -12.140625 1.078125 -12.390625 L 1.078125 -13.546875 C 1.078125 -13.796875 1.207031 -13.921875 1.46875 -13.921875 L 3.046875 -13.921875 L 3.046875 -16.765625 C 3.046875 -17.035156 3.179688 -17.171875 3.453125 -17.171875 L 5.03125 -17.171875 C 5.28125 -17.171875 5.40625 -17.035156 5.40625 -16.765625 L 5.40625 -13.921875 L 9 -13.921875 C 9.257812 -13.921875 9.390625 -13.796875 9.390625 -13.546875 L 9.390625 -12.390625 C 9.390625 -12.140625 9.257812 -12.015625 9 -12.015625 L 5.40625 -12.015625 L 5.40625 -4.671875 C 5.40625 -3.722656 5.613281 -3.007812 6.03125 -2.53125 C 6.457031 -2.050781 7.023438 -1.8125 7.734375 -1.8125 C 8.441406 -1.8125 8.972656 -1.988281 9.328125 -2.34375 C 9.515625 -2.519531 9.6875 -2.507812 9.84375 -2.3125 Z M 10.515625 -1.4375 "/></g></g></g><g fill="#000000" fill-opacity="1"><g transform="translate(155.239247, 255.548717)"><g><path d="M 13.171875 -1.78125 C 11.859375 -0.457031 10.171875 0.203125 8.109375 0.203125 C 6.054688 0.203125 4.367188 -0.453125 3.046875 -1.765625 C 1.734375 -3.078125 1.078125 -4.820312 1.078125 -7 C 1.078125 -9.175781 1.742188 -10.90625 3.078125 -12.1875 C 4.421875 -13.46875 6.101562 -14.109375 8.125 -14.109375 C 10.15625 -14.109375 11.832031 -13.460938 13.15625 -12.171875 C 14.488281 -10.878906 15.15625 -9.15625 15.15625 -7 C 15.15625 -4.84375 14.492188 -3.101562 13.171875 -1.78125 Z M 3.453125 -6.984375 C 3.453125 -5.441406 3.90625 -4.1875 4.8125 -3.21875 C 5.71875 -2.257812 6.820312 -1.78125 8.125 -1.78125 C 9.4375 -1.78125 10.546875 -2.257812 11.453125 -3.21875 C 12.359375 -4.1875 12.8125 -5.441406 12.8125 -6.984375 C 12.8125 -8.523438 12.351562 -9.765625 11.4375 -10.703125 C 10.519531 -11.648438 9.421875 -12.125 8.140625 -12.125 C 6.859375 -12.125 5.753906 -11.648438 4.828125 -10.703125 C 3.910156 -9.765625 3.453125 -8.523438 3.453125 -6.984375 Z M 3.453125 -6.984375 "/></g></g></g><g fill="#000000" fill-opacity="1"><g transform="translate(171.496796, 255.548717)"><g/></g></g><g fill="#000000" fill-opacity="1"><g transform="translate(180.346556, 255.548717)"><g><path d="M 13.96875 -3.28125 C 14.082031 -3.1875 14.140625 -3.097656 14.140625 -3.015625 C 14.140625 -2.929688 14.097656 -2.816406 14.015625 -2.671875 C 13.929688 -2.523438 13.75 -2.3125 13.46875 -2.03125 C 13.195312 -1.75 12.820312 -1.425781 12.34375 -1.0625 C 11.863281 -0.707031 11.238281 -0.40625 10.46875 -0.15625 C 9.707031 0.0820312 8.894531 0.203125 8.03125 0.203125 C 6.050781 0.203125 4.394531 -0.445312 3.0625 -1.75 C 1.738281 -3.050781 1.078125 -4.800781 1.078125 -7 C 1.078125 -9.195312 1.738281 -10.929688 3.0625 -12.203125 C 4.394531 -13.472656 6.019531 -14.109375 7.9375 -14.109375 C 9.863281 -14.109375 11.316406 -13.410156 12.296875 -12.015625 L 12.328125 -12.015625 L 12.296875 -13.578125 C 12.296875 -13.816406 12.421875 -13.9375 12.671875 -13.9375 L 13.75 -13.9375 C 13.96875 -13.9375 14.078125 -13.816406 14.078125 -13.578125 L 14.078125 -8.765625 C 14.078125 -8.535156 13.96875 -8.421875 13.75 -8.421875 L 12.4375 -8.421875 C 12.21875 -8.421875 12.109375 -8.535156 12.109375 -8.765625 L 12.109375 -9.25 C 12.085938 -9.925781 11.695312 -10.570312 10.9375 -11.1875 C 10.1875 -11.8125 9.226562 -12.125 8.0625 -12.125 C 6.90625 -12.125 5.847656 -11.660156 4.890625 -10.734375 C 3.929688 -9.816406 3.453125 -8.5625 3.453125 -6.96875 C 3.453125 -5.375 3.921875 -4.109375 4.859375 -3.171875 C 5.804688 -2.242188 6.863281 -1.78125 8.03125 -1.78125 C 9.195312 -1.78125 10.191406 -2.03125 11.015625 -2.53125 C 11.835938 -3.03125 12.390625 -3.515625 12.671875 -3.984375 C 12.804688 -4.210938 12.96875 -4.242188 13.15625 -4.078125 Z M 13.96875 -3.28125 "/></g></g></g><g fill="#000000" fill-opacity="1"><g transform="translate(195.586237, 255.548717)"><g><path d="M 13.171875 -1.78125 C 11.859375 -0.457031 10.171875 0.203125 8.109375 0.203125 C 6.054688 0.203125 4.367188 -0.453125 3.046875 -1.765625 C 1.734375 -3.078125 1.078125 -4.820312 1.078125 -7 C 1.078125 -9.175781 1.742188 -10.90625 3.078125 -12.1875 C 4.421875 -13.46875 6.101562 -14.109375 8.125 -14.109375 C 10.15625 -14.109375 11.832031 -13.460938 13.15625 -12.171875 C 14.488281 -10.878906 15.15625 -9.15625 15.15625 -7 C 15.15625 -4.84375 14.492188 -3.101562 13.171875 -1.78125 Z M 3.453125 -6.984375 C 3.453125 -5.441406 3.90625 -4.1875 4.8125 -3.21875 C 5.71875 -2.257812 6.820312 -1.78125 8.125 -1.78125 C 9.4375 -1.78125 10.546875 -2.257812 11.453125 -3.21875 C 12.359375 -4.1875 12.8125 -5.441406 12.8125 -6.984375 C 12.8125 -8.523438 12.351562 -9.765625 11.4375 -10.703125 C 10.519531 -11.648438 9.421875 -12.125 8.140625 -12.125 C 6.859375 -12.125 5.753906 -11.648438 4.828125 -10.703125 C 3.910156 -9.765625 3.453125 -8.523438 3.453125 -6.984375 Z M 3.453125 -6.984375 "/></g></g></g><g fill="#000000" fill-opacity="1"><g transform="translate(211.843777, 255.548717)"><g><path d="M 16.125 0 L 13.4375 0 C 12.625 0 12.21875 -0.394531 12.21875 -1.1875 L 12.21875 -8.625 C 12.21875 -9.71875 11.953125 -10.566406 11.421875 -11.171875 C 10.898438 -11.773438 10.128906 -12.078125 9.109375 -12.078125 C 7.648438 -12.078125 6.519531 -11.484375 5.71875 -10.296875 C 5.625 -10.179688 5.5 -9.972656 5.34375 -9.671875 L 5.34375 -1.890625 L 6.84375 -1.890625 C 7.09375 -1.890625 7.21875 -1.78125 7.21875 -1.5625 L 7.21875 -0.34375 C 7.21875 -0.113281 7.09375 0 6.84375 0 L 1.4375 0 C 1.195312 0 1.078125 -0.113281 1.078125 -0.34375 L 1.078125 -1.5625 C 1.078125 -1.78125 1.195312 -1.890625 1.4375 -1.890625 L 3 -1.890625 L 3 -12.015625 L 1.4375 -12.015625 C 1.195312 -12.015625 1.078125 -12.128906 1.078125 -12.359375 L 1.078125 -13.578125 C 1.078125 -13.804688 1.195312 -13.921875 1.4375 -13.921875 L 4.75 -13.921875 C 5 -13.921875 5.125 -13.804688 5.125 -13.578125 L 5.0625 -11.65625 L 5.140625 -11.65625 C 6.128906 -13.289062 7.648438 -14.109375 9.703125 -14.109375 C 11.210938 -14.109375 12.390625 -13.664062 13.234375 -12.78125 C 14.085938 -11.894531 14.519531 -10.695312 14.53125 -9.1875 L 14.53125 -1.890625 L 16.125 -1.890625 C 16.363281 -1.890625 16.484375 -1.78125 16.484375 -1.5625 L 16.484375 -0.34375 C 16.484375 -0.113281 16.363281 0 16.125 0 Z M 16.125 0 "/></g></g></g><g fill="#000000" fill-opacity="1"><g transform="translate(229.401942, 255.548717)"><g><path d="M 10.515625 -1.4375 C 10.597656 -1.363281 10.640625 -1.285156 10.640625 -1.203125 C 10.640625 -1.117188 10.582031 -1.019531 10.46875 -0.90625 C 9.632812 -0.164062 8.585938 0.203125 7.328125 0.203125 C 6.078125 0.203125 5.050781 -0.207031 4.25 -1.03125 C 3.445312 -1.851562 3.046875 -3.046875 3.046875 -4.609375 L 3.046875 -12.015625 L 1.46875 -12.015625 C 1.207031 -12.015625 1.078125 -12.140625 1.078125 -12.390625 L 1.078125 -13.546875 C 1.078125 -13.796875 1.207031 -13.921875 1.46875 -13.921875 L 3.046875 -13.921875 L 3.046875 -16.765625 C 3.046875 -17.035156 3.179688 -17.171875 3.453125 -17.171875 L 5.03125 -17.171875 C 5.28125 -17.171875 5.40625 -17.035156 5.40625 -16.765625 L 5.40625 -13.921875 L 9 -13.921875 C 9.257812 -13.921875 9.390625 -13.796875 9.390625 -13.546875 L 9.390625 -12.390625 C 9.390625 -12.140625 9.257812 -12.015625 9 -12.015625 L 5.40625 -12.015625 L 5.40625 -4.671875 C 5.40625 -3.722656 5.613281 -3.007812 6.03125 -2.53125 C 6.457031 -2.050781 7.023438 -1.8125 7.734375 -1.8125 C 8.441406 -1.8125 8.972656 -1.988281 9.328125 -2.34375 C 9.515625 -2.519531 9.6875 -2.507812 9.84375 -2.3125 Z M 10.515625 -1.4375 "/></g></g></g><g fill="#000000" fill-opacity="1"><g transform="translate(240.739824, 255.548717)"><g><path d="M 6.84375 0 L 1.4375 0 C 1.195312 0 1.078125 -0.113281 1.078125 -0.34375 L 1.078125 -1.5625 C 1.078125 -1.78125 1.195312 -1.890625 1.4375 -1.890625 L 3 -1.890625 L 3 -12.015625 L 1.4375 -12.015625 C 1.195312 -12.015625 1.078125 -12.128906 1.078125 -12.359375 L 1.078125 -13.578125 C 1.078125 -13.804688 1.195312 -13.921875 1.4375 -13.921875 L 5 -13.921875 C 5.226562 -13.921875 5.34375 -13.804688 5.34375 -13.578125 L 5.34375 -1.890625 L 6.84375 -1.890625 C 7.09375 -1.890625 7.21875 -1.78125 7.21875 -1.5625 L 7.21875 -0.34375 C 7.21875 -0.113281 7.09375 0 6.84375 0 Z M 5.25 -18.09375 C 5.5625 -17.78125 5.71875 -17.40625 5.71875 -16.96875 C 5.71875 -16.53125 5.5625 -16.160156 5.25 -15.859375 C 4.9375 -15.554688 4.5625 -15.40625 4.125 -15.40625 C 3.695312 -15.40625 3.328125 -15.554688 3.015625 -15.859375 C 2.703125 -16.160156 2.546875 -16.53125 2.546875 -16.96875 C 2.546875 -17.40625 2.703125 -17.78125 3.015625 -18.09375 C 3.328125 -18.414062 3.695312 -18.578125 4.125 -18.578125 C 4.5625 -18.578125 4.9375 -18.414062 5.25 -18.09375 Z M 5.25 -18.09375 "/></g></g></g><g fill="#000000" fill-opacity="1"><g transform="translate(249.024108, 255.548717)"><g><path d="M 16.125 0 L 13.4375 0 C 12.625 0 12.21875 -0.394531 12.21875 -1.1875 L 12.21875 -8.625 C 12.21875 -9.71875 11.953125 -10.566406 11.421875 -11.171875 C 10.898438 -11.773438 10.128906 -12.078125 9.109375 -12.078125 C 7.648438 -12.078125 6.519531 -11.484375 5.71875 -10.296875 C 5.625 -10.179688 5.5 -9.972656 5.34375 -9.671875 L 5.34375 -1.890625 L 6.84375 -1.890625 C 7.09375 -1.890625 7.21875 -1.78125 7.21875 -1.5625 L 7.21875 -0.34375 C 7.21875 -0.113281 7.09375 0 6.84375 0 L 1.4375 0 C 1.195312 0 1.078125 -0.113281 1.078125 -0.34375 L 1.078125 -1.5625 C 1.078125 -1.78125 1.195312 -1.890625 1.4375 -1.890625 L 3 -1.890625 L 3 -12.015625 L 1.4375 -12.015625 C 1.195312 -12.015625 1.078125 -12.128906 1.078125 -12.359375 L 1.078125 -13.578125 C 1.078125 -13.804688 1.195312 -13.921875 1.4375 -13.921875 L 4.75 -13.921875 C 5 -13.921875 5.125 -13.804688 5.125 -13.578125 L 5.0625 -11.65625 L 5.140625 -11.65625 C 6.128906 -13.289062 7.648438 -14.109375 9.703125 -14.109375 C 11.210938 -14.109375 12.390625 -13.664062 13.234375 -12.78125 C 14.085938 -11.894531 14.519531 -10.695312 14.53125 -9.1875 L 14.53125 -1.890625 L 16.125 -1.890625 C 16.363281 -1.890625 16.484375 -1.78125 16.484375 -1.5625 L 16.484375 -0.34375 C 16.484375 -0.113281 16.363281 0 16.125 0 Z M 16.125 0 "/></g></g></g><g fill="#000000" fill-opacity="1"><g transform="translate(266.582255, 255.548717)"><g><path d="M 15.75 0 L 13.296875 0 C 12.484375 0 12.078125 -0.394531 12.078125 -1.1875 L 12.078125 -2.234375 L 11.984375 -2.234375 C 11.210938 -0.609375 9.742188 0.203125 7.578125 0.203125 C 6.066406 0.203125 4.875 -0.242188 4 -1.140625 C 3.125 -2.035156 2.675781 -3.226562 2.65625 -4.71875 L 2.65625 -12.015625 L 1.046875 -12.015625 C 0.816406 -12.015625 0.703125 -12.128906 0.703125 -12.359375 L 0.703125 -13.578125 C 0.703125 -13.804688 0.816406 -13.921875 1.046875 -13.921875 L 3.765625 -13.921875 C 4.578125 -13.921875 4.984375 -13.519531 4.984375 -12.71875 L 4.984375 -5.28125 C 4.984375 -4.1875 5.242188 -3.335938 5.765625 -2.734375 C 6.296875 -2.140625 7.070312 -1.84375 8.09375 -1.84375 C 9.46875 -1.84375 10.550781 -2.347656 11.34375 -3.359375 C 11.675781 -3.796875 11.84375 -4.085938 11.84375 -4.234375 L 11.84375 -12.015625 L 10.328125 -12.015625 C 10.097656 -12.015625 9.984375 -12.128906 9.984375 -12.359375 L 9.984375 -13.578125 C 9.984375 -13.804688 10.097656 -13.921875 10.328125 -13.921875 L 13.828125 -13.921875 C 14.054688 -13.921875 14.171875 -13.804688 14.171875 -13.578125 L 14.171875 -1.890625 L 15.75 -1.890625 C 16 -1.890625 16.125 -1.78125 16.125 -1.5625 L 16.125 -0.34375 C 16.125 -0.113281 16 0 15.75 0 Z M 15.75 0 "/></g></g></g><g fill="#000000" fill-opacity="1"><g transform="translate(283.772845, 255.548717)"><g><path d="M 13.65625 -6.671875 L 3.484375 -6.671875 C 3.554688 -5.109375 4.046875 -3.898438 4.953125 -3.046875 C 5.867188 -2.203125 6.898438 -1.78125 8.046875 -1.78125 C 9.203125 -1.78125 10.191406 -2.023438 11.015625 -2.515625 C 11.835938 -3.003906 12.390625 -3.484375 12.671875 -3.953125 C 12.816406 -4.140625 12.984375 -4.171875 13.171875 -4.046875 L 13.9375 -3.28125 C 14.050781 -3.164062 14.109375 -3.066406 14.109375 -2.984375 C 14.109375 -2.898438 14.066406 -2.789062 13.984375 -2.65625 C 13.898438 -2.519531 13.722656 -2.3125 13.453125 -2.03125 C 13.191406 -1.75 12.820312 -1.425781 12.34375 -1.0625 C 11.863281 -0.707031 11.238281 -0.40625 10.46875 -0.15625 C 9.707031 0.0820312 8.894531 0.203125 8.03125 0.203125 C 6.050781 0.203125 4.394531 -0.445312 3.0625 -1.75 C 1.738281 -3.050781 1.078125 -4.800781 1.078125 -7 C 1.078125 -9.195312 1.734375 -10.929688 3.046875 -12.203125 C 4.367188 -13.472656 5.988281 -14.109375 7.90625 -14.109375 C 9.820312 -14.109375 11.328125 -13.488281 12.421875 -12.25 C 13.515625 -11.019531 14.0625 -9.359375 14.0625 -7.265625 C 14.0625 -7.191406 14.0625 -7.117188 14.0625 -7.046875 C 14.0625 -6.796875 13.925781 -6.671875 13.65625 -6.671875 Z M 11.703125 -8.40625 C 11.648438 -9.570312 11.285156 -10.503906 10.609375 -11.203125 C 9.929688 -11.898438 9.023438 -12.25 7.890625 -12.25 C 6.753906 -12.25 5.78125 -11.925781 4.96875 -11.28125 C 4.164062 -10.644531 3.6875 -9.6875 3.53125 -8.40625 Z M 11.703125 -8.40625 "/></g></g></g><g fill="#000000" fill-opacity="1"><g transform="translate(32.212094, 218.645947)"><g><path d="M 48.6875 -27.796875 C 46.332031 -27.429688 44.882812 -26.519531 44.34375 -25.0625 C 43.800781 -23.613281 40.867188 -15.148438 35.546875 0.328125 L 31.375 0.328125 L 23.609375 -21.546875 L 16.59375 0.328125 L 12.421875 0.328125 L 4.09375 -24.1875 C 3.414062 -26.269531 1.769531 -27.488281 -0.84375 -27.84375 L -0.84375 -29.453125 L 14.890625 -29.453125 L 14.890625 -27.875 C 12.421875 -27.5625 11.1875 -27.128906 11.1875 -26.578125 C 11.1875 -26.203125 11.734375 -24.347656 12.828125 -21.015625 L 17.125 -8 L 23.859375 -29.453125 L 28.28125 -29.453125 L 36.0625 -7.3125 C 39.65625 -18.550781 41.453125 -24.785156 41.453125 -26.015625 C 41.453125 -26.960938 39.910156 -27.554688 36.828125 -27.796875 L 36.828125 -29.453125 L 48.6875 -29.453125 Z M 48.6875 -27.796875 "/></g></g></g><g fill="#000000" fill-opacity="1"><g transform="translate(80.076341, 218.645947)"><g><path d="M 23.515625 -4.984375 C 21.109375 -1.203125 17.71875 0.6875 13.34375 0.6875 C 9.582031 0.6875 6.664062 -0.304688 4.59375 -2.296875 C 2.53125 -4.296875 1.5 -6.988281 1.5 -10.375 C 1.5 -13.394531 2.546875 -15.957031 4.640625 -18.0625 C 6.734375 -20.164062 9.460938 -21.21875 12.828125 -21.21875 C 16.117188 -21.21875 18.628906 -20.425781 20.359375 -18.84375 C 22.085938 -17.269531 22.953125 -15.113281 22.953125 -12.375 L 22.953125 -11 L 8.921875 -11 C 8.921875 -5.226562 11.207031 -2.34375 15.78125 -2.34375 C 18.144531 -2.34375 20.195312 -3.601562 21.9375 -6.125 Z M 15.609375 -12.828125 C 15.609375 -17.285156 14.570312 -19.515625 12.5 -19.515625 C 10.195312 -19.515625 9.003906 -17.257812 8.921875 -12.75 Z M 15.609375 -12.828125 "/></g></g></g><g fill="#000000" fill-opacity="1"><g transform="translate(104.38208, 218.645947)"><g><path d="M 0.84375 0 L 0.84375 -1.53125 C 2.125 -1.59375 2.953125 -1.796875 3.328125 -2.140625 C 3.710938 -2.484375 3.90625 -3.03125 3.90625 -3.78125 L 3.90625 -26.78125 C 3.90625 -28.707031 2.601562 -29.8125 0 -30.09375 L 0 -31.59375 L 10.46875 -32.140625 L 10.75 -31.796875 L 10.75 -4.046875 C 10.75 -2.566406 11.789062 -1.726562 13.875 -1.53125 L 13.875 0 Z M 0.84375 0 "/></g></g></g><g fill="#000000" fill-opacity="1"><g transform="translate(119.015339, 218.645947)"><g><path d="M 22.53125 -5.234375 C 21.5625 -3.347656 20.238281 -1.890625 18.5625 -0.859375 C 16.882812 0.171875 15.050781 0.6875 13.0625 0.6875 C 9.414062 0.6875 6.578125 -0.296875 4.546875 -2.265625 C 2.515625 -4.242188 1.5 -6.9375 1.5 -10.34375 C 1.5 -13.3125 2.609375 -15.863281 4.828125 -18 C 7.046875 -20.144531 9.898438 -21.21875 13.390625 -21.21875 C 15.972656 -21.21875 18 -20.726562 19.46875 -19.75 C 20.9375 -18.78125 21.671875 -17.484375 21.671875 -15.859375 C 21.671875 -13.640625 20.492188 -12.53125 18.140625 -12.53125 C 17.160156 -12.53125 16.304688 -12.769531 15.578125 -13.25 C 14.847656 -13.738281 14.484375 -14.394531 14.484375 -15.21875 C 14.484375 -15.925781 14.671875 -16.867188 15.046875 -18.046875 C 15.128906 -18.304688 15.1875 -18.539062 15.21875 -18.75 C 14.976562 -19.257812 14.425781 -19.515625 13.5625 -19.515625 C 12.15625 -19.515625 11.046875 -18.753906 10.234375 -17.234375 C 9.421875 -15.710938 9.015625 -13.5 9.015625 -10.59375 C 9.015625 -8.164062 9.570312 -6.191406 10.6875 -4.671875 C 11.8125 -3.148438 13.210938 -2.390625 14.890625 -2.390625 C 17.515625 -2.390625 19.539062 -3.691406 20.96875 -6.296875 Z M 22.53125 -5.234375 "/></g></g></g><g fill="#000000" fill-opacity="1"><g transform="translate(141.57754, 218.645947)"><g><path d="M 13.3125 0.6875 C 9.820312 0.6875 6.976562 -0.316406 4.78125 -2.328125 C 2.59375 -4.347656 1.5 -6.988281 1.5 -10.25 C 1.5 -13.5625 2.585938 -16.21875 4.765625 -18.21875 C 6.941406 -20.21875 9.84375 -21.21875 13.46875 -21.21875 C 17.15625 -21.21875 20.09375 -20.226562 22.28125 -18.25 C 24.46875 -16.28125 25.5625 -13.671875 25.5625 -10.421875 C 25.5625 -7.171875 24.457031 -4.503906 22.25 -2.421875 C 20.050781 -0.347656 17.070312 0.6875 13.3125 0.6875 Z M 13.515625 -19.515625 C 10.535156 -19.515625 9.046875 -16.523438 9.046875 -10.546875 C 9.046875 -7.128906 9.410156 -4.6875 10.140625 -3.21875 C 10.878906 -1.75 12.003906 -1.015625 13.515625 -1.015625 C 16.492188 -1.015625 17.984375 -4.164062 17.984375 -10.46875 C 17.984375 -16.5 16.492188 -19.515625 13.515625 -19.515625 Z M 13.515625 -19.515625 "/></g></g></g><g fill="#000000" fill-opacity="1"><g transform="translate(168.623123, 218.645947)"><g><path d="M 30.09375 0 L 30.09375 -1.53125 C 31.394531 -1.601562 32.132812 -1.804688 32.3125 -2.140625 C 32.488281 -2.484375 32.578125 -3.03125 32.578125 -3.78125 L 32.578125 -13.46875 C 32.578125 -16.3125 31.59375 -17.734375 29.625 -17.734375 C 27.863281 -17.734375 26.425781 -16.867188 25.3125 -15.140625 L 25.3125 -4 C 25.3125 -3.175781 25.472656 -2.597656 25.796875 -2.265625 C 26.128906 -1.929688 26.78125 -1.6875 27.75 -1.53125 L 27.75 0 L 15.9375 0 L 15.9375 -1.53125 C 17.21875 -1.601562 17.945312 -1.796875 18.125 -2.109375 C 18.3125 -2.429688 18.40625 -2.988281 18.40625 -3.78125 L 18.40625 -13.46875 C 18.40625 -16.3125 17.425781 -17.734375 15.46875 -17.734375 C 13.707031 -17.734375 12.265625 -16.867188 11.140625 -15.140625 L 11.140625 -4 C 11.140625 -3.101562 11.351562 -2.5 11.78125 -2.1875 C 12.207031 -1.875 12.828125 -1.65625 13.640625 -1.53125 L 13.640625 0 L 1.1875 0 L 1.1875 -1.53125 C 2.53125 -1.59375 3.390625 -1.804688 3.765625 -2.171875 C 4.148438 -2.535156 4.34375 -3.070312 4.34375 -3.78125 L 4.34375 -15.859375 C 4.34375 -17.578125 3.191406 -18.550781 0.890625 -18.78125 L 0.890625 -20.328125 L 10.796875 -20.84375 L 11.140625 -20.53125 L 11.140625 -17.609375 L 11.234375 -17.609375 C 11.691406 -18.023438 12.140625 -18.445312 12.578125 -18.875 C 14.203125 -20.40625 16.242188 -21.171875 18.703125 -21.171875 C 21.765625 -21.171875 23.832031 -19.910156 24.90625 -17.390625 L 25.078125 -17.390625 C 25.578125 -17.835938 26.066406 -18.289062 26.546875 -18.75 C 28.304688 -20.363281 30.425781 -21.171875 32.90625 -21.171875 C 35.007812 -21.171875 36.628906 -20.550781 37.765625 -19.3125 C 38.898438 -18.070312 39.46875 -16.328125 39.46875 -14.078125 L 39.46875 -3.9375 C 39.46875 -3 39.753906 -2.378906 40.328125 -2.078125 C 40.898438 -1.785156 41.613281 -1.601562 42.46875 -1.53125 L 42.46875 0 Z M 30.09375 0 "/></g></g></g><g fill="#000000" fill-opacity="1"><g transform="translate(211.817172, 218.645947)"><g><path d="M 23.515625 -4.984375 C 21.109375 -1.203125 17.71875 0.6875 13.34375 0.6875 C 9.582031 0.6875 6.664062 -0.304688 4.59375 -2.296875 C 2.53125 -4.296875 1.5 -6.988281 1.5 -10.375 C 1.5 -13.394531 2.546875 -15.957031 4.640625 -18.0625 C 6.734375 -20.164062 9.460938 -21.21875 12.828125 -21.21875 C 16.117188 -21.21875 18.628906 -20.425781 20.359375 -18.84375 C 22.085938 -17.269531 22.953125 -15.113281 22.953125 -12.375 L 22.953125 -11 L 8.921875 -11 C 8.921875 -5.226562 11.207031 -2.34375 15.78125 -2.34375 C 18.144531 -2.34375 20.195312 -3.601562 21.9375 -6.125 Z M 15.609375 -12.828125 C 15.609375 -17.285156 14.570312 -19.515625 12.5 -19.515625 C 10.195312 -19.515625 9.003906 -17.257812 8.921875 -12.75 Z M 15.609375 -12.828125 "/></g></g></g><path fill="#000000" d="M 363.464844 180.105469 L 365.296875 180.105469 L 365.296875 181.933594 L 363.464844 181.933594 M 367.128906 180.105469 L 368.957031 180.105469 L 368.957031 181.933594 L 367.128906 181.933594 M 370.789062 180.105469 L 372.621094 180.105469 L 372.621094 181.933594 L 370.789062 181.933594 M 374.449219 180.105469 L 376.28125 180.105469 L 376.28125 181.933594 L 374.449219 181.933594 M 378.113281 180.105469 L 379.941406 180.105469 L 379.941406 181.933594 L 378.113281 181.933594 M 381.773438 180.105469 L 383.605469 180.105469 L 383.605469 181.933594 L 381.773438 181.933594 M 385.433594 180.105469 L 387.265625 180.105469 L 387.265625 181.933594 L 385.433594 181.933594 M 389.097656 180.105469 L 390.925781 180.105469 L 390.925781 181.933594 L 389.097656 181.933594 M 392.757812 180.105469 L 394.589844 180.105469 L 394.589844 181.933594 L 392.757812 181.933594 M 396.417969 180.105469 L 398.25 180.105469 L 398.25 181.933594 L 396.417969 181.933594 M 400.082031 180.105469 L 401.910156 180.105469 L 401.910156 181.933594 L 400.082031 181.933594 M 403.742188 180.105469 L 405.574219 180.105469 L 405.574219 181.933594 L 403.742188 181.933594 M 407.402344 180.105469 L 409.234375 180.105469 L 409.234375 181.933594 L 407.402344 181.933594 M 411.066406 180.105469 L 412.894531 180.105469 L 412.894531 181.933594 L 411.066406 181.933594 M 414.726562 180.105469 L 416.558594 180.105469 L 416.558594 181.933594 L 414.726562 181.933594 M 418.386719 180.105469 L 420.21875 180.105469 L 420.21875 181.933594 L 418.386719 181.933594 M 422.050781 180.105469 L 423.878906 180.105469 L 423.878906 181.933594 L 422.050781 181.933594 M 425.710938 180.105469 L 427.542969 180.105469 L 427.542969 181.933594 L 425.710938 181.933594 M 429.371094 180.105469 L 431.203125 180.105469 L 431.203125 181.933594 L 429.371094 181.933594 M 433.03125 180.105469 L 434.863281 180.105469 L 434.863281 181.933594 L 433.03125 181.933594 M 436.695312 180.105469 L 438.523438 180.105469 L 438.523438 181.933594 L 436.695312 181.933594 M 440.355469 180.105469 L 442.1875 180.105469 L 442.1875 181.933594 L 440.355469 181.933594 M 444.015625 180.105469 L 445.847656 180.105469 L 445.847656 181.933594 L 444.015625 181.933594 M 447.679688 180.105469 L 449.507812 180.105469 L 449.507812 181.933594 L 447.679688 181.933594 M 451.339844 180.105469 L 453.171875 180.105469 L 453.171875 181.933594 L 451.339844 181.933594 M 455 180.105469 L 456.832031 180.105469 L 456.832031 181.933594 L 455 181.933594 M 458.664062 180.105469 L 460.492188 180.105469 L 460.492188 181.933594 L 458.664062 181.933594 M 462.324219 180.105469 L 464.15625 180.105469 L 464.15625 181.933594 L 462.324219 181.933594 M 465.984375 180.105469 L 467.816406 180.105469 L 467.816406 181.933594 L 465.984375 181.933594 M 469.648438 180.105469 L 471.476562 180.105469 L 471.476562 181.933594 L 469.648438 181.933594 M 473.308594 180.105469 L 475.140625 180.105469 L 475.140625 181.933594 L 473.308594 181.933594 M 476.96875 180.105469 L 478.800781 180.105469 L 478.800781 181.933594 L 476.96875 181.933594 M 480.632812 180.105469 L 482.460938 180.105469 L 482.460938 181.933594 L 480.632812 181.933594 M 484.292969 180.105469 L 486.125 180.105469 L 486.125 181.933594 L 484.292969 181.933594 M 487.953125 180.105469 L 489.785156 180.105469 L 489.785156 181.933594 L 487.953125 181.933594 M 491.617188 180.105469 L 493.445312 180.105469 L 493.445312 181.933594 L 491.617188 181.933594 M 495.277344 180.105469 L 497.109375 180.105469 L 497.109375 181.933594 L 495.277344 181.933594 M 498.9375 180.105469 L 500.769531 180.105469 L 500.769531 181.933594 L 498.9375 181.933594 M 502.601562 180.105469 L 504.429688 180.105469 L 504.429688 181.933594 L 502.601562 181.933594 M 506.261719 180.105469 L 508.09375 180.105469 L 508.09375 181.933594 L 506.261719 181.933594 M 509.921875 180.105469 L 511.753906 180.105469 L 511.753906 181.933594 L 509.921875 181.933594 M 513.585938 180.105469 L 515.414062 180.105469 L 515.414062 181.933594 L 513.585938 181.933594 M 517.246094 180.105469 L 519.078125 180.105469 L 519.078125 181.933594 L 517.246094 181.933594 M 520.90625 180.105469 L 521.640625 180.105469 L 521.640625 181.933594 L 520.90625 181.933594 " fill-opacity="1" fill-rule="nonzero"/><path fill="#000000" d="M 363.464844 22.117188 L 363.464844 23.949219 L 361.636719 23.949219 L 361.636719 22.117188 M 363.464844 25.78125 L 363.464844 27.609375 L 361.636719 27.609375 L 361.636719 25.78125 M 363.464844 29.441406 L 363.464844 31.273438 L 361.636719 31.273438 L 361.636719 29.441406 M 363.464844 33.101562 L 363.464844 34.933594 L 361.636719 34.933594 L 361.636719 33.101562 M 363.464844 36.761719 L 363.464844 38.59375 L 361.636719 38.59375 L 361.636719 36.761719 M 363.464844 40.425781 L 363.464844 42.253906 L 361.636719 42.253906 L 361.636719 40.425781 M 363.464844 44.085938 L 363.464844 45.917969 L 361.636719 45.917969 L 361.636719 44.085938 M 363.464844 47.746094 L 363.464844 49.578125 L 361.636719 49.578125 L 361.636719 47.746094 M 363.464844 51.410156 L 363.464844 53.238281 L 361.636719 53.238281 L 361.636719 51.410156 M 363.464844 55.070312 L 363.464844 56.902344 L 361.636719 56.902344 L 361.636719 55.070312 M 363.464844 58.730469 L 363.464844 60.5625 L 361.636719 60.5625 L 361.636719 58.730469 M 363.464844 62.394531 L 363.464844 64.222656 L 361.636719 64.222656 L 361.636719 62.394531 M 363.464844 66.054688 L 363.464844 67.886719 L 361.636719 67.886719 L 361.636719 66.054688 M 363.464844 69.714844 L 363.464844 71.546875 L 361.636719 71.546875 L 361.636719 69.714844 M 363.464844 73.378906 L 363.464844 75.207031 L 361.636719 75.207031 L 361.636719 73.378906 M 363.464844 77.039062 L 363.464844 78.871094 L 361.636719 78.871094 L 361.636719 77.039062 M 363.464844 80.699219 L 363.464844 82.53125 L 361.636719 82.53125 L 361.636719 80.699219 M 363.464844 84.363281 L 363.464844 86.191406 L 361.636719 86.191406 L 361.636719 84.363281 M 363.464844 88.023438 L 363.464844 89.855469 L 361.636719 89.855469 L 361.636719 88.023438 M 363.464844 91.683594 L 363.464844 93.515625 L 361.636719 93.515625 L 361.636719 91.683594 M 363.464844 95.347656 L 363.464844 97.175781 L 361.636719 97.175781 L 361.636719 95.347656 M 363.464844 99.007812 L 363.464844 100.839844 L 361.636719 100.839844 L 361.636719 99.007812 M 363.464844 102.667969 L 363.464844 104.5 L 361.636719 104.5 L 361.636719 102.667969 M 363.464844 106.332031 L 363.464844 108.160156 L 361.636719 108.160156 L 361.636719 106.332031 M 363.464844 109.992188 L 363.464844 111.824219 L 361.636719 111.824219 L 361.636719 109.992188 M 363.464844 113.652344 L 363.464844 115.484375 L 361.636719 115.484375 L 361.636719 113.652344 M 363.464844 117.316406 L 363.464844 119.144531 L 361.636719 119.144531 L 361.636719 117.316406 M 363.464844 120.976562 L 363.464844 122.808594 L 361.636719 122.808594 L 361.636719 120.976562 M 363.464844 124.636719 L 363.464844 126.46875 L 361.636719 126.46875 L 361.636719 124.636719 M 363.464844 128.300781 L 363.464844 130.128906 L 361.636719 130.128906 L 361.636719 128.300781 M 363.464844 131.960938 L 363.464844 133.792969 L 361.636719 133.792969 L 361.636719 131.960938 M 363.464844 135.621094 L 363.464844 137.453125 L 361.636719 137.453125 L 361.636719 135.621094 M 363.464844 139.285156 L 363.464844 141.113281 L 361.636719 141.113281 L 361.636719 139.285156 M 363.464844 142.945312 L 363.464844 144.777344 L 361.636719 144.777344 L 361.636719 142.945312 M 363.464844 146.605469 L 363.464844 148.4375 L 361.636719 148.4375 L 361.636719 146.605469 M 363.464844 150.265625 L 363.464844 152.097656 L 361.636719 152.097656 L 361.636719 150.265625 M 363.464844 153.929688 L 363.464844 155.757812 L 361.636719 155.757812 L 361.636719 153.929688 M 363.464844 157.589844 L 363.464844 159.421875 L 361.636719 159.421875 L 361.636719 157.589844 M 363.464844 161.25 L 363.464844 163.082031 L 361.636719 163.082031 L 361.636719 161.25 M 363.464844 164.914062 L 363.464844 166.742188 L 361.636719 166.742188 L 361.636719 164.914062 M 363.464844 168.574219 L 363.464844 170.40625 L 361.636719 170.40625 L 361.636719 168.574219 M 363.464844 172.234375 L 363.464844 174.066406 L 361.636719 174.066406 L 361.636719 172.234375 M 363.464844 175.898438 L 363.464844 177.726562 L 361.636719 177.726562 L 361.636719 175.898438 M 363.464844 179.558594 L 363.464844 180.292969 L 361.636719 180.292969 L 361.636719 179.558594 " fill-opacity="1" fill-rule="nonzero"/><path fill="#000000" d="M 523.28125 24.714844 L 523.28125 26.546875 L 521.453125 26.546875 L 521.453125 24.714844 M 523.28125 28.375 L 523.28125 30.207031 L 521.453125 30.207031 L 521.453125 28.375 M 523.28125 32.039062 L 523.28125 33.867188 L 521.453125 33.867188 L 521.453125 32.039062 M 523.28125 35.699219 L 523.28125 37.53125 L 521.453125 37.53125 L 521.453125 35.699219 M 523.28125 39.359375 L 523.28125 41.191406 L 521.453125 41.191406 L 521.453125 39.359375 M 523.28125 43.023438 L 523.28125 44.851562 L 521.453125 44.851562 L 521.453125 43.023438 M 523.28125 46.683594 L 523.28125 48.515625 L 521.453125 48.515625 L 521.453125 46.683594 M 523.28125 50.34375 L 523.28125 52.175781 L 521.453125 52.175781 L 521.453125 50.34375 M 523.28125 54.007812 L 523.28125 55.835938 L 521.453125 55.835938 L 521.453125 54.007812 M 523.28125 57.667969 L 523.28125 59.5 L 521.453125 59.5 L 521.453125 57.667969 M 523.28125 61.328125 L 523.28125 63.160156 L 521.453125 63.160156 L 521.453125 61.328125 M 523.28125 64.988281 L 523.28125 66.820312 L 521.453125 66.820312 L 521.453125 64.988281 M 523.28125 68.652344 L 523.28125 70.480469 L 521.453125 70.480469 L 521.453125 68.652344 M 523.28125 72.3125 L 523.28125 74.144531 L 521.453125 74.144531 L 521.453125 72.3125 M 523.28125 75.972656 L 523.28125 77.804688 L 521.453125 77.804688 L 521.453125 75.972656 M 523.28125 79.636719 L 523.28125 81.464844 L 521.453125 81.464844 L 521.453125 79.636719 M 523.28125 83.296875 L 523.28125 85.128906 L 521.453125 85.128906 L 521.453125 83.296875 M 523.28125 86.957031 L 523.28125 88.789062 L 521.453125 88.789062 L 521.453125 86.957031 M 523.28125 90.621094 L 523.28125 92.449219 L 521.453125 92.449219 L 521.453125 90.621094 M 523.28125 94.28125 L 523.28125 96.113281 L 521.453125 96.113281 L 521.453125 94.28125 M 523.28125 97.941406 L 523.28125 99.773438 L 521.453125 99.773438 L 521.453125 97.941406 M 523.28125 101.605469 L 523.28125 103.433594 L 521.453125 103.433594 L 521.453125 101.605469 M 523.28125 105.265625 L 523.28125 107.097656 L 521.453125 107.097656 L 521.453125 105.265625 M 523.28125 108.925781 L 523.28125 110.757812 L 521.453125 110.757812 L 521.453125 108.925781 M 523.28125 112.589844 L 523.28125 114.417969 L 521.453125 114.417969 L 521.453125 112.589844 M 523.28125 116.25 L 523.28125 118.082031 L 521.453125 118.082031 L 521.453125 116.25 M 523.28125 119.910156 L 523.28125 121.742188 L 521.453125 121.742188 L 521.453125 119.910156 M 523.28125 123.574219 L 523.28125 125.402344 L 521.453125 125.402344 L 521.453125 123.574219 M 523.28125 127.234375 L 523.28125 129.066406 L 521.453125 129.066406 L 521.453125 127.234375 M 523.28125 130.894531 L 523.28125 132.726562 L 521.453125 132.726562 L 521.453125 130.894531 M 523.28125 134.558594 L 523.28125 136.386719 L 521.453125 136.386719 L 521.453125 134.558594 M 523.28125 138.21875 L 523.28125 140.050781 L 521.453125 140.050781 L 521.453125 138.21875 M 523.28125 141.878906 L 523.28125 143.710938 L 521.453125 143.710938 L 521.453125 141.878906 M 523.28125 145.542969 L 523.28125 147.371094 L 521.453125 147.371094 L 521.453125 145.542969 M 523.28125 149.203125 L 523.28125 151.035156 L 521.453125 151.035156 L 521.453125 149.203125 M 523.28125 152.863281 L 523.28125 154.695312 L 521.453125 154.695312 L 521.453125 152.863281 M 523.28125 156.527344 L 523.28125 158.355469 L 521.453125 158.355469 L 521.453125 156.527344 M 523.28125 160.1875 L 523.28125 162.019531 L 521.453125 162.019531 L 521.453125 160.1875 M 523.28125 163.847656 L 523.28125 165.679688 L 521.453125 165.679688 L 521.453125 163.847656 M 523.28125 167.511719 L 523.28125 169.339844 L 521.453125 169.339844 L 521.453125 167.511719 M 523.28125 171.171875 L 523.28125 173.003906 L 521.453125 173.003906 L 521.453125 171.171875 M 523.28125 174.832031 L 523.28125 176.664062 L 521.453125 176.664062 L 521.453125 174.832031 M 523.28125 178.492188 L 523.28125 180.324219 L 521.453125 180.324219 L 521.453125 178.492188 M 523.28125 182.15625 L 523.28125 182.886719 L 521.453125 182.886719 L 521.453125 182.15625 " fill-opacity="1" fill-rule="nonzero"/><path fill="#000000" d="M 365.292969 24.714844 L 367.125 24.714844 L 367.125 26.542969 L 365.292969 26.542969 M 368.957031 24.714844 L 370.785156 24.714844 L 370.785156 26.542969 L 368.957031 26.542969 M 372.617188 24.714844 L 374.449219 24.714844 L 374.449219 26.542969 L 372.617188 26.542969 M 376.277344 24.714844 L 378.109375 24.714844 L 378.109375 26.542969 L 376.277344 26.542969 M 379.941406 24.714844 L 381.769531 24.714844 L 381.769531 26.542969 L 379.941406 26.542969 M 383.601562 24.714844 L 385.433594 24.714844 L 385.433594 26.542969 L 383.601562 26.542969 M 387.261719 24.714844 L 389.09375 24.714844 L 389.09375 26.542969 L 387.261719 26.542969 M 390.925781 24.714844 L 392.753906 24.714844 L 392.753906 26.542969 L 390.925781 26.542969 M 394.585938 24.714844 L 396.417969 24.714844 L 396.417969 26.542969 L 394.585938 26.542969 M 398.246094 24.714844 L 400.078125 24.714844 L 400.078125 26.542969 L 398.246094 26.542969 M 401.910156 24.714844 L 403.738281 24.714844 L 403.738281 26.542969 L 401.910156 26.542969 M 405.570312 24.714844 L 407.402344 24.714844 L 407.402344 26.542969 L 405.570312 26.542969 M 409.230469 24.714844 L 411.0625 24.714844 L 411.0625 26.542969 L 409.230469 26.542969 M 412.894531 24.714844 L 414.722656 24.714844 L 414.722656 26.542969 L 412.894531 26.542969 M 416.554688 24.714844 L 418.386719 24.714844 L 418.386719 26.542969 L 416.554688 26.542969 M 420.214844 24.714844 L 422.046875 24.714844 L 422.046875 26.542969 L 420.214844 26.542969 M 423.878906 24.714844 L 425.707031 24.714844 L 425.707031 26.542969 L 423.878906 26.542969 M 427.539062 24.714844 L 429.371094 24.714844 L 429.371094 26.542969 L 427.539062 26.542969 M 431.199219 24.714844 L 433.03125 24.714844 L 433.03125 26.542969 L 431.199219 26.542969 M 434.863281 24.714844 L 436.691406 24.714844 L 436.691406 26.542969 L 434.863281 26.542969 M 438.523438 24.714844 L 440.355469 24.714844 L 440.355469 26.542969 L 438.523438 26.542969 M 442.183594 24.714844 L 444.015625 24.714844 L 444.015625 26.542969 L 442.183594 26.542969 M 445.847656 24.714844 L 447.675781 24.714844 L 447.675781 26.542969 L 445.847656 26.542969 M 449.507812 24.714844 L 451.339844 24.714844 L 451.339844 26.542969 L 449.507812 26.542969 M 453.167969 24.714844 L 455 24.714844 L 455 26.542969 L 453.167969 26.542969 M 456.832031 24.714844 L 458.660156 24.714844 L 458.660156 26.542969 L 456.832031 26.542969 M 460.492188 24.714844 L 462.324219 24.714844 L 462.324219 26.542969 L 460.492188 26.542969 M 464.152344 24.714844 L 465.984375 24.714844 L 465.984375 26.542969 L 464.152344 26.542969 M 467.8125 24.714844 L 469.644531 24.714844 L 469.644531 26.542969 L 467.8125 26.542969 M 471.476562 24.714844 L 473.304688 24.714844 L 473.304688 26.542969 L 471.476562 26.542969 M 475.136719 24.714844 L 476.96875 24.714844 L 476.96875 26.542969 L 475.136719 26.542969 M 478.796875 24.714844 L 480.628906 24.714844 L 480.628906 26.542969 L 478.796875 26.542969 M 482.460938 24.714844 L 484.289062 24.714844 L 484.289062 26.542969 L 482.460938 26.542969 M 486.121094 24.714844 L 487.953125 24.714844 L 487.953125 26.542969 L 486.121094 26.542969 M 489.78125 24.714844 L 491.613281 24.714844 L 491.613281 26.542969 L 489.78125 26.542969 M 493.445312 24.714844 L 495.273438 24.714844 L 495.273438 26.542969 L 493.445312 26.542969 M 497.105469 24.714844 L 498.9375 24.714844 L 498.9375 26.542969 L 497.105469 26.542969 M 500.765625 24.714844 L 502.597656 24.714844 L 502.597656 26.542969 L 500.765625 26.542969 M 504.429688 24.714844 L 506.257812 24.714844 L 506.257812 26.542969 L 504.429688 26.542969 M 508.089844 24.714844 L 509.921875 24.714844 L 509.921875 26.542969 L 508.089844 26.542969 M 511.75 24.714844 L 513.582031 24.714844 L 513.582031 26.542969 L 511.75 26.542969 M 515.414062 24.714844 L 517.242188 24.714844 L 517.242188 26.542969 L 515.414062 26.542969 M 519.074219 24.714844 L 520.90625 24.714844 L 520.90625 26.542969 L 519.074219 26.542969 M 522.734375 24.714844 L 523.46875 24.714844 L 523.46875 26.542969 L 522.734375 26.542969 " fill-opacity="1" fill-rule="nonzero"/><g fill="#000000" fill-opacity="1"><g transform="translate(64.234092, 329.232147)"><g><path d="M 12.328125 -14.65625 L 12.328125 -5.203125 C 12.328125 -3.398438 11.84375 -2.035156 10.875 -1.109375 C 9.90625 -0.191406 8.484375 0.265625 6.609375 0.265625 C 4.734375 0.265625 3.3125 -0.191406 2.34375 -1.109375 C 1.375 -2.035156 0.890625 -3.398438 0.890625 -5.203125 L 0.890625 -14.65625 L 4.234375 -14.65625 L 4.234375 -6.1875 C 4.234375 -5 4.414062 -4.171875 4.78125 -3.703125 C 5.15625 -3.242188 5.765625 -3.015625 6.609375 -3.015625 C 7.453125 -3.015625 8.054688 -3.242188 8.421875 -3.703125 C 8.796875 -4.171875 8.984375 -5 8.984375 -6.1875 L 8.984375 -14.65625 Z M 12.328125 -14.65625 "/></g></g></g><g fill="#000000" fill-opacity="1"><g transform="translate(77.447635, 329.232147)"><g><path d="M 6.46875 -14.921875 C 7.257812 -14.921875 8.035156 -14.804688 8.796875 -14.578125 C 9.554688 -14.347656 10.117188 -14.117188 10.484375 -13.890625 L 11.015625 -13.53125 L 9.671875 -10.875 C 9.554688 -10.945312 9.40625 -11.035156 9.21875 -11.140625 C 9.03125 -11.253906 8.675781 -11.40625 8.15625 -11.59375 C 7.632812 -11.789062 7.148438 -11.890625 6.703125 -11.890625 C 6.140625 -11.890625 5.707031 -11.769531 5.40625 -11.53125 C 5.101562 -11.289062 4.953125 -10.972656 4.953125 -10.578125 C 4.953125 -10.367188 5.023438 -10.175781 5.171875 -10 C 5.316406 -9.832031 5.554688 -9.648438 5.890625 -9.453125 C 6.234375 -9.265625 6.535156 -9.109375 6.796875 -8.984375 C 7.054688 -8.867188 7.460938 -8.691406 8.015625 -8.453125 C 8.960938 -8.054688 9.769531 -7.507812 10.4375 -6.8125 C 11.101562 -6.125 11.4375 -5.335938 11.4375 -4.453125 C 11.4375 -3.617188 11.285156 -2.882812 10.984375 -2.25 C 10.679688 -1.625 10.265625 -1.132812 9.734375 -0.78125 C 9.210938 -0.425781 8.628906 -0.164062 7.984375 0 C 7.347656 0.175781 6.660156 0.265625 5.921875 0.265625 C 5.273438 0.265625 4.644531 0.195312 4.03125 0.0625 C 3.414062 -0.0625 2.898438 -0.21875 2.484375 -0.40625 C 2.066406 -0.601562 1.691406 -0.796875 1.359375 -0.984375 C 1.035156 -1.179688 0.796875 -1.34375 0.640625 -1.46875 L 0.40625 -1.671875 L 2.078125 -4.484375 C 2.222656 -4.359375 2.414062 -4.203125 2.65625 -4.015625 C 2.90625 -3.835938 3.347656 -3.59375 3.984375 -3.28125 C 4.617188 -2.976562 5.179688 -2.828125 5.671875 -2.828125 C 7.078125 -2.828125 7.78125 -3.304688 7.78125 -4.265625 C 7.78125 -4.460938 7.726562 -4.644531 7.625 -4.8125 C 7.53125 -4.988281 7.351562 -5.160156 7.09375 -5.328125 C 6.84375 -5.503906 6.617188 -5.640625 6.421875 -5.734375 C 6.222656 -5.835938 5.898438 -5.992188 5.453125 -6.203125 C 5.015625 -6.410156 4.691406 -6.570312 4.484375 -6.6875 C 3.585938 -7.125 2.894531 -7.671875 2.40625 -8.328125 C 1.925781 -8.984375 1.6875 -9.691406 1.6875 -10.453125 C 1.6875 -11.765625 2.171875 -12.835938 3.140625 -13.671875 C 4.109375 -14.503906 5.21875 -14.921875 6.46875 -14.921875 Z M 6.46875 -14.921875 "/></g></g></g><g fill="#000000" fill-opacity="1"><g transform="translate(89.382444, 329.232147)"><g><path d="M 9.453125 -14.65625 L 9.453125 -11.71875 L 4.40625 -11.71875 L 4.40625 -8.8125 L 9.234375 -8.8125 L 9.234375 -5.875 L 4.40625 -5.875 L 4.40625 -2.9375 L 9.453125 -2.9375 L 9.453125 0 L 1.0625 0 L 1.0625 -14.65625 Z M 9.453125 -14.65625 "/></g></g></g><g fill="#000000" fill-opacity="1"><g transform="translate(99.683323, 329.232147)"><g><path d="M 1.0625 -14.65625 L 6.3125 -14.65625 C 7.71875 -14.65625 8.863281 -14.28125 9.75 -13.53125 C 10.632812 -12.78125 11.078125 -11.703125 11.078125 -10.296875 C 11.078125 -9.222656 10.804688 -8.320312 10.265625 -7.59375 C 9.734375 -6.863281 9.003906 -6.351562 8.078125 -6.0625 L 13.125 0 L 8.875 0 L 4.40625 -5.796875 L 4.40625 0 L 1.0625 0 Z M 4.40625 -8.15625 L 4.796875 -8.15625 C 5.109375 -8.15625 5.367188 -8.160156 5.578125 -8.171875 C 5.785156 -8.179688 6.023438 -8.222656 6.296875 -8.296875 C 6.578125 -8.367188 6.800781 -8.46875 6.96875 -8.59375 C 7.132812 -8.726562 7.273438 -8.921875 7.390625 -9.171875 C 7.503906 -9.421875 7.5625 -9.722656 7.5625 -10.078125 C 7.5625 -10.429688 7.503906 -10.734375 7.390625 -10.984375 C 7.273438 -11.234375 7.132812 -11.421875 6.96875 -11.546875 C 6.800781 -11.679688 6.578125 -11.78125 6.296875 -11.84375 C 6.023438 -11.914062 5.785156 -11.957031 5.578125 -11.96875 C 5.367188 -11.976562 5.109375 -11.984375 4.796875 -11.984375 L 4.40625 -11.984375 Z M 4.40625 -8.15625 "/></g></g></g><g fill="#000000" fill-opacity="1"><g transform="translate(112.399576, 329.232147)"><g><path d="M 4.40625 -9.09375 L 4.40625 0 L 1.0625 0 L 1.0625 -14.65625 L 4.40625 -14.65625 L 10.234375 -5.5625 L 10.265625 -5.5625 L 10.265625 -14.65625 L 13.609375 -14.65625 L 13.609375 0 L 10.265625 0 L 4.4375 -9.09375 Z M 4.40625 -9.09375 "/></g></g></g><g fill="#000000" fill-opacity="1"><g transform="translate(127.069446, 329.232147)"><g><path d="M 8.515625 -14.65625 L 14.421875 0 L 10.84375 0 L 9.75 -2.9375 L 4.171875 -2.9375 L 3.09375 0 L -0.5 0 L 5.421875 -14.65625 Z M 8.609375 -5.859375 L 6.984375 -10.125 L 6.953125 -10.125 L 5.3125 -5.859375 Z M 8.609375 -5.859375 "/></g></g></g><g fill="#000000" fill-opacity="1"><g transform="translate(140.99339, 329.232147)"><g><path d="M 13.1875 0 L 12.484375 -8.6875 L 12.40625 -8.6875 L 9.390625 -0.09375 L 7.40625 -0.09375 L 4.40625 -8.6875 L 4.3125 -8.6875 L 3.625 0 L 0.28125 0 L 1.59375 -14.65625 L 5.15625 -14.65625 L 8.40625 -6.203125 L 11.65625 -14.65625 L 15.203125 -14.65625 L 16.515625 0 Z M 13.1875 0 "/></g></g></g><g fill="#000000" fill-opacity="1"><g transform="translate(157.794473, 329.232147)"><g><path d="M 9.453125 -14.65625 L 9.453125 -11.71875 L 4.40625 -11.71875 L 4.40625 -8.8125 L 9.234375 -8.8125 L 9.234375 -5.875 L 4.40625 -5.875 L 4.40625 -2.9375 L 9.453125 -2.9375 L 9.453125 0 L 1.0625 0 L 1.0625 -14.65625 Z M 9.453125 -14.65625 "/></g></g></g><g fill="#000000" fill-opacity="1"><g transform="translate(64.234092, 433.296226)"><g><path d="M 1.0625 -14.65625 L 6.40625 -14.65625 C 7.90625 -14.65625 9.113281 -14.269531 10.03125 -13.5 C 10.957031 -12.726562 11.421875 -11.609375 11.421875 -10.140625 C 11.421875 -8.671875 10.953125 -7.519531 10.015625 -6.6875 C 9.078125 -5.851562 7.875 -5.4375 6.40625 -5.4375 L 4.40625 -5.4375 L 4.40625 0 L 1.0625 0 Z M 4.40625 -8.09375 L 5.34375 -8.09375 C 6.09375 -8.09375 6.707031 -8.242188 7.1875 -8.546875 C 7.664062 -8.847656 7.90625 -9.34375 7.90625 -10.03125 C 7.90625 -10.726562 7.664062 -11.226562 7.1875 -11.53125 C 6.707031 -11.832031 6.09375 -11.984375 5.34375 -11.984375 L 4.40625 -11.984375 Z M 4.40625 -8.09375 "/></g></g></g><g fill="#000000" fill-opacity="1"><g transform="translate(76.062341, 433.296226)"><g><path d="M 8.515625 -14.65625 L 14.421875 0 L 10.84375 0 L 9.75 -2.9375 L 4.171875 -2.9375 L 3.09375 0 L -0.5 0 L 5.421875 -14.65625 Z M 8.609375 -5.859375 L 6.984375 -10.125 L 6.953125 -10.125 L 5.3125 -5.859375 Z M 8.609375 -5.859375 "/></g></g></g><g fill="#000000" fill-opacity="1"><g transform="translate(89.986285, 433.296226)"><g><path d="M 6.46875 -14.921875 C 7.257812 -14.921875 8.035156 -14.804688 8.796875 -14.578125 C 9.554688 -14.347656 10.117188 -14.117188 10.484375 -13.890625 L 11.015625 -13.53125 L 9.671875 -10.875 C 9.554688 -10.945312 9.40625 -11.035156 9.21875 -11.140625 C 9.03125 -11.253906 8.675781 -11.40625 8.15625 -11.59375 C 7.632812 -11.789062 7.148438 -11.890625 6.703125 -11.890625 C 6.140625 -11.890625 5.707031 -11.769531 5.40625 -11.53125 C 5.101562 -11.289062 4.953125 -10.972656 4.953125 -10.578125 C 4.953125 -10.367188 5.023438 -10.175781 5.171875 -10 C 5.316406 -9.832031 5.554688 -9.648438 5.890625 -9.453125 C 6.234375 -9.265625 6.535156 -9.109375 6.796875 -8.984375 C 7.054688 -8.867188 7.460938 -8.691406 8.015625 -8.453125 C 8.960938 -8.054688 9.769531 -7.507812 10.4375 -6.8125 C 11.101562 -6.125 11.4375 -5.335938 11.4375 -4.453125 C 11.4375 -3.617188 11.285156 -2.882812 10.984375 -2.25 C 10.679688 -1.625 10.265625 -1.132812 9.734375 -0.78125 C 9.210938 -0.425781 8.628906 -0.164062 7.984375 0 C 7.347656 0.175781 6.660156 0.265625 5.921875 0.265625 C 5.273438 0.265625 4.644531 0.195312 4.03125 0.0625 C 3.414062 -0.0625 2.898438 -0.21875 2.484375 -0.40625 C 2.066406 -0.601562 1.691406 -0.796875 1.359375 -0.984375 C 1.035156 -1.179688 0.796875 -1.34375 0.640625 -1.46875 L 0.40625 -1.671875 L 2.078125 -4.484375 C 2.222656 -4.359375 2.414062 -4.203125 2.65625 -4.015625 C 2.90625 -3.835938 3.347656 -3.59375 3.984375 -3.28125 C 4.617188 -2.976562 5.179688 -2.828125 5.671875 -2.828125 C 7.078125 -2.828125 7.78125 -3.304688 7.78125 -4.265625 C 7.78125 -4.460938 7.726562 -4.644531 7.625 -4.8125 C 7.53125 -4.988281 7.351562 -5.160156 7.09375 -5.328125 C 6.84375 -5.503906 6.617188 -5.640625 6.421875 -5.734375 C 6.222656 -5.835938 5.898438 -5.992188 5.453125 -6.203125 C 5.015625 -6.410156 4.691406 -6.570312 4.484375 -6.6875 C 3.585938 -7.125 2.894531 -7.671875 2.40625 -8.328125 C 1.925781 -8.984375 1.6875 -9.691406 1.6875 -10.453125 C 1.6875 -11.765625 2.171875 -12.835938 3.140625 -13.671875 C 4.109375 -14.503906 5.21875 -14.921875 6.46875 -14.921875 Z M 6.46875 -14.921875 "/></g></g></g><g fill="#000000" fill-opacity="1"><g transform="translate(101.921094, 433.296226)"><g><path d="M 6.46875 -14.921875 C 7.257812 -14.921875 8.035156 -14.804688 8.796875 -14.578125 C 9.554688 -14.347656 10.117188 -14.117188 10.484375 -13.890625 L 11.015625 -13.53125 L 9.671875 -10.875 C 9.554688 -10.945312 9.40625 -11.035156 9.21875 -11.140625 C 9.03125 -11.253906 8.675781 -11.40625 8.15625 -11.59375 C 7.632812 -11.789062 7.148438 -11.890625 6.703125 -11.890625 C 6.140625 -11.890625 5.707031 -11.769531 5.40625 -11.53125 C 5.101562 -11.289062 4.953125 -10.972656 4.953125 -10.578125 C 4.953125 -10.367188 5.023438 -10.175781 5.171875 -10 C 5.316406 -9.832031 5.554688 -9.648438 5.890625 -9.453125 C 6.234375 -9.265625 6.535156 -9.109375 6.796875 -8.984375 C 7.054688 -8.867188 7.460938 -8.691406 8.015625 -8.453125 C 8.960938 -8.054688 9.769531 -7.507812 10.4375 -6.8125 C 11.101562 -6.125 11.4375 -5.335938 11.4375 -4.453125 C 11.4375 -3.617188 11.285156 -2.882812 10.984375 -2.25 C 10.679688 -1.625 10.265625 -1.132812 9.734375 -0.78125 C 9.210938 -0.425781 8.628906 -0.164062 7.984375 0 C 7.347656 0.175781 6.660156 0.265625 5.921875 0.265625 C 5.273438 0.265625 4.644531 0.195312 4.03125 0.0625 C 3.414062 -0.0625 2.898438 -0.21875 2.484375 -0.40625 C 2.066406 -0.601562 1.691406 -0.796875 1.359375 -0.984375 C 1.035156 -1.179688 0.796875 -1.34375 0.640625 -1.46875 L 0.40625 -1.671875 L 2.078125 -4.484375 C 2.222656 -4.359375 2.414062 -4.203125 2.65625 -4.015625 C 2.90625 -3.835938 3.347656 -3.59375 3.984375 -3.28125 C 4.617188 -2.976562 5.179688 -2.828125 5.671875 -2.828125 C 7.078125 -2.828125 7.78125 -3.304688 7.78125 -4.265625 C 7.78125 -4.460938 7.726562 -4.644531 7.625 -4.8125 C 7.53125 -4.988281 7.351562 -5.160156 7.09375 -5.328125 C 6.84375 -5.503906 6.617188 -5.640625 6.421875 -5.734375 C 6.222656 -5.835938 5.898438 -5.992188 5.453125 -6.203125 C 5.015625 -6.410156 4.691406 -6.570312 4.484375 -6.6875 C 3.585938 -7.125 2.894531 -7.671875 2.40625 -8.328125 C 1.925781 -8.984375 1.6875 -9.691406 1.6875 -10.453125 C 1.6875 -11.765625 2.171875 -12.835938 3.140625 -13.671875 C 4.109375 -14.503906 5.21875 -14.921875 6.46875 -14.921875 Z M 6.46875 -14.921875 "/></g></g></g><g fill="#000000" fill-opacity="1"><g transform="translate(113.855903, 433.296226)"><g><path d="M 12.3125 0 L 9.96875 -8.21875 L 7.625 0 L 3.90625 0 L -0.265625 -14.65625 L 3.453125 -14.65625 L 5.953125 -4.59375 L 6.046875 -4.59375 L 8.703125 -14.65625 L 11.234375 -14.65625 L 13.890625 -4.59375 L 13.984375 -4.59375 L 16.484375 -14.65625 L 20.1875 -14.65625 L 16 0 Z M 12.3125 0 "/></g></g></g><g fill="#000000" fill-opacity="1"><g transform="translate(133.76501, 433.296226)"><g><path d="M 0.40625 -7.34375 C 0.40625 -9.457031 1.128906 -11.25 2.578125 -12.71875 C 4.023438 -14.1875 5.765625 -14.921875 7.796875 -14.921875 C 9.847656 -14.921875 11.585938 -14.1875 13.015625 -12.71875 C 14.453125 -11.257812 15.171875 -9.46875 15.171875 -7.34375 C 15.171875 -5.195312 14.460938 -3.390625 13.046875 -1.921875 C 11.640625 -0.460938 9.890625 0.265625 7.796875 0.265625 C 5.648438 0.265625 3.878906 -0.457031 2.484375 -1.90625 C 1.097656 -3.363281 0.40625 -5.175781 0.40625 -7.34375 Z M 4.015625 -7.34375 C 4.015625 -6.570312 4.128906 -5.867188 4.359375 -5.234375 C 4.597656 -4.597656 5.015625 -4.0625 5.609375 -3.625 C 6.203125 -3.1875 6.929688 -2.96875 7.796875 -2.96875 C 9.046875 -2.96875 9.984375 -3.394531 10.609375 -4.25 C 11.242188 -5.101562 11.5625 -6.132812 11.5625 -7.34375 C 11.5625 -8.53125 11.238281 -9.550781 10.59375 -10.40625 C 9.945312 -11.269531 9.015625 -11.703125 7.796875 -11.703125 C 6.585938 -11.703125 5.65625 -11.269531 5 -10.40625 C 4.34375 -9.550781 4.015625 -8.53125 4.015625 -7.34375 Z M 4.015625 -7.34375 "/></g></g></g><g fill="#000000" fill-opacity="1"><g transform="translate(149.340643, 433.296226)"><g><path d="M 1.0625 -14.65625 L 6.3125 -14.65625 C 7.71875 -14.65625 8.863281 -14.28125 9.75 -13.53125 C 10.632812 -12.78125 11.078125 -11.703125 11.078125 -10.296875 C 11.078125 -9.222656 10.804688 -8.320312 10.265625 -7.59375 C 9.734375 -6.863281 9.003906 -6.351562 8.078125 -6.0625 L 13.125 0 L 8.875 0 L 4.40625 -5.796875 L 4.40625 0 L 1.0625 0 Z M 4.40625 -8.15625 L 4.796875 -8.15625 C 5.109375 -8.15625 5.367188 -8.160156 5.578125 -8.171875 C 5.785156 -8.179688 6.023438 -8.222656 6.296875 -8.296875 C 6.578125 -8.367188 6.800781 -8.46875 6.96875 -8.59375 C 7.132812 -8.726562 7.273438 -8.921875 7.390625 -9.171875 C 7.503906 -9.421875 7.5625 -9.722656 7.5625 -10.078125 C 7.5625 -10.429688 7.503906 -10.734375 7.390625 -10.984375 C 7.273438 -11.234375 7.132812 -11.421875 6.96875 -11.546875 C 6.800781 -11.679688 6.578125 -11.78125 6.296875 -11.84375 C 6.023438 -11.914062 5.785156 -11.957031 5.578125 -11.96875 C 5.367188 -11.976562 5.109375 -11.984375 4.796875 -11.984375 L 4.40625 -11.984375 Z M 4.40625 -8.15625 "/></g></g></g><g fill="#000000" fill-opacity="1"><g transform="translate(162.056896, 433.296226)"><g><path d="M 1.0625 -14.65625 L 5.3125 -14.65625 C 7.351562 -14.65625 9.09375 -13.957031 10.53125 -12.5625 C 11.976562 -11.175781 12.703125 -9.4375 12.703125 -7.34375 C 12.703125 -5.226562 11.984375 -3.472656 10.546875 -2.078125 C 9.109375 -0.691406 7.363281 0 5.3125 0 L 1.0625 0 Z M 4.40625 -2.984375 L 4.921875 -2.984375 C 6.140625 -2.984375 7.132812 -3.394531 7.90625 -4.21875 C 8.6875 -5.039062 9.082031 -6.070312 9.09375 -7.3125 C 9.09375 -8.5625 8.703125 -9.597656 7.921875 -10.421875 C 7.148438 -11.253906 6.148438 -11.671875 4.921875 -11.671875 L 4.40625 -11.671875 Z M 4.40625 -2.984375 "/></g></g></g></svg>