<svg xmlns="http://www.w3.org/2000/svg" xmlns:xlink="http://www.w3.org/1999/xlink" width="1274" zoomAndPan="magnify" viewBox="0 0 955.5 81.749997" height="109" preserveAspectRatio="xMidYMid meet" version="1.0"><defs><g/></defs><g fill="#000000" fill-opacity="1"><g transform="translate(189.846084, 60.913753)"><g><path d="M 1.671875 -23.015625 L 8.34375 -23.015625 C 11.539062 -23.015625 14.269531 -21.921875 16.53125 -19.734375 C 18.800781 -17.546875 19.9375 -14.804688 19.9375 -11.515625 C 19.9375 -8.203125 18.804688 -5.453125 16.546875 -3.265625 C 14.296875 -1.085938 11.5625 0 8.34375 0 L 1.671875 0 Z M 6.921875 -4.6875 L 7.71875 -4.6875 C 9.632812 -4.6875 11.203125 -5.332031 12.421875 -6.625 C 13.640625 -7.914062 14.257812 -9.535156 14.28125 -11.484375 C 14.28125 -13.441406 13.671875 -15.070312 12.453125 -16.375 C 11.234375 -17.675781 9.65625 -18.328125 7.71875 -18.328125 L 6.921875 -18.328125 Z M 6.921875 -4.6875 "/></g></g></g><g fill="#000000" fill-opacity="1"><g transform="translate(213.209486, 60.913753)"><g><path d="M 13.359375 -23.015625 L 22.640625 0 L 17.015625 0 L 15.3125 -4.609375 L 6.546875 -4.609375 L 4.859375 0 L -0.78125 0 L 8.5 -23.015625 Z M 13.53125 -9.203125 L 10.96875 -15.890625 L 10.90625 -15.890625 L 8.34375 -9.203125 Z M 13.53125 -9.203125 "/></g></g></g><g fill="#000000" fill-opacity="1"><g transform="translate(237.855303, 60.913753)"><g><path d="M 6.921875 -23.015625 L 6.921875 0 L 1.671875 0 L 1.671875 -23.015625 Z M 6.921875 -23.015625 "/></g></g></g><g fill="#000000" fill-opacity="1"><g transform="translate(249.230937, 60.913753)"><g><path d="M 6.921875 -23.015625 L 6.921875 -4.609375 L 14.84375 -4.609375 L 14.84375 0 L 1.671875 0 L 1.671875 -23.015625 Z M 6.921875 -23.015625 "/></g></g></g><g fill="#000000" fill-opacity="1"><g transform="translate(267.771353, 60.913753)"><g><path d="M -0.84375 -23.015625 L 5.46875 -23.015625 L 10.265625 -15.640625 L 15.0625 -23.015625 L 21.359375 -23.015625 L 12.890625 -10.3125 L 12.890625 0 L 7.640625 0 L 7.640625 -10.3125 Z M -0.84375 -23.015625 "/></g></g></g><g fill="#000000" fill-opacity="1"><g transform="translate(291.079007, 60.913753)"><g/></g></g><g fill="#000000" fill-opacity="1"><g transform="translate(301.478901, 60.913753)"><g><path d="M 13.921875 -4.734375 C 14.710938 -4.734375 15.484375 -4.851562 16.234375 -5.09375 C 16.992188 -5.34375 17.550781 -5.578125 17.90625 -5.796875 L 18.4375 -6.15625 L 20.671875 -1.703125 C 20.597656 -1.648438 20.492188 -1.578125 20.359375 -1.484375 C 20.234375 -1.390625 19.929688 -1.210938 19.453125 -0.953125 C 18.984375 -0.703125 18.476562 -0.484375 17.9375 -0.296875 C 17.394531 -0.117188 16.6875 0.0390625 15.8125 0.1875 C 14.9375 0.34375 14.035156 0.421875 13.109375 0.421875 C 10.972656 0.421875 8.945312 -0.101562 7.03125 -1.15625 C 5.113281 -2.207031 3.566406 -3.648438 2.390625 -5.484375 C 1.222656 -7.328125 0.640625 -9.320312 0.640625 -11.46875 C 0.640625 -13.082031 0.984375 -14.632812 1.671875 -16.125 C 2.359375 -17.613281 3.273438 -18.882812 4.421875 -19.9375 C 5.566406 -21 6.898438 -21.84375 8.421875 -22.46875 C 9.941406 -23.101562 11.503906 -23.421875 13.109375 -23.421875 C 14.597656 -23.421875 15.96875 -23.242188 17.21875 -22.890625 C 18.476562 -22.546875 19.367188 -22.195312 19.890625 -21.84375 L 20.671875 -21.3125 L 18.4375 -16.84375 C 18.300781 -16.957031 18.101562 -17.09375 17.84375 -17.25 C 17.582031 -17.40625 17.0625 -17.613281 16.28125 -17.875 C 15.5 -18.132812 14.710938 -18.265625 13.921875 -18.265625 C 12.648438 -18.265625 11.515625 -18.0625 10.515625 -17.65625 C 9.515625 -17.25 8.71875 -16.707031 8.125 -16.03125 C 7.539062 -15.363281 7.09375 -14.644531 6.78125 -13.875 C 6.476562 -13.101562 6.328125 -12.316406 6.328125 -11.515625 C 6.328125 -9.765625 6.984375 -8.195312 8.296875 -6.8125 C 9.609375 -5.425781 11.484375 -4.734375 13.921875 -4.734375 Z M 13.921875 -4.734375 "/></g></g></g><g fill="#000000" fill-opacity="1"><g transform="translate(325.260478, 60.913753)"><g><path d="M 13.359375 -23.015625 L 22.640625 0 L 17.015625 0 L 15.3125 -4.609375 L 6.546875 -4.609375 L 4.859375 0 L -0.78125 0 L 8.5 -23.015625 Z M 13.53125 -9.203125 L 10.96875 -15.890625 L 10.90625 -15.890625 L 8.34375 -9.203125 Z M 13.53125 -9.203125 "/></g></g></g><g fill="#000000" fill-opacity="1"><g transform="translate(349.906298, 60.913753)"><g><path d="M 1.671875 -23.015625 L 9.90625 -23.015625 C 12.113281 -23.015625 13.914062 -22.421875 15.3125 -21.234375 C 16.707031 -20.054688 17.40625 -18.367188 17.40625 -16.171875 C 17.40625 -14.484375 16.976562 -13.066406 16.125 -11.921875 C 15.28125 -10.773438 14.132812 -9.972656 12.6875 -9.515625 L 20.609375 0 L 13.953125 0 L 6.921875 -9.09375 L 6.921875 0 L 1.671875 0 Z M 6.921875 -12.796875 L 7.53125 -12.796875 C 8.007812 -12.796875 8.414062 -12.804688 8.75 -12.828125 C 9.09375 -12.847656 9.476562 -12.910156 9.90625 -13.015625 C 10.332031 -13.128906 10.675781 -13.289062 10.9375 -13.5 C 11.195312 -13.707031 11.414062 -14.003906 11.59375 -14.390625 C 11.78125 -14.785156 11.875 -15.257812 11.875 -15.8125 C 11.875 -16.375 11.78125 -16.847656 11.59375 -17.234375 C 11.414062 -17.628906 11.195312 -17.925781 10.9375 -18.125 C 10.675781 -18.332031 10.332031 -18.488281 9.90625 -18.59375 C 9.476562 -18.707031 9.09375 -18.773438 8.75 -18.796875 C 8.414062 -18.816406 8.007812 -18.828125 7.53125 -18.828125 L 6.921875 -18.828125 Z M 6.921875 -12.796875 "/></g></g></g><g fill="#000000" fill-opacity="1"><g transform="translate(372.656378, 60.913753)"><g><path d="M 14.84375 -23.015625 L 14.84375 -18.40625 L 6.921875 -18.40625 L 6.921875 -13.828125 L 14.5 -13.828125 L 14.5 -9.234375 L 6.921875 -9.234375 L 6.921875 -4.609375 L 14.84375 -4.609375 L 14.84375 0 L 1.671875 0 L 1.671875 -23.015625 Z M 14.84375 -23.015625 "/></g></g></g><g fill="#000000" fill-opacity="1"><g transform="translate(391.614966, 60.913753)"><g/></g></g><g fill="#000000" fill-opacity="1"><g transform="translate(402.014848, 60.913753)"><g><path d="M 14.984375 -23.015625 L 14.984375 -18.40625 L 6.921875 -18.40625 L 6.921875 -13.828125 L 14.359375 -13.828125 L 14.359375 -9.234375 L 6.921875 -9.234375 L 6.921875 0 L 1.671875 0 L 1.671875 -23.015625 Z M 14.984375 -23.015625 "/></g></g></g><g fill="#000000" fill-opacity="1"><g transform="translate(420.611028, 60.913753)"><g><path d="M 0.640625 -11.515625 C 0.640625 -14.847656 1.773438 -17.664062 4.046875 -19.96875 C 6.316406 -22.269531 9.050781 -23.421875 12.25 -23.421875 C 15.457031 -23.421875 18.1875 -22.273438 20.4375 -19.984375 C 22.6875 -17.691406 23.8125 -14.867188 23.8125 -11.515625 C 23.8125 -8.148438 22.707031 -5.316406 20.5 -3.015625 C 18.289062 -0.722656 15.539062 0.421875 12.25 0.421875 C 8.882812 0.421875 6.109375 -0.71875 3.921875 -3 C 1.734375 -5.28125 0.640625 -8.117188 0.640625 -11.515625 Z M 6.296875 -11.515625 C 6.296875 -10.304688 6.484375 -9.203125 6.859375 -8.203125 C 7.234375 -7.210938 7.882812 -6.375 8.8125 -5.6875 C 9.738281 -5 10.882812 -4.65625 12.25 -4.65625 C 14.195312 -4.65625 15.664062 -5.320312 16.65625 -6.65625 C 17.65625 -8 18.15625 -9.617188 18.15625 -11.515625 C 18.15625 -13.390625 17.644531 -15 16.625 -16.34375 C 15.613281 -17.695312 14.15625 -18.375 12.25 -18.375 C 10.351562 -18.375 8.882812 -17.695312 7.84375 -16.34375 C 6.8125 -15 6.296875 -13.390625 6.296875 -11.515625 Z M 6.296875 -11.515625 "/></g></g></g><g fill="#000000" fill-opacity="1"><g transform="translate(447.849541, 60.913753)"><g><path d="M 1.671875 -23.015625 L 9.90625 -23.015625 C 12.113281 -23.015625 13.914062 -22.421875 15.3125 -21.234375 C 16.707031 -20.054688 17.40625 -18.367188 17.40625 -16.171875 C 17.40625 -14.484375 16.976562 -13.066406 16.125 -11.921875 C 15.28125 -10.773438 14.132812 -9.972656 12.6875 -9.515625 L 20.609375 0 L 13.953125 0 L 6.921875 -9.09375 L 6.921875 0 L 1.671875 0 Z M 6.921875 -12.796875 L 7.53125 -12.796875 C 8.007812 -12.796875 8.414062 -12.804688 8.75 -12.828125 C 9.09375 -12.847656 9.476562 -12.910156 9.90625 -13.015625 C 10.332031 -13.128906 10.675781 -13.289062 10.9375 -13.5 C 11.195312 -13.707031 11.414062 -14.003906 11.59375 -14.390625 C 11.78125 -14.785156 11.875 -15.257812 11.875 -15.8125 C 11.875 -16.375 11.78125 -16.847656 11.59375 -17.234375 C 11.414062 -17.628906 11.195312 -17.925781 10.9375 -18.125 C 10.675781 -18.332031 10.332031 -18.488281 9.90625 -18.59375 C 9.476562 -18.707031 9.09375 -18.773438 8.75 -18.796875 C 8.414062 -18.816406 8.007812 -18.828125 7.53125 -18.828125 L 6.921875 -18.828125 Z M 6.921875 -12.796875 "/></g></g></g><g fill="#000000" fill-opacity="1"><g transform="translate(470.599609, 60.913753)"><g/></g></g><g fill="#000000" fill-opacity="1"><g transform="translate(480.999491, 60.913753)"><g><path d="M 1.671875 -23.015625 L 8.34375 -23.015625 C 11.539062 -23.015625 14.269531 -21.921875 16.53125 -19.734375 C 18.800781 -17.546875 19.9375 -14.804688 19.9375 -11.515625 C 19.9375 -8.203125 18.804688 -5.453125 16.546875 -3.265625 C 14.296875 -1.085938 11.5625 0 8.34375 0 L 1.671875 0 Z M 6.921875 -4.6875 L 7.71875 -4.6875 C 9.632812 -4.6875 11.203125 -5.332031 12.421875 -6.625 C 13.640625 -7.914062 14.257812 -9.535156 14.28125 -11.484375 C 14.28125 -13.441406 13.671875 -15.070312 12.453125 -16.375 C 11.234375 -17.675781 9.65625 -18.328125 7.71875 -18.328125 L 6.921875 -18.328125 Z M 6.921875 -4.6875 "/></g></g></g><g fill="#000000" fill-opacity="1"><g transform="translate(504.362897, 60.913753)"><g><path d="M 0.640625 -11.515625 C 0.640625 -14.847656 1.773438 -17.664062 4.046875 -19.96875 C 6.316406 -22.269531 9.050781 -23.421875 12.25 -23.421875 C 15.457031 -23.421875 18.1875 -22.273438 20.4375 -19.984375 C 22.6875 -17.691406 23.8125 -14.867188 23.8125 -11.515625 C 23.8125 -8.148438 22.707031 -5.316406 20.5 -3.015625 C 18.289062 -0.722656 15.539062 0.421875 12.25 0.421875 C 8.882812 0.421875 6.109375 -0.71875 3.921875 -3 C 1.734375 -5.28125 0.640625 -8.117188 0.640625 -11.515625 Z M 6.296875 -11.515625 C 6.296875 -10.304688 6.484375 -9.203125 6.859375 -8.203125 C 7.234375 -7.210938 7.882812 -6.375 8.8125 -5.6875 C 9.738281 -5 10.882812 -4.65625 12.25 -4.65625 C 14.195312 -4.65625 15.664062 -5.320312 16.65625 -6.65625 C 17.65625 -8 18.15625 -9.617188 18.15625 -11.515625 C 18.15625 -13.390625 17.644531 -15 16.625 -16.34375 C 15.613281 -17.695312 14.15625 -18.375 12.25 -18.375 C 10.351562 -18.375 8.882812 -17.695312 7.84375 -16.34375 C 6.8125 -15 6.296875 -13.390625 6.296875 -11.515625 Z M 6.296875 -11.515625 "/></g></g></g><g fill="#000000" fill-opacity="1"><g transform="translate(531.60141, 60.913753)"><g><path d="M 22.484375 -12.890625 L 22.484375 -7.890625 C 21.890625 -5.160156 20.585938 -3.09375 18.578125 -1.6875 C 16.566406 -0.28125 14.328125 0.421875 11.859375 0.421875 C 8.753906 0.421875 6.109375 -0.738281 3.921875 -3.0625 C 1.734375 -5.382812 0.640625 -8.191406 0.640625 -11.484375 C 0.640625 -14.835938 1.707031 -17.664062 3.84375 -19.96875 C 5.988281 -22.269531 8.660156 -23.421875 11.859375 -23.421875 C 15.585938 -23.421875 18.539062 -22.113281 20.71875 -19.5 L 17.296875 -15.734375 C 16.066406 -17.703125 14.351562 -18.6875 12.15625 -18.6875 C 10.539062 -18.6875 9.160156 -17.984375 8.015625 -16.578125 C 6.867188 -15.171875 6.296875 -13.472656 6.296875 -11.484375 C 6.296875 -9.535156 6.867188 -7.867188 8.015625 -6.484375 C 9.160156 -5.097656 10.539062 -4.40625 12.15625 -4.40625 C 13.5 -4.40625 14.664062 -4.804688 15.65625 -5.609375 C 16.65625 -6.421875 17.15625 -7.5 17.15625 -8.84375 L 11.859375 -8.84375 L 11.859375 -12.890625 Z M 22.484375 -12.890625 "/></g></g></g><g fill="#000000" fill-opacity="1"><g transform="translate(557.501746, 60.913753)"><g><path d="M 10.15625 -23.421875 C 11.394531 -23.421875 12.609375 -23.238281 13.796875 -22.875 C 14.992188 -22.519531 15.878906 -22.164062 16.453125 -21.8125 L 17.296875 -21.25 L 15.171875 -17.0625 C 15.003906 -17.175781 14.769531 -17.320312 14.46875 -17.5 C 14.175781 -17.675781 13.617188 -17.910156 12.796875 -18.203125 C 11.984375 -18.503906 11.222656 -18.65625 10.515625 -18.65625 C 9.640625 -18.65625 8.960938 -18.46875 8.484375 -18.09375 C 8.015625 -17.726562 7.78125 -17.226562 7.78125 -16.59375 C 7.78125 -16.28125 7.890625 -15.988281 8.109375 -15.71875 C 8.335938 -15.445312 8.71875 -15.15625 9.25 -14.84375 C 9.789062 -14.539062 10.265625 -14.296875 10.671875 -14.109375 C 11.085938 -13.921875 11.722656 -13.644531 12.578125 -13.28125 C 14.066406 -12.644531 15.335938 -11.78125 16.390625 -10.6875 C 17.441406 -9.601562 17.96875 -8.375 17.96875 -7 C 17.96875 -5.675781 17.726562 -4.519531 17.25 -3.53125 C 16.78125 -2.550781 16.128906 -1.78125 15.296875 -1.21875 C 14.472656 -0.664062 13.554688 -0.253906 12.546875 0.015625 C 11.546875 0.285156 10.457031 0.421875 9.28125 0.421875 C 8.28125 0.421875 7.296875 0.316406 6.328125 0.109375 C 5.359375 -0.0859375 4.546875 -0.335938 3.890625 -0.640625 C 3.242188 -0.953125 2.660156 -1.257812 2.140625 -1.5625 C 1.617188 -1.863281 1.238281 -2.113281 1 -2.3125 L 0.640625 -2.625 L 3.265625 -7.03125 C 3.484375 -6.84375 3.785156 -6.601562 4.171875 -6.3125 C 4.566406 -6.03125 5.257812 -5.644531 6.25 -5.15625 C 7.25 -4.675781 8.128906 -4.4375 8.890625 -4.4375 C 11.109375 -4.4375 12.21875 -5.1875 12.21875 -6.6875 C 12.21875 -7.007812 12.132812 -7.304688 11.96875 -7.578125 C 11.8125 -7.847656 11.535156 -8.113281 11.140625 -8.375 C 10.742188 -8.644531 10.390625 -8.859375 10.078125 -9.015625 C 9.773438 -9.179688 9.273438 -9.425781 8.578125 -9.75 C 7.878906 -10.070312 7.363281 -10.316406 7.03125 -10.484375 C 5.632812 -11.171875 4.554688 -12.03125 3.796875 -13.0625 C 3.035156 -14.09375 2.65625 -15.207031 2.65625 -16.40625 C 2.65625 -18.46875 3.414062 -20.148438 4.9375 -21.453125 C 6.457031 -22.765625 8.195312 -23.421875 10.15625 -23.421875 Z M 10.15625 -23.421875 "/></g></g></g><g fill="#000000" fill-opacity="1"><g transform="translate(277.653956, 23.511738)"><g><path d="M 1.21875 0 L 1.21875 -13.734375 L 6.03125 -13.734375 C 7.695312 -13.734375 8.960938 -13.410156 9.828125 -12.765625 C 10.691406 -12.128906 11.125 -11.195312 11.125 -9.96875 C 11.125 -9.289062 10.945312 -8.695312 10.59375 -8.1875 C 10.25 -7.675781 9.769531 -7.300781 9.15625 -7.0625 C 9.863281 -6.882812 10.414062 -6.53125 10.8125 -6 C 11.21875 -5.46875 11.421875 -4.8125 11.421875 -4.03125 C 11.421875 -2.71875 11 -1.71875 10.15625 -1.03125 C 9.320312 -0.351562 8.125 -0.0078125 6.5625 0 Z M 4.0625 -5.984375 L 4.0625 -2.265625 L 6.484375 -2.265625 C 7.148438 -2.265625 7.664062 -2.421875 8.03125 -2.734375 C 8.40625 -3.054688 8.59375 -3.5 8.59375 -4.0625 C 8.59375 -5.320312 7.941406 -5.960938 6.640625 -5.984375 Z M 4.0625 -7.984375 L 6.140625 -7.984375 C 7.566406 -8.003906 8.28125 -8.570312 8.28125 -9.6875 C 8.28125 -10.3125 8.097656 -10.757812 7.734375 -11.03125 C 7.378906 -11.300781 6.8125 -11.4375 6.03125 -11.4375 L 4.0625 -11.4375 Z M 4.0625 -7.984375 "/></g></g></g><g fill="#000000" fill-opacity="1"><g transform="translate(291.901668, 23.511738)"><g><path d="M 4.0625 -2.265625 L 10.0625 -2.265625 L 10.0625 0 L 1.21875 0 L 1.21875 -13.734375 L 4.0625 -13.734375 Z M 4.0625 -2.265625 "/></g></g></g><g fill="#000000" fill-opacity="1"><g transform="translate(304.283581, 23.511738)"><g><path d="M 9.484375 -5.953125 L 4.0625 -5.953125 L 4.0625 -2.265625 L 10.421875 -2.265625 L 10.421875 0 L 1.21875 0 L 1.21875 -13.734375 L 10.40625 -13.734375 L 10.40625 -11.4375 L 4.0625 -11.4375 L 4.0625 -8.171875 L 9.484375 -8.171875 Z M 9.484375 -5.953125 "/></g></g></g><g fill="#000000" fill-opacity="1"><g transform="translate(317.070686, 23.511738)"><g/></g></g><g fill="#000000" fill-opacity="1"><g transform="translate(323.808085, 23.511738)"><g><path d="M 1.21875 0 L 1.21875 -13.734375 L 5.453125 -13.734375 C 6.660156 -13.734375 7.738281 -13.457031 8.6875 -12.90625 C 9.644531 -12.363281 10.390625 -11.59375 10.921875 -10.59375 C 11.453125 -9.59375 11.71875 -8.453125 11.71875 -7.171875 L 11.71875 -6.546875 C 11.71875 -5.265625 11.453125 -4.128906 10.921875 -3.140625 C 10.398438 -2.148438 9.660156 -1.378906 8.703125 -0.828125 C 7.753906 -0.285156 6.679688 -0.0078125 5.484375 0 Z M 4.0625 -11.4375 L 4.0625 -2.265625 L 5.421875 -2.265625 C 6.523438 -2.265625 7.367188 -2.625 7.953125 -3.34375 C 8.535156 -4.070312 8.835938 -5.109375 8.859375 -6.453125 L 8.859375 -7.1875 C 8.859375 -8.582031 8.566406 -9.640625 7.984375 -10.359375 C 7.410156 -11.078125 6.566406 -11.4375 5.453125 -11.4375 Z M 4.0625 -11.4375 "/></g></g></g><g fill="#000000" fill-opacity="1"><g transform="translate(338.281955, 23.511738)"><g><path d="M 8.984375 -2.828125 L 4.015625 -2.828125 L 3.078125 0 L 0.0625 0 L 5.171875 -13.734375 L 7.796875 -13.734375 L 12.9375 0 L 9.9375 0 Z M 4.78125 -5.125 L 8.21875 -5.125 L 6.484375 -10.265625 Z M 4.78125 -5.125 "/></g></g></g><g fill="#000000" fill-opacity="1"><g transform="translate(353.198712, 23.511738)"><g><path d="M 11.5625 -11.4375 L 7.359375 -11.4375 L 7.359375 0 L 4.53125 0 L 4.53125 -11.4375 L 0.375 -11.4375 L 0.375 -13.734375 L 11.5625 -13.734375 Z M 11.5625 -11.4375 "/></g></g></g><g fill="#000000" fill-opacity="1"><g transform="translate(367.069496, 23.511738)"><g><path d="M 8.984375 -2.828125 L 4.015625 -2.828125 L 3.078125 0 L 0.0625 0 L 5.171875 -13.734375 L 7.796875 -13.734375 L 12.9375 0 L 9.9375 0 Z M 4.78125 -5.125 L 8.21875 -5.125 L 6.484375 -10.265625 Z M 4.78125 -5.125 "/></g></g></g><g fill="#000000" fill-opacity="1"><g transform="translate(381.986247, 23.511738)"><g/></g></g><g fill="#000000" fill-opacity="1"><g transform="translate(388.72364, 23.511738)"><g><path d="M 6.3125 -5.03125 L 4.0625 -5.03125 L 4.0625 0 L 1.21875 0 L 1.21875 -13.734375 L 6.328125 -13.734375 C 7.953125 -13.734375 9.203125 -13.367188 10.078125 -12.640625 C 10.960938 -11.921875 11.40625 -10.898438 11.40625 -9.578125 C 11.40625 -8.640625 11.203125 -7.859375 10.796875 -7.234375 C 10.390625 -6.609375 9.773438 -6.113281 8.953125 -5.75 L 11.921875 -0.125 L 11.921875 0 L 8.890625 0 Z M 4.0625 -7.3125 L 6.34375 -7.3125 C 7.050781 -7.3125 7.597656 -7.492188 7.984375 -7.859375 C 8.378906 -8.222656 8.578125 -8.722656 8.578125 -9.359375 C 8.578125 -10.003906 8.390625 -10.507812 8.015625 -10.875 C 7.648438 -11.25 7.085938 -11.4375 6.328125 -11.4375 L 4.0625 -11.4375 Z M 4.0625 -7.3125 "/></g></g></g><g fill="#000000" fill-opacity="1"><g transform="translate(402.971347, 23.511738)"><g><path d="M 9.484375 -5.953125 L 4.0625 -5.953125 L 4.0625 -2.265625 L 10.421875 -2.265625 L 10.421875 0 L 1.21875 0 L 1.21875 -13.734375 L 10.40625 -13.734375 L 10.40625 -11.4375 L 4.0625 -11.4375 L 4.0625 -8.171875 L 9.484375 -8.171875 Z M 9.484375 -5.953125 "/></g></g></g><g fill="#000000" fill-opacity="1"><g transform="translate(415.758449, 23.511738)"><g><path d="M 12 -4.578125 C 11.894531 -3.097656 11.347656 -1.929688 10.359375 -1.078125 C 9.378906 -0.234375 8.085938 0.1875 6.484375 0.1875 C 4.722656 0.1875 3.335938 -0.398438 2.328125 -1.578125 C 1.316406 -2.765625 0.8125 -4.394531 0.8125 -6.46875 L 0.8125 -7.3125 C 0.8125 -8.625 1.039062 -9.785156 1.5 -10.796875 C 1.96875 -11.804688 2.632812 -12.578125 3.5 -13.109375 C 4.363281 -13.648438 5.367188 -13.921875 6.515625 -13.921875 C 8.097656 -13.921875 9.375 -13.492188 10.34375 -12.640625 C 11.3125 -11.796875 11.867188 -10.609375 12.015625 -9.078125 L 9.1875 -9.078125 C 9.125 -9.960938 8.878906 -10.601562 8.453125 -11 C 8.023438 -11.394531 7.378906 -11.59375 6.515625 -11.59375 C 5.578125 -11.59375 4.875 -11.253906 4.40625 -10.578125 C 3.9375 -9.910156 3.691406 -8.863281 3.671875 -7.4375 L 3.671875 -6.40625 C 3.671875 -4.914062 3.894531 -3.828125 4.34375 -3.140625 C 4.800781 -2.460938 5.515625 -2.125 6.484375 -2.125 C 7.359375 -2.125 8.007812 -2.320312 8.4375 -2.71875 C 8.863281 -3.113281 9.109375 -3.734375 9.171875 -4.578125 Z M 12 -4.578125 "/></g></g></g><g fill="#000000" fill-opacity="1"><g transform="translate(430.317117, 23.511738)"><g><path d="M 9.484375 -5.953125 L 4.0625 -5.953125 L 4.0625 -2.265625 L 10.421875 -2.265625 L 10.421875 0 L 1.21875 0 L 1.21875 -13.734375 L 10.40625 -13.734375 L 10.40625 -11.4375 L 4.0625 -11.4375 L 4.0625 -8.171875 L 9.484375 -8.171875 Z M 9.484375 -5.953125 "/></g></g></g><g fill="#000000" fill-opacity="1"><g transform="translate(443.10422, 23.511738)"><g><path d="M 4.234375 0 L 1.40625 0 L 1.40625 -13.734375 L 4.234375 -13.734375 Z M 4.234375 0 "/></g></g></g><g fill="#000000" fill-opacity="1"><g transform="translate(450.661439, 23.511738)"><g><path d="M 6.296875 -3.40625 L 9.40625 -13.734375 L 12.5625 -13.734375 L 7.78125 0 L 4.828125 0 L 0.0625 -13.734375 L 3.203125 -13.734375 Z M 6.296875 -3.40625 "/></g></g></g><g fill="#000000" fill-opacity="1"><g transform="translate(465.21069, 23.511738)"><g><path d="M 9.484375 -5.953125 L 4.0625 -5.953125 L 4.0625 -2.265625 L 10.421875 -2.265625 L 10.421875 0 L 1.21875 0 L 1.21875 -13.734375 L 10.40625 -13.734375 L 10.40625 -11.4375 L 4.0625 -11.4375 L 4.0625 -8.171875 L 9.484375 -8.171875 Z M 9.484375 -5.953125 "/></g></g></g><g fill="#000000" fill-opacity="1"><g transform="translate(477.997792, 23.511738)"><g><path d="M 6.3125 -5.03125 L 4.0625 -5.03125 L 4.0625 0 L 1.21875 0 L 1.21875 -13.734375 L 6.328125 -13.734375 C 7.953125 -13.734375 9.203125 -13.367188 10.078125 -12.640625 C 10.960938 -11.921875 11.40625 -10.898438 11.40625 -9.578125 C 11.40625 -8.640625 11.203125 -7.859375 10.796875 -7.234375 C 10.390625 -6.609375 9.773438 -6.113281 8.953125 -5.75 L 11.921875 -0.125 L 11.921875 0 L 8.890625 0 Z M 4.0625 -7.3125 L 6.34375 -7.3125 C 7.050781 -7.3125 7.597656 -7.492188 7.984375 -7.859375 C 8.378906 -8.222656 8.578125 -8.722656 8.578125 -9.359375 C 8.578125 -10.003906 8.390625 -10.507812 8.015625 -10.875 C 7.648438 -11.25 7.085938 -11.4375 6.328125 -11.4375 L 4.0625 -11.4375 Z M 4.0625 -7.3125 "/></g></g></g></svg>