<svg xmlns="http://www.w3.org/2000/svg" xmlns:xlink="http://www.w3.org/1999/xlink" width="380" zoomAndPan="magnify" viewBox="0 0 285 124.499996" height="166" preserveAspectRatio="xMidYMid meet" version="1.0"><defs><g/></defs><g fill="#ffffff" fill-opacity="1"><g transform="translate(10.494986, 33.157198)"><g/></g></g><g fill="#ffffff" fill-opacity="1"><g transform="translate(17.814644, 33.157198)"><g><path d="M 1.609375 -22.109375 L 8.46875 -22.109375 C 10.539062 -22.109375 12.191406 -21.664062 13.421875 -20.78125 C 14.660156 -19.894531 15.28125 -18.460938 15.28125 -16.484375 C 15.28125 -14.265625 14.359375 -12.679688 12.515625 -11.734375 C 15.660156 -11.179688 17.234375 -9.320312 17.234375 -6.15625 C 17.234375 -4.300781 16.585938 -2.8125 15.296875 -1.6875 C 14.015625 -0.5625 12.25 0 10 0 L 1.609375 0 Z M 6.640625 -13.453125 L 7.046875 -13.453125 C 8.171875 -13.453125 9.007812 -13.644531 9.5625 -14.03125 C 10.113281 -14.425781 10.390625 -15.070312 10.390625 -15.96875 C 10.390625 -17.46875 9.273438 -18.21875 7.046875 -18.21875 L 6.640625 -18.21875 Z M 6.640625 -3.890625 L 8.234375 -3.890625 C 10.691406 -3.890625 11.921875 -4.707031 11.921875 -6.34375 C 11.921875 -7.332031 11.613281 -8.039062 11 -8.46875 C 10.382812 -8.894531 9.460938 -9.109375 8.234375 -9.109375 L 6.640625 -9.109375 Z M 6.640625 -3.890625 "/></g></g></g><g fill="#ffffff" fill-opacity="1"><g transform="translate(35.661392, 33.157198)"><g><path d="M 1.609375 0 L 1.609375 -13.75 L 6.34375 -13.75 L 6.34375 -11.765625 L 6.40625 -11.765625 C 6.4375 -11.835938 6.492188 -11.925781 6.578125 -12.03125 C 6.660156 -12.132812 6.832031 -12.320312 7.09375 -12.59375 C 7.363281 -12.863281 7.648438 -13.101562 7.953125 -13.3125 C 8.265625 -13.53125 8.660156 -13.722656 9.140625 -13.890625 C 9.617188 -14.066406 10.109375 -14.15625 10.609375 -14.15625 C 11.128906 -14.15625 11.640625 -14.082031 12.140625 -13.9375 C 12.640625 -13.789062 13.003906 -13.644531 13.234375 -13.5 L 13.609375 -13.296875 L 11.625 -9.265625 C 11.039062 -9.765625 10.222656 -10.015625 9.171875 -10.015625 C 8.597656 -10.015625 8.101562 -9.890625 7.6875 -9.640625 C 7.28125 -9.390625 6.988281 -9.085938 6.8125 -8.734375 C 6.644531 -8.378906 6.523438 -8.078125 6.453125 -7.828125 C 6.378906 -7.578125 6.34375 -7.378906 6.34375 -7.234375 L 6.34375 0 Z M 1.609375 0 "/></g></g></g><g fill="#ffffff" fill-opacity="1"><g transform="translate(49.006257, 33.157198)"><g><path d="M 15.515625 -6.21875 L 5.546875 -6.21875 C 5.546875 -5.25 5.859375 -4.53125 6.484375 -4.0625 C 7.109375 -3.601562 7.785156 -3.375 8.515625 -3.375 C 9.285156 -3.375 9.894531 -3.476562 10.34375 -3.6875 C 10.789062 -3.894531 11.300781 -4.300781 11.875 -4.90625 L 15.296875 -3.1875 C 13.867188 -0.789062 11.492188 0.40625 8.171875 0.40625 C 6.097656 0.40625 4.316406 -0.300781 2.828125 -1.71875 C 1.347656 -3.144531 0.609375 -4.859375 0.609375 -6.859375 C 0.609375 -8.859375 1.347656 -10.570312 2.828125 -12 C 4.316406 -13.4375 6.097656 -14.15625 8.171875 -14.15625 C 10.347656 -14.15625 12.117188 -13.523438 13.484375 -12.265625 C 14.859375 -11.003906 15.546875 -9.203125 15.546875 -6.859375 C 15.546875 -6.535156 15.535156 -6.320312 15.515625 -6.21875 Z M 5.6875 -8.84375 L 10.90625 -8.84375 C 10.800781 -9.5625 10.519531 -10.109375 10.0625 -10.484375 C 9.601562 -10.867188 9.019531 -11.0625 8.3125 -11.0625 C 7.519531 -11.0625 6.890625 -10.851562 6.421875 -10.4375 C 5.960938 -10.03125 5.71875 -9.5 5.6875 -8.84375 Z M 5.6875 -8.84375 "/></g></g></g><g fill="#ffffff" fill-opacity="1"><g transform="translate(65.164796, 33.157198)"><g><path d="M 2.53125 -1.703125 C 1.25 -3.109375 0.609375 -4.828125 0.609375 -6.859375 C 0.609375 -8.898438 1.25 -10.625 2.53125 -12.03125 C 3.820312 -13.445312 5.460938 -14.15625 7.453125 -14.15625 C 9.273438 -14.15625 10.773438 -13.582031 11.953125 -12.4375 L 11.953125 -13.75 L 16.6875 -13.75 L 16.6875 0 L 12 0 L 12 -1.546875 L 11.953125 -1.546875 C 10.773438 -0.242188 9.273438 0.40625 7.453125 0.40625 C 5.460938 0.40625 3.820312 -0.296875 2.53125 -1.703125 Z M 6.578125 -9.1875 C 5.960938 -8.582031 5.65625 -7.804688 5.65625 -6.859375 C 5.65625 -5.910156 5.945312 -5.132812 6.53125 -4.53125 C 7.125 -3.9375 7.90625 -3.640625 8.875 -3.640625 C 9.800781 -3.640625 10.5625 -3.941406 11.15625 -4.546875 C 11.757812 -5.160156 12.0625 -5.929688 12.0625 -6.859375 C 12.0625 -7.804688 11.75 -8.582031 11.125 -9.1875 C 10.507812 -9.800781 9.757812 -10.109375 8.875 -10.109375 C 7.957031 -10.109375 7.191406 -9.800781 6.578125 -9.1875 Z M 6.578125 -9.1875 "/></g></g></g><g fill="#ffffff" fill-opacity="1"><g transform="translate(83.46709, 33.157198)"><g><path d="M 2.40625 -13.75 L 2.40625 -18.859375 L 7.15625 -18.859375 L 7.15625 -13.75 L 10.046875 -13.75 L 10.046875 -10.125 L 7.15625 -10.125 L 7.15625 -5.765625 C 7.15625 -4.492188 7.515625 -3.859375 8.234375 -3.859375 C 8.410156 -3.859375 8.59375 -3.894531 8.78125 -3.96875 C 8.976562 -4.039062 9.132812 -4.113281 9.25 -4.1875 L 9.40625 -4.28125 L 10.578125 -0.453125 C 9.566406 0.117188 8.40625 0.40625 7.09375 0.40625 C 6.207031 0.40625 5.441406 0.25 4.796875 -0.0625 C 4.148438 -0.375 3.660156 -0.789062 3.328125 -1.3125 C 3.003906 -1.84375 2.769531 -2.398438 2.625 -2.984375 C 2.476562 -3.566406 2.40625 -4.1875 2.40625 -4.84375 L 2.40625 -10.125 L 0.421875 -10.125 L 0.421875 -13.75 Z M 2.40625 -13.75 "/></g></g></g><g fill="#ffffff" fill-opacity="1"><g transform="translate(94.051877, 33.157198)"><g><path d="M 1.609375 0 L 1.609375 -23.046875 L 6.34375 -23.046875 L 6.34375 -12.296875 L 6.40625 -12.296875 C 7.632812 -13.535156 8.945312 -14.15625 10.34375 -14.15625 C 11.019531 -14.15625 11.691406 -14.0625 12.359375 -13.875 C 13.035156 -13.695312 13.679688 -13.421875 14.296875 -13.046875 C 14.910156 -12.671875 15.410156 -12.140625 15.796875 -11.453125 C 16.179688 -10.765625 16.375 -9.96875 16.375 -9.0625 L 16.375 0 L 11.625 0 L 11.625 -7.765625 C 11.625 -8.484375 11.394531 -9.109375 10.9375 -9.640625 C 10.488281 -10.179688 9.898438 -10.453125 9.171875 -10.453125 C 8.453125 -10.453125 7.800781 -10.175781 7.21875 -9.625 C 6.632812 -9.070312 6.34375 -8.453125 6.34375 -7.765625 L 6.34375 0 Z M 1.609375 0 "/></g></g></g><g fill="#ffffff" fill-opacity="1"><g transform="translate(111.764642, 33.157198)"><g><path d="M 2.0625 -21.40625 C 2.613281 -21.957031 3.273438 -22.234375 4.046875 -22.234375 C 4.816406 -22.234375 5.476562 -21.957031 6.03125 -21.40625 C 6.582031 -20.851562 6.859375 -20.191406 6.859375 -19.421875 C 6.859375 -18.660156 6.582031 -18 6.03125 -17.4375 C 5.476562 -16.882812 4.816406 -16.609375 4.046875 -16.609375 C 3.273438 -16.609375 2.613281 -16.882812 2.0625 -17.4375 C 1.507812 -18 1.234375 -18.660156 1.234375 -19.421875 C 1.234375 -20.191406 1.507812 -20.851562 2.0625 -21.40625 Z M 1.609375 -13.75 L 1.609375 0 L 6.34375 0 L 6.34375 -13.75 Z M 1.609375 -13.75 "/></g></g></g><g fill="#ffffff" fill-opacity="1"><g transform="translate(119.857308, 33.157198)"><g><path d="M 1.609375 0 L 1.609375 -13.75 L 6.34375 -13.75 L 6.34375 -12.296875 L 6.40625 -12.296875 C 7.632812 -13.535156 8.945312 -14.15625 10.34375 -14.15625 C 11.019531 -14.15625 11.691406 -14.0625 12.359375 -13.875 C 13.035156 -13.695312 13.679688 -13.421875 14.296875 -13.046875 C 14.910156 -12.671875 15.410156 -12.140625 15.796875 -11.453125 C 16.179688 -10.765625 16.375 -9.96875 16.375 -9.0625 L 16.375 0 L 11.625 0 L 11.625 -7.765625 C 11.625 -8.484375 11.394531 -9.109375 10.9375 -9.640625 C 10.488281 -10.179688 9.898438 -10.453125 9.171875 -10.453125 C 8.453125 -10.453125 7.800781 -10.175781 7.21875 -9.625 C 6.632812 -9.070312 6.34375 -8.453125 6.34375 -7.765625 L 6.34375 0 Z M 1.609375 0 "/></g></g></g><g fill="#ffffff" fill-opacity="1"><g transform="translate(137.570073, 33.157198)"><g><path d="M 0.984375 3.375 L 4.875 1.46875 C 5.59375 2.65625 6.835938 3.25 8.609375 3.25 C 9.421875 3.25 10.179688 2.984375 10.890625 2.453125 C 11.597656 1.921875 11.953125 1.113281 11.953125 0.03125 L 11.953125 -0.984375 C 11.109375 -0.0546875 9.609375 0.40625 7.453125 0.40625 C 5.460938 0.40625 3.820312 -0.296875 2.53125 -1.703125 C 1.25 -3.109375 0.609375 -4.828125 0.609375 -6.859375 C 0.609375 -8.898438 1.25 -10.625 2.53125 -12.03125 C 3.820312 -13.445312 5.460938 -14.15625 7.453125 -14.15625 C 9.222656 -14.15625 10.695312 -13.609375 11.875 -12.515625 L 11.953125 -12.515625 L 11.953125 -13.75 L 16.6875 -13.75 L 16.6875 0.375 C 16.6875 2.601562 15.945312 4.328125 14.46875 5.546875 C 12.988281 6.765625 11.035156 7.375 8.609375 7.375 C 4.671875 7.375 2.128906 6.039062 0.984375 3.375 Z M 6.578125 -9.1875 C 5.960938 -8.582031 5.65625 -7.804688 5.65625 -6.859375 C 5.65625 -5.910156 5.945312 -5.132812 6.53125 -4.53125 C 7.125 -3.9375 7.90625 -3.640625 8.875 -3.640625 C 9.800781 -3.640625 10.5625 -3.941406 11.15625 -4.546875 C 11.757812 -5.160156 12.0625 -5.929688 12.0625 -6.859375 C 12.0625 -7.804688 11.75 -8.582031 11.125 -9.1875 C 10.507812 -9.800781 9.757812 -10.109375 8.875 -10.109375 C 7.957031 -10.109375 7.191406 -9.800781 6.578125 -9.1875 Z M 6.578125 -9.1875 "/></g></g></g><g fill="#ffffff" fill-opacity="1"><g transform="translate(155.872367, 33.157198)"><g/></g></g><g fill="#ffffff" fill-opacity="1"><g transform="translate(163.187924, 33.157198)"><g><path d="M 1.609375 -22.109375 L 9.515625 -22.109375 C 11.640625 -22.109375 13.367188 -21.539062 14.703125 -20.40625 C 16.046875 -19.269531 16.71875 -17.648438 16.71875 -15.546875 C 16.71875 -13.921875 16.3125 -12.554688 15.5 -11.453125 C 14.6875 -10.359375 13.582031 -9.585938 12.1875 -9.140625 L 19.796875 0 L 13.390625 0 L 6.640625 -8.734375 L 6.640625 0 L 1.609375 0 Z M 6.640625 -12.296875 L 7.234375 -12.296875 C 7.703125 -12.296875 8.09375 -12.304688 8.40625 -12.328125 C 8.726562 -12.347656 9.09375 -12.410156 9.5 -12.515625 C 9.914062 -12.617188 10.25 -12.769531 10.5 -12.96875 C 10.75 -13.164062 10.960938 -13.453125 11.140625 -13.828125 C 11.328125 -14.203125 11.421875 -14.65625 11.421875 -15.1875 C 11.421875 -15.726562 11.328125 -16.1875 11.140625 -16.5625 C 10.960938 -16.9375 10.75 -17.222656 10.5 -17.421875 C 10.25 -17.617188 9.914062 -17.769531 9.5 -17.875 C 9.09375 -17.976562 8.726562 -18.039062 8.40625 -18.0625 C 8.09375 -18.082031 7.703125 -18.09375 7.234375 -18.09375 L 6.640625 -18.09375 Z M 6.640625 -12.296875 "/></g></g></g><g fill="#ffffff" fill-opacity="1"><g transform="translate(182.374518, 33.157198)"><g><path d="M 2.53125 -1.703125 C 1.25 -3.109375 0.609375 -4.828125 0.609375 -6.859375 C 0.609375 -8.898438 1.25 -10.625 2.53125 -12.03125 C 3.820312 -13.445312 5.460938 -14.15625 7.453125 -14.15625 C 9.273438 -14.15625 10.773438 -13.582031 11.953125 -12.4375 L 11.953125 -13.75 L 16.6875 -13.75 L 16.6875 0 L 12 0 L 12 -1.546875 L 11.953125 -1.546875 C 10.773438 -0.242188 9.273438 0.40625 7.453125 0.40625 C 5.460938 0.40625 3.820312 -0.296875 2.53125 -1.703125 Z M 6.578125 -9.1875 C 5.960938 -8.582031 5.65625 -7.804688 5.65625 -6.859375 C 5.65625 -5.910156 5.945312 -5.132812 6.53125 -4.53125 C 7.125 -3.9375 7.90625 -3.640625 8.875 -3.640625 C 9.800781 -3.640625 10.5625 -3.941406 11.15625 -4.546875 C 11.757812 -5.160156 12.0625 -5.929688 12.0625 -6.859375 C 12.0625 -7.804688 11.75 -8.582031 11.125 -9.1875 C 10.507812 -9.800781 9.757812 -10.109375 8.875 -10.109375 C 7.957031 -10.109375 7.191406 -9.800781 6.578125 -9.1875 Z M 6.578125 -9.1875 "/></g></g></g><g fill="#ffffff" fill-opacity="1"><g transform="translate(200.676813, 33.157198)"><g><path d="M 2.40625 -13.75 L 2.40625 -18.859375 L 7.15625 -18.859375 L 7.15625 -13.75 L 10.046875 -13.75 L 10.046875 -10.125 L 7.15625 -10.125 L 7.15625 -5.765625 C 7.15625 -4.492188 7.515625 -3.859375 8.234375 -3.859375 C 8.410156 -3.859375 8.59375 -3.894531 8.78125 -3.96875 C 8.976562 -4.039062 9.132812 -4.113281 9.25 -4.1875 L 9.40625 -4.28125 L 10.578125 -0.453125 C 9.566406 0.117188 8.40625 0.40625 7.09375 0.40625 C 6.207031 0.40625 5.441406 0.25 4.796875 -0.0625 C 4.148438 -0.375 3.660156 -0.789062 3.328125 -1.3125 C 3.003906 -1.84375 2.769531 -2.398438 2.625 -2.984375 C 2.476562 -3.566406 2.40625 -4.1875 2.40625 -4.84375 L 2.40625 -10.125 L 0.421875 -10.125 L 0.421875 -13.75 Z M 2.40625 -13.75 "/></g></g></g><g fill="#ffffff" fill-opacity="1"><g transform="translate(211.261589, 33.157198)"><g><path d="M 15.515625 -6.21875 L 5.546875 -6.21875 C 5.546875 -5.25 5.859375 -4.53125 6.484375 -4.0625 C 7.109375 -3.601562 7.785156 -3.375 8.515625 -3.375 C 9.285156 -3.375 9.894531 -3.476562 10.34375 -3.6875 C 10.789062 -3.894531 11.300781 -4.300781 11.875 -4.90625 L 15.296875 -3.1875 C 13.867188 -0.789062 11.492188 0.40625 8.171875 0.40625 C 6.097656 0.40625 4.316406 -0.300781 2.828125 -1.71875 C 1.347656 -3.144531 0.609375 -4.859375 0.609375 -6.859375 C 0.609375 -8.859375 1.347656 -10.570312 2.828125 -12 C 4.316406 -13.4375 6.097656 -14.15625 8.171875 -14.15625 C 10.347656 -14.15625 12.117188 -13.523438 13.484375 -12.265625 C 14.859375 -11.003906 15.546875 -9.203125 15.546875 -6.859375 C 15.546875 -6.535156 15.535156 -6.320312 15.515625 -6.21875 Z M 5.6875 -8.84375 L 10.90625 -8.84375 C 10.800781 -9.5625 10.519531 -10.109375 10.0625 -10.484375 C 9.601562 -10.867188 9.019531 -11.0625 8.3125 -11.0625 C 7.519531 -11.0625 6.890625 -10.851562 6.421875 -10.4375 C 5.960938 -10.03125 5.71875 -9.5 5.6875 -8.84375 Z M 5.6875 -8.84375 "/></g></g></g><g fill="#ffffff" fill-opacity="1"><g transform="translate(227.420127, 33.157198)"><g><path d="M 4.65625 -14.84375 C 5.519531 -14.84375 6.25 -14.539062 6.84375 -13.9375 C 7.445312 -13.34375 7.75 -12.617188 7.75 -11.765625 C 7.75 -10.921875 7.445312 -10.195312 6.84375 -9.59375 C 6.25 -9 5.519531 -8.703125 4.65625 -8.703125 C 3.820312 -8.703125 3.101562 -9 2.5 -9.59375 C 1.90625 -10.195312 1.609375 -10.921875 1.609375 -11.765625 C 1.609375 -12.617188 1.90625 -13.34375 2.5 -13.9375 C 3.101562 -14.539062 3.820312 -14.84375 4.65625 -14.84375 Z M 4.65625 -5.734375 C 5.519531 -5.734375 6.25 -5.429688 6.84375 -4.828125 C 7.445312 -4.234375 7.75 -3.507812 7.75 -2.65625 C 7.75 -1.8125 7.445312 -1.085938 6.84375 -0.484375 C 6.25 0.109375 5.519531 0.40625 4.65625 0.40625 C 3.820312 0.40625 3.101562 0.109375 2.5 -0.484375 C 1.90625 -1.085938 1.609375 -1.8125 1.609375 -2.65625 C 1.609375 -3.507812 1.90625 -4.234375 2.5 -4.828125 C 3.101562 -5.429688 3.820312 -5.734375 4.65625 -5.734375 Z M 4.65625 -5.734375 "/></g></g></g><g fill="#ffffff" fill-opacity="1"><g transform="translate(236.776089, 33.157198)"><g/></g></g><g fill="#ffffff" fill-opacity="1"><g transform="translate(10.494986, 70.017278)"><g/></g></g><g fill="#ffffff" fill-opacity="1"><g transform="translate(17.810543, 70.017278)"><g/></g></g><g fill="#ffffff" fill-opacity="1"><g transform="translate(25.1261, 70.017278)"><g/></g></g><g fill="#ffffff" fill-opacity="1"><g transform="translate(32.441657, 70.017278)"><g/></g></g><g fill="#ffffff" fill-opacity="1"><g transform="translate(39.757215, 70.017278)"><g/></g></g><g fill="#ffffff" fill-opacity="1"><g transform="translate(47.072772, 70.017278)"><g/></g></g><g fill="#ffffff" fill-opacity="1"><g transform="translate(54.388329, 70.017278)"><g/></g></g><g fill="#ffffff" fill-opacity="1"><g transform="translate(61.703886, 70.017278)"><g/></g></g><g fill="#ffffff" fill-opacity="1"><g transform="translate(69.019444, 70.017278)"><g/></g></g><g fill="#ffffff" fill-opacity="1"><g transform="translate(76.335001, 70.017278)"><g/></g></g><g fill="#ffffff" fill-opacity="1"><g transform="translate(83.650558, 70.017278)"><g/></g></g><g fill="#ffffff" fill-opacity="1"><g transform="translate(90.966115, 70.017278)"><g/></g></g><g fill="#fab400" fill-opacity="1"><g transform="translate(98.288995, 70.017278)"><g><path d="M 9.734375 -18.25 C 9.015625 -18.25 8.328125 -17.894531 7.671875 -17.1875 C 7.023438 -16.476562 6.550781 -15.78125 6.25 -15.09375 L 5.78125 -14.046875 L 1.578125 -16.078125 C 1.628906 -16.253906 1.71875 -16.484375 1.84375 -16.765625 C 1.96875 -17.054688 2.265625 -17.570312 2.734375 -18.3125 C 3.203125 -19.050781 3.71875 -19.703125 4.28125 -20.265625 C 4.84375 -20.828125 5.609375 -21.34375 6.578125 -21.8125 C 7.546875 -22.28125 8.597656 -22.515625 9.734375 -22.515625 C 11.171875 -22.515625 12.429688 -22.328125 13.515625 -21.953125 C 14.597656 -21.585938 15.429688 -21.132812 16.015625 -20.59375 C 16.609375 -20.050781 17.085938 -19.40625 17.453125 -18.65625 C 17.816406 -17.914062 18.046875 -17.242188 18.140625 -16.640625 C 18.242188 -16.035156 18.296875 -15.398438 18.296875 -14.734375 C 18.296875 -13.773438 18.023438 -12.765625 17.484375 -11.703125 C 16.953125 -10.640625 16.304688 -9.691406 15.546875 -8.859375 C 14.796875 -8.023438 14.035156 -7.265625 13.265625 -6.578125 C 12.492188 -5.890625 11.84375 -5.359375 11.3125 -4.984375 L 10.5 -4.421875 L 18.703125 -4.421875 L 18.703125 0 L 1.46875 0 L 1.46875 -1.265625 C 1.769531 -1.515625 2.179688 -1.859375 2.703125 -2.296875 C 3.222656 -2.734375 4.132812 -3.566406 5.4375 -4.796875 C 6.738281 -6.023438 7.890625 -7.179688 8.890625 -8.265625 C 9.890625 -9.347656 10.800781 -10.503906 11.625 -11.734375 C 12.445312 -12.972656 12.859375 -13.972656 12.859375 -14.734375 C 12.859375 -15.035156 12.828125 -15.335938 12.765625 -15.640625 C 12.703125 -15.953125 12.582031 -16.328125 12.40625 -16.765625 C 12.226562 -17.203125 11.90625 -17.554688 11.4375 -17.828125 C 10.976562 -18.109375 10.410156 -18.25 9.734375 -18.25 Z M 9.734375 -18.25 "/></g></g></g><g fill="#fab400" fill-opacity="1"><g transform="translate(118.467079, 70.017278)"><g><path d="M 9.734375 -18.25 C 9.015625 -18.25 8.328125 -17.894531 7.671875 -17.1875 C 7.023438 -16.476562 6.550781 -15.78125 6.25 -15.09375 L 5.78125 -14.046875 L 1.578125 -16.078125 C 1.628906 -16.253906 1.71875 -16.484375 1.84375 -16.765625 C 1.96875 -17.054688 2.265625 -17.570312 2.734375 -18.3125 C 3.203125 -19.050781 3.71875 -19.703125 4.28125 -20.265625 C 4.84375 -20.828125 5.609375 -21.34375 6.578125 -21.8125 C 7.546875 -22.28125 8.597656 -22.515625 9.734375 -22.515625 C 11.171875 -22.515625 12.429688 -22.328125 13.515625 -21.953125 C 14.597656 -21.585938 15.429688 -21.132812 16.015625 -20.59375 C 16.609375 -20.050781 17.085938 -19.40625 17.453125 -18.65625 C 17.816406 -17.914062 18.046875 -17.242188 18.140625 -16.640625 C 18.242188 -16.035156 18.296875 -15.398438 18.296875 -14.734375 C 18.296875 -13.773438 18.023438 -12.765625 17.484375 -11.703125 C 16.953125 -10.640625 16.304688 -9.691406 15.546875 -8.859375 C 14.796875 -8.023438 14.035156 -7.265625 13.265625 -6.578125 C 12.492188 -5.890625 11.84375 -5.359375 11.3125 -4.984375 L 10.5 -4.421875 L 18.703125 -4.421875 L 18.703125 0 L 1.46875 0 L 1.46875 -1.265625 C 1.769531 -1.515625 2.179688 -1.859375 2.703125 -2.296875 C 3.222656 -2.734375 4.132812 -3.566406 5.4375 -4.796875 C 6.738281 -6.023438 7.890625 -7.179688 8.890625 -8.265625 C 9.890625 -9.347656 10.800781 -10.503906 11.625 -11.734375 C 12.445312 -12.972656 12.859375 -13.972656 12.859375 -14.734375 C 12.859375 -15.035156 12.828125 -15.335938 12.765625 -15.640625 C 12.703125 -15.953125 12.582031 -16.328125 12.40625 -16.765625 C 12.226562 -17.203125 11.90625 -17.554688 11.4375 -17.828125 C 10.976562 -18.109375 10.410156 -18.25 9.734375 -18.25 Z M 9.734375 -18.25 "/></g></g></g><g fill="#fab400" fill-opacity="1"><g transform="translate(138.645162, 70.017278)"><g><path d="M 15.546875 -22.109375 L 9.03125 -14.53125 C 9.40625 -14.738281 9.929688 -14.84375 10.609375 -14.84375 C 11.398438 -14.84375 12.195312 -14.675781 13 -14.34375 C 13.800781 -14.019531 14.550781 -13.546875 15.25 -12.921875 C 15.957031 -12.304688 16.535156 -11.488281 16.984375 -10.46875 C 17.429688 -9.457031 17.65625 -8.332031 17.65625 -7.09375 C 17.65625 -5.84375 17.414062 -4.722656 16.9375 -3.734375 C 16.46875 -2.742188 15.835938 -1.957031 15.046875 -1.375 C 14.253906 -0.800781 13.382812 -0.359375 12.4375 -0.046875 C 11.488281 0.253906 10.492188 0.40625 9.453125 0.40625 C 6.972656 0.40625 4.882812 -0.316406 3.1875 -1.765625 C 1.488281 -3.210938 0.640625 -4.988281 0.640625 -7.09375 C 0.640625 -8.882812 0.890625 -10.351562 1.390625 -11.5 C 1.890625 -12.65625 2.800781 -14.128906 4.125 -15.921875 L 9.328125 -22.109375 Z M 5.875 -7.09375 C 5.875 -6.132812 6.1875 -5.335938 6.8125 -4.703125 C 7.4375 -4.066406 8.238281 -3.75 9.21875 -3.75 C 10.195312 -3.75 11.007812 -4.066406 11.65625 -4.703125 C 12.300781 -5.335938 12.625 -6.132812 12.625 -7.09375 C 12.625 -8.082031 12.296875 -8.898438 11.640625 -9.546875 C 10.992188 -10.203125 10.1875 -10.53125 9.21875 -10.53125 C 8.289062 -10.53125 7.5 -10.203125 6.84375 -9.546875 C 6.195312 -8.898438 5.875 -8.082031 5.875 -7.09375 Z M 5.875 -7.09375 "/></g></g></g><g fill="#fab400" fill-opacity="1"><g transform="translate(157.108243, 70.017278)"><g/></g></g><g fill="#fab400" fill-opacity="1"><g transform="translate(164.4238, 70.017278)"><g><path d="M 1.609375 -22.109375 L 8.46875 -22.109375 C 10.539062 -22.109375 12.191406 -21.664062 13.421875 -20.78125 C 14.660156 -19.894531 15.28125 -18.460938 15.28125 -16.484375 C 15.28125 -14.265625 14.359375 -12.679688 12.515625 -11.734375 C 15.660156 -11.179688 17.234375 -9.320312 17.234375 -6.15625 C 17.234375 -4.300781 16.585938 -2.8125 15.296875 -1.6875 C 14.015625 -0.5625 12.25 0 10 0 L 1.609375 0 Z M 6.640625 -13.453125 L 7.046875 -13.453125 C 8.171875 -13.453125 9.007812 -13.644531 9.5625 -14.03125 C 10.113281 -14.425781 10.390625 -15.070312 10.390625 -15.96875 C 10.390625 -17.46875 9.273438 -18.21875 7.046875 -18.21875 L 6.640625 -18.21875 Z M 6.640625 -3.890625 L 8.234375 -3.890625 C 10.691406 -3.890625 11.921875 -4.707031 11.921875 -6.34375 C 11.921875 -7.332031 11.613281 -8.039062 11 -8.46875 C 10.382812 -8.894531 9.460938 -9.109375 8.234375 -9.109375 L 6.640625 -9.109375 Z M 6.640625 -3.890625 "/></g></g></g><g fill="#fab400" fill-opacity="1"><g transform="translate(182.270549, 70.017278)"><g><path d="M 1.609375 -22.109375 L 9.671875 -22.109375 C 11.921875 -22.109375 13.742188 -21.523438 15.140625 -20.359375 C 16.535156 -19.203125 17.234375 -17.515625 17.234375 -15.296875 C 17.234375 -13.085938 16.523438 -11.351562 15.109375 -10.09375 C 13.703125 -8.832031 11.890625 -8.203125 9.671875 -8.203125 L 6.640625 -8.203125 L 6.640625 0 L 1.609375 0 Z M 6.640625 -12.21875 L 8.0625 -12.21875 C 9.1875 -12.21875 10.109375 -12.445312 10.828125 -12.90625 C 11.554688 -13.363281 11.921875 -14.109375 11.921875 -15.140625 C 11.921875 -16.191406 11.554688 -16.945312 10.828125 -17.40625 C 10.109375 -17.863281 9.1875 -18.09375 8.0625 -18.09375 L 6.640625 -18.09375 Z M 6.640625 -12.21875 "/></g></g></g><g fill="#fab400" fill-opacity="1"><g transform="translate(200.117298, 70.017278)"><g><path d="M 19.890625 0 L 18.84375 -13.109375 L 18.703125 -13.109375 L 14.171875 -0.140625 L 11.171875 -0.140625 L 6.640625 -13.109375 L 6.515625 -13.109375 L 5.46875 0 L 0.421875 0 L 2.40625 -22.109375 L 7.765625 -22.109375 L 12.671875 -9.359375 L 17.578125 -22.109375 L 22.9375 -22.109375 L 24.921875 0 Z M 19.890625 0 "/></g></g></g><g fill="#ffffff" fill-opacity="1"><g transform="translate(225.477215, 70.017278)"><g/></g></g><g fill="#ffffff" fill-opacity="1"><g transform="translate(21.701165, 103.480313)"><g><path d="M 10.515625 -24.25 C 11.796875 -24.25 13.050781 -24.0625 14.28125 -23.6875 C 15.519531 -23.3125 16.4375 -22.941406 17.03125 -22.578125 L 17.90625 -22 L 15.703125 -17.671875 C 15.535156 -17.785156 15.296875 -17.929688 14.984375 -18.109375 C 14.679688 -18.296875 14.101562 -18.539062 13.25 -18.84375 C 12.40625 -19.15625 11.617188 -19.3125 10.890625 -19.3125 C 9.984375 -19.3125 9.285156 -19.117188 8.796875 -18.734375 C 8.304688 -18.347656 8.0625 -17.832031 8.0625 -17.1875 C 8.0625 -16.851562 8.175781 -16.546875 8.40625 -16.265625 C 8.632812 -15.992188 9.023438 -15.695312 9.578125 -15.375 C 10.140625 -15.0625 10.628906 -14.804688 11.046875 -14.609375 C 11.472656 -14.421875 12.128906 -14.132812 13.015625 -13.75 C 14.554688 -13.09375 15.867188 -12.203125 16.953125 -11.078125 C 18.046875 -9.953125 18.59375 -8.675781 18.59375 -7.25 C 18.59375 -5.882812 18.347656 -4.691406 17.859375 -3.671875 C 17.367188 -2.648438 16.691406 -1.847656 15.828125 -1.265625 C 14.972656 -0.691406 14.023438 -0.265625 12.984375 0.015625 C 11.953125 0.296875 10.828125 0.4375 9.609375 0.4375 C 8.578125 0.4375 7.554688 0.328125 6.546875 0.109375 C 5.546875 -0.0976562 4.707031 -0.359375 4.03125 -0.671875 C 3.363281 -0.992188 2.757812 -1.304688 2.21875 -1.609375 C 1.6875 -1.921875 1.296875 -2.179688 1.046875 -2.390625 L 0.671875 -2.71875 L 3.375 -7.28125 C 3.601562 -7.082031 3.921875 -6.832031 4.328125 -6.53125 C 4.734375 -6.238281 5.453125 -5.84375 6.484375 -5.34375 C 7.515625 -4.84375 8.425781 -4.59375 9.21875 -4.59375 C 11.5 -4.59375 12.640625 -5.375 12.640625 -6.9375 C 12.640625 -7.257812 12.554688 -7.5625 12.390625 -7.84375 C 12.234375 -8.125 11.945312 -8.398438 11.53125 -8.671875 C 11.125 -8.953125 10.757812 -9.175781 10.4375 -9.34375 C 10.125 -9.507812 9.601562 -9.757812 8.875 -10.09375 C 8.15625 -10.425781 7.625 -10.679688 7.28125 -10.859375 C 5.832031 -11.566406 4.710938 -12.453125 3.921875 -13.515625 C 3.140625 -14.585938 2.75 -15.742188 2.75 -16.984375 C 2.75 -19.117188 3.535156 -20.863281 5.109375 -22.21875 C 6.691406 -23.570312 8.492188 -24.25 10.515625 -24.25 Z M 10.515625 -24.25 "/></g></g></g><g fill="#ffffff" fill-opacity="1"><g transform="translate(41.105975, 103.480313)"><g><path d="M 2.59375 -14.8125 L 2.59375 -20.328125 L 7.703125 -20.328125 L 7.703125 -14.8125 L 10.828125 -14.8125 L 10.828125 -10.921875 L 7.703125 -10.921875 L 7.703125 -6.203125 C 7.703125 -4.835938 8.085938 -4.15625 8.859375 -4.15625 C 9.054688 -4.15625 9.257812 -4.191406 9.46875 -4.265625 C 9.675781 -4.347656 9.84375 -4.425781 9.96875 -4.5 L 10.140625 -4.625 L 11.40625 -0.484375 C 10.3125 0.128906 9.0625 0.4375 7.65625 0.4375 C 6.6875 0.4375 5.851562 0.269531 5.15625 -0.0625 C 4.46875 -0.40625 3.945312 -0.859375 3.59375 -1.421875 C 3.238281 -1.992188 2.984375 -2.59375 2.828125 -3.21875 C 2.671875 -3.84375 2.59375 -4.507812 2.59375 -5.21875 L 2.59375 -10.921875 L 0.46875 -10.921875 L 0.46875 -14.8125 Z M 2.59375 -14.8125 "/></g></g></g><g fill="#ffffff" fill-opacity="1"><g transform="translate(52.512075, 103.480313)"><g><path d="M 2.75 -1.828125 C 1.363281 -3.335938 0.671875 -5.191406 0.671875 -7.390625 C 0.671875 -9.585938 1.363281 -11.445312 2.75 -12.96875 C 4.132812 -14.488281 5.894531 -15.25 8.03125 -15.25 C 9.988281 -15.25 11.601562 -14.628906 12.875 -13.390625 L 12.875 -14.8125 L 17.984375 -14.8125 L 17.984375 0 L 12.9375 0 L 12.9375 -1.671875 L 12.875 -1.671875 C 11.601562 -0.265625 9.988281 0.4375 8.03125 0.4375 C 5.894531 0.4375 4.132812 -0.316406 2.75 -1.828125 Z M 7.078125 -9.90625 C 6.421875 -9.25 6.09375 -8.410156 6.09375 -7.390625 C 6.09375 -6.367188 6.410156 -5.535156 7.046875 -4.890625 C 7.679688 -4.242188 8.519531 -3.921875 9.5625 -3.921875 C 10.5625 -3.921875 11.382812 -4.25 12.03125 -4.90625 C 12.675781 -5.5625 13 -6.390625 13 -7.390625 C 13 -8.410156 12.664062 -9.25 12 -9.90625 C 11.332031 -10.5625 10.519531 -10.890625 9.5625 -10.890625 C 8.570312 -10.890625 7.742188 -10.5625 7.078125 -9.90625 Z M 7.078125 -9.90625 "/></g></g></g><g fill="#ffffff" fill-opacity="1"><g transform="translate(72.234521, 103.480313)"><g><path d="M 2.59375 -14.8125 L 2.59375 -20.328125 L 7.703125 -20.328125 L 7.703125 -14.8125 L 10.828125 -14.8125 L 10.828125 -10.921875 L 7.703125 -10.921875 L 7.703125 -6.203125 C 7.703125 -4.835938 8.085938 -4.15625 8.859375 -4.15625 C 9.054688 -4.15625 9.257812 -4.191406 9.46875 -4.265625 C 9.675781 -4.347656 9.84375 -4.425781 9.96875 -4.5 L 10.140625 -4.625 L 11.40625 -0.484375 C 10.3125 0.128906 9.0625 0.4375 7.65625 0.4375 C 6.6875 0.4375 5.851562 0.269531 5.15625 -0.0625 C 4.46875 -0.40625 3.945312 -0.859375 3.59375 -1.421875 C 3.238281 -1.992188 2.984375 -2.59375 2.828125 -3.21875 C 2.671875 -3.84375 2.59375 -4.507812 2.59375 -5.21875 L 2.59375 -10.921875 L 0.46875 -10.921875 L 0.46875 -14.8125 Z M 2.59375 -14.8125 "/></g></g></g><g fill="#ffffff" fill-opacity="1"><g transform="translate(83.640621, 103.480313)"><g><path d="M 16.71875 -6.703125 L 5.984375 -6.703125 C 5.984375 -5.660156 6.316406 -4.890625 6.984375 -4.390625 C 7.660156 -3.890625 8.394531 -3.640625 9.1875 -3.640625 C 10.007812 -3.640625 10.660156 -3.75 11.140625 -3.96875 C 11.628906 -4.1875 12.179688 -4.625 12.796875 -5.28125 L 16.484375 -3.4375 C 14.941406 -0.851562 12.382812 0.4375 8.8125 0.4375 C 6.570312 0.4375 4.65625 -0.328125 3.0625 -1.859375 C 1.46875 -3.390625 0.671875 -5.234375 0.671875 -7.390625 C 0.671875 -9.546875 1.46875 -11.394531 3.0625 -12.9375 C 4.65625 -14.476562 6.570312 -15.25 8.8125 -15.25 C 11.15625 -15.25 13.0625 -14.566406 14.53125 -13.203125 C 16.007812 -11.847656 16.75 -9.910156 16.75 -7.390625 C 16.75 -7.046875 16.738281 -6.816406 16.71875 -6.703125 Z M 6.125 -9.53125 L 11.75 -9.53125 C 11.632812 -10.300781 11.332031 -10.890625 10.84375 -11.296875 C 10.351562 -11.710938 9.722656 -11.921875 8.953125 -11.921875 C 8.109375 -11.921875 7.429688 -11.695312 6.921875 -11.25 C 6.421875 -10.8125 6.15625 -10.238281 6.125 -9.53125 Z M 6.125 -9.53125 "/></g></g></g><g fill="#ffffff" fill-opacity="1"><g transform="translate(101.052971, 103.480313)"><g><path d="M 5.03125 -16 C 5.945312 -16 6.726562 -15.675781 7.375 -15.03125 C 8.019531 -14.382812 8.34375 -13.597656 8.34375 -12.671875 C 8.34375 -11.765625 8.019531 -10.988281 7.375 -10.34375 C 6.726562 -9.707031 5.945312 -9.390625 5.03125 -9.390625 C 4.125 -9.390625 3.347656 -9.707031 2.703125 -10.34375 C 2.054688 -10.988281 1.734375 -11.765625 1.734375 -12.671875 C 1.734375 -13.597656 2.054688 -14.382812 2.703125 -15.03125 C 3.347656 -15.675781 4.125 -16 5.03125 -16 Z M 5.03125 -6.171875 C 5.945312 -6.171875 6.726562 -5.847656 7.375 -5.203125 C 8.019531 -4.566406 8.34375 -3.785156 8.34375 -2.859375 C 8.34375 -1.953125 8.019531 -1.175781 7.375 -0.53125 C 6.726562 0.113281 5.945312 0.4375 5.03125 0.4375 C 4.125 0.4375 3.347656 0.113281 2.703125 -0.53125 C 2.054688 -1.175781 1.734375 -1.953125 1.734375 -2.859375 C 1.734375 -3.785156 2.054688 -4.566406 2.703125 -5.203125 C 3.347656 -5.847656 4.125 -6.171875 5.03125 -6.171875 Z M 5.03125 -6.171875 "/></g></g></g><g fill="#ffffff" fill-opacity="1"><g transform="translate(111.130768, 103.480313)"><g/></g></g><g fill="#f86800" fill-opacity="1"><g transform="translate(119.021251, 103.480313)"><g><path d="M 1.734375 -23.828125 L 10.421875 -23.828125 C 12.847656 -23.828125 14.8125 -23.195312 16.3125 -21.9375 C 17.8125 -20.6875 18.5625 -18.867188 18.5625 -16.484375 C 18.5625 -14.097656 17.800781 -12.222656 16.28125 -10.859375 C 14.757812 -9.503906 12.804688 -8.828125 10.421875 -8.828125 L 7.15625 -8.828125 L 7.15625 0 L 1.734375 0 Z M 7.15625 -13.171875 L 8.6875 -13.171875 C 9.90625 -13.171875 10.898438 -13.414062 11.671875 -13.90625 C 12.453125 -14.394531 12.84375 -15.195312 12.84375 -16.3125 C 12.84375 -17.445312 12.453125 -18.257812 11.671875 -18.75 C 10.898438 -19.238281 9.90625 -19.484375 8.6875 -19.484375 L 7.15625 -19.484375 Z M 7.15625 -13.171875 "/></g></g></g><g fill="#f86800" fill-opacity="1"><g transform="translate(138.252807, 103.480313)"><g><path d="M 2.75 -1.828125 C 1.363281 -3.335938 0.671875 -5.191406 0.671875 -7.390625 C 0.671875 -9.585938 1.363281 -11.445312 2.75 -12.96875 C 4.132812 -14.488281 5.894531 -15.25 8.03125 -15.25 C 9.988281 -15.25 11.601562 -14.628906 12.875 -13.390625 L 12.875 -14.8125 L 17.984375 -14.8125 L 17.984375 0 L 12.9375 0 L 12.9375 -1.671875 L 12.875 -1.671875 C 11.601562 -0.265625 9.988281 0.4375 8.03125 0.4375 C 5.894531 0.4375 4.132812 -0.316406 2.75 -1.828125 Z M 7.078125 -9.90625 C 6.421875 -9.25 6.09375 -8.410156 6.09375 -7.390625 C 6.09375 -6.367188 6.410156 -5.535156 7.046875 -4.890625 C 7.679688 -4.242188 8.519531 -3.921875 9.5625 -3.921875 C 10.5625 -3.921875 11.382812 -4.25 12.03125 -4.90625 C 12.675781 -5.5625 13 -6.390625 13 -7.390625 C 13 -8.410156 12.664062 -9.25 12 -9.90625 C 11.332031 -10.5625 10.519531 -10.890625 9.5625 -10.890625 C 8.570312 -10.890625 7.742188 -10.5625 7.078125 -9.90625 Z M 7.078125 -9.90625 "/></g></g></g><g fill="#f86800" fill-opacity="1"><g transform="translate(157.975253, 103.480313)"><g><path d="M 1.734375 0 L 1.734375 -14.8125 L 6.84375 -14.8125 L 6.84375 -13.25 L 6.90625 -13.25 C 8.226562 -14.582031 9.640625 -15.25 11.140625 -15.25 C 11.878906 -15.25 12.609375 -15.148438 13.328125 -14.953125 C 14.046875 -14.765625 14.738281 -14.46875 15.40625 -14.0625 C 16.070312 -13.65625 16.609375 -13.082031 17.015625 -12.34375 C 17.429688 -11.601562 17.640625 -10.742188 17.640625 -9.765625 L 17.640625 0 L 12.53125 0 L 12.53125 -8.375 C 12.53125 -9.144531 12.285156 -9.816406 11.796875 -10.390625 C 11.304688 -10.972656 10.664062 -11.265625 9.875 -11.265625 C 9.101562 -11.265625 8.40625 -10.960938 7.78125 -10.359375 C 7.15625 -9.765625 6.84375 -9.101562 6.84375 -8.375 L 6.84375 0 Z M 1.734375 0 "/></g></g></g><g fill="#f86800" fill-opacity="1"><g transform="translate(177.062426, 103.480313)"><g><path d="M 2.59375 -14.8125 L 2.59375 -20.328125 L 7.703125 -20.328125 L 7.703125 -14.8125 L 10.828125 -14.8125 L 10.828125 -10.921875 L 7.703125 -10.921875 L 7.703125 -6.203125 C 7.703125 -4.835938 8.085938 -4.15625 8.859375 -4.15625 C 9.054688 -4.15625 9.257812 -4.191406 9.46875 -4.265625 C 9.675781 -4.347656 9.84375 -4.425781 9.96875 -4.5 L 10.140625 -4.625 L 11.40625 -0.484375 C 10.3125 0.128906 9.0625 0.4375 7.65625 0.4375 C 6.6875 0.4375 5.851562 0.269531 5.15625 -0.0625 C 4.46875 -0.40625 3.945312 -0.859375 3.59375 -1.421875 C 3.238281 -1.992188 2.984375 -2.59375 2.828125 -3.21875 C 2.671875 -3.84375 2.59375 -4.507812 2.59375 -5.21875 L 2.59375 -10.921875 L 0.46875 -10.921875 L 0.46875 -14.8125 Z M 2.59375 -14.8125 "/></g></g></g><g fill="#f86800" fill-opacity="1"><g transform="translate(188.468526, 103.480313)"><g><path d="M 2.21875 -23.0625 C 2.820312 -23.664062 3.535156 -23.96875 4.359375 -23.96875 C 5.191406 -23.96875 5.90625 -23.664062 6.5 -23.0625 C 7.09375 -22.46875 7.390625 -21.753906 7.390625 -20.921875 C 7.390625 -20.097656 7.09375 -19.390625 6.5 -18.796875 C 5.90625 -18.203125 5.191406 -17.90625 4.359375 -17.90625 C 3.535156 -17.90625 2.820312 -18.203125 2.21875 -18.796875 C 1.625 -19.390625 1.328125 -20.097656 1.328125 -20.921875 C 1.328125 -21.753906 1.625 -22.46875 2.21875 -23.0625 Z M 1.734375 -14.8125 L 1.734375 0 L 6.84375 0 L 6.84375 -14.8125 Z M 1.734375 -14.8125 "/></g></g></g><g fill="#f86800" fill-opacity="1"><g transform="translate(197.189137, 103.480313)"><g><path d="M 1.734375 0 L 1.734375 -14.8125 L 6.84375 -14.8125 L 6.84375 -13.25 L 6.90625 -13.25 C 8.226562 -14.582031 9.640625 -15.25 11.140625 -15.25 C 11.878906 -15.25 12.609375 -15.148438 13.328125 -14.953125 C 14.046875 -14.765625 14.738281 -14.46875 15.40625 -14.0625 C 16.070312 -13.65625 16.609375 -13.082031 17.015625 -12.34375 C 17.429688 -11.601562 17.640625 -10.742188 17.640625 -9.765625 L 17.640625 0 L 12.53125 0 L 12.53125 -8.375 C 12.53125 -9.144531 12.285156 -9.816406 11.796875 -10.390625 C 11.304688 -10.972656 10.664062 -11.265625 9.875 -11.265625 C 9.101562 -11.265625 8.40625 -10.960938 7.78125 -10.359375 C 7.15625 -9.765625 6.84375 -9.101562 6.84375 -8.375 L 6.84375 0 Z M 1.734375 0 "/></g></g></g><g fill="#f86800" fill-opacity="1"><g transform="translate(216.27631, 103.480313)"><g><path d="M 1.0625 3.640625 L 5.25 1.59375 C 6.019531 2.863281 7.359375 3.5 9.265625 3.5 C 10.148438 3.5 10.972656 3.210938 11.734375 2.640625 C 12.492188 2.078125 12.875 1.207031 12.875 0.03125 L 12.875 -1.0625 C 11.96875 -0.0625 10.351562 0.4375 8.03125 0.4375 C 5.894531 0.4375 4.132812 -0.316406 2.75 -1.828125 C 1.363281 -3.335938 0.671875 -5.191406 0.671875 -7.390625 C 0.671875 -9.585938 1.363281 -11.445312 2.75 -12.96875 C 4.132812 -14.488281 5.894531 -15.25 8.03125 -15.25 C 9.9375 -15.25 11.523438 -14.660156 12.796875 -13.484375 L 12.875 -13.484375 L 12.875 -14.8125 L 17.984375 -14.8125 L 17.984375 0.40625 C 17.984375 2.8125 17.1875 4.664062 15.59375 5.96875 C 14 7.28125 11.890625 7.9375 9.265625 7.9375 C 5.035156 7.9375 2.300781 6.503906 1.0625 3.640625 Z M 7.078125 -9.90625 C 6.421875 -9.25 6.09375 -8.410156 6.09375 -7.390625 C 6.09375 -6.367188 6.410156 -5.535156 7.046875 -4.890625 C 7.679688 -4.242188 8.519531 -3.921875 9.5625 -3.921875 C 10.5625 -3.921875 11.382812 -4.25 12.03125 -4.90625 C 12.675781 -5.5625 13 -6.390625 13 -7.390625 C 13 -8.410156 12.664062 -9.25 12 -9.90625 C 11.332031 -10.5625 10.519531 -10.890625 9.5625 -10.890625 C 8.570312 -10.890625 7.742188 -10.5625 7.078125 -9.90625 Z M 7.078125 -9.90625 "/></g></g></g></svg>