<svg xmlns="http://www.w3.org/2000/svg" xmlns:xlink="http://www.w3.org/1999/xlink" width="1080" zoomAndPan="magnify" viewBox="0 0 810 1439.999935" height="1920" preserveAspectRatio="xMidYMid meet" version="1.0"><defs><clipPath id="d1e22d29e5"><path d="M 52.210938 1191.257812 L 497.730469 1191.257812 L 497.730469 1440 L 52.210938 1440 Z M 52.210938 1191.257812 " clip-rule="nonzero"/></clipPath><clipPath id="422ef3ae49"><path d="M 274.96875 2246.050781 C 397.996094 2246.050781 497.730469 2009.929688 497.730469 1718.65625 C 497.730469 1427.382812 397.996094 1191.257812 274.96875 1191.257812 C 151.941406 1191.257812 52.210938 1427.382812 52.210938 1718.65625 C 52.210938 2009.929688 151.941406 2246.050781 274.96875 2246.050781 Z M 274.96875 2246.050781 " clip-rule="nonzero"/></clipPath><clipPath id="432173e829"><path d="M 0 1246.617188 L 248.867188 1246.617188 L 248.867188 1440 L 0 1440 Z M 0 1246.617188 " clip-rule="nonzero"/></clipPath><clipPath id="9b70849eb1"><path d="M 124.433594 2301.414062 C 193.15625 2301.414062 248.867188 2065.289062 248.867188 1774.015625 C 248.867188 1482.742188 193.15625 1246.617188 124.433594 1246.617188 C 55.710938 1246.617188 0 1482.742188 0 1774.015625 C 0 2065.289062 55.710938 2301.414062 124.433594 2301.414062 Z M 124.433594 2301.414062 " clip-rule="nonzero"/></clipPath><clipPath id="218378007e"><path d="M 319.003906 1297.914062 L 567.871094 1297.914062 L 567.871094 1440 L 319.003906 1440 Z M 319.003906 1297.914062 " clip-rule="nonzero"/></clipPath><clipPath id="b23e3e21c5"><path d="M 443.4375 2352.710938 C 512.160156 2352.710938 567.871094 2116.585938 567.871094 1825.3125 C 567.871094 1534.039062 512.160156 1297.914062 443.4375 1297.914062 C 374.714844 1297.914062 319.003906 1534.039062 319.003906 1825.3125 C 319.003906 2116.585938 374.714844 2352.710938 443.4375 2352.710938 Z M 443.4375 2352.710938 " clip-rule="nonzero"/></clipPath><clipPath id="614a92fa23"><path d="M 557 1403.339844 L 738.730469 1403.339844 L 738.730469 1440 L 557 1440 Z M 557 1403.339844 " clip-rule="nonzero"/></clipPath><clipPath id="542f1c7218"><path d="M 648 1151.859375 L 655 1151.859375 L 655 1163 L 648 1163 Z M 648 1151.859375 " clip-rule="nonzero"/></clipPath><clipPath id="a85503c1c7"><path d="M 497.738281 1265 L 515 1265 L 515 1277 L 497.738281 1277 Z M 497.738281 1265 " clip-rule="nonzero"/></clipPath><clipPath id="0f812cedb4"><path d="M 772.253906 1295.128906 L 782.082031 1295.128906 L 782.082031 1303.511719 L 772.253906 1303.511719 Z M 772.253906 1295.128906 " clip-rule="nonzero"/></clipPath><clipPath id="af8fa47a1b"><path d="M 52.214844 1347.007812 L 810 1347.007812 L 810 1440 L 52.214844 1440 Z M 52.214844 1347.007812 " clip-rule="nonzero"/></clipPath><clipPath id="96be207e3f"><path d="M 533.621094 2401.800781 C 799.496094 2401.800781 1015.027344 2165.679688 1015.027344 1874.40625 C 1015.027344 1583.128906 799.496094 1347.007812 533.621094 1347.007812 C 267.75 1347.007812 52.214844 1583.128906 52.214844 1874.40625 C 52.214844 2165.679688 267.75 2401.800781 533.621094 2401.800781 Z M 533.621094 2401.800781 " clip-rule="nonzero"/></clipPath></defs><rect x="-81" width="972" fill="#ffffff" y="-143.999994" height="1727.999922" fill-opacity="1"/><rect x="-81" width="972" fill="#d0d0d1" y="-143.999994" height="1727.999922" fill-opacity="1"/><g clip-path="url(#d1e22d29e5)"><g clip-path="url(#422ef3ae49)"><path fill="#a7a6a6" d="M 497.730469 2246.050781 L 52.210938 2246.050781 L 52.210938 1191.257812 L 497.730469 1191.257812 Z M 497.730469 2246.050781 " fill-opacity="1" fill-rule="nonzero"/></g></g><g clip-path="url(#432173e829)"><g clip-path="url(#9b70849eb1)"><path fill="#a7a6a6" d="M 248.867188 2301.414062 L 0 2301.414062 L 0 1246.617188 L 248.867188 1246.617188 Z M 248.867188 2301.414062 " fill-opacity="1" fill-rule="nonzero"/></g></g><g clip-path="url(#218378007e)"><g clip-path="url(#b23e3e21c5)"><path fill="#a7a6a6" d="M 567.871094 2352.710938 L 319.003906 2352.710938 L 319.003906 1297.914062 L 567.871094 1297.914062 Z M 567.871094 2352.710938 " fill-opacity="1" fill-rule="nonzero"/></g></g><path fill="#575656" d="M 735.21875 1427.398438 C 728.894531 1428.054688 722.300781 1428.292969 721.511719 1426.097656 C 719.316406 1419.992188 711.609375 1418.191406 712.417969 1417.425781 C 712.738281 1417.121094 715.476562 1417.273438 720.019531 1418.101562 C 722.257812 1418.503906 728.929688 1420.671875 731.144531 1421.140625 C 732.28125 1421.378906 733.226562 1421.769531 734.039062 1422.183594 C 737.296875 1423.847656 742.902344 1424.363281 747.203125 1425.394531 C 749.53125 1425.953125 751.46875 1427.261719 752.460938 1427.585938 C 751.3125 1426.195312 749.554688 1425.703125 748.617188 1425.347656 C 746.941406 1424.707031 745.484375 1424.078125 743.957031 1423.808594 C 741.414062 1423.371094 739.820312 1423.222656 737.964844 1422.304688 C 733.484375 1420.101562 730.972656 1419.0625 726.628906 1418.390625 C 726.816406 1417.914062 734.441406 1417.285156 737.695312 1417.421875 C 741.101562 1417.554688 746.664062 1418.410156 750.785156 1418.183594 C 752.273438 1418.101562 753.542969 1417.839844 754.945312 1417.691406 C 756.351562 1417.539062 758.035156 1417.945312 759.582031 1418.292969 C 758.238281 1417.480469 755.492188 1417.191406 753.378906 1417.253906 C 751.273438 1417.316406 749.339844 1417.613281 747.105469 1417.488281 C 743.835938 1417.300781 740.628906 1416.246094 737.339844 1416.019531 C 733.027344 1415.726562 729.710938 1416.9375 725.390625 1416.667969 C 722.984375 1416.515625 720.738281 1415.800781 718.316406 1415.46875 C 712.277344 1414.640625 702.261719 1415.914062 693.550781 1415.421875 C 689.050781 1415.160156 683.914062 1415.246094 680.078125 1414.132812 C 676.976562 1413.234375 670.597656 1409.242188 670.261719 1408.703125 C 669.300781 1407.171875 673.648438 1406.042969 676.976562 1406.378906 C 680.308594 1406.714844 682.828125 1407.15625 686.164062 1407.476562 C 690.207031 1407.867188 694.527344 1407.730469 698.574219 1407.542969 C 701.898438 1407.382812 708.832031 1407.140625 712.175781 1407.417969 C 718.003906 1407.886719 720.28125 1408.839844 726.101562 1409.339844 C 722.816406 1408.621094 719.476562 1407.960938 716.246094 1407.195312 C 712.351562 1406.265625 706.863281 1406.40625 704.613281 1406.414062 C 681.976562 1406.53125 683 1402.675781 669.492188 1401.832031 C 663.230469 1401.457031 652.273438 1401.324219 645.992188 1401.523438 C 641.871094 1401.648438 637.746094 1402.5625 633.617188 1402.601562 C 631.484375 1402.621094 629.359375 1402.632812 627.226562 1402.648438 C 626.199219 1402.652344 624.929688 1401.1875 624.515625 1401.574219 C 622.570312 1401.375 617.546875 1402.351562 617.296875 1402.371094 C 614.457031 1402.589844 611.25 1402.480469 608.546875 1402.914062 C 606.355469 1403.257812 602.402344 1404.214844 601.144531 1405.195312 C 598.097656 1406.5 595.125 1407.96875 591.289062 1408.632812 C 589.679688 1408.910156 587.964844 1409.039062 586.40625 1409.386719 C 582.96875 1410.152344 580.792969 1411.847656 577.53125 1412.785156 C 574.335938 1413.699219 570.480469 1413.792969 566.882812 1413.699219 C 563.292969 1413.601562 559.695312 1413.347656 556.082031 1413.660156 C 552.46875 1413.96875 548.703125 1415 547.339844 1416.613281 C 550.605469 1414.625 556.699219 1414.410156 561.71875 1414.726562 C 566.738281 1415.039062 572.117188 1415.636719 576.863281 1414.535156 C 580.378906 1413.71875 582.941406 1412.0625 586.605469 1411.4375 C 587.902344 1411.21875 589.527344 1411.183594 590.34375 1411.660156 C 591.082031 1412.097656 590.679688 1412.734375 590.417969 1413.300781 C 589.125 1416.070312 586.585938 1416.445312 583.820312 1417.71875 C 581.824219 1418.640625 579.652344 1419.042969 577.179688 1419.644531 C 573.050781 1420.648438 568.394531 1421.320312 563.894531 1421.730469 C 559.390625 1422.132812 554.664062 1422.816406 551.460938 1424.421875 C 549.617188 1425.347656 548.433594 1426.5 546.714844 1427.46875 C 542.765625 1429.691406 537.058594 1431.238281 535.328125 1433.917969 C 534.347656 1435.433594 534.234375 1436.753906 534.152344 1438.296875 C 534.078125 1439.792969 532.945312 1441.316406 530.972656 1442.574219 C 533.226562 1441.078125 535.277344 1440.023438 536.179688 1438.285156 C 537.179688 1436.359375 536.574219 1434.453125 539.332031 1432.867188 C 541.703125 1431.496094 545.914062 1429.523438 548.546875 1428.246094 C 550.210938 1427.4375 551.34375 1426.878906 552.871094 1426.015625 C 556.316406 1424.074219 560.527344 1423.78125 565.628906 1423.113281 C 570.726562 1422.445312 576.992188 1421.304688 581.894531 1420.332031 C 586.800781 1419.355469 591.773438 1417.035156 593.28125 1414.648438 C 593.972656 1413.558594 593.65625 1412.972656 594.433594 1411.890625 C 595.816406 1409.960938 599.5 1408.542969 603.339844 1407.578125 C 607.183594 1406.617188 608.984375 1405.625 615.59375 1405.554688 C 617.007812 1405.535156 624.332031 1404.855469 627.382812 1406.652344 C 629.035156 1407.617188 627.261719 1408.800781 625.882812 1409.898438 C 622.734375 1412.410156 616.90625 1413.847656 611.734375 1415.484375 C 606.5625 1417.113281 601.382812 1419.421875 601.0625 1422.296875 C 600.878906 1423.933594 601.132812 1425.460938 602.761719 1427.089844 C 604.222656 1428.546875 605.992188 1429.769531 600.460938 1430.734375 C 597.535156 1431.246094 592.492188 1431.023438 589.652344 1431.652344 C 586.636719 1432.316406 585.25 1433.753906 582.804688 1434.828125 C 579.453125 1436.304688 574.890625 1436.324219 570.417969 1436.617188 C 563.578125 1437.070312 557.46875 1439.597656 555.171875 1442.625 C 556.542969 1441.402344 559.523438 1440.660156 561.980469 1439.808594 C 567.53125 1437.875 574.765625 1438.460938 579.125 1437.785156 C 577.507812 1440.023438 579.832031 1443.710938 580.957031 1445.960938 C 582.203125 1448.4375 580.011719 1448.464844 579.554688 1451.566406 C 579.230469 1453.734375 581.148438 1456.25 585.46875 1456.972656 C 582.832031 1455.984375 582.214844 1454.199219 582.570312 1452.59375 C 582.921875 1450.992188 584.050781 1449.417969 584.148438 1447.8125 C 584.355469 1444.496094 579.59375 1440.628906 583.632812 1437.828125 C 586.605469 1435.769531 587.40625 1434.152344 592.144531 1433.316406 C 599.117188 1432.089844 606.492188 1432.875 608.789062 1430.097656 C 609.796875 1428.878906 607.800781 1427.203125 607.265625 1425.945312 C 604.167969 1418.660156 618.402344 1416.9375 619.511719 1417.445312 C 621.085938 1418.148438 617.582031 1420.441406 620.042969 1422.546875 C 621.699219 1423.96875 625.769531 1424.59375 626.6875 1426.164062 C 627.539062 1427.628906 624.792969 1429.011719 623.980469 1430.503906 C 622.296875 1433.589844 629.109375 1436.703125 626.789062 1439.703125 C 624.570312 1442.578125 616.332031 1442.855469 610.746094 1444.4375 C 602.4375 1446.800781 600.863281 1453.046875 607.796875 1456.066406 C 603.125 1451.96875 604.957031 1447.152344 612.78125 1445.902344 C 616.222656 1445.351562 620.328125 1444.851562 623.453125 1443.96875 C 626.511719 1443.109375 628.621094 1440.457031 632.148438 1440.375 C 634.773438 1440.316406 636.707031 1443.433594 637.972656 1444.511719 C 639.242188 1445.589844 639.878906 1446.816406 641.203125 1447.878906 C 643.371094 1449.617188 647.460938 1451.109375 646.90625 1453.125 C 646.628906 1454.125 646.265625 1454.851562 646.226562 1456.054688 C 649.046875 1454.195312 649.296875 1451.558594 646.828125 1449.628906 C 645.324219 1448.449219 642.90625 1447.515625 642.066406 1446.191406 C 641.511719 1445.320312 639.421875 1441.75 638.582031 1440.9375 C 635.53125 1437.980469 632.011719 1438.605469 629.773438 1435.496094 C 625.167969 1429.101562 634.992188 1429.367188 632.863281 1426.460938 C 630.984375 1423.890625 623.097656 1422.550781 623.851562 1419.839844 C 624.371094 1417.964844 628.847656 1416.925781 630.71875 1415.25 C 631.53125 1414.515625 631.820312 1413.679688 632.660156 1412.953125 C 634.101562 1411.710938 637.210938 1410.9375 640.179688 1411.09375 C 643.148438 1411.246094 643.886719 1412.820312 644.660156 1414.175781 C 646.359375 1417.152344 641.507812 1419.683594 643.285156 1422.65625 C 643.839844 1423.578125 645.203125 1424.421875 645.074219 1425.382812 C 644.949219 1426.285156 643.53125 1427.019531 642.609375 1427.820312 C 640.488281 1429.65625 641.113281 1432.097656 644.085938 1433.617188 C 647.113281 1435.167969 651.816406 1435.648438 655.785156 1436.628906 C 659.75 1437.609375 663.386719 1439.738281 661.601562 1441.675781 C 664.035156 1440.035156 663.671875 1437.605469 660.769531 1436.152344 C 658.351562 1434.9375 654.734375 1434.480469 651.621094 1433.691406 C 648.511719 1432.90625 645.5625 1431.398438 646.390625 1429.773438 C 647.113281 1428.351562 650.464844 1427.425781 650.816406 1425.980469 C 650.964844 1425.359375 650.992188 1424.695312 650.46875 1424.121094 C 646.023438 1419.273438 651.691406 1415.054688 664.285156 1420.128906 C 668.476562 1421.820312 665 1424.875 668.285156 1426.078125 C 672.0625 1427.449219 681.9375 1425.695312 684.105469 1427.703125 C 686.148438 1429.585938 678.890625 1433.085938 679.085938 1435.191406 C 679.277344 1437.308594 683.511719 1438.902344 684.46875 1440.972656 C 685.796875 1443.835938 680.570312 1446.425781 679.527344 1449.324219 C 678.628906 1451.824219 681.234375 1454.519531 685.824219 1455.839844 C 681.726562 1454.394531 681.949219 1451.445312 683.628906 1449.171875 C 685.3125 1446.890625 688.074219 1444.679688 687.722656 1442.277344 C 687.402344 1440.09375 684.527344 1438.152344 683.644531 1435.992188 C 682.757812 1433.835938 685.519531 1431.59375 690.148438 1431.300781 C 701.332031 1430.59375 697.125 1436.648438 701.914062 1439.011719 C 706.40625 1441.226562 717.941406 1442.660156 717.929688 1446.773438 C 717.925781 1448.640625 717.515625 1451.050781 714.039062 1451.996094 C 720.914062 1450.386719 723.066406 1445.710938 718.1875 1442.886719 C 714.148438 1440.554688 701.488281 1437.84375 703.550781 1435.597656 C 702.882812 1436.328125 714.960938 1436.953125 724.792969 1435.824219 C 730.578125 1435.15625 736.636719 1436.882812 738.257812 1439.535156 C 736.898438 1437.308594 733.941406 1435.5625 729.714844 1434.96875 C 725.480469 1434.378906 722.324219 1434.851562 717.960938 1434.929688 C 713.597656 1435 707.613281 1435.304688 704.53125 1433.824219 C 702.269531 1432.734375 702.386719 1430.535156 699.671875 1429.691406 C 697.179688 1428.914062 693.757812 1428.984375 691.472656 1428.078125 C 689.6875 1427.375 689.011719 1426.230469 687.488281 1425.398438 C 682.945312 1422.898438 671.832031 1426.4375 671.539062 1423.207031 C 671.167969 1419.078125 665.75 1416.945312 660.335938 1416.203125 C 656.773438 1415.714844 653.164062 1414.914062 651.25 1413.421875 C 649.335938 1411.929688 649.710938 1409.714844 652.78125 1408.742188 C 655.863281 1407.769531 660.214844 1408.40625 663.011719 1409.574219 C 665.800781 1410.746094 667.589844 1412.34375 669.964844 1413.703125 C 675.644531 1416.945312 686.210938 1418.121094 694.984375 1417.726562 C 697.558594 1417.578125 713.226562 1417.132812 716.945312 1424.980469 C 717.878906 1426.949219 719.8125 1429.121094 723.796875 1429.988281 C 728.570312 1431.015625 734.816406 1428.113281 739.496094 1429.269531 C 743.363281 1430.21875 744.042969 1433.789062 746.335938 1435.476562 C 748.914062 1437.367188 753.933594 1437.933594 758.292969 1438.941406 C 751.652344 1437.40625 748.253906 1434.917969 746.125 1432.652344 C 743.703125 1430.082031 742.339844 1426.660156 735.21875 1427.398438 " fill-opacity="1" fill-rule="nonzero"/><g clip-path="url(#614a92fa23)"><path fill="#575656" d="M 576.546875 1436.96875 C 581.574219 1438 586.808594 1438.421875 587.429688 1435.5 C 589.164062 1427.371094 595.28125 1425.128906 594.640625 1424.089844 C 594.386719 1423.679688 592.214844 1423.832031 588.605469 1424.832031 C 586.828125 1425.328125 581.53125 1428.074219 579.769531 1428.648438 C 578.867188 1428.949219 578.117188 1429.449219 577.476562 1429.984375 C 574.890625 1432.140625 570.433594 1432.695312 567.019531 1433.964844 C 565.167969 1434.65625 563.628906 1436.382812 562.84375 1436.792969 C 563.753906 1434.929688 565.148438 1434.320312 565.894531 1433.859375 C 567.222656 1433.039062 568.378906 1432.230469 569.59375 1431.914062 C 571.617188 1431.386719 572.878906 1431.234375 574.355469 1430.050781 C 577.910156 1427.191406 579.90625 1425.863281 583.355469 1425.074219 C 583.207031 1424.433594 577.144531 1423.386719 574.554688 1423.46875 C 571.847656 1423.546875 567.425781 1424.523438 564.144531 1424.070312 C 562.957031 1423.90625 561.949219 1423.507812 560.828125 1423.25 C 559.710938 1422.996094 558.371094 1423.480469 557.140625 1423.894531 C 558.207031 1422.835938 560.394531 1422.546875 562.074219 1422.714844 C 563.753906 1422.875 565.292969 1423.347656 567.066406 1423.253906 C 569.667969 1423.117188 572.21875 1421.789062 574.832031 1421.589844 C 578.261719 1421.324219 580.902344 1423.050781 584.332031 1422.792969 C 586.246094 1422.644531 588.03125 1421.742188 589.957031 1421.355469 C 594.753906 1420.398438 602.703125 1422.28125 609.613281 1421.726562 C 613.183594 1421.4375 617.257812 1421.601562 620.300781 1420.167969 C 622.757812 1419.003906 627.820312 1413.800781 628.089844 1413.097656 C 628.851562 1411.097656 625.40625 1409.582031 622.761719 1409.988281 C 620.121094 1410.394531 618.121094 1410.945312 615.472656 1411.328125 C 612.269531 1411.789062 608.835938 1411.542969 605.625 1411.21875 C 602.984375 1410.949219 597.480469 1410.480469 594.820312 1410.757812 C 590.195312 1411.242188 588.382812 1412.449219 583.757812 1412.949219 C 586.367188 1412.085938 589.019531 1411.296875 591.589844 1410.359375 C 594.683594 1409.230469 599.042969 1409.546875 600.832031 1409.605469 C 618.804688 1410.183594 617.984375 1405.03125 628.707031 1404.082031 C 633.671875 1403.652344 642.359375 1403.523438 647.34375 1403.765625 C 650.609375 1403.921875 653.878906 1405.101562 657.148438 1405.125 C 658.835938 1405.132812 660.527344 1405.132812 662.214844 1405.128906 C 663.03125 1405.128906 664.042969 1403.214844 664.367188 1403.707031 C 665.910156 1403.429688 669.089844 1404.753906 669.496094 1404.664062 C 669.6875 1404.617188 669.890625 1404.640625 670.085938 1404.664062 C 672.335938 1404.914062 674.878906 1404.726562 677.023438 1405.238281 C 678.757812 1405.652344 681.886719 1406.816406 682.878906 1408.0625 C 685.292969 1409.695312 687.644531 1411.535156 690.683594 1412.304688 C 691.960938 1412.628906 693.316406 1412.75 694.550781 1413.160156 C 697.273438 1414.0625 698.988281 1416.199219 701.574219 1417.316406 C 704.101562 1418.414062 707.164062 1418.414062 710.015625 1418.175781 C 712.863281 1417.929688 715.714844 1417.476562 718.582031 1417.746094 C 721.449219 1418.015625 724.429688 1419.203125 725.503906 1421.238281 C 722.925781 1418.792969 718.089844 1418.75 714.105469 1419.328125 C 710.121094 1419.90625 705.851562 1420.855469 702.097656 1419.566406 C 699.3125 1418.609375 697.289062 1416.539062 694.386719 1415.824219 C 693.359375 1415.574219 692.070312 1415.5625 691.421875 1416.207031 C 690.835938 1416.785156 691.152344 1417.605469 691.359375 1418.332031 C 692.371094 1421.886719 694.382812 1422.308594 696.570312 1423.882812 C 698.148438 1425.019531 699.867188 1425.484375 701.824219 1426.191406 C 705.09375 1427.371094 708.785156 1428.097656 712.351562 1428.472656 C 715.914062 1428.84375 719.664062 1429.558594 722.199219 1431.515625 C 723.65625 1432.644531 724.589844 1434.089844 725.949219 1435.28125 C 729.070312 1438.011719 733.589844 1439.785156 734.953125 1443.1875 C 735.722656 1445.113281 735.804688 1446.820312 735.859375 1448.816406 C 735.914062 1450.757812 736.804688 1452.6875 738.363281 1454.242188 C 736.578125 1452.394531 734.964844 1451.109375 734.253906 1448.890625 C 733.46875 1446.429688 733.960938 1443.9375 731.777344 1441.984375 C 729.902344 1440.308594 726.578125 1437.914062 724.492188 1436.359375 C 723.175781 1435.378906 722.28125 1434.691406 721.070312 1433.632812 C 718.351562 1431.25 715.011719 1431.023438 710.96875 1430.324219 C 706.929688 1429.625 701.96875 1428.339844 698.085938 1427.214844 C 694.199219 1426.089844 690.265625 1423.203125 689.082031 1420.148438 C 688.539062 1418.746094 688.789062 1417.984375 688.179688 1416.597656 C 687.089844 1414.132812 684.175781 1412.371094 681.132812 1411.195312 C 678.09375 1410.023438 676.664062 1408.769531 671.429688 1408.769531 C 670.308594 1408.769531 664.5 1407.976562 662.078125 1410.339844 C 660.773438 1411.617188 662.171875 1413.136719 663.261719 1414.550781 C 665.75 1417.777344 670.363281 1419.566406 674.457031 1421.597656 C 678.550781 1423.628906 682.648438 1426.511719 682.890625 1430.230469 C 683.03125 1432.351562 682.828125 1434.335938 681.53125 1436.480469 C 680.371094 1438.398438 678.960938 1440.023438 683.339844 1441.15625 C 685.65625 1441.753906 689.648438 1441.339844 691.898438 1442.078125 C 694.285156 1442.863281 695.378906 1444.6875 697.308594 1446.011719 C 699.960938 1447.832031 703.574219 1447.71875 707.117188 1447.960938 C 712.535156 1448.328125 717.363281 1451.394531 719.171875 1455.230469 C 718.09375 1453.695312 715.734375 1452.839844 713.789062 1451.816406 C 709.398438 1449.503906 703.664062 1450.484375 700.214844 1449.738281 C 701.488281 1452.585938 699.632812 1457.429688 698.730469 1460.371094 C 697.734375 1463.617188 699.472656 1463.59375 699.820312 1467.589844 C 700.066406 1470.386719 698.539062 1473.699219 695.121094 1474.757812 C 697.214844 1473.410156 697.703125 1471.078125 697.429688 1469.011719 C 697.15625 1466.945312 696.269531 1464.941406 696.199219 1462.863281 C 696.046875 1458.574219 699.832031 1453.429688 696.640625 1449.917969 C 694.296875 1447.328125 693.667969 1445.265625 689.917969 1444.304688 C 684.398438 1442.886719 678.558594 1444.0625 676.75 1440.507812 C 675.953125 1438.945312 677.539062 1436.730469 677.964844 1435.09375 C 680.445312 1425.589844 669.171875 1423.609375 668.289062 1424.269531 C 667.039062 1425.207031 669.8125 1428.136719 667.859375 1430.90625 C 666.539062 1432.777344 663.3125 1433.644531 662.585938 1435.707031 C 661.90625 1437.621094 664.078125 1439.382812 664.714844 1441.304688 C 666.042969 1445.289062 660.640625 1449.441406 662.46875 1453.308594 C 664.222656 1457.011719 670.738281 1457.222656 675.152344 1459.152344 C 681.726562 1462.03125 682.949219 1470.085938 677.453125 1474.167969 C 681.164062 1468.742188 679.726562 1462.550781 673.535156 1461.089844 C 670.816406 1460.453125 667.574219 1459.878906 665.097656 1458.796875 C 662.679688 1457.738281 661.015625 1454.324219 658.226562 1454.269531 C 656.148438 1454.234375 654.609375 1458.324219 653.609375 1459.746094 C 652.601562 1461.167969 652.097656 1462.78125 651.046875 1464.183594 C 649.324219 1466.480469 646.089844 1468.492188 646.523438 1471.113281 C 646.738281 1472.414062 647.027344 1473.355469 647.054688 1474.925781 C 644.828125 1472.550781 644.636719 1469.105469 646.589844 1466.546875 C 647.785156 1464.988281 649.699219 1463.730469 650.363281 1461.996094 C 650.804688 1460.851562 652.46875 1456.171875 653.136719 1455.097656 C 655.554688 1451.210938 658.335938 1451.964844 660.117188 1447.886719 C 663.78125 1439.507812 656 1439.988281 657.695312 1436.171875 C 659.1875 1432.804688 665.4375 1430.957031 664.847656 1427.441406 C 664.4375 1425.019531 660.898438 1423.71875 659.421875 1421.554688 C 658.777344 1420.613281 658.546875 1419.527344 657.882812 1418.589844 C 656.746094 1416.984375 654.28125 1416 651.929688 1416.222656 C 649.578125 1416.441406 648.992188 1418.492188 648.375 1420.265625 C 647.023438 1424.164062 650.859375 1427.433594 649.445312 1431.320312 C 649.003906 1432.527344 647.921875 1433.640625 648.023438 1434.890625 C 648.121094 1436.066406 649.242188 1437.015625 649.972656 1438.046875 C 651.648438 1440.421875 651.148438 1443.613281 648.789062 1445.625 C 646.390625 1447.679688 642.667969 1448.355469 639.523438 1449.667969 C 636.382812 1450.980469 633.5 1453.796875 634.910156 1456.324219 C 632.984375 1454.195312 633.277344 1451.007812 635.578125 1449.078125 C 637.496094 1447.476562 640.359375 1446.851562 642.824219 1445.796875 C 645.289062 1444.742188 647.625 1442.746094 646.972656 1440.628906 C 646.402344 1438.785156 643.75 1437.601562 643.476562 1435.714844 C 643.359375 1434.90625 643.339844 1434.035156 643.753906 1433.285156 C 647.285156 1426.925781 642.800781 1421.457031 632.816406 1428.101562 C 629.488281 1430.320312 632.242188 1434.328125 629.632812 1435.90625 C 626.644531 1437.71875 618.820312 1435.390625 617.097656 1438.019531 C 615.480469 1440.496094 621.230469 1445.125 621.074219 1447.894531 C 620.921875 1450.679688 617.5625 1452.789062 616.808594 1455.515625 C 615.757812 1459.300781 619.890625 1462.691406 620.710938 1466.5 C 621.421875 1469.785156 619.363281 1473.351562 615.730469 1475.136719 C 618.972656 1473.191406 618.796875 1469.316406 617.46875 1466.324219 C 616.136719 1463.328125 613.949219 1460.417969 614.230469 1457.25 C 614.484375 1454.363281 616.757812 1451.792969 617.460938 1448.953125 C 618.164062 1446.105469 615.976562 1443.152344 612.308594 1442.742188 C 603.445312 1441.757812 606.78125 1449.789062 602.988281 1452.910156 C 599.429688 1455.835938 590.285156 1457.683594 590.300781 1463.179688 C 590.304688 1465.667969 590.632812 1468.898438 593.386719 1470.160156 C 587.945312 1468.011719 586.226562 1461.722656 590.09375 1457.988281 C 593.292969 1454.898438 603.324219 1451.367188 601.6875 1448.371094 C 602.21875 1449.34375 592.644531 1450.113281 584.84375 1448.472656 C 580.25 1447.503906 575.445312 1449.71875 574.167969 1453.277344 C 575.242188 1450.289062 577.582031 1447.992188 580.9375 1447.257812 C 584.292969 1446.527344 586.800781 1447.203125 590.261719 1447.351562 C 593.722656 1447.503906 598.46875 1447.953125 600.90625 1446.007812 C 602.703125 1444.578125 602.609375 1441.660156 604.757812 1440.5625 C 606.734375 1439.554688 609.449219 1439.664062 611.261719 1438.484375 C 612.679688 1437.558594 613.210938 1436.054688 614.421875 1434.964844 C 618.019531 1431.707031 626.828125 1436.390625 627.058594 1432.136719 C 627.359375 1426.710938 631.65625 1423.933594 635.949219 1422.960938 C 638.773438 1422.320312 641.636719 1421.261719 643.152344 1419.304688 C 644.671875 1417.355469 644.378906 1414.464844 641.949219 1413.199219 C 639.507812 1411.925781 636.054688 1412.75 633.835938 1414.273438 C 631.621094 1415.800781 630.203125 1417.890625 628.316406 1419.664062 C 623.8125 1423.894531 615.4375 1425.394531 608.476562 1424.757812 C 606.4375 1424.558594 594 1423.683594 591.058594 1434.082031 C 590.316406 1436.695312 588.78125 1439.570312 585.621094 1440.667969 C 581.835938 1441.976562 576.871094 1437.949219 573.15625 1439.398438 C 570.085938 1440.597656 569.554688 1445.410156 567.738281 1447.648438 C 565.699219 1450.15625 561.710938 1450.820312 558.25 1452.105469 C 563.523438 1450.15625 566.214844 1446.839844 567.898438 1443.824219 C 569.816406 1440.398438 570.890625 1435.816406 576.546875 1436.96875 " fill-opacity="1" fill-rule="nonzero"/></g><path fill="#575656" d="M 718.109375 1283.707031 L 719.015625 1283.367188 L 719.429688 1283.5 C 723.597656 1284.816406 727.253906 1285.761719 730.609375 1286.382812 C 733.894531 1286.976562 737.25 1287.394531 740.636719 1287.644531 C 739.652344 1287.5 738.675781 1287.339844 737.710938 1287.167969 C 733.941406 1286.492188 729.535156 1285.316406 724.617188 1283.675781 L 721.203125 1282.535156 L 725.476562 1280.957031 C 738.109375 1276.324219 746.285156 1270.492188 751.542969 1265.203125 C 747.105469 1268.171875 741.925781 1270.714844 736.867188 1272.980469 L 734.601562 1273.996094 L 735.109375 1271.570312 C 735.875 1267.910156 736.902344 1264.84375 738.164062 1262.449219 C 737.496094 1263.417969 736.867188 1264.457031 736.296875 1265.574219 C 735.183594 1267.75 734.265625 1270.527344 733.566406 1273.828125 L 733.429688 1274.480469 L 732.816406 1274.734375 C 725.59375 1277.761719 717.78125 1280.695312 710.226562 1283.535156 C 702.652344 1286.378906 695.5 1289.066406 689.390625 1291.667969 L 685.886719 1293.160156 L 687.804688 1289.867188 C 689.167969 1287.523438 690.304688 1285.34375 691.273438 1283.199219 C 692.652344 1280.152344 694.074219 1276.292969 695.574219 1272.207031 L 695.964844 1271.144531 L 696.773438 1271.078125 C 700.855469 1270.75 704.207031 1270.242188 707.015625 1269.535156 C 707.953125 1269.300781 708.867188 1269.039062 709.753906 1268.761719 C 706.605469 1269.441406 702.738281 1269.914062 698.21875 1270.164062 L 696.285156 1270.273438 L 696.964844 1268.460938 C 699.734375 1261.046875 703.9375 1249.789062 710.820312 1240.492188 C 706.324219 1244.71875 701.945312 1250.207031 698.96875 1257.140625 C 698.628906 1257.925781 698.300781 1258.703125 697.984375 1259.464844 L 696.539062 1262.929688 L 695.589844 1259.300781 C 694.492188 1255.085938 693.863281 1251.308594 693.726562 1248.0625 C 693.636719 1246.015625 693.636719 1243.261719 693.9375 1240.0625 C 693.042969 1244.300781 692.570312 1249.101562 692.949219 1254.300781 C 693.191406 1257.660156 693.933594 1261.535156 695.15625 1265.820312 L 695.273438 1266.230469 L 694.996094 1266.949219 C 691.152344 1276.816406 688.414062 1285.539062 680.0625 1295.628906 L 678.6875 1296.683594 C 673.914062 1299.226562 669.171875 1302.222656 664.585938 1305.589844 L 663.023438 1306.742188 L 662.605469 1304.84375 C 661.195312 1298.457031 660.578125 1292.808594 660.773438 1288.054688 C 660.886719 1285.175781 661.261719 1281.097656 662.277344 1276.34375 C 660.382812 1281.886719 658.960938 1288.382812 658.886719 1295.488281 C 658.84375 1299.183594 659.285156 1303.429688 660.1875 1308.113281 L 660.335938 1308.859375 L 659.75 1309.335938 C 654.375 1313.703125 650.4375 1317.617188 648.082031 1320.128906 L 646.480469 1321.839844 L 645.929688 1319.5625 C 645.089844 1316.101562 644.324219 1311.949219 643.707031 1308.613281 C 643.167969 1305.710938 642.707031 1303.203125 642.398438 1302.226562 C 640.960938 1297.660156 643.628906 1269.78125 649.394531 1252.007812 L 649.484375 1251.71875 L 650.3125 1250.894531 C 653.316406 1247.90625 655.6875 1245.542969 658.671875 1242.738281 L 660.234375 1241.238281 C 666.574219 1235.15625 675.675781 1226.421875 683.710938 1215.328125 C 680.261719 1219.71875 676.25 1224.101562 671.597656 1228.242188 C 665.171875 1234.007812 659.207031 1239.480469 653.867188 1244.515625 L 650.238281 1247.550781 C 650.910156 1245.613281 653.144531 1239.332031 653.8125 1237.464844 C 656.46875 1229.945312 661.070312 1216.925781 662.769531 1201.207031 C 662.015625 1206.144531 660.859375 1211.234375 659.167969 1216.332031 L 658.523438 1218.265625 L 656.035156 1215.804688 C 652.8125 1212.632812 650.035156 1209.894531 648.066406 1206.523438 C 647.238281 1205.105469 646.421875 1203.660156 645.648438 1202.148438 C 646.65625 1204.492188 647.945312 1206.957031 649.578125 1209.519531 C 651.066406 1211.863281 653.78125 1215.21875 657.433594 1219.230469 L 657.949219 1219.792969 L 655.988281 1225.152344 C 645.796875 1253.023438 638.429688 1273.160156 636.121094 1288.589844 L 635.609375 1291.976562 L 633.796875 1289.074219 C 629.246094 1281.800781 624.96875 1273.796875 621.082031 1265.277344 L 620.792969 1264.636719 L 621.179688 1264.054688 C 623.785156 1260.117188 625.796875 1256.5 627.15625 1253.296875 C 630.179688 1246.203125 631.257812 1239.566406 631.386719 1233.941406 C 630.554688 1239.363281 629.070312 1243.914062 627.886719 1246.949219 C 626.425781 1250.695312 624.046875 1255.042969 620.820312 1259.859375 L 619.519531 1261.800781 L 618.605469 1259.648438 C 615.097656 1251.398438 611.894531 1242.613281 609.09375 1233.519531 L 608.914062 1232.929688 L 609.269531 1232.421875 C 611.972656 1228.570312 613.890625 1225.257812 615.136719 1222.292969 C 616.257812 1219.628906 617.003906 1217.0625 617.472656 1214.648438 C 617.082031 1215.949219 616.679688 1217.085938 616.316406 1218.023438 C 615.074219 1221.234375 612.941406 1225.023438 609.96875 1229.285156 L 608.457031 1231.457031 L 607.71875 1228.914062 C 604.269531 1217.050781 601.957031 1206.34375 600.46875 1197.910156 C 600.777344 1202.878906 601.457031 1208.871094 602.820312 1215.980469 L 603.398438 1219.007812 L 600.859375 1217.265625 C 595.28125 1213.429688 591.074219 1209.960938 588.003906 1206.652344 C 587.832031 1206.46875 587.660156 1206.28125 587.492188 1206.089844 C 588.90625 1207.941406 590.492188 1209.777344 592.257812 1211.574219 C 595.09375 1214.46875 598.757812 1217.472656 603.457031 1220.757812 L 603.863281 1221.039062 L 603.96875 1221.519531 C 605.984375 1230.539062 608.878906 1240.386719 612.570312 1250.769531 L 613.523438 1253.460938 L 610.890625 1252.359375 C 600.511719 1248.039062 575.113281 1236.710938 563.441406 1224.898438 C 563.160156 1224.609375 562.878906 1224.3125 562.605469 1224.011719 C 564.085938 1225.898438 565.757812 1227.773438 567.644531 1229.585938 C 578.742188 1240.25 598.40625 1250.121094 612.769531 1257.328125 L 613.546875 1257.714844 L 613.722656 1258.175781 C 614.296875 1259.679688 614.871094 1261.203125 615.457031 1262.757812 C 618.78125 1271.554688 622.542969 1281.527344 627.660156 1292.277344 L 628.773438 1294.617188 L 626.242188 1294.058594 C 618.953125 1292.4375 614.382812 1290.492188 609.085938 1288.246094 L 608.144531 1287.84375 C 601.285156 1284.9375 594.832031 1281.417969 589.050781 1277.480469 C 595.441406 1282.972656 604.207031 1288.957031 615.609375 1293.546875 C 617.410156 1294.28125 618.808594 1294.964844 620.160156 1295.628906 C 622.660156 1296.859375 624.828125 1297.921875 628.765625 1298.847656 L 629.34375 1298.984375 L 629.609375 1299.511719 C 630.074219 1300.453125 633.535156 1319.6875 633.570312 1319.878906 L 633.972656 1322.039062 C 634.089844 1322.382812 631.476562 1321.03125 631.503906 1321.046875 C 631.171875 1320.808594 628.996094 1319.664062 626.480469 1318.335938 C 610.601562 1309.972656 568.421875 1287.753906 552.25 1268.535156 C 550.363281 1266.183594 548.609375 1263.472656 547.027344 1260.492188 C 549.261719 1265.328125 552.269531 1270.304688 556.308594 1275.082031 C 565.804688 1286.378906 580.367188 1294.933594 594.449219 1303.203125 L 599.480469 1306.769531 L 594.558594 1306.105469 C 570.804688 1302.011719 549.972656 1295.921875 532.339844 1287.941406 C 539.203125 1291.53125 548.671875 1295.558594 561.875 1299.621094 L 565.078125 1300.605469 L 561.910156 1302.027344 C 559.660156 1302.792969 557.554688 1303.375 555.65625 1303.757812 C 554.070312 1304.078125 552.464844 1304.34375 550.832031 1304.550781 C 554.84375 1304.421875 558.785156 1303.945312 562.582031 1303.132812 C 563.152344 1303.011719 566.898438 1301.453125 567.269531 1301.277344 C 578.597656 1304.667969 592.308594 1308.207031 609.183594 1312.085938 L 609.390625 1312.136719 L 609.570312 1312.25 C 612.019531 1313.792969 614.175781 1315.226562 616.160156 1316.621094 L 618.964844 1318.59375 L 615.550781 1318.917969 C 612.210938 1319.230469 608.890625 1320.105469 605.683594 1321.523438 C 604.046875 1322.246094 602.507812 1323.234375 600.882812 1324.273438 C 599.640625 1325.066406 598.355469 1325.886719 596.96875 1326.625 C 590.542969 1330.042969 583.46875 1331.320312 578.292969 1332.253906 C 575.378906 1332.773438 572.359375 1333.167969 569.316406 1333.433594 C 569.351562 1333.433594 569.378906 1333.433594 569.410156 1333.433594 C 574.976562 1333.433594 580.523438 1332.917969 585.875 1331.90625 L 585.96875 1331.882812 L 590.289062 1331.21875 L 586.96875 1334.140625 C 582.988281 1337.132812 578.597656 1340.230469 573.671875 1342.453125 C 576.292969 1341.570312 579.367188 1340.296875 582.941406 1338.480469 C 585.066406 1337.394531 587.285156 1336.199219 589.433594 1335.042969 C 598.644531 1330.082031 608.164062 1324.949219 616.558594 1324.949219 C 622.421875 1324.949219 627.203125 1327.535156 630.765625 1332.628906 C 634.246094 1337.59375 635.078125 1344.050781 635.398438 1348.480469 C 636.871094 1368.648438 633.320312 1392.21875 622.363281 1402.152344 C 624.757812 1402.363281 627.828125 1403.972656 630.164062 1403.972656 C 630.808594 1403.972656 633.488281 1405.253906 633.972656 1405.222656 C 644.285156 1404.511719 652.609375 1403.160156 662.75 1402.6875 C 660.8125 1396.746094 654.730469 1375.3125 656.585938 1361.550781 C 659.722656 1338.367188 677.273438 1335.683594 690.207031 1335.683594 C 691.613281 1335.683594 693.089844 1335.71875 694.839844 1335.78125 L 695.359375 1335.796875 L 695.714844 1336.171875 C 697.574219 1338.128906 699.410156 1339.816406 701.167969 1341.1875 C 704.199219 1343.542969 707.382812 1345.472656 710.460938 1347.042969 C 708.535156 1345.703125 706.867188 1344.453125 705.542969 1343.453125 C 703.953125 1342.261719 702.226562 1340.605469 700.117188 1338.246094 L 698.027344 1335.90625 L 701.152344 1336.140625 C 702.300781 1336.226562 703.46875 1336.320312 704.65625 1336.410156 C 708.382812 1336.707031 712.234375 1337.015625 716.363281 1337.160156 C 718.359375 1337.246094 720.289062 1337.285156 722.101562 1337.285156 C 724.691406 1337.285156 726.976562 1337.203125 728.996094 1337.058594 C 721.203125 1337.050781 712.863281 1335.648438 704.800781 1334.289062 C 699.226562 1333.351562 693.464844 1332.378906 688.054688 1331.910156 L 683.46875 1331.511719 L 687.613281 1329.511719 C 689.335938 1328.675781 690.949219 1327.789062 692.457031 1326.871094 C 688.453125 1328.65625 684.886719 1329.75 682.34375 1330.398438 C 679.679688 1331.058594 674.242188 1332.117188 672.195312 1332.515625 C 671.875 1332.578125 671.488281 1332.652344 671.488281 1332.652344 C 662.984375 1334.464844 657.65625 1338.191406 654.6875 1341 L 653.046875 1342.550781 L 652.476562 1339.859375 C 651.71875 1336.28125 651.058594 1333.1875 651.875 1330.851562 C 655.0625 1321.699219 669.226562 1308.722656 678.269531 1302.433594 L 678.726562 1302.113281 L 682.375 1302.941406 C 698.414062 1306.574219 718.375 1311.097656 733.59375 1311.097656 C 734.492188 1311.089844 735.378906 1311.074219 736.253906 1311.042969 C 723.140625 1310.421875 704.144531 1306.765625 684.339844 1300.996094 L 681.550781 1300.183594 L 684.050781 1298.695312 C 694.308594 1292.582031 705.339844 1288.46875 718.109375 1283.707031 " fill-opacity="1" fill-rule="nonzero"/><path fill="#575656" d="M 594.316406 1159.046875 C 594.308594 1159.078125 585.507812 1170.949219 598.632812 1179.871094 C 598.628906 1179.910156 607.558594 1168.488281 594.316406 1159.046875 " fill-opacity="1" fill-rule="nonzero"/><path fill="#575656" d="M 502.824219 1254.238281 C 502.832031 1254.285156 501.789062 1263.816406 514.160156 1263.082031 C 514.171875 1263.132812 515.414062 1253.371094 502.824219 1254.238281 " fill-opacity="1" fill-rule="nonzero"/><path fill="#575656" d="M 515.953125 1244.445312 C 515.960938 1244.476562 515.417969 1252.089844 525.339844 1251.390625 C 525.351562 1251.421875 526.074219 1243.695312 515.953125 1244.445312 " fill-opacity="1" fill-rule="nonzero"/><path fill="#575656" d="M 606.179688 1162.617188 C 606.179688 1162.617188 599.984375 1168.253906 605.859375 1174.632812 C 605.855469 1174.632812 612.046875 1169.316406 606.179688 1162.617188 " fill-opacity="1" fill-rule="nonzero"/><path fill="#575656" d="M 610.40625 1159.003906 C 610.40625 1159.007812 608.753906 1163.429688 613.734375 1166.535156 C 614.054688 1165.109375 615.40625 1162.207031 610.40625 1159.003906 " fill-opacity="1" fill-rule="nonzero"/><path fill="#575656" d="M 645.671875 1156.941406 C 645.667969 1156.898438 633.140625 1164.710938 641.773438 1178.246094 C 641.773438 1178.203125 654.210938 1171.097656 645.671875 1156.941406 " fill-opacity="1" fill-rule="nonzero"/><path fill="#575656" d="M 658.871094 1154.648438 C 658.863281 1154.652344 650.148438 1165.308594 663.4375 1176.144531 C 663.429688 1176.152344 672.28125 1166.097656 658.871094 1154.648438 " fill-opacity="1" fill-rule="nonzero"/><path fill="#575656" d="M 585.34375 1174.558594 C 585.34375 1174.621094 578.9375 1187.410156 593.875 1193.835938 C 593.875 1193.898438 600.5 1181.3125 585.34375 1174.558594 " fill-opacity="1" fill-rule="nonzero"/><path fill="#575656" d="M 613.132812 1172.269531 C 613.125 1172.207031 598.828125 1178.269531 603.484375 1192.78125 C 603.476562 1192.722656 617.546875 1187.328125 613.132812 1172.269531 " fill-opacity="1" fill-rule="nonzero"/><path fill="#575656" d="M 624.75 1174.902344 C 624.746094 1174.867188 614.140625 1179.011719 617.574219 1189.886719 C 617.570312 1189.855469 628.007812 1186.152344 624.75 1174.902344 " fill-opacity="1" fill-rule="nonzero"/><path fill="#575656" d="M 652.289062 1177.863281 C 652.285156 1177.824219 641.664062 1181.273438 645.070312 1192.371094 C 645.066406 1192.335938 655.511719 1189.304688 652.289062 1177.863281 " fill-opacity="1" fill-rule="nonzero"/><path fill="#575656" d="M 623.757812 1155.933594 C 623.75 1155.890625 613.128906 1160.085938 616.570312 1170.945312 C 616.566406 1170.90625 627.019531 1167.171875 623.757812 1155.933594 " fill-opacity="1" fill-rule="nonzero"/><path fill="#575656" d="M 632.453125 1194.511719 C 632.453125 1194.464844 621.117188 1195.902344 621.183594 1207.351562 C 621.183594 1207.3125 632.238281 1206.175781 632.453125 1194.511719 " fill-opacity="1" fill-rule="nonzero"/><path fill="#575656" d="M 654.9375 1183.886719 C 654.9375 1183.898438 649.847656 1190.964844 659.164062 1196.5 C 659.160156 1196.507812 664.359375 1189.742188 654.9375 1183.886719 " fill-opacity="1" fill-rule="nonzero"/><path fill="#575656" d="M 535.859375 1198.75 C 535.867188 1198.789062 533.746094 1207.238281 544.210938 1207.183594 C 544.214844 1207.21875 546.503906 1198.714844 535.859375 1198.75 " fill-opacity="1" fill-rule="nonzero"/><path fill="#575656" d="M 629.046875 1209.324219 C 629.046875 1209.289062 619.3125 1210.097656 619.898438 1219.734375 C 619.898438 1219.707031 629.410156 1219.160156 629.046875 1209.324219 " fill-opacity="1" fill-rule="nonzero"/><path fill="#575656" d="M 674.703125 1171.988281 C 674.703125 1171.953125 664.941406 1171.679688 665.480469 1181.351562 C 665.480469 1181.324219 675.019531 1181.785156 674.703125 1171.988281 " fill-opacity="1" fill-rule="nonzero"/><path fill="#575656" d="M 640.488281 1210.085938 C 640.488281 1210.066406 632.621094 1211.050781 633.785156 1218.851562 C 633.785156 1218.832031 641.484375 1218.070312 640.488281 1210.085938 " fill-opacity="1" fill-rule="nonzero"/><path fill="#575656" d="M 640.558594 1193.8125 C 640.558594 1193.835938 640.152344 1186.785156 631.195312 1187.164062 C 631.195312 1187.1875 631.390625 1193.921875 640.558594 1193.8125 " fill-opacity="1" fill-rule="nonzero"/><path fill="#575656" d="M 642.324219 1202.222656 C 642.324219 1202.242188 641.972656 1196.097656 634.164062 1196.378906 C 634.164062 1196.394531 634.335938 1202.285156 642.324219 1202.222656 " fill-opacity="1" fill-rule="nonzero"/><path fill="#575656" d="M 645.273438 1207.0625 C 645.273438 1207.070312 643.257812 1202.46875 637.421875 1204.382812 C 637.421875 1204.394531 639.253906 1208.835938 645.273438 1207.0625 " fill-opacity="1" fill-rule="nonzero"/><path fill="#575656" d="M 652.097656 1217.816406 C 652.097656 1217.828125 649.414062 1211.636719 641.621094 1214.117188 C 641.621094 1214.136719 644.066406 1220.078125 652.097656 1217.816406 " fill-opacity="1" fill-rule="nonzero"/><path fill="#575656" d="M 635.011719 1202.09375 C 635.007812 1202.078125 627.699219 1204.898438 631.117188 1212.125 C 631.113281 1212.109375 638.332031 1209.574219 635.011719 1202.09375 " fill-opacity="1" fill-rule="nonzero"/><path fill="#575656" d="M 655.363281 1173.191406 C 655.359375 1173.207031 652.175781 1179.410156 660.34375 1183.050781 C 660.339844 1183.0625 663.65625 1177.058594 655.363281 1173.191406 " fill-opacity="1" fill-rule="nonzero"/><path fill="#575656" d="M 629.890625 1152.054688 C 629.890625 1152.070312 626.710938 1158.472656 634.910156 1161.632812 C 634.910156 1161.644531 638.214844 1155.414062 629.890625 1152.054688 " fill-opacity="1" fill-rule="nonzero"/><path fill="#575656" d="M 582.734375 1163.582031 C 582.734375 1163.605469 579.605469 1170.3125 587.757812 1172.492188 C 587.757812 1172.511719 591.007812 1165.929688 582.734375 1163.582031 " fill-opacity="1" fill-rule="nonzero"/><path fill="#575656" d="M 625.820312 1234.878906 C 625.820312 1234.882812 631.777344 1227.964844 623.1875 1222.167969 C 623.183594 1222.171875 617.175781 1228.8125 625.820312 1234.878906 " fill-opacity="1" fill-rule="nonzero"/><path fill="#575656" d="M 639.207031 1184.929688 C 639.207031 1184.960938 641.03125 1176.449219 630.222656 1174.632812 C 630.222656 1174.660156 628.203125 1182.773438 639.207031 1184.929688 " fill-opacity="1" fill-rule="nonzero"/><path fill="#575656" d="M 634.734375 1228.265625 C 634.734375 1228.242188 643.1875 1227.851562 642.757812 1219.492188 C 642.757812 1219.46875 634.484375 1219.660156 634.734375 1228.265625 " fill-opacity="1" fill-rule="nonzero"/><path fill="#575656" d="M 601.578125 1267.316406 C 601.578125 1267.296875 609.972656 1266.398438 609.519531 1258.070312 C 609.515625 1258.054688 601.292969 1258.761719 601.578125 1267.316406 " fill-opacity="1" fill-rule="nonzero"/><path fill="#575656" d="M 619.929688 1196.464844 C 619.925781 1196.441406 628.402344 1195.785156 627.960938 1187.433594 C 627.957031 1187.410156 619.660156 1187.878906 619.929688 1196.464844 " fill-opacity="1" fill-rule="nonzero"/><path fill="#575656" d="M 624.972656 1172.066406 C 624.972656 1172.039062 633.472656 1171.476562 633.035156 1163.121094 C 633.035156 1163.09375 624.710938 1163.46875 624.972656 1172.066406 " fill-opacity="1" fill-rule="nonzero"/><path fill="#575656" d="M 618.390625 1235.328125 C 618.386719 1235.351562 614.398438 1243.761719 624.976562 1247.550781 C 624.976562 1247.570312 629.132812 1239.367188 618.390625 1235.328125 " fill-opacity="1" fill-rule="nonzero"/><path fill="#575656" d="M 607.457031 1202.066406 C 607.453125 1202.089844 603.464844 1210.585938 614.074219 1214.101562 C 614.074219 1214.125 618.230469 1205.808594 607.457031 1202.066406 " fill-opacity="1" fill-rule="nonzero"/><path fill="#575656" d="M 609.464844 1193.261719 C 609.464844 1193.285156 607.148438 1200.609375 616.421875 1202.554688 C 616.421875 1202.578125 618.90625 1195.359375 609.464844 1193.261719 " fill-opacity="1" fill-rule="nonzero"/><path fill="#575656" d="M 650.996094 1194.820312 C 650.992188 1194.835938 646.960938 1202.96875 657.570312 1207.480469 C 657.566406 1207.496094 661.773438 1199.613281 650.996094 1194.820312 " fill-opacity="1" fill-rule="nonzero"/><path fill="#575656" d="M 652.757812 1267.585938 C 652.753906 1267.589844 647.710938 1274.761719 656.949219 1280.113281 C 656.945312 1280.121094 662.097656 1273.25 652.757812 1267.585938 " fill-opacity="1" fill-rule="nonzero"/><path fill="#575656" d="M 656.273438 1260.042969 C 656.273438 1260.050781 653.109375 1266.308594 661.203125 1269.816406 C 661.199219 1269.824219 664.484375 1263.78125 656.273438 1260.042969 " fill-opacity="1" fill-rule="nonzero"/><path fill="#575656" d="M 648.851562 1278.582031 C 648.847656 1278.597656 644.851562 1286.816406 655.371094 1291.128906 C 655.367188 1291.144531 659.535156 1283.191406 648.851562 1278.582031 " fill-opacity="1" fill-rule="nonzero"/><path fill="#575656" d="M 648.710938 1291.28125 C 648.710938 1291.292969 644.722656 1299.519531 655.222656 1303.8125 C 655.222656 1303.824219 659.382812 1295.863281 648.710938 1291.28125 " fill-opacity="1" fill-rule="nonzero"/><path fill="#575656" d="M 641.636719 1244.699219 C 641.636719 1244.667969 631.414062 1243.8125 630.183594 1253.992188 C 630.183594 1253.964844 640.121094 1254.996094 641.636719 1244.699219 " fill-opacity="1" fill-rule="nonzero"/><path fill="#575656" d="M 634.296875 1238.464844 C 634.296875 1238.445312 643.789062 1240.917969 647.066406 1231.636719 C 647.070312 1231.617188 637.859375 1228.863281 634.296875 1238.464844 " fill-opacity="1" fill-rule="nonzero"/><path fill="#575656" d="M 661.964844 1218.652344 C 661.96875 1218.628906 671.4375 1221.714844 674.828125 1212.726562 C 674.832031 1212.707031 665.652344 1209.324219 661.964844 1218.652344 " fill-opacity="1" fill-rule="nonzero"/><path fill="#575656" d="M 665.390625 1208.945312 C 665.394531 1208.917969 675.25 1210.5 676.535156 1200.964844 C 676.539062 1200.9375 666.929688 1199.082031 665.390625 1208.945312 " fill-opacity="1" fill-rule="nonzero"/><path fill="#575656" d="M 665.785156 1198.179688 C 665.785156 1198.152344 675.597656 1200.148438 677.382812 1190.734375 C 677.386719 1190.707031 667.832031 1188.429688 665.785156 1198.179688 " fill-opacity="1" fill-rule="nonzero"/><path fill="#575656" d="M 666.585938 1188.765625 C 666.589844 1188.738281 676.410156 1190.78125 678.199219 1181.375 C 678.199219 1181.347656 668.640625 1179.019531 666.585938 1188.765625 " fill-opacity="1" fill-rule="nonzero"/><path fill="#575656" d="M 703.394531 1167.207031 C 703.390625 1167.171875 694.191406 1171.757812 700.789062 1182.582031 C 700.789062 1182.546875 709.917969 1178.449219 703.394531 1167.207031 " fill-opacity="1" fill-rule="nonzero"/><path fill="#575656" d="M 693.636719 1228.601562 C 693.636719 1228.613281 685.769531 1221.890625 677.234375 1228.273438 C 677.234375 1228.289062 684.738281 1234.640625 693.636719 1228.601562 " fill-opacity="1" fill-rule="nonzero"/><path fill="#575656" d="M 687.25 1235.414062 C 687.257812 1235.414062 678.398438 1229.953125 671.300781 1237.71875 C 671.304688 1237.722656 679.796875 1242.917969 687.25 1235.414062 " fill-opacity="1" fill-rule="nonzero"/><path fill="#575656" d="M 676.121094 1243.085938 C 676.125 1243.078125 666.910156 1238.378906 660.492188 1246.78125 C 660.496094 1246.777344 669.339844 1251.292969 676.121094 1243.085938 " fill-opacity="1" fill-rule="nonzero"/><path fill="#575656" d="M 689.800781 1186.382812 C 689.800781 1186.363281 682.328125 1190.945312 689.25 1199.132812 C 689.246094 1199.113281 696.699219 1194.921875 689.800781 1186.382812 " fill-opacity="1" fill-rule="nonzero"/><path fill="#575656" d="M 711.507812 1185.675781 C 711.511719 1185.65625 702.851562 1182.125 700.074219 1190.203125 C 700.074219 1190.1875 708.46875 1193.652344 711.507812 1185.675781 " fill-opacity="1" fill-rule="nonzero"/><path fill="#575656" d="M 694.117188 1177.03125 C 694.117188 1177.023438 688.78125 1181.410156 695.292969 1187.558594 C 695.289062 1187.554688 700.65625 1183.476562 694.117188 1177.03125 " fill-opacity="1" fill-rule="nonzero"/><path fill="#575656" d="M 713.550781 1225.910156 C 713.550781 1225.890625 707.019531 1228.714844 711.839844 1235.859375 C 711.839844 1235.839844 718.324219 1233.3125 713.550781 1225.910156 " fill-opacity="1" fill-rule="nonzero"/><path fill="#575656" d="M 719.886719 1220.398438 C 719.886719 1220.382812 713.367188 1223.070312 718.175781 1230.273438 C 718.175781 1230.253906 724.652344 1227.859375 719.886719 1220.398438 " fill-opacity="1" fill-rule="nonzero"/><g clip-path="url(#542f1c7218)"><path fill="#575656" d="M 650.914062 1151.859375 C 650.914062 1151.859375 645.695312 1156.707031 652.113281 1162.132812 C 652.109375 1162.128906 657.363281 1157.558594 650.914062 1151.859375 " fill-opacity="1" fill-rule="nonzero"/></g><path fill="#575656" d="M 738.085938 1195.363281 C 738.089844 1195.332031 729.382812 1195.648438 732.269531 1204.78125 C 732.273438 1204.746094 740.832031 1204.667969 738.085938 1195.363281 " fill-opacity="1" fill-rule="nonzero"/><path fill="#575656" d="M 743.3125 1242.464844 C 743.3125 1242.453125 738.203125 1246.191406 744.398438 1252.453125 C 744.398438 1252.4375 749.527344 1249.007812 743.3125 1242.464844 " fill-opacity="1" fill-rule="nonzero"/><path fill="#575656" d="M 769.332031 1254.976562 C 769.335938 1254.964844 761.898438 1252.433594 760.980469 1259.363281 C 760.984375 1259.351562 768.234375 1261.875 769.332031 1254.976562 " fill-opacity="1" fill-rule="nonzero"/><path fill="#575656" d="M 761.59375 1223.644531 C 761.605469 1223.617188 752.726562 1220.941406 752.226562 1229.410156 C 752.230469 1229.390625 760.890625 1232.066406 761.59375 1223.644531 " fill-opacity="1" fill-rule="nonzero"/><path fill="#575656" d="M 752.890625 1210.425781 C 752.898438 1210.398438 744.355469 1209.332031 745.714844 1217.960938 C 745.722656 1217.929688 754.089844 1219.132812 752.890625 1210.425781 " fill-opacity="1" fill-rule="nonzero"/><path fill="#575656" d="M 766.066406 1263.171875 C 766.066406 1263.171875 759.179688 1259.003906 755.796875 1264.875 C 755.800781 1264.878906 762.472656 1268.910156 766.066406 1263.171875 " fill-opacity="1" fill-rule="nonzero"/><path fill="#575656" d="M 753.585938 1252.859375 C 753.589844 1252.835938 746.601562 1253.71875 749.667969 1261.140625 C 749.667969 1261.117188 756.554688 1260.453125 753.585938 1252.859375 " fill-opacity="1" fill-rule="nonzero"/><path fill="#575656" d="M 726.777344 1186.394531 C 726.777344 1186.378906 721.140625 1189.652344 726.851562 1196.363281 C 726.851562 1196.347656 732.484375 1193.382812 726.777344 1186.394531 " fill-opacity="1" fill-rule="nonzero"/><path fill="#575656" d="M 712.953125 1175.929688 C 712.957031 1175.90625 705.363281 1175.578125 706.578125 1183.226562 C 706.582031 1183.203125 714.019531 1183.691406 712.953125 1175.929688 " fill-opacity="1" fill-rule="nonzero"/><path fill="#575656" d="M 745.703125 1258.847656 C 745.703125 1258.828125 738.695312 1259.886719 741.769531 1267.289062 C 741.773438 1267.269531 748.679688 1266.425781 745.703125 1258.847656 " fill-opacity="1" fill-rule="nonzero"/><path fill="#575656" d="M 756.628906 1277.210938 C 756.625 1277.230469 752.179688 1271.082031 745.292969 1274.011719 C 745.292969 1274.027344 749.507812 1279.933594 756.628906 1277.210938 " fill-opacity="1" fill-rule="nonzero"/><path fill="#575656" d="M 750.589844 1283.015625 C 750.589844 1283.035156 747.78125 1276.460938 739.867188 1277.707031 C 739.867188 1277.730469 742.453125 1284.050781 750.589844 1283.015625 " fill-opacity="1" fill-rule="nonzero"/><path fill="#575656" d="M 737.875 1293.757812 C 737.871094 1293.777344 735.050781 1287.234375 727.105469 1288.773438 C 727.105469 1288.792969 729.703125 1295.097656 737.875 1293.757812 " fill-opacity="1" fill-rule="nonzero"/><path fill="#575656" d="M 750.222656 1295.757812 C 750.21875 1295.773438 747.417969 1289.242188 739.503906 1290.582031 C 739.5 1290.605469 742.085938 1296.898438 750.222656 1295.757812 " fill-opacity="1" fill-rule="nonzero"/><path fill="#575656" d="M 761.597656 1280.121094 C 761.601562 1280.109375 754.105469 1278.714844 754.25 1285.980469 C 754.253906 1285.964844 761.578125 1287.421875 761.597656 1280.121094 " fill-opacity="1" fill-rule="nonzero"/><path fill="#575656" d="M 763.476562 1292.375 C 763.476562 1292.386719 757.867188 1286.964844 752.195312 1291.269531 C 752.195312 1291.28125 757.570312 1296.492188 763.476562 1292.375 " fill-opacity="1" fill-rule="nonzero"/><path fill="#575656" d="M 761.980469 1269.988281 C 761.984375 1269.996094 755.691406 1265.070312 751.015625 1270.152344 C 751.015625 1270.164062 757.082031 1274.902344 761.980469 1269.988281 " fill-opacity="1" fill-rule="nonzero"/><path fill="#575656" d="M 716.726562 1275.523438 C 716.726562 1275.539062 712.648438 1269.363281 705.351562 1272.472656 C 705.351562 1272.488281 709.1875 1278.4375 716.726562 1275.523438 " fill-opacity="1" fill-rule="nonzero"/><path fill="#575656" d="M 724.773438 1273.222656 C 724.773438 1273.238281 720.71875 1267.015625 713.421875 1269.96875 C 713.421875 1269.988281 717.234375 1275.972656 724.773438 1273.222656 " fill-opacity="1" fill-rule="nonzero"/><path fill="#575656" d="M 731.308594 1269.1875 C 731.308594 1269.203125 727.640625 1263.527344 721.03125 1266.074219 C 721.03125 1266.09375 724.484375 1271.558594 731.308594 1269.1875 " fill-opacity="1" fill-rule="nonzero"/><path fill="#575656" d="M 733.875 1262.996094 C 733.875 1263 729.664062 1259.71875 726.300781 1263.261719 C 726.300781 1263.265625 730.339844 1266.46875 733.875 1262.996094 " fill-opacity="1" fill-rule="nonzero"/><path fill="#575656" d="M 716.203125 1253.726562 C 716.203125 1253.699219 707.648438 1256.375 712.480469 1265.445312 C 712.480469 1265.417969 720.941406 1263.082031 716.203125 1253.726562 " fill-opacity="1" fill-rule="nonzero"/><path fill="#575656" d="M 723.335938 1251.445312 C 723.335938 1251.421875 716.441406 1253.570312 720.496094 1260.953125 C 720.496094 1260.933594 727.316406 1259.054688 723.335938 1251.445312 " fill-opacity="1" fill-rule="nonzero"/><path fill="#575656" d="M 707.203125 1256.722656 C 707.203125 1256.703125 700.285156 1259.125 704.363281 1266.433594 C 704.363281 1266.417969 711.207031 1264.269531 707.203125 1256.722656 " fill-opacity="1" fill-rule="nonzero"/><path fill="#575656" d="M 677.679688 1205.832031 C 677.675781 1205.828125 672.347656 1210.511719 678.871094 1216.371094 C 678.867188 1216.367188 684.230469 1211.980469 677.679688 1205.832031 " fill-opacity="1" fill-rule="nonzero"/><path fill="#575656" d="M 663.472656 1221.183594 C 663.46875 1221.183594 658.148438 1226.066406 664.675781 1231.726562 C 664.675781 1231.722656 670.03125 1227.125 663.472656 1221.183594 " fill-opacity="1" fill-rule="nonzero"/><path fill="#575656" d="M 682.035156 1194.808594 C 682.03125 1194.796875 675.1875 1200.835938 683.710938 1208.472656 C 683.710938 1208.464844 690.601562 1202.832031 682.035156 1194.808594 " fill-opacity="1" fill-rule="nonzero"/><path fill="#575656" d="M 684.644531 1220.230469 C 684.648438 1220.230469 692.664062 1226.023438 699.242188 1219.109375 C 699.246094 1219.117188 691.582031 1213.007812 684.644531 1220.230469 " fill-opacity="1" fill-rule="nonzero"/><path fill="#575656" d="M 665.042969 1266.003906 C 665.046875 1265.957031 678.136719 1263.808594 674.601562 1250.621094 C 674.605469 1250.570312 661.710938 1252.410156 665.042969 1266.003906 " fill-opacity="1" fill-rule="nonzero"/><path fill="#575656" d="M 722.375 1230.3125 C 722.382812 1230.273438 735.546875 1234.667969 738.308594 1222.675781 C 738.320312 1222.640625 725.535156 1217.71875 722.375 1230.3125 " fill-opacity="1" fill-rule="nonzero"/><path fill="#575656" d="M 732.710938 1218.457031 C 732.722656 1218.386719 745.917969 1219.796875 744.078125 1206.703125 C 744.085938 1206.632812 731.132812 1204.859375 732.710938 1218.457031 " fill-opacity="1" fill-rule="nonzero"/><path fill="#575656" d="M 727.640625 1259.625 C 727.644531 1259.566406 740.390625 1258.5 736.1875 1245.367188 C 736.195312 1245.308594 723.625 1246.0625 727.640625 1259.625 " fill-opacity="1" fill-rule="nonzero"/><path fill="#575656" d="M 748.539062 1251.65625 C 748.542969 1251.621094 757.90625 1251.332031 754.824219 1241.613281 C 754.828125 1241.578125 745.597656 1241.636719 748.539062 1251.65625 " fill-opacity="1" fill-rule="nonzero"/><path fill="#575656" d="M 731.636719 1243.878906 C 731.640625 1243.84375 741.070312 1243.226562 737.964844 1233.460938 C 737.964844 1233.425781 728.664062 1233.820312 731.636719 1243.878906 " fill-opacity="1" fill-rule="nonzero"/><path fill="#575656" d="M 761.054688 1252.164062 C 761.0625 1252.097656 772.203125 1250.140625 765.828125 1237.746094 C 765.835938 1237.683594 754.769531 1239.4375 761.054688 1252.164062 " fill-opacity="1" fill-rule="nonzero"/><path fill="#575656" d="M 716.089844 1199.441406 C 716.089844 1199.402344 726.132812 1194.425781 717.230469 1182.832031 C 717.230469 1182.789062 707.199219 1187.574219 716.089844 1199.441406 " fill-opacity="1" fill-rule="nonzero"/><path fill="#575656" d="M 669.03125 1169.652344 C 669.03125 1169.617188 678.453125 1168.199219 675.632812 1158.683594 C 675.636719 1158.648438 666.355469 1159.867188 669.03125 1169.652344 " fill-opacity="1" fill-rule="nonzero"/><path fill="#575656" d="M 694.125 1174.519531 C 694.117188 1174.53125 698.679688 1167.675781 689.039062 1161.804688 C 689.039062 1161.8125 684.375 1168.394531 694.125 1174.519531 " fill-opacity="1" fill-rule="nonzero"/><path fill="#575656" d="M 700.457031 1220.0625 C 700.464844 1220.019531 713.730469 1223.898438 716.503906 1211.570312 C 716.515625 1211.527344 703.613281 1207.15625 700.457031 1220.0625 " fill-opacity="1" fill-rule="nonzero"/><path fill="#575656" d="M 689.488281 1211.667969 C 689.488281 1211.671875 696.914062 1217.128906 703.007812 1210.820312 C 703.011719 1210.824219 695.914062 1205.085938 689.488281 1211.667969 " fill-opacity="1" fill-rule="nonzero"/><path fill="#575656" d="M 694.65625 1204.117188 C 694.660156 1204.113281 702.785156 1208.785156 707.589844 1201.691406 C 707.589844 1201.691406 699.777344 1196.722656 694.65625 1204.117188 " fill-opacity="1" fill-rule="nonzero"/><path fill="#575656" d="M 717.59375 1200.453125 C 717.597656 1200.417969 708.652344 1200.363281 710.460938 1209.433594 C 710.464844 1209.40625 719.226562 1209.664062 717.59375 1200.453125 " fill-opacity="1" fill-rule="nonzero"/><path fill="#575656" d="M 740.164062 1231.890625 C 740.171875 1231.828125 753.183594 1233.480469 751.238281 1220.644531 C 751.25 1220.578125 738.476562 1218.5625 740.164062 1231.890625 " fill-opacity="1" fill-rule="nonzero"/><path fill="#575656" d="M 743.628906 1239.796875 C 743.636719 1239.765625 756.113281 1244.453125 758.394531 1233.210938 C 758.40625 1233.179688 746.292969 1228 743.628906 1239.796875 " fill-opacity="1" fill-rule="nonzero"/><path fill="#575656" d="M 698.554688 1196.628906 C 698.558594 1196.625 706.683594 1201.390625 711.484375 1194.382812 C 711.488281 1194.378906 703.675781 1189.316406 698.554688 1196.628906 " fill-opacity="1" fill-rule="nonzero"/><path fill="#575656" d="M 675.585938 1266.394531 C 675.585938 1266.382812 667.875 1264.773438 666.296875 1272.351562 C 666.300781 1272.34375 673.785156 1274.027344 675.585938 1266.394531 " fill-opacity="1" fill-rule="nonzero"/><path fill="#575656" d="M 663.535156 1287.804688 C 663.535156 1287.789062 672.597656 1289.96875 675.019531 1281.171875 C 675.023438 1281.15625 666.214844 1278.71875 663.535156 1287.804688 " fill-opacity="1" fill-rule="nonzero"/><path fill="#575656" d="M 663.902344 1294.941406 C 663.90625 1294.933594 672.800781 1298.398438 676.898438 1289.867188 C 676.898438 1289.859375 668.292969 1286.128906 663.902344 1294.941406 " fill-opacity="1" fill-rule="nonzero"/><path fill="#575656" d="M 664.683594 1279.433594 C 664.6875 1279.421875 672.449219 1281.289062 674.480469 1273.753906 C 674.484375 1273.742188 666.941406 1271.671875 664.683594 1279.433594 " fill-opacity="1" fill-rule="nonzero"/><path fill="#575656" d="M 710.339844 1223.53125 C 710.34375 1223.523438 703.273438 1219.816406 699.742188 1226.292969 C 699.746094 1226.289062 706.574219 1229.914062 710.339844 1223.53125 " fill-opacity="1" fill-rule="nonzero"/><path fill="#575656" d="M 698.058594 1233.921875 C 698.0625 1233.921875 704.976562 1237.957031 709.207031 1231.863281 C 709.210938 1231.863281 702.558594 1227.613281 698.058594 1233.921875 " fill-opacity="1" fill-rule="nonzero"/><path fill="#575656" d="M 716.777344 1236.609375 C 716.78125 1236.609375 723.664062 1240.863281 727.871094 1235.019531 C 727.875 1235.019531 721.265625 1230.546875 716.777344 1236.609375 " fill-opacity="1" fill-rule="nonzero"/><path fill="#575656" d="M 713.5625 1241.941406 C 713.566406 1241.949219 719.910156 1246.796875 725.09375 1241.589844 C 725.09375 1241.59375 719.035156 1236.542969 713.5625 1241.941406 " fill-opacity="1" fill-rule="nonzero"/><path fill="#575656" d="M 709.6875 1248.402344 C 709.691406 1248.40625 716.039062 1253.191406 721.226562 1247.898438 C 721.226562 1247.90625 715.164062 1242.925781 709.6875 1248.402344 " fill-opacity="1" fill-rule="nonzero"/><path fill="#575656" d="M 681.835938 1242.9375 C 681.835938 1242.953125 681.5625 1249.761719 690.382812 1250.945312 C 690.378906 1250.964844 690.875 1244.261719 681.835938 1242.9375 " fill-opacity="1" fill-rule="nonzero"/><path fill="#575656" d="M 680.941406 1251.164062 C 680.9375 1251.1875 680.613281 1259.273438 691.085938 1260.644531 C 691.085938 1260.667969 691.671875 1252.695312 680.941406 1251.164062 " fill-opacity="1" fill-rule="nonzero"/><path fill="#575656" d="M 695.855469 1242.476562 C 695.859375 1242.464844 703.386719 1245.214844 705.925781 1238.234375 C 705.925781 1238.222656 698.632812 1235.253906 695.855469 1242.476562 " fill-opacity="1" fill-rule="nonzero"/><g clip-path="url(#a85503c1c7)"><path fill="#575656" d="M 497.964844 1266.007812 C 497.984375 1266.082031 497.847656 1278.410156 514.652344 1276.359375 C 514.667969 1276.441406 515.0625 1263.53125 497.964844 1266.007812 " fill-opacity="1" fill-rule="nonzero"/></g><path fill="#575656" d="M 540.03125 1207.421875 C 540.027344 1207.445312 529.449219 1218.117188 538.953125 1227.589844 C 538.953125 1227.609375 549.539062 1217.464844 540.03125 1207.421875 " fill-opacity="1" fill-rule="nonzero"/><path fill="#575656" d="M 725.679688 1198.734375 C 725.679688 1198.675781 714.859375 1204.933594 724.261719 1218.359375 C 724.261719 1218.300781 735.03125 1212.738281 725.679688 1198.734375 " fill-opacity="1" fill-rule="nonzero"/><path fill="#575656" d="M 683.6875 1167.140625 C 683.679688 1167.097656 672.738281 1174.46875 682.3125 1187.355469 C 682.3125 1187.316406 693.21875 1180.625 683.6875 1167.140625 " fill-opacity="1" fill-rule="nonzero"/><path fill="#575656" d="M 561.761719 1184.4375 C 561.761719 1184.4375 555.390625 1190.164062 560.503906 1196.160156 C 560.5 1196.160156 566.851562 1190.742188 561.761719 1184.4375 " fill-opacity="1" fill-rule="nonzero"/><path fill="#575656" d="M 561.9375 1178.597656 C 561.941406 1178.621094 560.628906 1185.894531 569.722656 1186.675781 C 569.726562 1186.703125 571.207031 1179.433594 561.9375 1178.597656 " fill-opacity="1" fill-rule="nonzero"/><path fill="#575656" d="M 573.125 1169.589844 C 573.121094 1169.628906 565.082031 1181.339844 577.742188 1188.890625 C 577.742188 1188.929688 585.910156 1177.570312 573.125 1169.589844 " fill-opacity="1" fill-rule="nonzero"/><path fill="#575656" d="M 509.265625 1235.636719 C 509.277344 1235.675781 511.023438 1244.839844 524.25 1241.28125 C 524.261719 1241.328125 522.765625 1231.742188 509.265625 1235.636719 " fill-opacity="1" fill-rule="nonzero"/><path fill="#575656" d="M 559.503906 1251.257812 C 559.507812 1251.296875 559.027344 1261.078125 571.722656 1261.324219 C 571.730469 1261.367188 572.472656 1251.472656 559.503906 1251.257812 " fill-opacity="1" fill-rule="nonzero"/><path fill="#575656" d="M 550.125 1186.90625 C 550.121094 1186.953125 540.628906 1199.078125 552.730469 1207.433594 C 552.726562 1207.480469 562.308594 1195.769531 550.125 1186.90625 " fill-opacity="1" fill-rule="nonzero"/><path fill="#575656" d="M 500.222656 1282.824219 C 500.234375 1282.847656 505.175781 1293.375 521.726562 1286.78125 C 521.742188 1286.816406 517.132812 1275.59375 500.222656 1282.824219 " fill-opacity="1" fill-rule="nonzero"/><path fill="#575656" d="M 519.414062 1262.238281 C 519.425781 1262.316406 513.460938 1275.199219 528.191406 1279.691406 C 528.199219 1279.769531 534.34375 1266.867188 519.414062 1262.238281 " fill-opacity="1" fill-rule="nonzero"/><path fill="#575656" d="M 567.804688 1271.492188 C 567.808594 1271.511719 570.007812 1279.394531 580.582031 1276.296875 C 580.585938 1276.316406 578.660156 1268.292969 567.804688 1271.492188 " fill-opacity="1" fill-rule="nonzero"/><path fill="#575656" d="M 569.566406 1212.125 C 569.5625 1212.128906 561.78125 1218.773438 568.769531 1225.511719 C 568.769531 1225.515625 576.542969 1219.230469 569.566406 1212.125 " fill-opacity="1" fill-rule="nonzero"/><path fill="#575656" d="M 562.367188 1288.117188 C 562.375 1288.136719 559.253906 1278.914062 547.078125 1283.640625 C 547.085938 1283.660156 549.804688 1292.433594 562.367188 1288.117188 " fill-opacity="1" fill-rule="nonzero"/><path fill="#575656" d="M 563.777344 1205.695312 C 563.773438 1205.695312 556.996094 1211.160156 562.53125 1217 C 562.53125 1217 569.289062 1211.835938 563.777344 1205.695312 " fill-opacity="1" fill-rule="nonzero"/><path fill="#575656" d="M 577.605469 1197.269531 C 577.609375 1197.289062 574.472656 1189.574219 564.144531 1194.210938 C 564.148438 1194.234375 566.933594 1201.542969 577.605469 1197.269531 " fill-opacity="1" fill-rule="nonzero"/><path fill="#575656" d="M 583.117188 1206.433594 C 583.117188 1206.453125 579.984375 1198.671875 569.644531 1203.132812 C 569.648438 1203.15625 572.433594 1210.539062 583.117188 1206.433594 " fill-opacity="1" fill-rule="nonzero"/><path fill="#575656" d="M 588.882812 1213.269531 C 588.886719 1213.277344 586.695312 1207.796875 579.425781 1210.75 C 579.429688 1210.761719 581.386719 1216.03125 588.882812 1213.269531 " fill-opacity="1" fill-rule="nonzero"/><path fill="#575656" d="M 595.746094 1210.050781 C 595.742188 1210.050781 600.855469 1205.65625 595.839844 1200.976562 C 595.835938 1200.976562 590.730469 1205.191406 595.746094 1210.050781 " fill-opacity="1" fill-rule="nonzero"/><path fill="#575656" d="M 604.132812 1246.628906 C 604.132812 1246.628906 609.234375 1242.355469 604.234375 1237.542969 C 604.234375 1237.542969 599.132812 1241.625 604.132812 1246.628906 " fill-opacity="1" fill-rule="nonzero"/><path fill="#575656" d="M 690.84375 1268.738281 C 690.84375 1268.75 691.90625 1262.949219 684.378906 1261.203125 C 684.378906 1261.207031 683.179688 1266.796875 690.84375 1268.738281 " fill-opacity="1" fill-rule="nonzero"/><path fill="#575656" d="M 595.503906 1219.566406 C 595.503906 1219.574219 593.316406 1214.046875 586.039062 1216.878906 C 586.039062 1216.890625 587.996094 1222.210938 595.503906 1219.566406 " fill-opacity="1" fill-rule="nonzero"/><path fill="#575656" d="M 586.167969 1198.820312 C 586.167969 1198.824219 590.398438 1194.257812 585.199219 1190.617188 C 585.195312 1190.621094 580.953125 1195 586.167969 1198.820312 " fill-opacity="1" fill-rule="nonzero"/><path fill="#575656" d="M 591.632812 1223.902344 C 591.632812 1223.90625 594.667969 1228.445312 600.90625 1225.046875 C 600.910156 1225.058594 598.082031 1220.421875 591.632812 1223.902344 " fill-opacity="1" fill-rule="nonzero"/><path fill="#575656" d="M 590.023438 1204.234375 C 590.019531 1204.230469 595.367188 1200.789062 591.679688 1195.832031 C 591.675781 1195.828125 586.375 1199.105469 590.023438 1204.234375 " fill-opacity="1" fill-rule="nonzero"/><path fill="#575656" d="M 550.023438 1238.140625 C 550.015625 1238.132812 541.542969 1242.78125 545.46875 1250.433594 C 545.464844 1250.425781 553.84375 1246.148438 550.023438 1238.140625 " fill-opacity="1" fill-rule="nonzero"/><path fill="#575656" d="M 554.195312 1246.273438 C 554.191406 1246.265625 545.710938 1250.800781 549.636719 1258.53125 C 549.628906 1258.523438 558.015625 1254.351562 554.195312 1246.273438 " fill-opacity="1" fill-rule="nonzero"/><path fill="#575656" d="M 555.886719 1255.78125 C 555.886719 1255.785156 549.792969 1260.558594 554.667969 1265.875 C 554.667969 1265.878906 560.738281 1261.367188 555.886719 1255.78125 " fill-opacity="1" fill-rule="nonzero"/><path fill="#575656" d="M 529.566406 1291.796875 C 529.566406 1291.792969 525.675781 1286.964844 518.503906 1292.082031 C 518.507812 1292.082031 522.109375 1296.785156 529.566406 1291.796875 " fill-opacity="1" fill-rule="nonzero"/><path fill="#575656" d="M 548.925781 1299.800781 C 548.929688 1299.800781 545.015625 1294.730469 537.792969 1299.601562 C 537.796875 1299.601562 541.421875 1304.539062 548.925781 1299.800781 " fill-opacity="1" fill-rule="nonzero"/><path fill="#575656" d="M 536.441406 1286.605469 C 536.441406 1286.621094 539.65625 1280.160156 532.125 1278.28125 C 532.128906 1278.296875 528.804688 1284.476562 536.441406 1286.605469 " fill-opacity="1" fill-rule="nonzero"/><path fill="#575656" d="M 544.292969 1289.878906 C 544.292969 1289.894531 547.523438 1283.460938 539.96875 1281.425781 C 539.972656 1281.445312 536.640625 1287.601562 544.292969 1289.878906 " fill-opacity="1" fill-rule="nonzero"/><path fill="#575656" d="M 546.507812 1271.1875 C 546.511719 1271.195312 542.953125 1264.308594 533.402344 1269.453125 C 533.410156 1269.460938 536.621094 1276.054688 546.507812 1271.1875 " fill-opacity="1" fill-rule="nonzero"/><path fill="#575656" d="M 546.617188 1229.566406 C 546.613281 1229.558594 539.527344 1233.820312 543.175781 1240.105469 C 543.171875 1240.097656 550.1875 1236.148438 546.617188 1229.566406 " fill-opacity="1" fill-rule="nonzero"/><path fill="#575656" d="M 571.242188 1293.335938 C 571.246094 1293.335938 567.3125 1288.453125 560.53125 1293.082031 C 560.535156 1293.082031 564.203125 1297.847656 571.242188 1293.335938 " fill-opacity="1" fill-rule="nonzero"/><path fill="#575656" d="M 570.539062 1339.871094 C 570.542969 1339.871094 566.617188 1334.910156 559.863281 1339.371094 C 559.867188 1339.367188 563.523438 1344.226562 570.539062 1339.871094 " fill-opacity="1" fill-rule="nonzero"/><path fill="#575656" d="M 519.519531 1254.664062 C 519.523438 1254.679688 520.550781 1261.007812 529.230469 1258.277344 C 529.238281 1258.296875 528.398438 1251.839844 519.519531 1254.664062 " fill-opacity="1" fill-rule="nonzero"/><path fill="#575656" d="M 561.289062 1197.238281 C 561.285156 1197.226562 553.667969 1201.335938 557.117188 1208.246094 C 557.117188 1208.234375 564.644531 1204.457031 561.289062 1197.238281 " fill-opacity="1" fill-rule="nonzero"/><path fill="#575656" d="M 610.78125 1295.382812 C 610.78125 1295.382812 604.714844 1289.660156 597.082031 1296.097656 C 597.082031 1296.097656 602.816406 1301.675781 610.78125 1295.382812 " fill-opacity="1" fill-rule="nonzero"/><path fill="#575656" d="M 573.085938 1306.433594 C 573.082031 1306.433594 566.1875 1311.023438 571.117188 1317.453125 C 571.117188 1317.453125 577.96875 1313.152344 573.085938 1306.433594 " fill-opacity="1" fill-rule="nonzero"/><path fill="#575656" d="M 580.699219 1308.640625 C 580.699219 1308.640625 575.375 1312.121094 579.175781 1317.140625 C 579.171875 1317.140625 584.464844 1313.875 580.699219 1308.640625 " fill-opacity="1" fill-rule="nonzero"/><path fill="#575656" d="M 632.425781 1261.773438 C 632.421875 1261.761719 624.730469 1264.652344 628.160156 1272.292969 C 628.15625 1272.277344 635.75 1269.675781 632.425781 1261.773438 " fill-opacity="1" fill-rule="nonzero"/><path fill="#575656" d="M 562.703125 1264.351562 C 562.707031 1264.359375 565.515625 1270.351562 573.777344 1266.730469 C 573.78125 1266.738281 571.207031 1260.628906 562.703125 1264.351562 " fill-opacity="1" fill-rule="nonzero"/><path fill="#575656" d="M 576.867188 1280.683594 C 576.867188 1280.695312 580.59375 1288.589844 591.292969 1284.1875 C 591.296875 1284.207031 587.886719 1276.125 576.867188 1280.683594 " fill-opacity="1" fill-rule="nonzero"/><path fill="#575656" d="M 586.785156 1289.035156 C 586.789062 1289.042969 591.914062 1296.355469 601.882812 1290.789062 C 601.882812 1290.800781 597.089844 1283.285156 586.785156 1289.035156 " fill-opacity="1" fill-rule="nonzero"/><path fill="#575656" d="M 611.445312 1286.507812 C 611.441406 1286.511719 618.386719 1280.117188 610.707031 1273.429688 C 610.707031 1273.4375 603.753906 1279.550781 611.445312 1286.507812 " fill-opacity="1" fill-rule="nonzero"/><path fill="#575656" d="M 600.71875 1281.480469 C 600.71875 1281.492188 606.847656 1274.304688 598.269531 1268.652344 C 598.269531 1268.660156 592.09375 1275.542969 600.71875 1281.480469 " fill-opacity="1" fill-rule="nonzero"/><path fill="#575656" d="M 590.976562 1274.769531 C 590.976562 1274.777344 596.710938 1268.390625 589.226562 1263.214844 C 589.222656 1263.226562 583.457031 1269.335938 590.976562 1274.769531 " fill-opacity="1" fill-rule="nonzero"/><path fill="#575656" d="M 581.738281 1268.199219 C 581.738281 1268.210938 587.09375 1261.5 579.28125 1256.886719 C 579.28125 1256.902344 573.871094 1263.328125 581.738281 1268.199219 " fill-opacity="1" fill-rule="nonzero"/><path fill="#575656" d="M 596.863281 1243.472656 C 596.859375 1243.480469 603.839844 1235.738281 594.726562 1229.441406 C 594.726562 1229.453125 587.710938 1236.875 596.863281 1243.472656 " fill-opacity="1" fill-rule="nonzero"/><path fill="#575656" d="M 585.519531 1236.761719 C 585.515625 1236.769531 593.019531 1229.808594 585.160156 1223.089844 C 585.160156 1223.097656 577.660156 1229.765625 585.519531 1236.761719 " fill-opacity="1" fill-rule="nonzero"/><path fill="#575656" d="M 576.300781 1230.421875 C 576.296875 1230.421875 583.816406 1224.609375 577.59375 1217.855469 C 577.589844 1217.855469 570.113281 1223.429688 576.300781 1230.421875 " fill-opacity="1" fill-rule="nonzero"/><path fill="#575656" d="M 751.289062 1298.722656 C 751.285156 1298.757812 754.546875 1307.773438 743.242188 1308.179688 C 743.238281 1308.214844 739.804688 1299.175781 751.289062 1298.722656 " fill-opacity="1" fill-rule="nonzero"/><path fill="#575656" d="M 761.214844 1297.449219 C 761.210938 1297.472656 764.328125 1305.058594 755 1305.554688 C 754.996094 1305.582031 751.746094 1298.011719 761.214844 1297.449219 " fill-opacity="1" fill-rule="nonzero"/><path fill="#575656" d="M 769.226562 1293.65625 C 769.226562 1293.679688 774.128906 1300.890625 766.140625 1303.152344 C 766.140625 1303.179688 761.167969 1296.085938 769.226562 1293.65625 " fill-opacity="1" fill-rule="nonzero"/><path fill="#575656" d="M 704.433594 1303.515625 C 704.429688 1303.546875 702.976562 1293.597656 715.710938 1294.632812 C 715.707031 1294.667969 717.429688 1304.132812 704.433594 1303.515625 " fill-opacity="1" fill-rule="nonzero"/><path fill="#575656" d="M 719.613281 1306.730469 C 719.609375 1306.769531 717.050781 1297.210938 728.976562 1297.296875 C 728.976562 1297.335938 731.761719 1306.417969 719.613281 1306.730469 " fill-opacity="1" fill-rule="nonzero"/><path fill="#575656" d="M 732.664062 1307.734375 C 732.664062 1307.769531 729.253906 1299.132812 739.707031 1298.3125 C 739.703125 1298.339844 743.28125 1306.570312 732.664062 1307.734375 " fill-opacity="1" fill-rule="nonzero"/><path fill="#575656" d="M 585.785156 1259.605469 C 585.789062 1259.589844 594.589844 1264.957031 602.574219 1255.808594 C 602.578125 1255.796875 594.128906 1250.109375 585.785156 1259.605469 " fill-opacity="1" fill-rule="nonzero"/><path fill="#575656" d="M 574.011719 1253.90625 C 574.011719 1253.886719 582.800781 1259.019531 590.769531 1249.707031 C 590.769531 1249.695312 582.328125 1244.234375 574.011719 1253.90625 " fill-opacity="1" fill-rule="nonzero"/><path fill="#575656" d="M 538.191406 1277.09375 C 538.195312 1277.09375 542.765625 1283.890625 552.691406 1278.050781 C 552.699219 1278.058594 548.417969 1271.019531 538.191406 1277.09375 " fill-opacity="1" fill-rule="nonzero"/><path fill="#575656" d="M 525.453125 1296.925781 C 525.457031 1296.910156 531.753906 1302.316406 540.335938 1294.886719 C 540.339844 1294.878906 534.335938 1289.246094 525.453125 1296.925781 " fill-opacity="1" fill-rule="nonzero"/><path fill="#575656" d="M 498.230469 1295.738281 C 498.230469 1295.71875 504.453125 1300.625 512.945312 1292.898438 C 512.945312 1292.882812 507.003906 1287.734375 498.230469 1295.738281 " fill-opacity="1" fill-rule="nonzero"/><path fill="#575656" d="M 567.230469 1246.925781 C 567.234375 1246.914062 573.957031 1250.707031 580.042969 1243.460938 C 580.042969 1243.453125 573.585938 1239.4375 567.230469 1246.925781 " fill-opacity="1" fill-rule="nonzero"/><path fill="#575656" d="M 557.75 1239.273438 C 557.753906 1239.273438 563.089844 1244.628906 571.164062 1238.398438 C 571.167969 1238.398438 566.105469 1232.804688 557.75 1239.273438 " fill-opacity="1" fill-rule="nonzero"/><path fill="#575656" d="M 543.640625 1321.53125 C 543.640625 1321.554688 542.121094 1330.199219 553.105469 1330.574219 C 553.109375 1330.597656 554.839844 1321.957031 543.640625 1321.53125 " fill-opacity="1" fill-rule="nonzero"/><path fill="#575656" d="M 585.386719 1327.96875 C 585.386719 1327.984375 586.972656 1320.585938 577.808594 1319.628906 C 577.8125 1319.648438 576.050781 1326.738281 585.386719 1327.96875 " fill-opacity="1" fill-rule="nonzero"/><path fill="#575656" d="M 548.628906 1335.253906 C 548.632812 1335.242188 542.835938 1330.996094 536.453125 1337.4375 C 536.453125 1337.425781 541.941406 1341.652344 548.628906 1335.253906 " fill-opacity="1" fill-rule="nonzero"/><path fill="#575656" d="M 599.894531 1321.746094 C 599.890625 1321.753906 603.171875 1316.328125 596.574219 1313.347656 C 596.574219 1313.355469 593.222656 1318.558594 599.894531 1321.746094 " fill-opacity="1" fill-rule="nonzero"/><path fill="#575656" d="M 575.992188 1329.960938 C 575.992188 1329.980469 577.832031 1321.46875 567.308594 1320.507812 C 567.308594 1320.527344 565.269531 1328.664062 575.992188 1329.960938 " fill-opacity="1" fill-rule="nonzero"/><path fill="#575656" d="M 565.03125 1331.050781 C 565.03125 1331.078125 566.804688 1322.804688 556.582031 1322.039062 C 556.585938 1322.058594 554.617188 1329.957031 565.03125 1331.050781 " fill-opacity="1" fill-rule="nonzero"/><path fill="#575656" d="M 587.132812 1316.097656 C 587.132812 1316.113281 585.128906 1323.0625 593.8125 1324.632812 C 593.8125 1324.648438 595.980469 1317.808594 587.132812 1316.097656 " fill-opacity="1" fill-rule="nonzero"/><path fill="#575656" d="M 530.550781 1258.628906 C 530.554688 1258.65625 531.394531 1267.324219 543.050781 1264.578125 C 543.054688 1264.609375 542.464844 1255.738281 530.550781 1258.628906 " fill-opacity="1" fill-rule="nonzero"/><path fill="#575656" d="M 528.429688 1249.878906 C 528.4375 1249.90625 529.546875 1257.964844 540.507812 1254.933594 C 540.515625 1254.960938 539.640625 1246.695312 528.429688 1249.878906 " fill-opacity="1" fill-rule="nonzero"/><path fill="#575656" d="M 527.191406 1240.789062 C 527.191406 1240.808594 528.191406 1248.046875 538.042969 1245.195312 C 538.046875 1245.222656 537.261719 1237.820312 527.191406 1240.789062 " fill-opacity="1" fill-rule="nonzero"/><path fill="#575656" d="M 530.316406 1229.246094 C 530.320312 1229.261719 528.441406 1235.304688 535.792969 1235.652344 C 535.796875 1235.671875 537.792969 1229.664062 530.316406 1229.246094 " fill-opacity="1" fill-rule="nonzero"/><path fill="#575656" d="M 504.808594 1248.59375 C 504.8125 1248.597656 506.640625 1253.601562 513.964844 1250.050781 C 513.964844 1250.058594 512.3125 1244.921875 504.808594 1248.59375 " fill-opacity="1" fill-rule="nonzero"/><path fill="#575656" d="M 551.007812 1232.824219 C 551.007812 1232.816406 556.339844 1238.058594 564.398438 1231.699219 C 564.402344 1231.699219 559.34375 1226.214844 551.007812 1232.824219 " fill-opacity="1" fill-rule="nonzero"/><path fill="#575656" d="M 546.785156 1222.761719 C 546.789062 1222.78125 548.996094 1229.75 558.695312 1226.074219 C 558.703125 1226.097656 556.730469 1218.929688 546.785156 1222.761719 " fill-opacity="1" fill-rule="nonzero"/><path fill="#575656" d="M 517.351562 1221.046875 C 517.359375 1221.105469 512.941406 1231.894531 525.710938 1233.21875 C 525.71875 1233.28125 530.300781 1222.433594 517.351562 1221.046875 " fill-opacity="1" fill-rule="nonzero"/><path fill="#575656" d="M 527.492188 1208.898438 C 527.492188 1208.925781 521.101562 1217.601562 530.316406 1221.726562 C 530.316406 1221.757812 536.777344 1213.300781 527.492188 1208.898438 " fill-opacity="1" fill-rule="nonzero"/><path fill="#575656" d="M 545.578125 1214.3125 C 545.578125 1214.328125 546.640625 1220.171875 554.578125 1217.789062 C 554.578125 1217.804688 553.703125 1211.859375 545.578125 1214.3125 " fill-opacity="1" fill-rule="nonzero"/><path fill="#575656" d="M 699.742188 1325.054688 C 699.738281 1325.058594 702.011719 1319.410156 710.957031 1322.65625 C 710.957031 1322.660156 708.960938 1328.113281 699.742188 1325.054688 " fill-opacity="1" fill-rule="nonzero"/><path fill="#575656" d="M 706.605469 1332.066406 C 706.605469 1332.082031 706.550781 1325.925781 715.902344 1326.492188 C 715.898438 1326.507812 716.175781 1332.386719 706.605469 1332.066406 " fill-opacity="1" fill-rule="nonzero"/><path fill="#575656" d="M 715.914062 1333.625 C 715.914062 1333.640625 714.519531 1327.515625 723.605469 1326.585938 C 723.605469 1326.605469 725.1875 1332.429688 715.914062 1333.625 " fill-opacity="1" fill-rule="nonzero"/><path fill="#575656" d="M 725.578125 1334.480469 C 725.574219 1334.496094 723.1875 1328.535156 731.839844 1326.523438 C 731.839844 1326.546875 734.375 1332.203125 725.578125 1334.480469 " fill-opacity="1" fill-rule="nonzero"/><path fill="#575656" d="M 734.988281 1333.25 C 734.988281 1333.269531 733.367188 1327.203125 742.339844 1326.273438 C 742.335938 1326.296875 744.132812 1332.054688 734.988281 1333.25 " fill-opacity="1" fill-rule="nonzero"/><path fill="#575656" d="M 744.070312 1334.0625 C 744.066406 1334.089844 743.265625 1326.585938 754.640625 1327.074219 C 754.632812 1327.105469 755.703125 1334.183594 744.070312 1334.0625 " fill-opacity="1" fill-rule="nonzero"/><path fill="#575656" d="M 721.523438 1352.714844 C 721.523438 1352.683594 730.371094 1348.023438 739.203125 1358.972656 C 739.203125 1358.941406 730.808594 1363.714844 721.523438 1352.714844 " fill-opacity="1" fill-rule="nonzero"/><path fill="#575656" d="M 691.816406 1323.011719 C 691.820312 1323.023438 688.195312 1316.109375 696.074219 1310.976562 C 696.078125 1310.996094 699.792969 1317.5625 691.816406 1323.011719 " fill-opacity="1" fill-rule="nonzero"/><path fill="#575656" d="M 684.691406 1327.242188 C 684.691406 1327.25 679.390625 1321.878906 685.300781 1314.039062 C 685.300781 1314.042969 690.609375 1319.101562 684.691406 1327.242188 " fill-opacity="1" fill-rule="nonzero"/><path fill="#575656" d="M 718.484375 1321.796875 C 718.488281 1321.777344 708.511719 1321.867188 709.039062 1311.65625 C 709.039062 1311.632812 718.804688 1311.402344 718.484375 1321.796875 " fill-opacity="1" fill-rule="nonzero"/><path fill="#575656" d="M 730.941406 1322.820312 C 730.949219 1322.796875 720.996094 1322.703125 721.53125 1312.585938 C 721.535156 1312.5625 731.273438 1312.527344 730.941406 1322.820312 " fill-opacity="1" fill-rule="nonzero"/><g clip-path="url(#0f812cedb4)"><path fill="#575656" d="M 781.726562 1295.648438 C 781.71875 1295.683594 784.726562 1304.105469 773.332031 1302.992188 C 773.328125 1303.027344 770.15625 1294.5 781.726562 1295.648438 " fill-opacity="1" fill-rule="nonzero"/></g><path fill="#575656" d="M 779.363281 1280.308594 C 779.351562 1280.367188 780.863281 1291.550781 765.347656 1287.417969 C 765.332031 1287.476562 763.582031 1275.882812 779.363281 1280.308594 " fill-opacity="1" fill-rule="nonzero"/><path fill="#575656" d="M 740.6875 1322.167969 C 740.691406 1322.15625 733.089844 1321.945312 733.503906 1314.277344 C 733.507812 1314.261719 740.941406 1314.359375 740.6875 1322.167969 " fill-opacity="1" fill-rule="nonzero"/><path fill="#575656" d="M 753.046875 1319.707031 C 753.046875 1319.683594 745.328125 1321.082031 743.488281 1313.386719 C 743.492188 1313.367188 751 1311.878906 753.046875 1319.707031 " fill-opacity="1" fill-rule="nonzero"/><path fill="#575656" d="M 762.601562 1318.300781 C 762.605469 1318.277344 754.90625 1319.519531 753.074219 1311.859375 C 753.078125 1311.839844 760.558594 1310.511719 762.601562 1318.300781 " fill-opacity="1" fill-rule="nonzero"/><path fill="#575656" d="M 772.679688 1313.675781 C 772.679688 1313.648438 766.191406 1317.1875 761.195312 1310.671875 C 761.195312 1310.652344 767.445312 1307.015625 772.679688 1313.675781 " fill-opacity="1" fill-rule="nonzero"/><path fill="#575656" d="M 730.152344 1346.730469 C 730.15625 1346.714844 722.15625 1347.945312 721.109375 1340.171875 C 721.109375 1340.15625 728.90625 1338.832031 730.152344 1346.730469 " fill-opacity="1" fill-rule="nonzero"/><path fill="#575656" d="M 722.023438 1359.714844 C 722.027344 1359.703125 713.773438 1360.039062 714.015625 1352.289062 C 714.015625 1352.277344 722.089844 1351.828125 722.023438 1359.714844 " fill-opacity="1" fill-rule="nonzero"/><path fill="#575656" d="M 709.871094 1357.304688 C 709.871094 1357.300781 701.765625 1355.03125 705.226562 1348.054688 C 705.226562 1348.050781 713.222656 1350.15625 709.871094 1357.304688 " fill-opacity="1" fill-rule="nonzero"/><path fill="#575656" d="M 699.425781 1352.972656 C 699.425781 1352.980469 692.5 1348.4375 698.609375 1343.089844 C 698.609375 1343.09375 705.507812 1347.417969 699.425781 1352.972656 " fill-opacity="1" fill-rule="nonzero"/><path fill="#575656" d="M 688.8125 1348.222656 C 688.8125 1348.234375 685.039062 1341.40625 693.550781 1339.511719 C 693.550781 1339.523438 697.429688 1346.089844 688.8125 1348.222656 " fill-opacity="1" fill-rule="nonzero"/><path fill="#575656" d="M 720.777344 1345.785156 C 720.777344 1345.765625 712.765625 1347.101562 711.710938 1339.289062 C 711.714844 1339.273438 719.523438 1337.839844 720.777344 1345.785156 " fill-opacity="1" fill-rule="nonzero"/><path fill="#575656" d="M 740.050781 1345.496094 C 740.054688 1345.476562 732.070312 1346.582031 731.027344 1338.855469 C 731.027344 1338.835938 738.808594 1337.640625 740.050781 1345.496094 " fill-opacity="1" fill-rule="nonzero"/><path fill="#575656" d="M 750.871094 1340.988281 C 750.871094 1340.96875 743.835938 1344.4375 739.441406 1337.808594 C 739.441406 1337.792969 746.230469 1334.242188 750.871094 1340.988281 " fill-opacity="1" fill-rule="nonzero"/><path fill="#575656" d="M 779.308594 1308.984375 C 779.308594 1308.96875 774.5 1312.132812 769.929688 1307.21875 C 769.929688 1307.207031 774.542969 1303.953125 779.308594 1308.984375 " fill-opacity="1" fill-rule="nonzero"/><path fill="#575656" d="M 501.539062 1302.214844 C 501.539062 1302.191406 509.34375 1310.472656 522.691406 1300.542969 C 522.699219 1300.527344 515.261719 1291.769531 501.539062 1302.214844 " fill-opacity="1" fill-rule="nonzero"/><path fill="#575656" d="M 524.402344 1329.40625 C 524.402344 1329.390625 530.871094 1337.242188 542.480469 1329.53125 C 542.480469 1329.523438 536.367188 1321.402344 524.402344 1329.40625 " fill-opacity="1" fill-rule="nonzero"/><path fill="#575656" d="M 538.347656 1344.285156 C 538.347656 1344.265625 545.753906 1351.195312 555.925781 1342.972656 C 555.929688 1342.957031 548.882812 1335.820312 538.347656 1344.285156 " fill-opacity="1" fill-rule="nonzero"/><path fill="#575656" d="M 533.054688 1316.75 C 533.050781 1316.722656 542.492188 1317.191406 544.941406 1307.589844 C 544.941406 1307.5625 535.757812 1306.933594 533.054688 1316.75 " fill-opacity="1" fill-rule="nonzero"/><path fill="#575656" d="M 559.796875 1317.375 C 559.792969 1317.363281 569.132812 1314 566.179688 1305.003906 C 566.175781 1304.992188 556.984375 1308.148438 559.796875 1317.375 " fill-opacity="1" fill-rule="nonzero"/><path fill="#575656" d="M 546.292969 1319.394531 C 546.285156 1319.371094 557.144531 1317.792969 555.453125 1307.511719 C 555.445312 1307.488281 544.796875 1308.90625 546.292969 1319.394531 " fill-opacity="1" fill-rule="nonzero"/><path fill="#575656" d="M 522.796875 1311.796875 C 522.796875 1311.773438 529.976562 1314.925781 535.714844 1307.070312 C 535.714844 1307.050781 528.804688 1303.742188 522.796875 1311.796875 " fill-opacity="1" fill-rule="nonzero"/><path fill="#575656" d="M 516.246094 1307.839844 C 516.246094 1307.828125 521.554688 1310.804688 526.78125 1304.78125 C 526.78125 1304.773438 521.691406 1301.671875 516.246094 1307.839844 " fill-opacity="1" fill-rule="nonzero"/><path fill="#575656" d="M 550.679688 1349.90625 C 550.679688 1349.898438 556.03125 1353.429688 561.304688 1347.707031 C 561.304688 1347.703125 556.179688 1344.078125 550.679688 1349.90625 " fill-opacity="1" fill-rule="nonzero"/><path fill="#575656" d="M 584.765625 1352.527344 C 584.757812 1352.523438 593.558594 1348.304688 588.957031 1339.71875 C 588.957031 1339.710938 580.257812 1343.6875 584.765625 1352.527344 " fill-opacity="1" fill-rule="nonzero"/><path fill="#575656" d="M 598.476562 1348.179688 C 598.472656 1348.179688 606.914062 1341.605469 598.207031 1334.492188 C 598.207031 1334.496094 589.769531 1340.773438 598.476562 1348.179688 " fill-opacity="1" fill-rule="nonzero"/><path fill="#575656" d="M 571.875 1353.625 C 571.875 1353.617188 580.699219 1352.605469 580.296875 1343.816406 C 580.296875 1343.804688 571.660156 1344.636719 571.875 1353.625 " fill-opacity="1" fill-rule="nonzero"/><path fill="#575656" d="M 562.964844 1353.722656 C 562.960938 1353.714844 570.039062 1353.46875 570.527344 1346.390625 C 570.527344 1346.382812 563.621094 1346.488281 562.964844 1353.722656 " fill-opacity="1" fill-rule="nonzero"/><g clip-path="url(#af8fa47a1b)"><g clip-path="url(#96be207e3f)"><path fill="#a7a6a6" d="M 1015.027344 2401.800781 L 52.214844 2401.800781 L 52.214844 1347.007812 L 1015.027344 1347.007812 Z M 1015.027344 2401.800781 " fill-opacity="1" fill-rule="nonzero"/></g></g></svg>