<svg xmlns="http://www.w3.org/2000/svg" xmlns:xlink="http://www.w3.org/1999/xlink" width="523" zoomAndPan="magnify" viewBox="0 0 392.25 2300.250009" height="3067" preserveAspectRatio="xMidYMid meet" version="1.0"><defs><clipPath id="3c010e44d4"><path d="M 0.699219 4 L 390.703125 4 L 390.703125 2296 L 0.699219 2296 Z M 0.699219 4 " clip-rule="nonzero"/></clipPath><clipPath id="9463a6367d"><path d="M 195.789062 655.351562 L 243.699219 655.351562 L 243.699219 939 L 195.789062 939 Z M 195.789062 655.351562 " clip-rule="nonzero"/></clipPath></defs><g clip-path="url(#3c010e44d4)"><path fill="#f6eee5" d="M 19.835938 4.476562 C 9.226562 4.476562 0.664062 13.226562 0.96875 23.839844 C 5.890625 195.597656 76.183594 202.046875 76.183594 386.253906 C 76.183594 577.140625 0.699219 577.140625 0.699219 768.03125 C 0.699219 958.921875 76.183594 958.921875 76.183594 1149.808594 C 76.183594 1340.695312 0.699219 1340.695312 0.699219 1531.578125 C 0.699219 1722.460938 76.183594 1722.460938 76.183594 1913.34375 C 76.183594 2097.546875 5.890625 2103.996094 0.96875 2275.75 C 0.664062 2286.363281 9.226562 2295.113281 19.835938 2295.113281 L 371.832031 2295.113281 C 382.253906 2295.113281 390.703125 2286.660156 390.703125 2276.234375 L 390.703125 23.355469 C 390.703125 12.929688 382.253906 4.476562 371.832031 4.476562 Z M 19.835938 4.476562 " fill-opacity="1" fill-rule="nonzero"/></g><g clip-path="url(#9463a6367d)"><path fill="#f6eee5" d="M 198.140625 655.625 C 196.835938 655.625 195.785156 656.707031 195.824219 658.019531 C 196.425781 679.25 205.0625 680.050781 205.0625 702.820312 C 205.0625 726.417969 195.789062 726.417969 195.789062 750.015625 C 195.789062 773.609375 205.0625 773.609375 205.0625 797.207031 C 205.0625 820.804688 195.789062 820.804688 195.789062 844.402344 C 195.789062 867.996094 205.0625 867.996094 205.0625 891.59375 C 205.0625 914.363281 196.425781 915.160156 195.824219 936.394531 C 195.785156 937.703125 196.835938 938.785156 198.140625 938.785156 L 241.378906 938.785156 C 242.660156 938.785156 243.699219 937.742188 243.699219 936.453125 L 243.699219 657.960938 C 243.699219 656.671875 242.660156 655.625 241.378906 655.625 Z M 198.140625 655.625 " fill-opacity="1" fill-rule="nonzero"/></g></svg>