<svg xmlns="http://www.w3.org/2000/svg" xmlns:xlink="http://www.w3.org/1999/xlink" width="865" zoomAndPan="magnify" viewBox="0 0 648.75 389.999986" height="520" preserveAspectRatio="xMidYMid meet" version="1.0"><defs><g/><clipPath id="eaaff3e25d"><path d="M 0.714844 0.285156 L 648.5 0.285156 L 648.5 329.324219 L 0.714844 329.324219 Z M 0.714844 0.285156 " clip-rule="nonzero"/></clipPath><clipPath id="584c468f9c"><path d="M 38.964844 0.285156 L 610.464844 0.285156 C 620.609375 0.285156 630.335938 4.316406 637.511719 11.488281 C 644.683594 18.660156 648.714844 28.390625 648.714844 38.535156 L 648.714844 291.074219 C 648.714844 301.21875 644.683594 310.949219 637.511719 318.121094 C 630.335938 325.296875 620.609375 329.324219 610.464844 329.324219 L 38.964844 329.324219 C 28.820312 329.324219 19.089844 325.296875 11.917969 318.121094 C 4.742188 310.949219 0.714844 301.21875 0.714844 291.074219 L 0.714844 38.535156 C 0.714844 28.390625 4.742188 18.660156 11.917969 11.488281 C 19.089844 4.316406 28.820312 0.285156 38.964844 0.285156 Z M 38.964844 0.285156 " clip-rule="nonzero"/></clipPath><clipPath id="9568977db6"><path d="M 275.140625 286.933594 L 359.929688 286.933594 L 359.929688 371.71875 L 275.140625 371.71875 Z M 275.140625 286.933594 " clip-rule="nonzero"/></clipPath><clipPath id="8a449745ff"><path d="M 317.535156 286.933594 C 294.121094 286.933594 275.140625 305.914062 275.140625 329.324219 C 275.140625 352.738281 294.121094 371.71875 317.535156 371.71875 C 340.949219 371.71875 359.929688 352.738281 359.929688 329.324219 C 359.929688 305.914062 340.949219 286.933594 317.535156 286.933594 Z M 317.535156 286.933594 " clip-rule="nonzero"/></clipPath><clipPath id="6a3ca693e6"><path d="M 270.050781 286.933594 L 361.429688 286.933594 L 361.429688 378.3125 L 270.050781 378.3125 Z M 270.050781 286.933594 " clip-rule="nonzero"/></clipPath><clipPath id="04b994f495"><path d="M 315.738281 286.933594 C 290.503906 286.933594 270.050781 307.386719 270.050781 332.621094 C 270.050781 357.855469 290.503906 378.3125 315.738281 378.3125 C 340.972656 378.3125 361.429688 357.855469 361.429688 332.621094 C 361.429688 307.386719 340.972656 286.933594 315.738281 286.933594 Z M 315.738281 286.933594 " clip-rule="nonzero"/></clipPath><clipPath id="3ffb9f3cfd"><path d="M 278.003906 294.886719 L 353.472656 294.886719 L 353.472656 370.355469 L 278.003906 370.355469 Z M 278.003906 294.886719 " clip-rule="nonzero"/></clipPath><clipPath id="e5aebcfd5d"><path d="M 315.738281 294.886719 C 294.898438 294.886719 278.003906 311.78125 278.003906 332.621094 C 278.003906 353.460938 294.898438 370.355469 315.738281 370.355469 C 336.578125 370.355469 353.472656 353.460938 353.472656 332.621094 C 353.472656 311.78125 336.578125 294.886719 315.738281 294.886719 Z M 315.738281 294.886719 " clip-rule="nonzero"/></clipPath></defs><g clip-path="url(#eaaff3e25d)"><g clip-path="url(#584c468f9c)"><path fill="#ffffff" d="M 0.714844 0.285156 L 648.714844 0.285156 L 648.714844 329.324219 L 0.714844 329.324219 Z M 0.714844 0.285156 " fill-opacity="1" fill-rule="nonzero"/></g></g><g clip-path="url(#9568977db6)"><g clip-path="url(#8a449745ff)"><path fill="#d8d8d7" d="M 275.140625 286.933594 L 359.929688 286.933594 L 359.929688 371.71875 L 275.140625 371.71875 Z M 275.140625 286.933594 " fill-opacity="1" fill-rule="nonzero"/></g></g><g clip-path="url(#6a3ca693e6)"><g clip-path="url(#04b994f495)"><path fill="#d8d8d7" d="M 270.050781 286.933594 L 361.429688 286.933594 L 361.429688 378.3125 L 270.050781 378.3125 Z M 270.050781 286.933594 " fill-opacity="1" fill-rule="nonzero"/></g></g><g clip-path="url(#3ffb9f3cfd)"><g clip-path="url(#e5aebcfd5d)"><path fill="#fab400" d="M 278.003906 294.886719 L 353.472656 294.886719 L 353.472656 370.355469 L 278.003906 370.355469 Z M 278.003906 294.886719 " fill-opacity="1" fill-rule="nonzero"/></g></g><g fill="#000000" fill-opacity="1"><g transform="translate(301.127804, 353.582902)"><g><path d="M 2.890625 -14.5625 L 21.703125 -21.8125 L 2.890625 -29.15625 L 2.890625 -36.625 L 31.640625 -24.953125 L 31.640625 -18.765625 L 2.890625 -7.09375 Z M 2.890625 -14.5625 "/></g></g></g></svg>